<?xml version="1.0" encoding="UTF-8" standalone="no"?><svg xmlns="http://www.w3.org/2000/svg" xmlns:xlink="http://www.w3.org/1999/xlink" contentScriptType="application/ecmascript" contentStyleType="text/css" height="213px" preserveAspectRatio="none" style="width:1328px;height:213px;" version="1.1" viewBox="0 0 1328 213" width="1328px" zoomAndPan="magnify"><defs><filter height="300%" id="ftt17l67akmkm" width="300%" x="-1" y="-1"><feGaussianBlur result="blurOut" stdDeviation="2.0"/><feColorMatrix in="blurOut" result="blurOut2" type="matrix" values="0 0 0 0 0 0 0 0 0 0 0 0 0 0 0 0 0 0 .4 0"/><feOffset dx="4.0" dy="4.0" in="blurOut2" result="blurOut3"/><feBlend in="SourceGraphic" in2="blurOut3" mode="normal"/></filter></defs><g><!--MD5=[a7fce63651370473a0f16cf8e64e6642]
class AzureSessionCoordinator--><rect fill="#FEFECE" filter="url(#ftt17l67akmkm)" height="86.4141" id="AzureSessionCoordinator" style="stroke: #A80036; stroke-width: 1.5;" width="1311" x="6" y="116"/><ellipse cx="578.75" cy="132" fill="#ADD1B2" rx="11" ry="11" style="stroke: #A80036; stroke-width: 1.0;"/><path d="M581.7188,137.6406 Q581.1406,137.9375 580.5,138.0781 Q579.8594,138.2344 579.1563,138.2344 Q576.6563,138.2344 575.3281,136.5938 Q574.0156,134.9375 574.0156,131.8125 Q574.0156,128.6875 575.3281,127.0313 Q576.6563,125.375 579.1563,125.375 Q579.8594,125.375 580.5,125.5313 Q581.1563,125.6875 581.7188,125.9844 L581.7188,128.7031 Q581.0938,128.125 580.5,127.8594 Q579.9063,127.5781 579.2813,127.5781 Q577.9375,127.5781 577.25,128.6563 Q576.5625,129.7188 576.5625,131.8125 Q576.5625,133.9063 577.25,134.9844 Q577.9375,136.0469 579.2813,136.0469 Q579.9063,136.0469 580.5,135.7813 Q581.0938,135.5 581.7188,134.9219 L581.7188,137.6406 Z "/><text fill="#000000" font-family="sans-serif" font-size="12" lengthAdjust="spacingAndGlyphs" textLength="157" x="599.25" y="136.1543">AzureSessionCoordinator</text><line style="stroke: #A80036; stroke-width: 1.5;" x1="7" x2="1316" y1="148" y2="148"/><ellipse cx="17" cy="159" fill="none" rx="3" ry="3" style="stroke: #038048; stroke-width: 1.0;"/><text fill="#000000" font-family="sans-serif" font-size="11" lengthAdjust="spacingAndGlyphs" textLength="133" x="26" y="162.2104">isStarted : bool = false</text><line style="stroke: #A80036; stroke-width: 1.5;" x1="7" x2="1316" y1="168.8047" y2="168.8047"/><ellipse cx="17" cy="179.8047" fill="#84BE84" rx="3" ry="3" style="stroke: #038048; stroke-width: 1.0;"/><text fill="#000000" font-family="sans-serif" font-size="11" lengthAdjust="spacingAndGlyphs" textLength="1285" x="26" y="183.0151">Construct(anchorsRepository:IAnchorsRepository, anchorLocator:IAnchorLocator, objectsCreator:IObjectsCreator, startAzureSession:IStartAzureSession, saveAnchor:IAnchorCreator, gameObjectEditor:IGameObjectEditor) : void</text><ellipse cx="17" cy="192.6094" fill="#84BE84" rx="3" ry="3" style="stroke: #038048; stroke-width: 1.0;"/><text fill="#000000" font-family="sans-serif" font-size="11" lengthAdjust="spacingAndGlyphs" textLength="71" x="26" y="195.8198">Start() : void</text><!--MD5=[83b3cf3d23d77c6f1e1b5291a241bc2a]
class MonoBehaviour--><rect fill="#FEFECE" filter="url(#ftt17l67akmkm)" height="48" id="MonoBehaviour" style="stroke: #A80036; stroke-width: 1.5;" width="128" x="597.5" y="8"/><ellipse cx="612.5" cy="24" fill="#ADD1B2" rx="11" ry="11" style="stroke: #A80036; stroke-width: 1.0;"/><path d="M615.4688,29.6406 Q614.8906,29.9375 614.25,30.0781 Q613.6094,30.2344 612.9063,30.2344 Q610.4063,30.2344 609.0781,28.5938 Q607.7656,26.9375 607.7656,23.8125 Q607.7656,20.6875 609.0781,19.0313 Q610.4063,17.375 612.9063,17.375 Q613.6094,17.375 614.25,17.5313 Q614.9063,17.6875 615.4688,17.9844 L615.4688,20.7031 Q614.8438,20.125 614.25,19.8594 Q613.6563,19.5781 613.0313,19.5781 Q611.6875,19.5781 611,20.6563 Q610.3125,21.7188 610.3125,23.8125 Q610.3125,25.9063 611,26.9844 Q611.6875,28.0469 613.0313,28.0469 Q613.6563,28.0469 614.25,27.7813 Q614.8438,27.5 615.4688,26.9219 L615.4688,29.6406 Z "/><text fill="#000000" font-family="sans-serif" font-size="12" lengthAdjust="spacingAndGlyphs" textLength="96" x="626.5" y="28.1543">MonoBehaviour</text><line style="stroke: #A80036; stroke-width: 1.5;" x1="598.5" x2="724.5" y1="40" y2="40"/><line style="stroke: #A80036; stroke-width: 1.5;" x1="598.5" x2="724.5" y1="48" y2="48"/><!--MD5=[c811324e51799f8c87e183d7cd4d0889]
reverse link MonoBehaviour to AzureSessionCoordinator--><path d="M661.5,76.27 C661.5,89.12 661.5,103.17 661.5,115.94 " fill="none" id="MonoBehaviour&lt;-AzureSessionCoordinator" style="stroke: #A80036; stroke-width: 1.0;"/><polygon fill="none" points="654.5,76.22,661.5,56.22,668.5,76.22,654.5,76.22" style="stroke: #A80036; stroke-width: 1.0;"/><!--MD5=[ecfc3042fb28ef7bf086c798e3d8df20]
@startuml
class AzureSessionCoordinator {
    + isStarted : bool = false
    + Construct(anchorsRepository:IAnchorsRepository, anchorLocator:IAnchorLocator, objectsCreator:IObjectsCreator, startAzureSession:IStartAzureSession, saveAnchor:IAnchorCreator, gameObjectEditor:IGameObjectEditor) : void
    + Start() : void
}
MonoBehaviour <|- - AzureSessionCoordinator
@enduml

PlantUML version 1.2020.02(Sun Mar 01 10:22:07 GMT 2020)
(GPL source distribution)
Java Runtime: OpenJDK Runtime Environment
JVM: OpenJDK 64-Bit Server VM
Java Version: 11.0.9+11-Ubuntu-0ubuntu1
Operating System: Linux
Default Encoding: ANSI_X3.4-1968
Language: en
Country: US
--></g></svg>