<?xml version="1.0" encoding="UTF-8" standalone="no"?><svg xmlns="http://www.w3.org/2000/svg" xmlns:xlink="http://www.w3.org/1999/xlink" contentScriptType="application/ecmascript" contentStyleType="text/css" height="335px" preserveAspectRatio="none" style="width:576px;height:335px;" version="1.1" viewBox="0 0 576 335" width="576px" zoomAndPan="magnify"><defs><filter height="300%" id="f6hox49mx912e" width="300%" x="-1" y="-1"><feGaussianBlur result="blurOut" stdDeviation="2.0"/><feColorMatrix in="blurOut" result="blurOut2" type="matrix" values="0 0 0 0 0 0 0 0 0 0 0 0 0 0 0 0 0 0 .4 0"/><feOffset dx="4.0" dy="4.0" in="blurOut2" result="blurOut3"/><feBlend in="SourceGraphic" in2="blurOut3" mode="normal"/></filter></defs><g><!--MD5=[a015c76e0c82787a00598335b2c1d21e]
class IBoundsControlVisibilityEditor--><rect fill="#FEFECE" filter="url(#f6hox49mx912e)" height="73.6094" id="IBoundsControlVisibilityEditor" style="stroke: #A80036; stroke-width: 1.5;" width="240" x="6" y="8"/><ellipse cx="33.15" cy="24" fill="#B4A7E5" rx="11" ry="11" style="stroke: #A80036; stroke-width: 1.0;"/><path d="M29.0719,19.7656 L29.0719,17.6094 L36.4625,17.6094 L36.4625,19.7656 L33.9938,19.7656 L33.9938,27.8438 L36.4625,27.8438 L36.4625,30 L29.0719,30 L29.0719,27.8438 L31.5406,27.8438 L31.5406,19.7656 L29.0719,19.7656 Z "/><text fill="#000000" font-family="sans-serif" font-size="12" font-style="italic" lengthAdjust="spacingAndGlyphs" textLength="181" x="49.85" y="28.1543">IBoundsControlVisibilityEditor</text><line style="stroke: #A80036; stroke-width: 1.5;" x1="7" x2="245" y1="40" y2="40"/><line style="stroke: #A80036; stroke-width: 1.5;" x1="7" x2="245" y1="48" y2="48"/><ellipse cx="17" cy="59" fill="#84BE84" rx="3" ry="3" style="stroke: #038048; stroke-width: 1.0;"/><text fill="#000000" font-family="sans-serif" font-size="11" font-style="italic" lengthAdjust="spacingAndGlyphs" textLength="212" x="26" y="62.2104">enableBoundsControlVisibility() : void</text><ellipse cx="17" cy="71.8047" fill="#84BE84" rx="3" ry="3" style="stroke: #038048; stroke-width: 1.0;"/><text fill="#000000" font-family="sans-serif" font-size="11" font-style="italic" lengthAdjust="spacingAndGlyphs" textLength="214" x="26" y="75.0151">disableBoundsControlVisibility() : void</text><!--MD5=[02aa7f2462b66d2956cb60dd70e1bdd0]
class IBoundsControlVisibilityProvider--><rect fill="#FEFECE" filter="url(#f6hox49mx912e)" height="48" id="IBoundsControlVisibilityProvider" style="stroke: #A80036; stroke-width: 1.5;" width="226" x="281" y="21"/><ellipse cx="296" cy="37" fill="#B4A7E5" rx="11" ry="11" style="stroke: #A80036; stroke-width: 1.0;"/><path d="M291.9219,32.7656 L291.9219,30.6094 L299.3125,30.6094 L299.3125,32.7656 L296.8438,32.7656 L296.8438,40.8438 L299.3125,40.8438 L299.3125,43 L291.9219,43 L291.9219,40.8438 L294.3906,40.8438 L294.3906,32.7656 L291.9219,32.7656 Z "/><text fill="#000000" font-family="sans-serif" font-size="12" font-style="italic" lengthAdjust="spacingAndGlyphs" textLength="194" x="310" y="41.1543">IBoundsControlVisibilityProvider</text><line style="stroke: #A80036; stroke-width: 1.5;" x1="282" x2="506" y1="53" y2="53"/><line style="stroke: #A80036; stroke-width: 1.5;" x1="282" x2="506" y1="61" y2="61"/><!--MD5=[bf1f96479c21dd4dbe37f77bb013a7ab]
class BoundsControlVisibilityRepository--><rect fill="#FEFECE" filter="url(#f6hox49mx912e)" height="73.6094" id="BoundsControlVisibilityRepository" style="stroke: #A80036; stroke-width: 1.5;" width="240" x="101" y="142"/><ellipse cx="116.45" cy="158" fill="#ADD1B2" rx="11" ry="11" style="stroke: #A80036; stroke-width: 1.0;"/><path d="M119.4188,163.6406 Q118.8406,163.9375 118.2,164.0781 Q117.5594,164.2344 116.8563,164.2344 Q114.3563,164.2344 113.0281,162.5938 Q111.7156,160.9375 111.7156,157.8125 Q111.7156,154.6875 113.0281,153.0313 Q114.3563,151.375 116.8563,151.375 Q117.5594,151.375 118.2,151.5313 Q118.8563,151.6875 119.4188,151.9844 L119.4188,154.7031 Q118.7938,154.125 118.2,153.8594 Q117.6063,153.5781 116.9813,153.5781 Q115.6375,153.5781 114.95,154.6563 Q114.2625,155.7188 114.2625,157.8125 Q114.2625,159.9063 114.95,160.9844 Q115.6375,162.0469 116.9813,162.0469 Q117.6063,162.0469 118.2,161.7813 Q118.7938,161.5 119.4188,160.9219 L119.4188,163.6406 Z "/><text fill="#000000" font-family="sans-serif" font-size="12" lengthAdjust="spacingAndGlyphs" textLength="207" x="130.55" y="162.1543">BoundsControlVisibilityRepository</text><line style="stroke: #A80036; stroke-width: 1.5;" x1="102" x2="340" y1="174" y2="174"/><line style="stroke: #A80036; stroke-width: 1.5;" x1="102" x2="340" y1="182" y2="182"/><ellipse cx="112" cy="193" fill="#84BE84" rx="3" ry="3" style="stroke: #038048; stroke-width: 1.0;"/><text fill="#000000" font-family="sans-serif" font-size="11" lengthAdjust="spacingAndGlyphs" textLength="211" x="121" y="196.2104">enableBoundsControlVisibility() : void</text><ellipse cx="112" cy="205.8047" fill="#84BE84" rx="3" ry="3" style="stroke: #038048; stroke-width: 1.0;"/><text fill="#000000" font-family="sans-serif" font-size="11" lengthAdjust="spacingAndGlyphs" textLength="214" x="121" y="209.0151">disableBoundsControlVisibility() : void</text><!--MD5=[6037395b81641dc9f341bda23115c5fd]
class IReadOnlyReactiveProperty`1--><rect fill="#FEFECE" filter="url(#f6hox49mx912e)" height="48" id="IReadOnlyReactiveProperty`1" style="stroke: #A80036; stroke-width: 1.5;" width="224" x="195" y="276"/><ellipse cx="210" cy="292" fill="#ADD1B2" rx="11" ry="11" style="stroke: #A80036; stroke-width: 1.0;"/><path d="M212.9688,297.6406 Q212.3906,297.9375 211.75,298.0781 Q211.1094,298.2344 210.4063,298.2344 Q207.9063,298.2344 206.5781,296.5938 Q205.2656,294.9375 205.2656,291.8125 Q205.2656,288.6875 206.5781,287.0313 Q207.9063,285.375 210.4063,285.375 Q211.1094,285.375 211.75,285.5313 Q212.4063,285.6875 212.9688,285.9844 L212.9688,288.7031 Q212.3438,288.125 211.75,287.8594 Q211.1563,287.5781 210.5313,287.5781 Q209.1875,287.5781 208.5,288.6563 Q207.8125,289.7188 207.8125,291.8125 Q207.8125,293.9063 208.5,294.9844 Q209.1875,296.0469 210.5313,296.0469 Q211.1563,296.0469 211.75,295.7813 Q212.3438,295.5 212.9688,294.9219 L212.9688,297.6406 Z "/><text fill="#000000" font-family="sans-serif" font-size="12" lengthAdjust="spacingAndGlyphs" textLength="181" x="224" y="296.1543">IReadOnlyReactiveProperty`1</text><rect fill="#FFFFFF" height="15.9688" style="stroke: #000000; stroke-width: 1.0; stroke-dasharray: 2.0,2.0;" width="9" x="413" y="273"/><text fill="#000000" font-family="sans-serif" font-size="12" font-style="italic" lengthAdjust="spacingAndGlyphs" textLength="7" x="414" y="285.1387">T</text><line style="stroke: #A80036; stroke-width: 1.5;" x1="196" x2="418" y1="308" y2="308"/><line style="stroke: #A80036; stroke-width: 1.5;" x1="196" x2="418" y1="316" y2="316"/><!--MD5=[cd92bb25e0f4c92eae35808ff19fdba5]
link IBoundsControlVisibilityProvider to IReadOnlyReactiveProperty`1--><path d="M391.88,69.02 C388.24,102.42 379.13,165.8 359,216 C351.07,235.76 338.46,256.05 327.64,271.62 " fill="none" id="IBoundsControlVisibilityProvider-&gt;IReadOnlyReactiveProperty`1" style="stroke: #A80036; stroke-width: 1.0;"/><polygon fill="#A80036" points="324.64,275.89,333.0876,270.8266,327.515,271.7992,326.5424,266.2266,324.64,275.89" style="stroke: #A80036; stroke-width: 1.0;"/><text fill="#000000" font-family="sans-serif" font-size="13" lengthAdjust="spacingAndGlyphs" textLength="209" x="355.9384" y="264.8738">isBoundsVisibilityEnabled&lt;bool&gt;</text><!--MD5=[6e0293d151af490915b4c91ed735312d]
reverse link IBoundsControlVisibilityEditor to BoundsControlVisibilityRepository--><path d="M163.83,98.56 C174.31,113.12 185.44,128.59 195.07,141.97 " fill="none" id="IBoundsControlVisibilityEditor&lt;-BoundsControlVisibilityRepository" style="stroke: #A80036; stroke-width: 1.0;"/><polygon fill="none" points="157.96,102.39,151.96,82.07,169.32,94.21,157.96,102.39" style="stroke: #A80036; stroke-width: 1.0;"/><!--MD5=[64c015413bb3a338f62ae603f101311c]
reverse link IBoundsControlVisibilityProvider to BoundsControlVisibilityRepository--><path d="M347.54,81.45 C323.08,100.12 293.13,122.97 268.51,141.75 " fill="none" id="IBoundsControlVisibilityProvider&lt;-BoundsControlVisibilityRepository" style="stroke: #A80036; stroke-width: 1.0;"/><polygon fill="none" points="343.32,75.86,363.47,69.3,351.82,86.99,343.32,75.86" style="stroke: #A80036; stroke-width: 1.0;"/><!--MD5=[9316bc4900a4dad6ae47f794b0088608]
link BoundsControlVisibilityRepository to IReadOnlyReactiveProperty`1--><path d="M247.04,216.03 C259.98,233.94 275.37,255.23 287.31,271.76 " fill="none" id="BoundsControlVisibilityRepository-&gt;IReadOnlyReactiveProperty`1" style="stroke: #A80036; stroke-width: 1.0;"/><polygon fill="#A80036" points="290.27,275.85,288.2458,266.2114,287.3436,271.7959,281.7591,270.8937,290.27,275.85" style="stroke: #A80036; stroke-width: 1.0;"/><text fill="#000000" font-family="sans-serif" font-size="13" lengthAdjust="spacingAndGlyphs" textLength="209" x="50.2048" y="264.8236">isBoundsVisibilityEnabled&lt;bool&gt;</text><!--MD5=[22dab0298468e05eab3e8300efa8ae34]
@startuml
interface IBoundsControlVisibilityEditor {
    + {abstract} enableBoundsControlVisibility() : void
    + {abstract} disableBoundsControlVisibility() : void
}
interface IBoundsControlVisibilityProvider {
}
class BoundsControlVisibilityRepository {
    + enableBoundsControlVisibility() : void
    + disableBoundsControlVisibility() : void
}
class "IReadOnlyReactiveProperty`1"<T> {
}
IBoundsControlVisibilityProvider - -> "isBoundsVisibilityEnabled<bool>" "IReadOnlyReactiveProperty`1"
IBoundsControlVisibilityEditor <|- - BoundsControlVisibilityRepository
IBoundsControlVisibilityProvider <|- - BoundsControlVisibilityRepository
BoundsControlVisibilityRepository - -> "isBoundsVisibilityEnabled<bool>" "IReadOnlyReactiveProperty`1"
@enduml

PlantUML version 1.2020.02(Sun Mar 01 10:22:07 GMT 2020)
(GPL source distribution)
Java Runtime: OpenJDK Runtime Environment
JVM: OpenJDK 64-Bit Server VM
Java Version: 11.0.9+11-Ubuntu-0ubuntu1
Operating System: Linux
Default Encoding: ANSI_X3.4-1968
Language: en
Country: US
--></g></svg>