<?xml version="1.0" encoding="UTF-8" standalone="no"?><svg xmlns="http://www.w3.org/2000/svg" xmlns:xlink="http://www.w3.org/1999/xlink" contentScriptType="application/ecmascript" contentStyleType="text/css" height="366px" preserveAspectRatio="none" style="width:719px;height:366px;" version="1.1" viewBox="0 0 719 366" width="719px" zoomAndPan="magnify"><defs><filter height="300%" id="f17ju8mnh6o241" width="300%" x="-1" y="-1"><feGaussianBlur result="blurOut" stdDeviation="2.0"/><feColorMatrix in="blurOut" result="blurOut2" type="matrix" values="0 0 0 0 0 0 0 0 0 0 0 0 0 0 0 0 0 0 .4 0"/><feOffset dx="4.0" dy="4.0" in="blurOut2" result="blurOut3"/><feBlend in="SourceGraphic" in2="blurOut3" mode="normal"/></filter></defs><g><!--MD5=[1555edd073c62adcbd44d1e9631d242f]
class IMachineInfoRepository--><rect fill="#FEFECE" filter="url(#f17ju8mnh6o241)" height="60.8047" id="IMachineInfoRepository" style="stroke: #A80036; stroke-width: 1.5;" width="421" x="257" y="8"/><ellipse cx="390.25" cy="24" fill="#B4A7E5" rx="11" ry="11" style="stroke: #A80036; stroke-width: 1.0;"/><path d="M386.1719,19.7656 L386.1719,17.6094 L393.5625,17.6094 L393.5625,19.7656 L391.0938,19.7656 L391.0938,27.8438 L393.5625,27.8438 L393.5625,30 L386.1719,30 L386.1719,27.8438 L388.6406,27.8438 L388.6406,19.7656 L386.1719,19.7656 Z "/><text fill="#000000" font-family="sans-serif" font-size="12" font-style="italic" lengthAdjust="spacingAndGlyphs" textLength="146" x="410.75" y="28.1543">IMachineInfoRepository</text><line style="stroke: #A80036; stroke-width: 1.5;" x1="258" x2="677" y1="40" y2="40"/><line style="stroke: #A80036; stroke-width: 1.5;" x1="258" x2="677" y1="48" y2="48"/><ellipse cx="268" cy="59" fill="#84BE84" rx="3" ry="3" style="stroke: #038048; stroke-width: 1.0;"/><text fill="#000000" font-family="sans-serif" font-size="11" lengthAdjust="spacingAndGlyphs" textLength="395" x="277" y="62.2104">getMachineInfo(index:int) : IReadOnlyReactiveProperty&lt;MachineInfo?&gt;</text><!--MD5=[51b6c8edc4b58ec8ecab398c46344085]
class MachineInfoRepository--><rect fill="#FEFECE" filter="url(#f17ju8mnh6o241)" height="73.6094" id="MachineInfoRepository" style="stroke: #A80036; stroke-width: 1.5;" width="555" x="6" y="151"/><ellipse cx="208.75" cy="167" fill="#ADD1B2" rx="11" ry="11" style="stroke: #A80036; stroke-width: 1.0;"/><path d="M211.7188,172.6406 Q211.1406,172.9375 210.5,173.0781 Q209.8594,173.2344 209.1563,173.2344 Q206.6563,173.2344 205.3281,171.5938 Q204.0156,169.9375 204.0156,166.8125 Q204.0156,163.6875 205.3281,162.0313 Q206.6563,160.375 209.1563,160.375 Q209.8594,160.375 210.5,160.5313 Q211.1563,160.6875 211.7188,160.9844 L211.7188,163.7031 Q211.0938,163.125 210.5,162.8594 Q209.9063,162.5781 209.2813,162.5781 Q207.9375,162.5781 207.25,163.6563 Q206.5625,164.7188 206.5625,166.8125 Q206.5625,168.9063 207.25,169.9844 Q207.9375,171.0469 209.2813,171.0469 Q209.9063,171.0469 210.5,170.7813 Q211.0938,170.5 211.7188,169.9219 L211.7188,172.6406 Z "/><text fill="#000000" font-family="sans-serif" font-size="12" lengthAdjust="spacingAndGlyphs" textLength="141" x="229.25" y="171.1543">MachineInfoRepository</text><line style="stroke: #A80036; stroke-width: 1.5;" x1="7" x2="560" y1="183" y2="183"/><line style="stroke: #A80036; stroke-width: 1.5;" x1="7" x2="560" y1="191" y2="191"/><ellipse cx="17" cy="202" fill="#84BE84" rx="3" ry="3" style="stroke: #038048; stroke-width: 1.0;"/><text fill="#000000" font-family="sans-serif" font-size="11" lengthAdjust="spacingAndGlyphs" textLength="135" x="26" y="205.2104">MachineInfoRepository()</text><ellipse cx="17" cy="214.8047" fill="#84BE84" rx="3" ry="3" style="stroke: #038048; stroke-width: 1.0;"/><text fill="#000000" font-family="sans-serif" font-size="11" lengthAdjust="spacingAndGlyphs" textLength="529" x="26" y="218.0151">getMachineInfo(index:int) : IReadOnlyReactiveProperty&lt;IMachineInfoRepository.MachineInfo?&gt;</text><!--MD5=[6b777989b3abc98b15dc06d313c409d2]
class MachineInfo--><rect fill="#FEFECE" filter="url(#f17ju8mnh6o241)" height="117.9609" id="MachineInfo" style="stroke: #A80036; stroke-width: 1.5;" width="112" x="596.5" y="129"/><ellipse cx="613.75" cy="147.9688" fill="#ADD1B2" rx="11" ry="11" style="stroke: #A80036; stroke-width: 1.0;"/><path d="M616.7188,153.6094 Q616.1406,153.9063 615.5,154.0469 Q614.8594,154.2031 614.1563,154.2031 Q611.6563,154.2031 610.3281,152.5625 Q609.0156,150.9063 609.0156,147.7813 Q609.0156,144.6563 610.3281,143 Q611.6563,141.3438 614.1563,141.3438 Q614.8594,141.3438 615.5,141.5 Q616.1563,141.6563 616.7188,141.9531 L616.7188,144.6719 Q616.0938,144.0938 615.5,143.8281 Q614.9063,143.5469 614.2813,143.5469 Q612.9375,143.5469 612.25,144.625 Q611.5625,145.6875 611.5625,147.7813 Q611.5625,149.875 612.25,150.9531 Q612.9375,152.0156 614.2813,152.0156 Q614.9063,152.0156 615.5,151.75 Q616.0938,151.4688 616.7188,150.8906 L616.7188,153.6094 Z "/><text fill="#000000" font-family="sans-serif" font-size="12" font-style="italic" lengthAdjust="spacingAndGlyphs" textLength="50" x="640.75" y="145.1387">«struct»</text><text fill="#000000" font-family="sans-serif" font-size="12" lengthAdjust="spacingAndGlyphs" textLength="75" x="628.25" y="159.1074">MachineInfo</text><line style="stroke: #A80036; stroke-width: 1.5;" x1="597.5" x2="707.5" y1="166.9375" y2="166.9375"/><ellipse cx="607.5" cy="177.9375" fill="none" rx="3" ry="3" style="stroke: #038048; stroke-width: 1.0;"/><text fill="#000000" font-family="sans-serif" font-size="11" lengthAdjust="spacingAndGlyphs" textLength="56" x="616.5" y="181.1479">hallId : int</text><ellipse cx="607.5" cy="190.7422" fill="none" rx="3" ry="3" style="stroke: #038048; stroke-width: 1.0;"/><text fill="#000000" font-family="sans-serif" font-size="11" lengthAdjust="spacingAndGlyphs" textLength="77" x="616.5" y="193.9526">name : string</text><ellipse cx="607.5" cy="203.5469" fill="none" rx="3" ry="3" style="stroke: #038048; stroke-width: 1.0;"/><text fill="#000000" font-family="sans-serif" font-size="11" lengthAdjust="spacingAndGlyphs" textLength="79" x="616.5" y="206.7573">efficiency : int</text><ellipse cx="607.5" cy="216.3516" fill="none" rx="3" ry="3" style="stroke: #038048; stroke-width: 1.0;"/><text fill="#000000" font-family="sans-serif" font-size="11" lengthAdjust="spacingAndGlyphs" textLength="81" x="616.5" y="219.562">status : string</text><ellipse cx="607.5" cy="229.1563" fill="none" rx="3" ry="3" style="stroke: #038048; stroke-width: 1.0;"/><text fill="#000000" font-family="sans-serif" font-size="11" lengthAdjust="spacingAndGlyphs" textLength="86" x="616.5" y="232.3667">symbol : string</text><line style="stroke: #A80036; stroke-width: 1.5;" x1="597.5" x2="707.5" y1="238.9609" y2="238.9609"/><!--MD5=[20ddef7090025b04fb973268620c0974]
class DateTime--><rect fill="#FEFECE" filter="url(#f17ju8mnh6o241)" height="48" id="DateTime" style="stroke: #A80036; stroke-width: 1.5;" width="91" x="607" y="307"/><ellipse cx="622" cy="323" fill="#ADD1B2" rx="11" ry="11" style="stroke: #A80036; stroke-width: 1.0;"/><path d="M624.9688,328.6406 Q624.3906,328.9375 623.75,329.0781 Q623.1094,329.2344 622.4063,329.2344 Q619.9063,329.2344 618.5781,327.5938 Q617.2656,325.9375 617.2656,322.8125 Q617.2656,319.6875 618.5781,318.0313 Q619.9063,316.375 622.4063,316.375 Q623.1094,316.375 623.75,316.5313 Q624.4063,316.6875 624.9688,316.9844 L624.9688,319.7031 Q624.3438,319.125 623.75,318.8594 Q623.1563,318.5781 622.5313,318.5781 Q621.1875,318.5781 620.5,319.6563 Q619.8125,320.7188 619.8125,322.8125 Q619.8125,324.9063 620.5,325.9844 Q621.1875,327.0469 622.5313,327.0469 Q623.1563,327.0469 623.75,326.7813 Q624.3438,326.5 624.9688,325.9219 L624.9688,328.6406 Z "/><text fill="#000000" font-family="sans-serif" font-size="12" lengthAdjust="spacingAndGlyphs" textLength="59" x="636" y="327.1543">DateTime</text><line style="stroke: #A80036; stroke-width: 1.5;" x1="608" x2="697" y1="339" y2="339"/><line style="stroke: #A80036; stroke-width: 1.5;" x1="608" x2="697" y1="347" y2="347"/><!--MD5=[c908108dcf8fea284805666c2c9bb202]
reverse link IMachineInfoRepository to MachineInfoRepository--><path d="M414.56,81.94 C387.32,103.77 354.48,130.1 328.48,150.94 " fill="none" id="IMachineInfoRepository&lt;-MachineInfoRepository" style="stroke: #A80036; stroke-width: 1.0;"/><polygon fill="none" points="410.28,76.4,430.26,69.35,419.04,87.32,410.28,76.4" style="stroke: #A80036; stroke-width: 1.0;"/><!--MD5=[f739f3506e3d3d4e6f3c489b46e697eb]
reverse link IMachineInfoRepository to MachineInfo--><path d="M516.83,78.83 C541.24,98.3 570.84,121.89 596.15,142.07 " fill="none" id="IMachineInfoRepository&lt;-MachineInfo" style="stroke: #A80036; stroke-width: 1.0;"/><ellipse cx="511.1936" cy="74.3392" fill="#FFFFFF" rx="8" ry="8" style="stroke: #A80036; stroke-width: 1.0;"/><line style="stroke: #A80036; stroke-width: 1.0;" x1="517.4473" x2="504.94" y1="79.3284" y2="69.35"/><line style="stroke: #A80036; stroke-width: 1.0;" x1="506.2044" x2="516.1828" y1="80.5928" y2="68.0856"/><!--MD5=[cd9c8d1d5e537f028bdc12f84bf24cbf]
link MachineInfo to DateTime--><path d="M652.5,247.16 C652.5,265.97 652.5,286 652.5,301.64 " fill="none" id="MachineInfo-&gt;DateTime" style="stroke: #A80036; stroke-width: 1.0;"/><polygon fill="#A80036" points="652.5,306.77,656.5,297.77,652.5,301.77,648.5,297.77,652.5,306.77" style="stroke: #A80036; stroke-width: 1.0;"/><text fill="#000000" font-family="sans-serif" font-size="13" lengthAdjust="spacingAndGlyphs" textLength="167" x="465.1469" y="296.1189">technicalExaminationDate</text><!--MD5=[43c3a8bf170e584bd8ea8f1e635d5adf]
@startuml
interface IMachineInfoRepository {
    + getMachineInfo(index:int) : IReadOnlyReactiveProperty<MachineInfo?>
}
class MachineInfoRepository {
    + MachineInfoRepository()
    + getMachineInfo(index:int) : IReadOnlyReactiveProperty<IMachineInfoRepository.MachineInfo?>
}
class MachineInfo <<struct>> {
    + hallId : int
    + name : string
    + efficiency : int
    + status : string
    + symbol : string
}
IMachineInfoRepository <|- - MachineInfoRepository
IMachineInfoRepository +- - MachineInfo
MachineInfo - -> "technicalExaminationDate" DateTime
@enduml

PlantUML version 1.2020.02(Sun Mar 01 10:22:07 GMT 2020)
(GPL source distribution)
Java Runtime: OpenJDK Runtime Environment
JVM: OpenJDK 64-Bit Server VM
Java Version: 11.0.9+11-Ubuntu-0ubuntu1
Operating System: Linux
Default Encoding: ANSI_X3.4-1968
Language: en
Country: US
--></g></svg>