<?xml version="1.0" encoding="UTF-8" standalone="no"?><svg xmlns="http://www.w3.org/2000/svg" xmlns:xlink="http://www.w3.org/1999/xlink" contentScriptType="application/ecmascript" contentStyleType="text/css" height="239px" preserveAspectRatio="none" style="width:672px;height:239px;" version="1.1" viewBox="0 0 672 239" width="672px" zoomAndPan="magnify"><defs><filter height="300%" id="f1nv6sep63j85b" width="300%" x="-1" y="-1"><feGaussianBlur result="blurOut" stdDeviation="2.0"/><feColorMatrix in="blurOut" result="blurOut2" type="matrix" values="0 0 0 0 0 0 0 0 0 0 0 0 0 0 0 0 0 0 .4 0"/><feOffset dx="4.0" dy="4.0" in="blurOut2" result="blurOut3"/><feBlend in="SourceGraphic" in2="blurOut3" mode="normal"/></filter></defs><g><!--MD5=[7bfc2948e3d899ce89a403be6ee45268]
class IObjectsCreator--><rect fill="#FEFECE" filter="url(#f1nv6sep63j85b)" height="73.6094" id="IObjectsCreator" style="stroke: #A80036; stroke-width: 1.5;" width="362" x="12.5" y="8"/><ellipse cx="141.25" cy="24" fill="#B4A7E5" rx="11" ry="11" style="stroke: #A80036; stroke-width: 1.0;"/><path d="M137.1719,19.7656 L137.1719,17.6094 L144.5625,17.6094 L144.5625,19.7656 L142.0938,19.7656 L142.0938,27.8438 L144.5625,27.8438 L144.5625,30 L137.1719,30 L137.1719,27.8438 L139.6406,27.8438 L139.6406,19.7656 L137.1719,19.7656 Z "/><text fill="#000000" font-family="sans-serif" font-size="12" font-style="italic" lengthAdjust="spacingAndGlyphs" textLength="96" x="161.75" y="28.1543">IObjectsCreator</text><line style="stroke: #A80036; stroke-width: 1.5;" x1="13.5" x2="373.5" y1="40" y2="40"/><line style="stroke: #A80036; stroke-width: 1.5;" x1="13.5" x2="373.5" y1="48" y2="48"/><ellipse cx="23.5" cy="59" fill="#84BE84" rx="3" ry="3" style="stroke: #038048; stroke-width: 1.0;"/><text fill="#000000" font-family="sans-serif" font-size="11" font-style="italic" lengthAdjust="spacingAndGlyphs" textLength="247" x="32.5" y="62.2104">createNewMachine(machineIndex:int) : void</text><ellipse cx="23.5" cy="71.8047" fill="#84BE84" rx="3" ry="3" style="stroke: #038048; stroke-width: 1.0;"/><text fill="#000000" font-family="sans-serif" font-size="11" font-style="italic" lengthAdjust="spacingAndGlyphs" textLength="336" x="32.5" y="75.0151">createNewMachineWithGO(machineIndex:int) : GameObject</text><!--MD5=[2637506e31a2bd827573dd50f9f6829a]
class ObjectsCreatorImpl--><rect fill="#FEFECE" filter="url(#f1nv6sep63j85b)" height="86.4141" id="ObjectsCreatorImpl" style="stroke: #A80036; stroke-width: 1.5;" width="655" x="6" y="142"/><ellipse cx="269.75" cy="158" fill="#ADD1B2" rx="11" ry="11" style="stroke: #A80036; stroke-width: 1.0;"/><path d="M272.7188,163.6406 Q272.1406,163.9375 271.5,164.0781 Q270.8594,164.2344 270.1563,164.2344 Q267.6563,164.2344 266.3281,162.5938 Q265.0156,160.9375 265.0156,157.8125 Q265.0156,154.6875 266.3281,153.0313 Q267.6563,151.375 270.1563,151.375 Q270.8594,151.375 271.5,151.5313 Q272.1563,151.6875 272.7188,151.9844 L272.7188,154.7031 Q272.0938,154.125 271.5,153.8594 Q270.9063,153.5781 270.2813,153.5781 Q268.9375,153.5781 268.25,154.6563 Q267.5625,155.7188 267.5625,157.8125 Q267.5625,159.9063 268.25,160.9844 Q268.9375,162.0469 270.2813,162.0469 Q270.9063,162.0469 271.5,161.7813 Q272.0938,161.5 272.7188,160.9219 L272.7188,163.6406 Z "/><text fill="#000000" font-family="sans-serif" font-size="12" lengthAdjust="spacingAndGlyphs" textLength="119" x="290.25" y="162.1543">ObjectsCreatorImpl</text><line style="stroke: #A80036; stroke-width: 1.5;" x1="7" x2="660" y1="174" y2="174"/><line style="stroke: #A80036; stroke-width: 1.5;" x1="7" x2="660" y1="182" y2="182"/><ellipse cx="17" cy="193" fill="#84BE84" rx="3" ry="3" style="stroke: #038048; stroke-width: 1.0;"/><text fill="#000000" font-family="sans-serif" font-size="11" lengthAdjust="spacingAndGlyphs" textLength="629" x="26" y="196.2104">Construct(machineViewFactory:MachineView.Factory, anchorPresenterFactory:MachinePresenter.Factory) : void</text><ellipse cx="17" cy="205.8047" fill="#84BE84" rx="3" ry="3" style="stroke: #038048; stroke-width: 1.0;"/><text fill="#000000" font-family="sans-serif" font-size="11" lengthAdjust="spacingAndGlyphs" textLength="245" x="26" y="209.0151">createNewMachine(machineIndex:int) : void</text><ellipse cx="17" cy="218.6094" fill="#84BE84" rx="3" ry="3" style="stroke: #038048; stroke-width: 1.0;"/><text fill="#000000" font-family="sans-serif" font-size="11" lengthAdjust="spacingAndGlyphs" textLength="333" x="26" y="221.8198">createNewMachineWithGO(machineIndex:int) : GameObject</text><!--MD5=[83b3cf3d23d77c6f1e1b5291a241bc2a]
class MonoBehaviour--><rect fill="#FEFECE" filter="url(#f1nv6sep63j85b)" height="48" id="MonoBehaviour" style="stroke: #A80036; stroke-width: 1.5;" width="128" x="409.5" y="21"/><ellipse cx="424.5" cy="37" fill="#ADD1B2" rx="11" ry="11" style="stroke: #A80036; stroke-width: 1.0;"/><path d="M427.4688,42.6406 Q426.8906,42.9375 426.25,43.0781 Q425.6094,43.2344 424.9063,43.2344 Q422.4063,43.2344 421.0781,41.5938 Q419.7656,39.9375 419.7656,36.8125 Q419.7656,33.6875 421.0781,32.0313 Q422.4063,30.375 424.9063,30.375 Q425.6094,30.375 426.25,30.5313 Q426.9063,30.6875 427.4688,30.9844 L427.4688,33.7031 Q426.8438,33.125 426.25,32.8594 Q425.6563,32.5781 425.0313,32.5781 Q423.6875,32.5781 423,33.6563 Q422.3125,34.7188 422.3125,36.8125 Q422.3125,38.9063 423,39.9844 Q423.6875,41.0469 425.0313,41.0469 Q425.6563,41.0469 426.25,40.7813 Q426.8438,40.5 427.4688,39.9219 L427.4688,42.6406 Z "/><text fill="#000000" font-family="sans-serif" font-size="12" lengthAdjust="spacingAndGlyphs" textLength="96" x="438.5" y="41.1543">MonoBehaviour</text><line style="stroke: #A80036; stroke-width: 1.5;" x1="410.5" x2="536.5" y1="53" y2="53"/><line style="stroke: #A80036; stroke-width: 1.5;" x1="410.5" x2="536.5" y1="61" y2="61"/><!--MD5=[f9bc8c77c2c8fcddb7deaa9546e46aa6]
reverse link MonoBehaviour to ObjectsCreatorImpl--><path d="M435.7,83.26 C417.35,101.35 395.23,123.15 376.27,141.84 " fill="none" id="MonoBehaviour&lt;-ObjectsCreatorImpl" style="stroke: #A80036; stroke-width: 1.0;"/><polygon fill="none" points="430.91,78.15,450.07,69.1,440.74,88.12,430.91,78.15" style="stroke: #A80036; stroke-width: 1.0;"/><!--MD5=[3c26fb39e56e03347f1d29ff8be98a02]
reverse link IObjectsCreator to ObjectsCreatorImpl--><path d="M244.84,96.61 C259.93,111.48 276.27,127.59 290.76,141.87 " fill="none" id="IObjectsCreator&lt;-ObjectsCreatorImpl" style="stroke: #A80036; stroke-width: 1.0;"/><polygon fill="none" points="239.61,101.28,230.28,82.26,249.44,91.31,239.61,101.28" style="stroke: #A80036; stroke-width: 1.0;"/><!--MD5=[ab44f721c37a785d49a63275b3638a72]
@startuml
interface IObjectsCreator {
    + {abstract} createNewMachine(machineIndex:int) : void
    + {abstract} createNewMachineWithGO(machineIndex:int) : GameObject
}
class ObjectsCreatorImpl {
    + Construct(machineViewFactory:MachineView.Factory, anchorPresenterFactory:MachinePresenter.Factory) : void
    + createNewMachine(machineIndex:int) : void
    + createNewMachineWithGO(machineIndex:int) : GameObject
}
MonoBehaviour <|- - ObjectsCreatorImpl
IObjectsCreator <|- - ObjectsCreatorImpl
@enduml

PlantUML version 1.2020.02(Sun Mar 01 10:22:07 GMT 2020)
(GPL source distribution)
Java Runtime: OpenJDK Runtime Environment
JVM: OpenJDK 64-Bit Server VM
Java Version: 11.0.9+11-Ubuntu-0ubuntu1
Operating System: Linux
Default Encoding: ANSI_X3.4-1968
Language: en
Country: US
--></g></svg>