<?xml version="1.0" encoding="UTF-8" standalone="no"?><svg xmlns="http://www.w3.org/2000/svg" xmlns:xlink="http://www.w3.org/1999/xlink" contentScriptType="application/ecmascript" contentStyleType="text/css" height="201px" preserveAspectRatio="none" style="width:997px;height:201px;" version="1.1" viewBox="0 0 997 201" width="997px" zoomAndPan="magnify"><defs><filter height="300%" id="f1o5ramwzrasnz" width="300%" x="-1" y="-1"><feGaussianBlur result="blurOut" stdDeviation="2.0"/><feColorMatrix in="blurOut" result="blurOut2" type="matrix" values="0 0 0 0 0 0 0 0 0 0 0 0 0 0 0 0 0 0 .4 0"/><feOffset dx="4.0" dy="4.0" in="blurOut2" result="blurOut3"/><feBlend in="SourceGraphic" in2="blurOut3" mode="normal"/></filter></defs><g><!--MD5=[6f1e49e2186d2ffd568639261351a372]
class AddAnchorUseCase--><rect fill="#FEFECE" filter="url(#f1o5ramwzrasnz)" height="73.6094" id="AddAnchorUseCase" style="stroke: #A80036; stroke-width: 1.5;" width="980" x="6" y="8"/><ellipse cx="430.25" cy="24" fill="#ADD1B2" rx="11" ry="11" style="stroke: #A80036; stroke-width: 1.0;"/><path d="M433.2188,29.6406 Q432.6406,29.9375 432,30.0781 Q431.3594,30.2344 430.6563,30.2344 Q428.1563,30.2344 426.8281,28.5938 Q425.5156,26.9375 425.5156,23.8125 Q425.5156,20.6875 426.8281,19.0313 Q428.1563,17.375 430.6563,17.375 Q431.3594,17.375 432,17.5313 Q432.6563,17.6875 433.2188,17.9844 L433.2188,20.7031 Q432.5938,20.125 432,19.8594 Q431.4063,19.5781 430.7813,19.5781 Q429.4375,19.5781 428.75,20.6563 Q428.0625,21.7188 428.0625,23.8125 Q428.0625,25.9063 428.75,26.9844 Q429.4375,28.0469 430.7813,28.0469 Q431.4063,28.0469 432,27.7813 Q432.5938,27.5 433.2188,26.9219 L433.2188,29.6406 Z "/><text fill="#000000" font-family="sans-serif" font-size="12" lengthAdjust="spacingAndGlyphs" textLength="123" x="450.75" y="28.1543">AddAnchorUseCase</text><line style="stroke: #A80036; stroke-width: 1.5;" x1="7" x2="985" y1="40" y2="40"/><line style="stroke: #A80036; stroke-width: 1.5;" x1="7" x2="985" y1="48" y2="48"/><ellipse cx="17" cy="59" fill="#84BE84" rx="3" ry="3" style="stroke: #038048; stroke-width: 1.0;"/><text fill="#000000" font-family="sans-serif" font-size="11" lengthAdjust="spacingAndGlyphs" textLength="954" x="26" y="62.2104">AddAnchorUseCase(anchorsRepository:AnchorsRepository, saveAnchor:SaveAnchor, sceneAwarnessValidator:AwarnessValidator, gameObjectEditor:GameObjectEditor)</text><ellipse cx="17" cy="71.8047" fill="#84BE84" rx="3" ry="3" style="stroke: #038048; stroke-width: 1.0;"/><text fill="#000000" font-family="sans-serif" font-size="11" lengthAdjust="spacingAndGlyphs" textLength="430" x="26" y="75.0151">«async» createAzureAnchor(theObject:GameObject, index:int) : Task&lt;bool&gt;</text><!--MD5=[aee96fbe8eecbf0b0a41f2407f1ba7d9]
class AnchorsRepository--><rect fill="#FEFECE" filter="url(#f1o5ramwzrasnz)" height="48" id="AnchorsRepository" style="stroke: #A80036; stroke-width: 1.5;" width="149" x="178.5" y="142"/><ellipse cx="193.5" cy="158" fill="#ADD1B2" rx="11" ry="11" style="stroke: #A80036; stroke-width: 1.0;"/><path d="M196.4688,163.6406 Q195.8906,163.9375 195.25,164.0781 Q194.6094,164.2344 193.9063,164.2344 Q191.4063,164.2344 190.0781,162.5938 Q188.7656,160.9375 188.7656,157.8125 Q188.7656,154.6875 190.0781,153.0313 Q191.4063,151.375 193.9063,151.375 Q194.6094,151.375 195.25,151.5313 Q195.9063,151.6875 196.4688,151.9844 L196.4688,154.7031 Q195.8438,154.125 195.25,153.8594 Q194.6563,153.5781 194.0313,153.5781 Q192.6875,153.5781 192,154.6563 Q191.3125,155.7188 191.3125,157.8125 Q191.3125,159.9063 192,160.9844 Q192.6875,162.0469 194.0313,162.0469 Q194.6563,162.0469 195.25,161.7813 Q195.8438,161.5 196.4688,160.9219 L196.4688,163.6406 Z "/><text fill="#000000" font-family="sans-serif" font-size="12" lengthAdjust="spacingAndGlyphs" textLength="117" x="207.5" y="162.1543">AnchorsRepository</text><line style="stroke: #A80036; stroke-width: 1.5;" x1="179.5" x2="326.5" y1="174" y2="174"/><line style="stroke: #A80036; stroke-width: 1.5;" x1="179.5" x2="326.5" y1="182" y2="182"/><!--MD5=[e39e83354f6cd81ff51a2650f46d8ea7]
class SaveAnchor--><rect fill="#FEFECE" filter="url(#f1o5ramwzrasnz)" height="48" id="SaveAnchor" style="stroke: #A80036; stroke-width: 1.5;" width="106" x="362" y="142"/><ellipse cx="377" cy="158" fill="#ADD1B2" rx="11" ry="11" style="stroke: #A80036; stroke-width: 1.0;"/><path d="M379.9688,163.6406 Q379.3906,163.9375 378.75,164.0781 Q378.1094,164.2344 377.4063,164.2344 Q374.9063,164.2344 373.5781,162.5938 Q372.2656,160.9375 372.2656,157.8125 Q372.2656,154.6875 373.5781,153.0313 Q374.9063,151.375 377.4063,151.375 Q378.1094,151.375 378.75,151.5313 Q379.4063,151.6875 379.9688,151.9844 L379.9688,154.7031 Q379.3438,154.125 378.75,153.8594 Q378.1563,153.5781 377.5313,153.5781 Q376.1875,153.5781 375.5,154.6563 Q374.8125,155.7188 374.8125,157.8125 Q374.8125,159.9063 375.5,160.9844 Q376.1875,162.0469 377.5313,162.0469 Q378.1563,162.0469 378.75,161.7813 Q379.3438,161.5 379.9688,160.9219 L379.9688,163.6406 Z "/><text fill="#000000" font-family="sans-serif" font-size="12" lengthAdjust="spacingAndGlyphs" textLength="74" x="391" y="162.1543">SaveAnchor</text><line style="stroke: #A80036; stroke-width: 1.5;" x1="363" x2="467" y1="174" y2="174"/><line style="stroke: #A80036; stroke-width: 1.5;" x1="363" x2="467" y1="182" y2="182"/><!--MD5=[960c577586ba06daf67444d0e318c755]
class AwarnessValidator--><rect fill="#FEFECE" filter="url(#f1o5ramwzrasnz)" height="48" id="AwarnessValidator" style="stroke: #A80036; stroke-width: 1.5;" width="148" x="503" y="142"/><ellipse cx="518" cy="158" fill="#ADD1B2" rx="11" ry="11" style="stroke: #A80036; stroke-width: 1.0;"/><path d="M520.9688,163.6406 Q520.3906,163.9375 519.75,164.0781 Q519.1094,164.2344 518.4063,164.2344 Q515.9063,164.2344 514.5781,162.5938 Q513.2656,160.9375 513.2656,157.8125 Q513.2656,154.6875 514.5781,153.0313 Q515.9063,151.375 518.4063,151.375 Q519.1094,151.375 519.75,151.5313 Q520.4063,151.6875 520.9688,151.9844 L520.9688,154.7031 Q520.3438,154.125 519.75,153.8594 Q519.1563,153.5781 518.5313,153.5781 Q517.1875,153.5781 516.5,154.6563 Q515.8125,155.7188 515.8125,157.8125 Q515.8125,159.9063 516.5,160.9844 Q517.1875,162.0469 518.5313,162.0469 Q519.1563,162.0469 519.75,161.7813 Q520.3438,161.5 520.9688,160.9219 L520.9688,163.6406 Z "/><text fill="#000000" font-family="sans-serif" font-size="12" lengthAdjust="spacingAndGlyphs" textLength="116" x="532" y="162.1543">AwarnessValidator</text><line style="stroke: #A80036; stroke-width: 1.5;" x1="504" x2="650" y1="174" y2="174"/><line style="stroke: #A80036; stroke-width: 1.5;" x1="504" x2="650" y1="182" y2="182"/><!--MD5=[d52e42beb0fb691ab9a1077367a59e6a]
class GameObjectEditor--><rect fill="#FEFECE" filter="url(#f1o5ramwzrasnz)" height="48" id="GameObjectEditor" style="stroke: #A80036; stroke-width: 1.5;" width="145" x="686.5" y="142"/><ellipse cx="701.5" cy="158" fill="#ADD1B2" rx="11" ry="11" style="stroke: #A80036; stroke-width: 1.0;"/><path d="M704.4688,163.6406 Q703.8906,163.9375 703.25,164.0781 Q702.6094,164.2344 701.9063,164.2344 Q699.4063,164.2344 698.0781,162.5938 Q696.7656,160.9375 696.7656,157.8125 Q696.7656,154.6875 698.0781,153.0313 Q699.4063,151.375 701.9063,151.375 Q702.6094,151.375 703.25,151.5313 Q703.9063,151.6875 704.4688,151.9844 L704.4688,154.7031 Q703.8438,154.125 703.25,153.8594 Q702.6563,153.5781 702.0313,153.5781 Q700.6875,153.5781 700,154.6563 Q699.3125,155.7188 699.3125,157.8125 Q699.3125,159.9063 700,160.9844 Q700.6875,162.0469 702.0313,162.0469 Q702.6563,162.0469 703.25,161.7813 Q703.8438,161.5 704.4688,160.9219 L704.4688,163.6406 Z "/><text fill="#000000" font-family="sans-serif" font-size="12" lengthAdjust="spacingAndGlyphs" textLength="113" x="715.5" y="162.1543">GameObjectEditor</text><line style="stroke: #A80036; stroke-width: 1.5;" x1="687.5" x2="830.5" y1="174" y2="174"/><line style="stroke: #A80036; stroke-width: 1.5;" x1="687.5" x2="830.5" y1="182" y2="182"/><!--MD5=[a7189b29fc0c1af3cde24b82a5518405]
link AddAnchorUseCase to AnchorsRepository--><path d="M422.43,82.03 C384.47,100.62 339.06,122.85 304.82,139.63 " fill="none" id="AddAnchorUseCase-&gt;AnchorsRepository" style="stroke: #A80036; stroke-width: 1.0;"/><polygon fill="#A80036" points="300.27,141.85,310.1118,141.4783,304.7592,139.6483,306.5891,134.2956,300.27,141.85" style="stroke: #A80036; stroke-width: 1.0;"/><text fill="#000000" font-family="sans-serif" font-size="13" lengthAdjust="spacingAndGlyphs" textLength="125" x="171.3673" y="130.8236">_anchorsRepository</text><!--MD5=[4f7cf8c5f8e9d31c17f0594b9570a7c5]
link AddAnchorUseCase to SaveAnchor--><path d="M471.48,82.03 C459.39,99.79 445.04,120.87 433.83,137.33 " fill="none" id="AddAnchorUseCase-&gt;SaveAnchor" style="stroke: #A80036; stroke-width: 1.0;"/><polygon fill="#A80036" points="430.76,141.85,439.126,136.653,433.5696,137.714,432.5085,132.1576,430.76,141.85" style="stroke: #A80036; stroke-width: 1.0;"/><text fill="#000000" font-family="sans-serif" font-size="13" lengthAdjust="spacingAndGlyphs" textLength="82" x="342.2922" y="130.8236">_saveAnchor</text><!--MD5=[4d5104db754a25d1acf77ab3131e9994]
link AddAnchorUseCase to AwarnessValidator--><path d="M520.52,82.03 C532.61,99.79 546.96,120.87 558.17,137.33 " fill="none" id="AddAnchorUseCase-&gt;AwarnessValidator" style="stroke: #A80036; stroke-width: 1.0;"/><polygon fill="#A80036" points="561.24,141.85,559.4915,132.1576,558.4304,137.714,552.874,136.653,561.24,141.85" style="stroke: #A80036; stroke-width: 1.0;"/><text fill="#000000" font-family="sans-serif" font-size="13" lengthAdjust="spacingAndGlyphs" textLength="163" x="578.0859" y="130.8236">_sceneAwarnessValidator</text><!--MD5=[8ded35e16f9f55814ff7d6e4d6ab8b07]
link AddAnchorUseCase to GameObjectEditor--><path d="M575.62,82.03 C616.71,100.62 665.86,122.85 702.92,139.63 " fill="none" id="AddAnchorUseCase-&gt;GameObjectEditor" style="stroke: #A80036; stroke-width: 1.0;"/><polygon fill="#A80036" points="707.84,141.85,701.2828,134.5013,703.2828,139.7928,697.9913,141.7929,707.84,141.85" style="stroke: #A80036; stroke-width: 1.0;"/><text fill="#000000" font-family="sans-serif" font-size="13" lengthAdjust="spacingAndGlyphs" textLength="122" x="710.3615" y="130.8236">_gameObjectEditor</text><!--MD5=[1b7ec287a73d3f63dbbdbaac4b8b8346]
@startuml
class AddAnchorUseCase {
    + AddAnchorUseCase(anchorsRepository:AnchorsRepository, saveAnchor:SaveAnchor, sceneAwarnessValidator:AwarnessValidator, gameObjectEditor:GameObjectEditor)
    + <<async>> createAzureAnchor(theObject:GameObject, index:int) : Task<bool>
}
AddAnchorUseCase - -> "_anchorsRepository" AnchorsRepository
AddAnchorUseCase - -> "_saveAnchor" SaveAnchor
AddAnchorUseCase - -> "_sceneAwarnessValidator" AwarnessValidator
AddAnchorUseCase - -> "_gameObjectEditor" GameObjectEditor
@enduml

PlantUML version 1.2020.02(Sun Mar 01 10:22:07 GMT 2020)
(GPL source distribution)
Java Runtime: OpenJDK Runtime Environment
JVM: OpenJDK 64-Bit Server VM
Java Version: 11.0.9+11-Ubuntu-0ubuntu1
Operating System: Linux
Default Encoding: ANSI_X3.4-1968
Language: en
Country: US
--></g></svg>