<?xml version="1.0" encoding="UTF-8" standalone="no"?><svg xmlns="http://www.w3.org/2000/svg" xmlns:xlink="http://www.w3.org/1999/xlink" contentScriptType="application/ecmascript" contentStyleType="text/css" height="322px" preserveAspectRatio="none" style="width:1021px;height:322px;" version="1.1" viewBox="0 0 1021 322" width="1021px" zoomAndPan="magnify"><defs><filter height="300%" id="f1sgkl0t88opwc" width="300%" x="-1" y="-1"><feGaussianBlur result="blurOut" stdDeviation="2.0"/><feColorMatrix in="blurOut" result="blurOut2" type="matrix" values="0 0 0 0 0 0 0 0 0 0 0 0 0 0 0 0 0 0 .4 0"/><feOffset dx="4.0" dy="4.0" in="blurOut2" result="blurOut3"/><feBlend in="SourceGraphic" in2="blurOut3" mode="normal"/></filter></defs><g><!--MD5=[db94a1190e5ef99e287ec4213e6cbee6]
class IAddAnchorUseCase--><rect fill="#FEFECE" filter="url(#f1sgkl0t88opwc)" height="60.8047" id="IAddAnchorUseCase" style="stroke: #A80036; stroke-width: 1.5;" width="405" x="305.5" y="8"/><ellipse cx="441.25" cy="24" fill="#B4A7E5" rx="11" ry="11" style="stroke: #A80036; stroke-width: 1.0;"/><path d="M437.1719,19.7656 L437.1719,17.6094 L444.5625,17.6094 L444.5625,19.7656 L442.0938,19.7656 L442.0938,27.8438 L444.5625,27.8438 L444.5625,30 L437.1719,30 L437.1719,27.8438 L439.6406,27.8438 L439.6406,19.7656 L437.1719,19.7656 Z "/><text fill="#000000" font-family="sans-serif" font-size="12" font-style="italic" lengthAdjust="spacingAndGlyphs" textLength="125" x="461.75" y="28.1543">IAddAnchorUseCase</text><line style="stroke: #A80036; stroke-width: 1.5;" x1="306.5" x2="709.5" y1="40" y2="40"/><line style="stroke: #A80036; stroke-width: 1.5;" x1="306.5" x2="709.5" y1="48" y2="48"/><ellipse cx="316.5" cy="59" fill="#84BE84" rx="3" ry="3" style="stroke: #038048; stroke-width: 1.0;"/><text fill="#000000" font-family="sans-serif" font-size="11" lengthAdjust="spacingAndGlyphs" textLength="379" x="325.5" y="62.2104">createAzureAnchor(theObject:GameObject, index:int) : Task&lt;bool&gt;</text><!--MD5=[6f1e49e2186d2ffd568639261351a372]
class AddAnchorUseCase--><rect fill="#FEFECE" filter="url(#f1sgkl0t88opwc)" height="73.6094" id="AddAnchorUseCase" style="stroke: #A80036; stroke-width: 1.5;" width="1004" x="6" y="129"/><ellipse cx="442.25" cy="145" fill="#ADD1B2" rx="11" ry="11" style="stroke: #A80036; stroke-width: 1.0;"/><path d="M445.2188,150.6406 Q444.6406,150.9375 444,151.0781 Q443.3594,151.2344 442.6563,151.2344 Q440.1563,151.2344 438.8281,149.5938 Q437.5156,147.9375 437.5156,144.8125 Q437.5156,141.6875 438.8281,140.0313 Q440.1563,138.375 442.6563,138.375 Q443.3594,138.375 444,138.5313 Q444.6563,138.6875 445.2188,138.9844 L445.2188,141.7031 Q444.5938,141.125 444,140.8594 Q443.4063,140.5781 442.7813,140.5781 Q441.4375,140.5781 440.75,141.6563 Q440.0625,142.7188 440.0625,144.8125 Q440.0625,146.9063 440.75,147.9844 Q441.4375,149.0469 442.7813,149.0469 Q443.4063,149.0469 444,148.7813 Q444.5938,148.5 445.2188,147.9219 L445.2188,150.6406 Z "/><text fill="#000000" font-family="sans-serif" font-size="12" lengthAdjust="spacingAndGlyphs" textLength="123" x="462.75" y="149.1543">AddAnchorUseCase</text><line style="stroke: #A80036; stroke-width: 1.5;" x1="7" x2="1009" y1="161" y2="161"/><line style="stroke: #A80036; stroke-width: 1.5;" x1="7" x2="1009" y1="169" y2="169"/><ellipse cx="17" cy="180" fill="#84BE84" rx="3" ry="3" style="stroke: #038048; stroke-width: 1.0;"/><text fill="#000000" font-family="sans-serif" font-size="11" lengthAdjust="spacingAndGlyphs" textLength="978" x="26" y="183.2104">AddAnchorUseCase(anchorsRepository:IAnchorsRepository, saveAnchor:IAnchorCreator, sceneAwarnessValidator:IAwarnessValidator, gameObjectEditor:GameObjectEditor)</text><ellipse cx="17" cy="192.8047" fill="#84BE84" rx="3" ry="3" style="stroke: #038048; stroke-width: 1.0;"/><text fill="#000000" font-family="sans-serif" font-size="11" lengthAdjust="spacingAndGlyphs" textLength="430" x="26" y="196.0151">«async» createAzureAnchor(theObject:GameObject, index:int) : Task&lt;bool&gt;</text><!--MD5=[932a626bed533254c20735e19e148d61]
class IAnchorsRepository--><rect fill="#FEFECE" filter="url(#f1sgkl0t88opwc)" height="48" id="IAnchorsRepository" style="stroke: #A80036; stroke-width: 1.5;" width="152" x="171" y="263"/><ellipse cx="186" cy="279" fill="#ADD1B2" rx="11" ry="11" style="stroke: #A80036; stroke-width: 1.0;"/><path d="M188.9688,284.6406 Q188.3906,284.9375 187.75,285.0781 Q187.1094,285.2344 186.4063,285.2344 Q183.9063,285.2344 182.5781,283.5938 Q181.2656,281.9375 181.2656,278.8125 Q181.2656,275.6875 182.5781,274.0313 Q183.9063,272.375 186.4063,272.375 Q187.1094,272.375 187.75,272.5313 Q188.4063,272.6875 188.9688,272.9844 L188.9688,275.7031 Q188.3438,275.125 187.75,274.8594 Q187.1563,274.5781 186.5313,274.5781 Q185.1875,274.5781 184.5,275.6563 Q183.8125,276.7188 183.8125,278.8125 Q183.8125,280.9063 184.5,281.9844 Q185.1875,283.0469 186.5313,283.0469 Q187.1563,283.0469 187.75,282.7813 Q188.3438,282.5 188.9688,281.9219 L188.9688,284.6406 Z "/><text fill="#000000" font-family="sans-serif" font-size="12" lengthAdjust="spacingAndGlyphs" textLength="120" x="200" y="283.1543">IAnchorsRepository</text><line style="stroke: #A80036; stroke-width: 1.5;" x1="172" x2="322" y1="295" y2="295"/><line style="stroke: #A80036; stroke-width: 1.5;" x1="172" x2="322" y1="303" y2="303"/><!--MD5=[79f1084384fcd408d88a2998bd98750b]
class IAnchorCreator--><rect fill="#FEFECE" filter="url(#f1sgkl0t88opwc)" height="48" id="IAnchorCreator" style="stroke: #A80036; stroke-width: 1.5;" width="126" x="358" y="263"/><ellipse cx="373" cy="279" fill="#ADD1B2" rx="11" ry="11" style="stroke: #A80036; stroke-width: 1.0;"/><path d="M375.9688,284.6406 Q375.3906,284.9375 374.75,285.0781 Q374.1094,285.2344 373.4063,285.2344 Q370.9063,285.2344 369.5781,283.5938 Q368.2656,281.9375 368.2656,278.8125 Q368.2656,275.6875 369.5781,274.0313 Q370.9063,272.375 373.4063,272.375 Q374.1094,272.375 374.75,272.5313 Q375.4063,272.6875 375.9688,272.9844 L375.9688,275.7031 Q375.3438,275.125 374.75,274.8594 Q374.1563,274.5781 373.5313,274.5781 Q372.1875,274.5781 371.5,275.6563 Q370.8125,276.7188 370.8125,278.8125 Q370.8125,280.9063 371.5,281.9844 Q372.1875,283.0469 373.5313,283.0469 Q374.1563,283.0469 374.75,282.7813 Q375.3438,282.5 375.9688,281.9219 L375.9688,284.6406 Z "/><text fill="#000000" font-family="sans-serif" font-size="12" lengthAdjust="spacingAndGlyphs" textLength="94" x="387" y="283.1543">IAnchorCreator</text><line style="stroke: #A80036; stroke-width: 1.5;" x1="359" x2="483" y1="295" y2="295"/><line style="stroke: #A80036; stroke-width: 1.5;" x1="359" x2="483" y1="303" y2="303"/><!--MD5=[df518ebd500dd83b40ade1b46661233e]
class IAwarnessValidator--><rect fill="#FEFECE" filter="url(#f1sgkl0t88opwc)" height="48" id="IAwarnessValidator" style="stroke: #A80036; stroke-width: 1.5;" width="151" x="519.5" y="263"/><ellipse cx="534.5" cy="279" fill="#ADD1B2" rx="11" ry="11" style="stroke: #A80036; stroke-width: 1.0;"/><path d="M537.4688,284.6406 Q536.8906,284.9375 536.25,285.0781 Q535.6094,285.2344 534.9063,285.2344 Q532.4063,285.2344 531.0781,283.5938 Q529.7656,281.9375 529.7656,278.8125 Q529.7656,275.6875 531.0781,274.0313 Q532.4063,272.375 534.9063,272.375 Q535.6094,272.375 536.25,272.5313 Q536.9063,272.6875 537.4688,272.9844 L537.4688,275.7031 Q536.8438,275.125 536.25,274.8594 Q535.6563,274.5781 535.0313,274.5781 Q533.6875,274.5781 533,275.6563 Q532.3125,276.7188 532.3125,278.8125 Q532.3125,280.9063 533,281.9844 Q533.6875,283.0469 535.0313,283.0469 Q535.6563,283.0469 536.25,282.7813 Q536.8438,282.5 537.4688,281.9219 L537.4688,284.6406 Z "/><text fill="#000000" font-family="sans-serif" font-size="12" lengthAdjust="spacingAndGlyphs" textLength="119" x="548.5" y="283.1543">IAwarnessValidator</text><line style="stroke: #A80036; stroke-width: 1.5;" x1="520.5" x2="669.5" y1="295" y2="295"/><line style="stroke: #A80036; stroke-width: 1.5;" x1="520.5" x2="669.5" y1="303" y2="303"/><!--MD5=[d52e42beb0fb691ab9a1077367a59e6a]
class GameObjectEditor--><rect fill="#FEFECE" filter="url(#f1sgkl0t88opwc)" height="48" id="GameObjectEditor" style="stroke: #A80036; stroke-width: 1.5;" width="145" x="705.5" y="263"/><ellipse cx="720.5" cy="279" fill="#ADD1B2" rx="11" ry="11" style="stroke: #A80036; stroke-width: 1.0;"/><path d="M723.4688,284.6406 Q722.8906,284.9375 722.25,285.0781 Q721.6094,285.2344 720.9063,285.2344 Q718.4063,285.2344 717.0781,283.5938 Q715.7656,281.9375 715.7656,278.8125 Q715.7656,275.6875 717.0781,274.0313 Q718.4063,272.375 720.9063,272.375 Q721.6094,272.375 722.25,272.5313 Q722.9063,272.6875 723.4688,272.9844 L723.4688,275.7031 Q722.8438,275.125 722.25,274.8594 Q721.6563,274.5781 721.0313,274.5781 Q719.6875,274.5781 719,275.6563 Q718.3125,276.7188 718.3125,278.8125 Q718.3125,280.9063 719,281.9844 Q719.6875,283.0469 721.0313,283.0469 Q721.6563,283.0469 722.25,282.7813 Q722.8438,282.5 723.4688,281.9219 L723.4688,284.6406 Z "/><text fill="#000000" font-family="sans-serif" font-size="12" lengthAdjust="spacingAndGlyphs" textLength="113" x="734.5" y="283.1543">GameObjectEditor</text><line style="stroke: #A80036; stroke-width: 1.5;" x1="706.5" x2="849.5" y1="295" y2="295"/><line style="stroke: #A80036; stroke-width: 1.5;" x1="706.5" x2="849.5" y1="303" y2="303"/><!--MD5=[a54cfe92797193ff8ac3b7991aee6b52]
reverse link IAddAnchorUseCase to AddAnchorUseCase--><path d="M508,89.5 C508,102.62 508,116.51 508,128.76 " fill="none" id="IAddAnchorUseCase&lt;-AddAnchorUseCase" style="stroke: #A80036; stroke-width: 1.0;"/><polygon fill="none" points="501,89.24,508,69.24,515,89.24,501,89.24" style="stroke: #A80036; stroke-width: 1.0;"/><!--MD5=[486393467da0c94d4b06bd5dbee5b969]
link AddAnchorUseCase to IAnchorsRepository--><path d="M428.98,203.03 C388.2,221.62 339.44,243.85 302.65,260.63 " fill="none" id="AddAnchorUseCase-&gt;IAnchorsRepository" style="stroke: #A80036; stroke-width: 1.0;"/><polygon fill="#A80036" points="297.77,262.85,307.6185,262.7672,302.3218,260.781,304.3081,255.4843,297.77,262.85" style="stroke: #A80036; stroke-width: 1.0;"/><text fill="#000000" font-family="sans-serif" font-size="13" lengthAdjust="spacingAndGlyphs" textLength="125" x="169.7642" y="251.8236">_anchorsRepository</text><!--MD5=[4db53b45284f69268b65ba407e38d0fc]
link AddAnchorUseCase to IAnchorCreator--><path d="M481.66,203.03 C468.57,220.94 453,242.23 440.92,258.76 " fill="none" id="AddAnchorUseCase-&gt;IAnchorCreator" style="stroke: #A80036; stroke-width: 1.0;"/><polygon fill="#A80036" points="437.92,262.85,446.4619,257.9473,440.8719,258.8144,440.0048,253.2243,437.92,262.85" style="stroke: #A80036; stroke-width: 1.0;"/><text fill="#000000" font-family="sans-serif" font-size="13" lengthAdjust="spacingAndGlyphs" textLength="82" x="349.7495" y="251.8236">_saveAnchor</text><!--MD5=[ea1421eb1e130d9e5b5ff3bcda720e26]
link AddAnchorUseCase to IAwarnessValidator--><path d="M534.34,203.03 C547.43,220.94 563,242.23 575.08,258.76 " fill="none" id="AddAnchorUseCase-&gt;IAwarnessValidator" style="stroke: #A80036; stroke-width: 1.0;"/><polygon fill="#A80036" points="578.08,262.85,575.9952,253.2243,575.1281,258.8144,569.5381,257.9473,578.08,262.85" style="stroke: #A80036; stroke-width: 1.0;"/><text fill="#000000" font-family="sans-serif" font-size="13" lengthAdjust="spacingAndGlyphs" textLength="163" x="594.6286" y="251.8236">_sceneAwarnessValidator</text><!--MD5=[8ded35e16f9f55814ff7d6e4d6ab8b07]
link AddAnchorUseCase to GameObjectEditor--><path d="M589.74,203.03 C632.1,221.7 682.79,244.04 720.89,260.83 " fill="none" id="AddAnchorUseCase-&gt;GameObjectEditor" style="stroke: #A80036; stroke-width: 1.0;"/><polygon fill="#A80036" points="725.48,262.85,718.8676,255.551,720.9074,260.8272,715.6312,262.8671,725.48,262.85" style="stroke: #A80036; stroke-width: 1.0;"/><text fill="#000000" font-family="sans-serif" font-size="13" lengthAdjust="spacingAndGlyphs" textLength="122" x="727.653" y="251.8236">_gameObjectEditor</text><!--MD5=[eb5c5f2fb95c0a61cc993b55db3b73a7]
@startuml
interface IAddAnchorUseCase {
    + createAzureAnchor(theObject:GameObject, index:int) : Task<bool>
}
class AddAnchorUseCase {
    + AddAnchorUseCase(anchorsRepository:IAnchorsRepository, saveAnchor:IAnchorCreator, sceneAwarnessValidator:IAwarnessValidator, gameObjectEditor:GameObjectEditor)
    + <<async>> createAzureAnchor(theObject:GameObject, index:int) : Task<bool>
}
IAddAnchorUseCase <|- - AddAnchorUseCase
AddAnchorUseCase - -> "_anchorsRepository" IAnchorsRepository
AddAnchorUseCase - -> "_saveAnchor" IAnchorCreator
AddAnchorUseCase - -> "_sceneAwarnessValidator" IAwarnessValidator
AddAnchorUseCase - -> "_gameObjectEditor" GameObjectEditor
@enduml

PlantUML version 1.2020.02(Sun Mar 01 10:22:07 GMT 2020)
(GPL source distribution)
Java Runtime: OpenJDK Runtime Environment
JVM: OpenJDK 64-Bit Server VM
Java Version: 11.0.9+11-Ubuntu-0ubuntu1
Operating System: Linux
Default Encoding: ANSI_X3.4-1968
Language: en
Country: US
--></g></svg>