<?xml version="1.0" encoding="UTF-8" standalone="no"?><svg xmlns="http://www.w3.org/2000/svg" xmlns:xlink="http://www.w3.org/1999/xlink" contentScriptType="application/ecmascript" contentStyleType="text/css" height="201px" preserveAspectRatio="none" style="width:1012px;height:201px;" version="1.1" viewBox="0 0 1012 201" width="1012px" zoomAndPan="magnify"><defs><filter height="300%" id="f1lh1hskozhyzp" width="300%" x="-1" y="-1"><feGaussianBlur result="blurOut" stdDeviation="2.0"/><feColorMatrix in="blurOut" result="blurOut2" type="matrix" values="0 0 0 0 0 0 0 0 0 0 0 0 0 0 0 0 0 0 .4 0"/><feOffset dx="4.0" dy="4.0" in="blurOut2" result="blurOut3"/><feBlend in="SourceGraphic" in2="blurOut3" mode="normal"/></filter></defs><g><!--MD5=[6f1e49e2186d2ffd568639261351a372]
class AddAnchorUseCase--><rect fill="#FEFECE" filter="url(#f1lh1hskozhyzp)" height="73.6094" id="AddAnchorUseCase" style="stroke: #A80036; stroke-width: 1.5;" width="995" x="6" y="8"/><ellipse cx="437.75" cy="24" fill="#ADD1B2" rx="11" ry="11" style="stroke: #A80036; stroke-width: 1.0;"/><path d="M440.7188,29.6406 Q440.1406,29.9375 439.5,30.0781 Q438.8594,30.2344 438.1563,30.2344 Q435.6563,30.2344 434.3281,28.5938 Q433.0156,26.9375 433.0156,23.8125 Q433.0156,20.6875 434.3281,19.0313 Q435.6563,17.375 438.1563,17.375 Q438.8594,17.375 439.5,17.5313 Q440.1563,17.6875 440.7188,17.9844 L440.7188,20.7031 Q440.0938,20.125 439.5,19.8594 Q438.9063,19.5781 438.2813,19.5781 Q436.9375,19.5781 436.25,20.6563 Q435.5625,21.7188 435.5625,23.8125 Q435.5625,25.9063 436.25,26.9844 Q436.9375,28.0469 438.2813,28.0469 Q438.9063,28.0469 439.5,27.7813 Q440.0938,27.5 440.7188,26.9219 L440.7188,29.6406 Z "/><text fill="#000000" font-family="sans-serif" font-size="12" lengthAdjust="spacingAndGlyphs" textLength="123" x="458.25" y="28.1543">AddAnchorUseCase</text><line style="stroke: #A80036; stroke-width: 1.5;" x1="7" x2="1000" y1="40" y2="40"/><line style="stroke: #A80036; stroke-width: 1.5;" x1="7" x2="1000" y1="48" y2="48"/><ellipse cx="17" cy="59" fill="#84BE84" rx="3" ry="3" style="stroke: #038048; stroke-width: 1.0;"/><text fill="#000000" font-family="sans-serif" font-size="11" lengthAdjust="spacingAndGlyphs" textLength="969" x="26" y="62.2104">AddAnchorUseCase(anchorsRepository:AnchorsRepository, saveAnchor:AnchorCreator, sceneAwarnessValidator:AwarnessValidator, gameObjectEditor:GameObjectEditor)</text><ellipse cx="17" cy="71.8047" fill="#84BE84" rx="3" ry="3" style="stroke: #038048; stroke-width: 1.0;"/><text fill="#000000" font-family="sans-serif" font-size="11" lengthAdjust="spacingAndGlyphs" textLength="430" x="26" y="75.0151">«async» createAzureAnchor(theObject:GameObject, index:int) : Task&lt;bool&gt;</text><!--MD5=[aee96fbe8eecbf0b0a41f2407f1ba7d9]
class AnchorsRepository--><rect fill="#FEFECE" filter="url(#f1lh1hskozhyzp)" height="48" id="AnchorsRepository" style="stroke: #A80036; stroke-width: 1.5;" width="149" x="173" y="142"/><ellipse cx="188" cy="158" fill="#ADD1B2" rx="11" ry="11" style="stroke: #A80036; stroke-width: 1.0;"/><path d="M190.9688,163.6406 Q190.3906,163.9375 189.75,164.0781 Q189.1094,164.2344 188.4063,164.2344 Q185.9063,164.2344 184.5781,162.5938 Q183.2656,160.9375 183.2656,157.8125 Q183.2656,154.6875 184.5781,153.0313 Q185.9063,151.375 188.4063,151.375 Q189.1094,151.375 189.75,151.5313 Q190.4063,151.6875 190.9688,151.9844 L190.9688,154.7031 Q190.3438,154.125 189.75,153.8594 Q189.1563,153.5781 188.5313,153.5781 Q187.1875,153.5781 186.5,154.6563 Q185.8125,155.7188 185.8125,157.8125 Q185.8125,159.9063 186.5,160.9844 Q187.1875,162.0469 188.5313,162.0469 Q189.1563,162.0469 189.75,161.7813 Q190.3438,161.5 190.9688,160.9219 L190.9688,163.6406 Z "/><text fill="#000000" font-family="sans-serif" font-size="12" lengthAdjust="spacingAndGlyphs" textLength="117" x="202" y="162.1543">AnchorsRepository</text><line style="stroke: #A80036; stroke-width: 1.5;" x1="174" x2="321" y1="174" y2="174"/><line style="stroke: #A80036; stroke-width: 1.5;" x1="174" x2="321" y1="182" y2="182"/><!--MD5=[1f4b09c58f6817b559919d4a5a29b357]
class AnchorCreator--><rect fill="#FEFECE" filter="url(#f1lh1hskozhyzp)" height="48" id="AnchorCreator" style="stroke: #A80036; stroke-width: 1.5;" width="123" x="357" y="142"/><ellipse cx="372" cy="158" fill="#ADD1B2" rx="11" ry="11" style="stroke: #A80036; stroke-width: 1.0;"/><path d="M374.9688,163.6406 Q374.3906,163.9375 373.75,164.0781 Q373.1094,164.2344 372.4063,164.2344 Q369.9063,164.2344 368.5781,162.5938 Q367.2656,160.9375 367.2656,157.8125 Q367.2656,154.6875 368.5781,153.0313 Q369.9063,151.375 372.4063,151.375 Q373.1094,151.375 373.75,151.5313 Q374.4063,151.6875 374.9688,151.9844 L374.9688,154.7031 Q374.3438,154.125 373.75,153.8594 Q373.1563,153.5781 372.5313,153.5781 Q371.1875,153.5781 370.5,154.6563 Q369.8125,155.7188 369.8125,157.8125 Q369.8125,159.9063 370.5,160.9844 Q371.1875,162.0469 372.5313,162.0469 Q373.1563,162.0469 373.75,161.7813 Q374.3438,161.5 374.9688,160.9219 L374.9688,163.6406 Z "/><text fill="#000000" font-family="sans-serif" font-size="12" lengthAdjust="spacingAndGlyphs" textLength="91" x="386" y="162.1543">AnchorCreator</text><line style="stroke: #A80036; stroke-width: 1.5;" x1="358" x2="479" y1="174" y2="174"/><line style="stroke: #A80036; stroke-width: 1.5;" x1="358" x2="479" y1="182" y2="182"/><!--MD5=[960c577586ba06daf67444d0e318c755]
class AwarnessValidator--><rect fill="#FEFECE" filter="url(#f1lh1hskozhyzp)" height="48" id="AwarnessValidator" style="stroke: #A80036; stroke-width: 1.5;" width="148" x="515.5" y="142"/><ellipse cx="530.5" cy="158" fill="#ADD1B2" rx="11" ry="11" style="stroke: #A80036; stroke-width: 1.0;"/><path d="M533.4688,163.6406 Q532.8906,163.9375 532.25,164.0781 Q531.6094,164.2344 530.9063,164.2344 Q528.4063,164.2344 527.0781,162.5938 Q525.7656,160.9375 525.7656,157.8125 Q525.7656,154.6875 527.0781,153.0313 Q528.4063,151.375 530.9063,151.375 Q531.6094,151.375 532.25,151.5313 Q532.9063,151.6875 533.4688,151.9844 L533.4688,154.7031 Q532.8438,154.125 532.25,153.8594 Q531.6563,153.5781 531.0313,153.5781 Q529.6875,153.5781 529,154.6563 Q528.3125,155.7188 528.3125,157.8125 Q528.3125,159.9063 529,160.9844 Q529.6875,162.0469 531.0313,162.0469 Q531.6563,162.0469 532.25,161.7813 Q532.8438,161.5 533.4688,160.9219 L533.4688,163.6406 Z "/><text fill="#000000" font-family="sans-serif" font-size="12" lengthAdjust="spacingAndGlyphs" textLength="116" x="544.5" y="162.1543">AwarnessValidator</text><line style="stroke: #A80036; stroke-width: 1.5;" x1="516.5" x2="662.5" y1="174" y2="174"/><line style="stroke: #A80036; stroke-width: 1.5;" x1="516.5" x2="662.5" y1="182" y2="182"/><!--MD5=[d52e42beb0fb691ab9a1077367a59e6a]
class GameObjectEditor--><rect fill="#FEFECE" filter="url(#f1lh1hskozhyzp)" height="48" id="GameObjectEditor" style="stroke: #A80036; stroke-width: 1.5;" width="145" x="699" y="142"/><ellipse cx="714" cy="158" fill="#ADD1B2" rx="11" ry="11" style="stroke: #A80036; stroke-width: 1.0;"/><path d="M716.9688,163.6406 Q716.3906,163.9375 715.75,164.0781 Q715.1094,164.2344 714.4063,164.2344 Q711.9063,164.2344 710.5781,162.5938 Q709.2656,160.9375 709.2656,157.8125 Q709.2656,154.6875 710.5781,153.0313 Q711.9063,151.375 714.4063,151.375 Q715.1094,151.375 715.75,151.5313 Q716.4063,151.6875 716.9688,151.9844 L716.9688,154.7031 Q716.3438,154.125 715.75,153.8594 Q715.1563,153.5781 714.5313,153.5781 Q713.1875,153.5781 712.5,154.6563 Q711.8125,155.7188 711.8125,157.8125 Q711.8125,159.9063 712.5,160.9844 Q713.1875,162.0469 714.5313,162.0469 Q715.1563,162.0469 715.75,161.7813 Q716.3438,161.5 716.9688,160.9219 L716.9688,163.6406 Z "/><text fill="#000000" font-family="sans-serif" font-size="12" lengthAdjust="spacingAndGlyphs" textLength="113" x="728" y="162.1543">GameObjectEditor</text><line style="stroke: #A80036; stroke-width: 1.5;" x1="700" x2="843" y1="174" y2="174"/><line style="stroke: #A80036; stroke-width: 1.5;" x1="700" x2="843" y1="182" y2="182"/><!--MD5=[a7189b29fc0c1af3cde24b82a5518405]
link AddAnchorUseCase to AnchorsRepository--><path d="M426,82.03 C386,100.62 338.17,122.85 302.09,139.63 " fill="none" id="AddAnchorUseCase-&gt;AnchorsRepository" style="stroke: #A80036; stroke-width: 1.0;"/><polygon fill="#A80036" points="297.3,141.85,307.1476,141.6926,301.836,139.7465,303.7821,134.435,297.3,141.85" style="stroke: #A80036; stroke-width: 1.0;"/><text fill="#000000" font-family="sans-serif" font-size="13" lengthAdjust="spacingAndGlyphs" textLength="125" x="169.0456" y="130.8236">_anchorsRepository</text><!--MD5=[88bb7bf9f0b1dfb0fb5479b389bb5eb6]
link AddAnchorUseCase to AnchorCreator--><path d="M477.77,82.03 C464.97,99.94 449.77,121.23 437.96,137.76 " fill="none" id="AddAnchorUseCase-&gt;AnchorCreator" style="stroke: #A80036; stroke-width: 1.0;"/><polygon fill="#A80036" points="435.04,141.85,443.531,136.8598,437.9502,137.7842,437.0258,132.2034,435.04,141.85" style="stroke: #A80036; stroke-width: 1.0;"/><text fill="#000000" font-family="sans-serif" font-size="13" lengthAdjust="spacingAndGlyphs" textLength="82" x="346.7721" y="130.8236">_saveAnchor</text><!--MD5=[4d5104db754a25d1acf77ab3131e9994]
link AddAnchorUseCase to AwarnessValidator--><path d="M529.54,82.03 C542.48,99.94 557.87,121.23 569.81,137.76 " fill="none" id="AddAnchorUseCase-&gt;AwarnessValidator" style="stroke: #A80036; stroke-width: 1.0;"/><polygon fill="#A80036" points="572.77,141.85,570.7458,132.2114,569.8436,137.7959,564.2591,136.8937,572.77,141.85" style="stroke: #A80036; stroke-width: 1.0;"/><text fill="#000000" font-family="sans-serif" font-size="13" lengthAdjust="spacingAndGlyphs" textLength="163" x="589.3673" y="130.8236">_sceneAwarnessValidator</text><!--MD5=[8ded35e16f9f55814ff7d6e4d6ab8b07]
link AddAnchorUseCase to GameObjectEditor--><path d="M584.64,82.03 C626.51,100.62 676.58,122.85 714.35,139.63 " fill="none" id="AddAnchorUseCase-&gt;GameObjectEditor" style="stroke: #A80036; stroke-width: 1.0;"/><polygon fill="#A80036" points="719.36,141.85,712.7751,134.5261,714.7951,139.81,709.5112,141.83,719.36,141.85" style="stroke: #A80036; stroke-width: 1.0;"/><text fill="#000000" font-family="sans-serif" font-size="13" lengthAdjust="spacingAndGlyphs" textLength="122" x="721.6304" y="130.8236">_gameObjectEditor</text><!--MD5=[b068c9f36231b7400fa1c245dde14fe5]
@startuml
class AddAnchorUseCase {
    + AddAnchorUseCase(anchorsRepository:AnchorsRepository, saveAnchor:AnchorCreator, sceneAwarnessValidator:AwarnessValidator, gameObjectEditor:GameObjectEditor)
    + <<async>> createAzureAnchor(theObject:GameObject, index:int) : Task<bool>
}
AddAnchorUseCase - -> "_anchorsRepository" AnchorsRepository
AddAnchorUseCase - -> "_saveAnchor" AnchorCreator
AddAnchorUseCase - -> "_sceneAwarnessValidator" AwarnessValidator
AddAnchorUseCase - -> "_gameObjectEditor" GameObjectEditor
@enduml

PlantUML version 1.2020.02(Sun Mar 01 10:22:07 GMT 2020)
(GPL source distribution)
Java Runtime: OpenJDK Runtime Environment
JVM: OpenJDK 64-Bit Server VM
Java Version: 11.0.9+11-Ubuntu-0ubuntu1
Operating System: Linux
Default Encoding: ANSI_X3.4-1968
Language: en
Country: US
--></g></svg>