<?xml version="1.0" encoding="UTF-8" standalone="no"?><svg xmlns="http://www.w3.org/2000/svg" xmlns:xlink="http://www.w3.org/1999/xlink" contentScriptType="application/ecmascript" contentStyleType="text/css" height="366px" preserveAspectRatio="none" style="width:1269px;height:366px;" version="1.1" viewBox="0 0 1269 366" width="1269px" zoomAndPan="magnify"><defs><filter height="300%" id="fjhg0u6r6ny3f" width="300%" x="-1" y="-1"><feGaussianBlur result="blurOut" stdDeviation="2.0"/><feColorMatrix in="blurOut" result="blurOut2" type="matrix" values="0 0 0 0 0 0 0 0 0 0 0 0 0 0 0 0 0 0 .4 0"/><feOffset dx="4.0" dy="4.0" in="blurOut2" result="blurOut3"/><feBlend in="SourceGraphic" in2="blurOut3" mode="normal"/></filter></defs><g><!--MD5=[0bac200b7c75fac317a2f9a1080639ef]
class AnchorPresenter--><rect fill="#FEFECE" filter="url(#fjhg0u6r6ny3f)" height="163.2422" id="AnchorPresenter" style="stroke: #A80036; stroke-width: 1.5;" width="967" x="6" y="8"/><ellipse cx="432.25" cy="24" fill="#ADD1B2" rx="11" ry="11" style="stroke: #A80036; stroke-width: 1.0;"/><path d="M435.2188,29.6406 Q434.6406,29.9375 434,30.0781 Q433.3594,30.2344 432.6563,30.2344 Q430.1563,30.2344 428.8281,28.5938 Q427.5156,26.9375 427.5156,23.8125 Q427.5156,20.6875 428.8281,19.0313 Q430.1563,17.375 432.6563,17.375 Q433.3594,17.375 434,17.5313 Q434.6563,17.6875 435.2188,17.9844 L435.2188,20.7031 Q434.5938,20.125 434,19.8594 Q433.4063,19.5781 432.7813,19.5781 Q431.4375,19.5781 430.75,20.6563 Q430.0625,21.7188 430.0625,23.8125 Q430.0625,25.9063 430.75,26.9844 Q431.4375,28.0469 432.7813,28.0469 Q433.4063,28.0469 434,27.7813 Q434.5938,27.5 435.2188,26.9219 L435.2188,29.6406 Z "/><text fill="#000000" font-family="sans-serif" font-size="12" lengthAdjust="spacingAndGlyphs" textLength="106" x="452.75" y="28.1543">AnchorPresenter</text><line style="stroke: #A80036; stroke-width: 1.5;" x1="7" x2="972" y1="40" y2="40"/><ellipse cx="17" cy="51" fill="none" rx="3" ry="3" style="stroke: #038048; stroke-width: 1.0;"/><text fill="#000000" font-family="sans-serif" font-size="11" lengthAdjust="spacingAndGlyphs" textLength="201" x="26" y="54.2104">«event» disableTapToPlace : Action</text><ellipse cx="17" cy="63.8047" fill="none" rx="3" ry="3" style="stroke: #038048; stroke-width: 1.0;"/><text fill="#000000" font-family="sans-serif" font-size="11" lengthAdjust="spacingAndGlyphs" textLength="219" x="26" y="67.0151">«event» deleteCurrentMachine : Action</text><line style="stroke: #A80036; stroke-width: 1.5;" x1="7" x2="972" y1="73.6094" y2="73.6094"/><ellipse cx="17" cy="84.6094" fill="#84BE84" rx="3" ry="3" style="stroke: #038048; stroke-width: 1.0;"/><text fill="#000000" font-family="sans-serif" font-size="11" lengthAdjust="spacingAndGlyphs" textLength="941" x="26" y="87.8198">AnchorPresenter(index:int, addAnchorUseCase:AddAnchorUseCase, removeAnchorUseCase:RemoveAnchorUseCase, boundsControlProvider:IBoundsControlProvider)</text><ellipse cx="17" cy="97.4141" fill="#84BE84" rx="3" ry="3" style="stroke: #038048; stroke-width: 1.0;"/><text fill="#000000" font-family="sans-serif" font-size="11" lengthAdjust="spacingAndGlyphs" textLength="175" x="26" y="100.6245">setAnchorCreatedState() : void</text><ellipse cx="17" cy="110.2188" fill="#84BE84" rx="3" ry="3" style="stroke: #038048; stroke-width: 1.0;"/><text fill="#000000" font-family="sans-serif" font-size="11" lengthAdjust="spacingAndGlyphs" textLength="194" x="26" y="113.4292">setAnchorNotCreatedState() : void</text><ellipse cx="17" cy="123.0234" fill="#84BE84" rx="3" ry="3" style="stroke: #038048; stroke-width: 1.0;"/><text fill="#000000" font-family="sans-serif" font-size="11" lengthAdjust="spacingAndGlyphs" textLength="293" x="26" y="126.2339">«async» setAnchor(gameObject:GameObject) : void</text><ellipse cx="17" cy="135.8281" fill="#84BE84" rx="3" ry="3" style="stroke: #038048; stroke-width: 1.0;"/><text fill="#000000" font-family="sans-serif" font-size="11" lengthAdjust="spacingAndGlyphs" textLength="318" x="26" y="139.0386">«async» removeAnchor(gameObject:GameObject) : void</text><ellipse cx="17" cy="148.6328" fill="#84BE84" rx="3" ry="3" style="stroke: #038048; stroke-width: 1.0;"/><text fill="#000000" font-family="sans-serif" font-size="11" lengthAdjust="spacingAndGlyphs" textLength="78" x="26" y="151.8433">delete() : void</text><ellipse cx="17" cy="161.4375" fill="#84BE84" rx="3" ry="3" style="stroke: #038048; stroke-width: 1.0;"/><text fill="#000000" font-family="sans-serif" font-size="11" lengthAdjust="spacingAndGlyphs" textLength="187" x="26" y="164.6479">setTapToPlaceNotStarted() : void</text><!--MD5=[6037395b81641dc9f341bda23115c5fd]
class IReadOnlyReactiveProperty`1--><rect fill="#FEFECE" filter="url(#fjhg0u6r6ny3f)" height="48" id="IReadOnlyReactiveProperty`1" style="stroke: #A80036; stroke-width: 1.5;" width="224" x="242.5" y="269.5"/><ellipse cx="257.5" cy="285.5" fill="#ADD1B2" rx="11" ry="11" style="stroke: #A80036; stroke-width: 1.0;"/><path d="M260.4688,291.1406 Q259.8906,291.4375 259.25,291.5781 Q258.6094,291.7344 257.9063,291.7344 Q255.4063,291.7344 254.0781,290.0938 Q252.7656,288.4375 252.7656,285.3125 Q252.7656,282.1875 254.0781,280.5313 Q255.4063,278.875 257.9063,278.875 Q258.6094,278.875 259.25,279.0313 Q259.9063,279.1875 260.4688,279.4844 L260.4688,282.2031 Q259.8438,281.625 259.25,281.3594 Q258.6563,281.0781 258.0313,281.0781 Q256.6875,281.0781 256,282.1563 Q255.3125,283.2188 255.3125,285.3125 Q255.3125,287.4063 256,288.4844 Q256.6875,289.5469 258.0313,289.5469 Q258.6563,289.5469 259.25,289.2813 Q259.8438,289 260.4688,288.4219 L260.4688,291.1406 Z "/><text fill="#000000" font-family="sans-serif" font-size="12" lengthAdjust="spacingAndGlyphs" textLength="181" x="271.5" y="289.6543">IReadOnlyReactiveProperty`1</text><rect fill="#FFFFFF" height="15.9688" style="stroke: #000000; stroke-width: 1.0; stroke-dasharray: 2.0,2.0;" width="9" x="460.5" y="266.5"/><text fill="#000000" font-family="sans-serif" font-size="12" font-style="italic" lengthAdjust="spacingAndGlyphs" textLength="7" x="461.5" y="278.6387">T</text><line style="stroke: #A80036; stroke-width: 1.5;" x1="243.5" x2="465.5" y1="301.5" y2="301.5"/><line style="stroke: #A80036; stroke-width: 1.5;" x1="243.5" x2="465.5" y1="309.5" y2="309.5"/><!--MD5=[dcda66dabdb739ec36f1175150e3c9d5]
class Factory--><rect fill="#FEFECE" filter="url(#fjhg0u6r6ny3f)" height="48" id="Factory" style="stroke: #A80036; stroke-width: 1.5;" width="78" x="927.5" y="269.5"/><ellipse cx="942.5" cy="285.5" fill="#ADD1B2" rx="11" ry="11" style="stroke: #A80036; stroke-width: 1.0;"/><path d="M945.4688,291.1406 Q944.8906,291.4375 944.25,291.5781 Q943.6094,291.7344 942.9063,291.7344 Q940.4063,291.7344 939.0781,290.0938 Q937.7656,288.4375 937.7656,285.3125 Q937.7656,282.1875 939.0781,280.5313 Q940.4063,278.875 942.9063,278.875 Q943.6094,278.875 944.25,279.0313 Q944.9063,279.1875 945.4688,279.4844 L945.4688,282.2031 Q944.8438,281.625 944.25,281.3594 Q943.6563,281.0781 943.0313,281.0781 Q941.6875,281.0781 941,282.1563 Q940.3125,283.2188 940.3125,285.3125 Q940.3125,287.4063 941,288.4844 Q941.6875,289.5469 943.0313,289.5469 Q943.6563,289.5469 944.25,289.2813 Q944.8438,289 945.4688,288.4219 L945.4688,291.1406 Z "/><text fill="#000000" font-family="sans-serif" font-size="12" lengthAdjust="spacingAndGlyphs" textLength="46" x="956.5" y="289.6543">Factory</text><line style="stroke: #A80036; stroke-width: 1.5;" x1="928.5" x2="1004.5" y1="301.5" y2="301.5"/><line style="stroke: #A80036; stroke-width: 1.5;" x1="928.5" x2="1004.5" y1="309.5" y2="309.5"/><!--MD5=[60d6b92408f98aed8df94d5c6e04aa63]
class State--><rect fill="#FEFECE" filter="url(#fjhg0u6r6ny3f)" height="124.8281" id="State" style="stroke: #A80036; stroke-width: 1.5;" width="247" x="502" y="231"/><ellipse cx="604.25" cy="247" fill="#ADD1B2" rx="11" ry="11" style="stroke: #A80036; stroke-width: 1.0;"/><path d="M607.2188,252.6406 Q606.6406,252.9375 606,253.0781 Q605.3594,253.2344 604.6563,253.2344 Q602.1563,253.2344 600.8281,251.5938 Q599.5156,249.9375 599.5156,246.8125 Q599.5156,243.6875 600.8281,242.0313 Q602.1563,240.375 604.6563,240.375 Q605.3594,240.375 606,240.5313 Q606.6563,240.6875 607.2188,240.9844 L607.2188,243.7031 Q606.5938,243.125 606,242.8594 Q605.4063,242.5781 604.7813,242.5781 Q603.4375,242.5781 602.75,243.6563 Q602.0625,244.7188 602.0625,246.8125 Q602.0625,248.9063 602.75,249.9844 Q603.4375,251.0469 604.7813,251.0469 Q605.4063,251.0469 606,250.7813 Q606.5938,250.5 607.2188,249.9219 L607.2188,252.6406 Z "/><text fill="#000000" font-family="sans-serif" font-size="12" lengthAdjust="spacingAndGlyphs" textLength="34" x="624.75" y="251.1543">State</text><line style="stroke: #A80036; stroke-width: 1.5;" x1="503" x2="748" y1="263" y2="263"/><ellipse cx="513" cy="274" fill="none" rx="3" ry="3" style="stroke: #038048; stroke-width: 1.0;"/><text fill="#000000" font-family="sans-serif" font-size="11" lengthAdjust="spacingAndGlyphs" textLength="183" x="522" y="277.2104">isAddAnchorVisible : bool = true</text><ellipse cx="513" cy="286.8047" fill="none" rx="3" ry="3" style="stroke: #038048; stroke-width: 1.0;"/><text fill="#000000" font-family="sans-serif" font-size="11" lengthAdjust="spacingAndGlyphs" textLength="188" x="522" y="290.0151">isTapToPlaceVisible : bool = true</text><ellipse cx="513" cy="299.6094" fill="none" rx="3" ry="3" style="stroke: #038048; stroke-width: 1.0;"/><text fill="#000000" font-family="sans-serif" font-size="11" lengthAdjust="spacingAndGlyphs" textLength="205" x="522" y="302.8198">isDeleteMachineVisible : bool = true</text><ellipse cx="513" cy="312.4141" fill="none" rx="3" ry="3" style="stroke: #038048; stroke-width: 1.0;"/><text fill="#000000" font-family="sans-serif" font-size="11" lengthAdjust="spacingAndGlyphs" textLength="212" x="522" y="315.6245">isRemoveAnchorVisible : bool = false</text><ellipse cx="513" cy="325.2188" fill="none" rx="3" ry="3" style="stroke: #038048; stroke-width: 1.0;"/><text fill="#000000" font-family="sans-serif" font-size="11" lengthAdjust="spacingAndGlyphs" textLength="221" x="522" y="328.4292">areBoundControlsVisible : bool = false</text><line style="stroke: #A80036; stroke-width: 1.5;" x1="503" x2="748" y1="335.0234" y2="335.0234"/><ellipse cx="513" cy="346.0234" fill="#84BE84" rx="3" ry="3" style="stroke: #038048; stroke-width: 1.0;"/><text fill="#000000" font-family="sans-serif" font-size="11" lengthAdjust="spacingAndGlyphs" textLength="101" x="522" y="349.2339">State(state:State)</text><!--MD5=[dc4d4dc1135cde0a1b5b7d925b1d0ee8]
class PlaceholderFactory`2--><rect fill="#FEFECE" filter="url(#fjhg0u6r6ny3f)" height="48" id="PlaceholderFactory`2" style="stroke: #A80036; stroke-width: 1.5;" width="204" x="1008.5" y="65.5"/><ellipse cx="1023.5" cy="81.5" fill="#ADD1B2" rx="11" ry="11" style="stroke: #A80036; stroke-width: 1.0;"/><path d="M1026.4688,87.1406 Q1025.8906,87.4375 1025.25,87.5781 Q1024.6094,87.7344 1023.9063,87.7344 Q1021.4063,87.7344 1020.0781,86.0938 Q1018.7656,84.4375 1018.7656,81.3125 Q1018.7656,78.1875 1020.0781,76.5313 Q1021.4063,74.875 1023.9063,74.875 Q1024.6094,74.875 1025.25,75.0313 Q1025.9063,75.1875 1026.4688,75.4844 L1026.4688,78.2031 Q1025.8438,77.625 1025.25,77.3594 Q1024.6563,77.0781 1024.0313,77.0781 Q1022.6875,77.0781 1022,78.1563 Q1021.3125,79.2188 1021.3125,81.3125 Q1021.3125,83.4063 1022,84.4844 Q1022.6875,85.5469 1024.0313,85.5469 Q1024.6563,85.5469 1025.25,85.2813 Q1025.8438,85 1026.4688,84.4219 L1026.4688,87.1406 Z "/><text fill="#000000" font-family="sans-serif" font-size="12" lengthAdjust="spacingAndGlyphs" textLength="134" x="1037.5" y="85.6543">PlaceholderFactory`2</text><rect fill="#FFFFFF" height="15.9688" style="stroke: #000000; stroke-width: 1.0; stroke-dasharray: 2.0,2.0;" width="36" x="1179.5" y="62.5"/><text fill="#000000" font-family="sans-serif" font-size="12" font-style="italic" lengthAdjust="spacingAndGlyphs" textLength="34" x="1180.5" y="74.6387">T1,T2</text><line style="stroke: #A80036; stroke-width: 1.5;" x1="1009.5" x2="1211.5" y1="97.5" y2="97.5"/><line style="stroke: #A80036; stroke-width: 1.5;" x1="1009.5" x2="1211.5" y1="105.5" y2="105.5"/><!--MD5=[1b4794cec481bc2cd5dbbf608d156633]
link AnchorPresenter to IReadOnlyReactiveProperty`1--><path d="M435.56,171.21 C413.3,204.52 388.98,240.9 372.85,265.04 " fill="none" id="AnchorPresenter-&gt;IReadOnlyReactiveProperty`1" style="stroke: #A80036; stroke-width: 1.0;"/><polygon fill="#A80036" points="369.93,269.41,378.2505,264.1403,372.7035,265.2497,371.5941,259.7027,369.93,269.41" style="stroke: #A80036; stroke-width: 1.0;"/><text fill="#000000" font-family="sans-serif" font-size="13" lengthAdjust="spacingAndGlyphs" textLength="90" x="272.3527" y="258.399">state&lt;State&gt;</text><!--MD5=[ab2d535feefa14bc415040a3a1f2d4c9]
reverse link AnchorPresenter to Factory--><path d="M693.77,177 C781.59,214.19 875.73,254.06 927.23,275.87 " fill="none" id="AnchorPresenter&lt;-Factory" style="stroke: #A80036; stroke-width: 1.0;"/><ellipse cx="687.1053" cy="174.1828" fill="#FFFFFF" rx="8" ry="8" style="stroke: #A80036; stroke-width: 1.0;"/><line style="stroke: #A80036; stroke-width: 1.0;" x1="694.4706" x2="679.74" y1="177.3057" y2="171.06"/><line style="stroke: #A80036; stroke-width: 1.0;" x1="683.9825" x2="690.2282" y1="181.5482" y2="166.8175"/><!--MD5=[d56958d5c2dc1a2c44fd321970666cc8]
reverse link PlaceholderFactory`2 to Factory--><path d="M1082.2,130.2 C1052.63,171.68 1007.25,235.34 983.05,269.29 " fill="none" id="PlaceholderFactory`2&lt;-Factory" style="stroke: #A80036; stroke-width: 1.0;"/><polygon fill="none" points="1076.67,125.89,1093.98,113.67,1088.07,134.02,1076.67,125.89" style="stroke: #A80036; stroke-width: 1.0;"/><text fill="#000000" font-family="sans-serif" font-size="13" lengthAdjust="spacingAndGlyphs" textLength="149" x="1108.1126" y="133.4726">&lt;int,AnchorPresenter&gt;</text><!--MD5=[b48013adc1e9dc4d90c1f04eb866d6ae]
reverse link AnchorPresenter to State--><path d="M552.39,183.91 C563.12,199.85 574.03,216.05 584.03,230.9 " fill="none" id="AnchorPresenter&lt;-State" style="stroke: #A80036; stroke-width: 1.0;"/><ellipse cx="548.3057" cy="177.8476" fill="#FFFFFF" rx="8" ry="8" style="stroke: #A80036; stroke-width: 1.0;"/><line style="stroke: #A80036; stroke-width: 1.0;" x1="552.7714" x2="543.84" y1="184.4852" y2="171.21"/><line style="stroke: #A80036; stroke-width: 1.0;" x1="541.6681" x2="554.9433" y1="182.3133" y2="173.3819"/><!--MD5=[d564f9bf0d12383175707d69dd51c686]
@startuml
class AnchorPresenter {
    + AnchorPresenter(index:int, addAnchorUseCase:AddAnchorUseCase, removeAnchorUseCase:RemoveAnchorUseCase, boundsControlProvider:IBoundsControlProvider)
    +  <<event>> disableTapToPlace : Action 
    +  <<event>> deleteCurrentMachine : Action 
    + setAnchorCreatedState() : void
    + setAnchorNotCreatedState() : void
    + <<async>> setAnchor(gameObject:GameObject) : void
    + <<async>> removeAnchor(gameObject:GameObject) : void
    + delete() : void
    + setTapToPlaceNotStarted() : void
}
class "IReadOnlyReactiveProperty`1"<T> {
}
class Factory {
}
class State {
    + isAddAnchorVisible : bool = true
    + isTapToPlaceVisible : bool = true
    + isDeleteMachineVisible : bool = true
    + isRemoveAnchorVisible : bool = false
    + areBoundControlsVisible : bool = false
    + State(state:State)
}
class "PlaceholderFactory`2"<T1,T2> {
}
AnchorPresenter - -> "state<State>" "IReadOnlyReactiveProperty`1"
AnchorPresenter +- - Factory
"PlaceholderFactory`2" "<int,AnchorPresenter>" <|- - Factory
AnchorPresenter +- - State
@enduml

PlantUML version 1.2020.02(Sun Mar 01 10:22:07 GMT 2020)
(GPL source distribution)
Java Runtime: OpenJDK Runtime Environment
JVM: OpenJDK 64-Bit Server VM
Java Version: 11.0.9+11-Ubuntu-0ubuntu1
Operating System: Linux
Default Encoding: ANSI_X3.4-1968
Language: en
Country: US
--></g></svg>