<?xml version="1.0" encoding="UTF-8" standalone="no"?><svg xmlns="http://www.w3.org/2000/svg" xmlns:xlink="http://www.w3.org/1999/xlink" contentScriptType="application/ecmascript" contentStyleType="text/css" height="309px" preserveAspectRatio="none" style="width:407px;height:309px;" version="1.1" viewBox="0 0 407 309" width="407px" zoomAndPan="magnify"><defs><filter height="300%" id="fkghz1aq5y2x3" width="300%" x="-1" y="-1"><feGaussianBlur result="blurOut" stdDeviation="2.0"/><feColorMatrix in="blurOut" result="blurOut2" type="matrix" values="0 0 0 0 0 0 0 0 0 0 0 0 0 0 0 0 0 0 .4 0"/><feOffset dx="4.0" dy="4.0" in="blurOut2" result="blurOut3"/><feBlend in="SourceGraphic" in2="blurOut3" mode="normal"/></filter></defs><g><!--MD5=[832e841e6c9257fb09d6a50a22367b20]
class AnchorObjectFactory--><rect fill="#FEFECE" filter="url(#fkghz1aq5y2x3)" height="73.6094" id="AnchorObjectFactory" style="stroke: #A80036; stroke-width: 1.5;" width="273" x="123.5" y="116"/><ellipse cx="190.75" cy="132" fill="#ADD1B2" rx="11" ry="11" style="stroke: #A80036; stroke-width: 1.0;"/><path d="M193.7188,137.6406 Q193.1406,137.9375 192.5,138.0781 Q191.8594,138.2344 191.1563,138.2344 Q188.6563,138.2344 187.3281,136.5938 Q186.0156,134.9375 186.0156,131.8125 Q186.0156,128.6875 187.3281,127.0313 Q188.6563,125.375 191.1563,125.375 Q191.8594,125.375 192.5,125.5313 Q193.1563,125.6875 193.7188,125.9844 L193.7188,128.7031 Q193.0938,128.125 192.5,127.8594 Q191.9063,127.5781 191.2813,127.5781 Q189.9375,127.5781 189.25,128.6563 Q188.5625,129.7188 188.5625,131.8125 Q188.5625,133.9063 189.25,134.9844 Q189.9375,136.0469 191.2813,136.0469 Q191.9063,136.0469 192.5,135.7813 Q193.0938,135.5 193.7188,134.9219 L193.7188,137.6406 Z "/><text fill="#000000" font-family="sans-serif" font-size="12" lengthAdjust="spacingAndGlyphs" textLength="130" x="211.25" y="136.1543">AnchorObjectFactory</text><line style="stroke: #A80036; stroke-width: 1.5;" x1="124.5" x2="395.5" y1="148" y2="148"/><line style="stroke: #A80036; stroke-width: 1.5;" x1="124.5" x2="395.5" y1="156" y2="156"/><ellipse cx="134.5" cy="167" fill="#84BE84" rx="3" ry="3" style="stroke: #038048; stroke-width: 1.0;"/><text fill="#000000" font-family="sans-serif" font-size="11" lengthAdjust="spacingAndGlyphs" textLength="247" x="143.5" y="170.2104">AnchorObjectFactory(container:DiContainer)</text><ellipse cx="134.5" cy="179.8047" fill="#84BE84" rx="3" ry="3" style="stroke: #038048; stroke-width: 1.0;"/><text fill="#000000" font-family="sans-serif" font-size="11" lengthAdjust="spacingAndGlyphs" textLength="230" x="143.5" y="183.0151">Create(prefab:Object) : AnchorPresenter</text><!--MD5=[548e385473997b93ce625fedd7015634]
class IFactory`2--><rect fill="#FEFECE" filter="url(#fkghz1aq5y2x3)" height="48" id="IFactory`2" style="stroke: #A80036; stroke-width: 1.5;" width="133" x="193.5" y="8"/><ellipse cx="208.5" cy="24" fill="#ADD1B2" rx="11" ry="11" style="stroke: #A80036; stroke-width: 1.0;"/><path d="M211.4688,29.6406 Q210.8906,29.9375 210.25,30.0781 Q209.6094,30.2344 208.9063,30.2344 Q206.4063,30.2344 205.0781,28.5938 Q203.7656,26.9375 203.7656,23.8125 Q203.7656,20.6875 205.0781,19.0313 Q206.4063,17.375 208.9063,17.375 Q209.6094,17.375 210.25,17.5313 Q210.9063,17.6875 211.4688,17.9844 L211.4688,20.7031 Q210.8438,20.125 210.25,19.8594 Q209.6563,19.5781 209.0313,19.5781 Q207.6875,19.5781 207,20.6563 Q206.3125,21.7188 206.3125,23.8125 Q206.3125,25.9063 207,26.9844 Q207.6875,28.0469 209.0313,28.0469 Q209.6563,28.0469 210.25,27.7813 Q210.8438,27.5 211.4688,26.9219 L211.4688,29.6406 Z "/><text fill="#000000" font-family="sans-serif" font-size="12" lengthAdjust="spacingAndGlyphs" textLength="63" x="222.5" y="28.1543">IFactory`2</text><rect fill="#FFFFFF" height="15.9688" style="stroke: #000000; stroke-width: 1.0; stroke-dasharray: 2.0,2.0;" width="36" x="293.5" y="5"/><text fill="#000000" font-family="sans-serif" font-size="12" font-style="italic" lengthAdjust="spacingAndGlyphs" textLength="34" x="294.5" y="17.1387">T1,T2</text><line style="stroke: #A80036; stroke-width: 1.5;" x1="194.5" x2="325.5" y1="40" y2="40"/><line style="stroke: #A80036; stroke-width: 1.5;" x1="194.5" x2="325.5" y1="48" y2="48"/><!--MD5=[12490c2ef94baadab3693195df7865ac]
class DiContainer--><rect fill="#FEFECE" filter="url(#fkghz1aq5y2x3)" height="48" id="DiContainer" style="stroke: #A80036; stroke-width: 1.5;" width="105" x="207.5" y="250"/><ellipse cx="222.5" cy="266" fill="#ADD1B2" rx="11" ry="11" style="stroke: #A80036; stroke-width: 1.0;"/><path d="M225.4688,271.6406 Q224.8906,271.9375 224.25,272.0781 Q223.6094,272.2344 222.9063,272.2344 Q220.4063,272.2344 219.0781,270.5938 Q217.7656,268.9375 217.7656,265.8125 Q217.7656,262.6875 219.0781,261.0313 Q220.4063,259.375 222.9063,259.375 Q223.6094,259.375 224.25,259.5313 Q224.9063,259.6875 225.4688,259.9844 L225.4688,262.7031 Q224.8438,262.125 224.25,261.8594 Q223.6563,261.5781 223.0313,261.5781 Q221.6875,261.5781 221,262.6563 Q220.3125,263.7188 220.3125,265.8125 Q220.3125,267.9063 221,268.9844 Q221.6875,270.0469 223.0313,270.0469 Q223.6563,270.0469 224.25,269.7813 Q224.8438,269.5 225.4688,268.9219 L225.4688,271.6406 Z "/><text fill="#000000" font-family="sans-serif" font-size="12" lengthAdjust="spacingAndGlyphs" textLength="73" x="236.5" y="270.1543">DiContainer</text><line style="stroke: #A80036; stroke-width: 1.5;" x1="208.5" x2="311.5" y1="282" y2="282"/><line style="stroke: #A80036; stroke-width: 1.5;" x1="208.5" x2="311.5" y1="290" y2="290"/><!--MD5=[9981bfa0c9d1d308f8ab37e13c66be49]
reverse link IFactory`2 to AnchorObjectFactory--><path d="M260,76.43 C260,89.33 260,103.32 260,115.71 " fill="none" id="IFactory`2&lt;-AnchorObjectFactory" style="stroke: #A80036; stroke-width: 1.0;"/><polygon fill="none" points="253,76.23,260,56.23,267,76.23,253,76.23" style="stroke: #A80036; stroke-width: 1.0;"/><text fill="#000000" font-family="sans-serif" font-size="13" lengthAdjust="spacingAndGlyphs" textLength="254" x="-24.9563" y="76.0473">&lt;UnityEngine.Object,AnchorPresenter&gt;</text><!--MD5=[aa2b00da962295b8f17ff845cca975aa]
link AnchorObjectFactory to DiContainer--><path d="M260,190.03 C260,207.48 260,228.15 260,244.49 " fill="none" id="AnchorObjectFactory-&gt;DiContainer" style="stroke: #A80036; stroke-width: 1.0;"/><polygon fill="#A80036" points="260,249.85,264,240.85,260,244.85,256,240.85,260,249.85" style="stroke: #A80036; stroke-width: 1.0;"/><text fill="#000000" font-family="sans-serif" font-size="13" lengthAdjust="spacingAndGlyphs" textLength="67" x="184.4156" y="238.8236">_container</text><!--MD5=[9299aa1079da5041b129ee1e037a973f]
@startuml
class AnchorObjectFactory {
    + AnchorObjectFactory(container:DiContainer)
    + Create(prefab:Object) : AnchorPresenter
}
class "IFactory`2"<T1,T2> {
}
"IFactory`2" "<UnityEngine.Object,AnchorPresenter>" <|- - AnchorObjectFactory
AnchorObjectFactory - -> "_container" DiContainer
@enduml

PlantUML version 1.2020.02(Sun Mar 01 10:22:07 GMT 2020)
(GPL source distribution)
Java Runtime: OpenJDK Runtime Environment
JVM: OpenJDK 64-Bit Server VM
Java Version: 11.0.9+11-Ubuntu-0ubuntu1
Operating System: Linux
Default Encoding: ANSI_X3.4-1968
Language: en
Country: US
--></g></svg>