<?xml version="1.0" encoding="UTF-8" standalone="no"?><svg xmlns="http://www.w3.org/2000/svg" xmlns:xlink="http://www.w3.org/1999/xlink" contentScriptType="application/ecmascript" contentStyleType="text/css" height="353px" preserveAspectRatio="none" style="width:298px;height:353px;" version="1.1" viewBox="0 0 298 353" width="298px" zoomAndPan="magnify"><defs><filter height="300%" id="f1s13857qo1kle" width="300%" x="-1" y="-1"><feGaussianBlur result="blurOut" stdDeviation="2.0"/><feColorMatrix in="blurOut" result="blurOut2" type="matrix" values="0 0 0 0 0 0 0 0 0 0 0 0 0 0 0 0 0 0 .4 0"/><feOffset dx="4.0" dy="4.0" in="blurOut2" result="blurOut3"/><feBlend in="SourceGraphic" in2="blurOut3" mode="normal"/></filter></defs><g><!--MD5=[aee96fbe8eecbf0b0a41f2407f1ba7d9]
class AnchorsRepository--><rect fill="#FEFECE" filter="url(#f1s13857qo1kle)" height="99.2188" id="AnchorsRepository" style="stroke: #A80036; stroke-width: 1.5;" width="281" x="6" y="8"/><ellipse cx="84.25" cy="24" fill="#B4A7E5" rx="11" ry="11" style="stroke: #A80036; stroke-width: 1.0;"/><path d="M80.1719,19.7656 L80.1719,17.6094 L87.5625,17.6094 L87.5625,19.7656 L85.0938,19.7656 L85.0938,27.8438 L87.5625,27.8438 L87.5625,30 L80.1719,30 L80.1719,27.8438 L82.6406,27.8438 L82.6406,19.7656 L80.1719,19.7656 Z "/><text fill="#000000" font-family="sans-serif" font-size="12" font-style="italic" lengthAdjust="spacingAndGlyphs" textLength="116" x="104.75" y="28.1543">AnchorsRepository</text><line style="stroke: #A80036; stroke-width: 1.5;" x1="7" x2="286" y1="40" y2="40"/><line style="stroke: #A80036; stroke-width: 1.5;" x1="7" x2="286" y1="48" y2="48"/><ellipse cx="17" cy="59" fill="#84BE84" rx="3" ry="3" style="stroke: #038048; stroke-width: 1.0;"/><text fill="#000000" font-family="sans-serif" font-size="11" lengthAdjust="spacingAndGlyphs" textLength="255" x="26" y="62.2104">addAnchor(anchor:AnchorGameObject) : void</text><ellipse cx="17" cy="71.8047" fill="#84BE84" rx="3" ry="3" style="stroke: #038048; stroke-width: 1.0;"/><text fill="#000000" font-family="sans-serif" font-size="11" lengthAdjust="spacingAndGlyphs" textLength="172" x="26" y="75.0151">removeAnchor(id:string) : void</text><ellipse cx="17" cy="84.6094" fill="#84BE84" rx="3" ry="3" style="stroke: #038048; stroke-width: 1.0;"/><text fill="#000000" font-family="sans-serif" font-size="11" lengthAdjust="spacingAndGlyphs" textLength="239" x="26" y="87.8198">getAnchor(id:string) : AnchorGameObject?</text><ellipse cx="17" cy="97.4141" fill="#84BE84" rx="3" ry="3" style="stroke: #038048; stroke-width: 1.0;"/><text fill="#000000" font-family="sans-serif" font-size="11" lengthAdjust="spacingAndGlyphs" textLength="172" x="26" y="100.6245">getAnchorsIds() : List&lt;string&gt;</text><!--MD5=[86114154a79e1e5549506348b6a4dc08]
class AnchorGameObject--><rect fill="#FEFECE" filter="url(#f1s13857qo1kle)" height="66.7422" id="AnchorGameObject" style="stroke: #A80036; stroke-width: 1.5;" width="152" x="70.5" y="167"/><ellipse cx="85.5" cy="185.9688" fill="#ADD1B2" rx="11" ry="11" style="stroke: #A80036; stroke-width: 1.0;"/><path d="M88.4688,191.6094 Q87.8906,191.9063 87.25,192.0469 Q86.6094,192.2031 85.9063,192.2031 Q83.4063,192.2031 82.0781,190.5625 Q80.7656,188.9063 80.7656,185.7813 Q80.7656,182.6563 82.0781,181 Q83.4063,179.3438 85.9063,179.3438 Q86.6094,179.3438 87.25,179.5 Q87.9063,179.6563 88.4688,179.9531 L88.4688,182.6719 Q87.8438,182.0938 87.25,181.8281 Q86.6563,181.5469 86.0313,181.5469 Q84.6875,181.5469 84,182.625 Q83.3125,183.6875 83.3125,185.7813 Q83.3125,187.875 84,188.9531 Q84.6875,190.0156 86.0313,190.0156 Q86.6563,190.0156 87.25,189.75 Q87.8438,189.4688 88.4688,188.8906 L88.4688,191.6094 Z "/><text fill="#000000" font-family="sans-serif" font-size="12" font-style="italic" lengthAdjust="spacingAndGlyphs" textLength="50" x="134.5" y="183.1387">«struct»</text><text fill="#000000" font-family="sans-serif" font-size="12" lengthAdjust="spacingAndGlyphs" textLength="120" x="99.5" y="197.1074">AnchorGameObject</text><line style="stroke: #A80036; stroke-width: 1.5;" x1="71.5" x2="221.5" y1="204.9375" y2="204.9375"/><ellipse cx="81.5" cy="215.9375" fill="none" rx="3" ry="3" style="stroke: #038048; stroke-width: 1.0;"/><text fill="#000000" font-family="sans-serif" font-size="11" lengthAdjust="spacingAndGlyphs" textLength="95" x="90.5" y="219.1479">identifier : string</text><line style="stroke: #A80036; stroke-width: 1.5;" x1="71.5" x2="221.5" y1="225.7422" y2="225.7422"/><!--MD5=[064f7a74fee85463ec1a30143664ee17]
class GameObject--><rect fill="#FEFECE" filter="url(#f1s13857qo1kle)" height="48" id="GameObject" style="stroke: #A80036; stroke-width: 1.5;" width="108" x="92.5" y="294"/><ellipse cx="107.5" cy="310" fill="#ADD1B2" rx="11" ry="11" style="stroke: #A80036; stroke-width: 1.0;"/><path d="M110.4688,315.6406 Q109.8906,315.9375 109.25,316.0781 Q108.6094,316.2344 107.9063,316.2344 Q105.4063,316.2344 104.0781,314.5938 Q102.7656,312.9375 102.7656,309.8125 Q102.7656,306.6875 104.0781,305.0313 Q105.4063,303.375 107.9063,303.375 Q108.6094,303.375 109.25,303.5313 Q109.9063,303.6875 110.4688,303.9844 L110.4688,306.7031 Q109.8438,306.125 109.25,305.8594 Q108.6563,305.5781 108.0313,305.5781 Q106.6875,305.5781 106,306.6563 Q105.3125,307.7188 105.3125,309.8125 Q105.3125,311.9063 106,312.9844 Q106.6875,314.0469 108.0313,314.0469 Q108.6563,314.0469 109.25,313.7813 Q109.8438,313.5 110.4688,312.9219 L110.4688,315.6406 Z "/><text fill="#000000" font-family="sans-serif" font-size="12" lengthAdjust="spacingAndGlyphs" textLength="76" x="121.5" y="314.1543">GameObject</text><line style="stroke: #A80036; stroke-width: 1.5;" x1="93.5" x2="199.5" y1="326" y2="326"/><line style="stroke: #A80036; stroke-width: 1.5;" x1="93.5" x2="199.5" y1="334" y2="334"/><!--MD5=[809c1d9d04355f2e43391f375b549ad0]
reverse link AnchorsRepository to AnchorGameObject--><path d="M146.5,122.21 C146.5,137.65 146.5,153.53 146.5,166.85 " fill="none" id="AnchorsRepository&lt;-AnchorGameObject" style="stroke: #A80036; stroke-width: 1.0;"/><ellipse cx="146.5" cy="115.02" fill="#FFFFFF" rx="8" ry="8" style="stroke: #A80036; stroke-width: 1.0;"/><line style="stroke: #A80036; stroke-width: 1.0;" x1="146.5" x2="146.5" y1="123.02" y2="107.02"/><line style="stroke: #A80036; stroke-width: 1.0;" x1="138.5" x2="154.5" y1="115.02" y2="115.02"/><!--MD5=[2496bc083285c5e37088946f2649e5cd]
link AnchorGameObject to GameObject--><path d="M146.5,234.29 C146.5,251.31 146.5,271.9 146.5,288.29 " fill="none" id="AnchorGameObject-&gt;GameObject" style="stroke: #A80036; stroke-width: 1.0;"/><polygon fill="#A80036" points="146.5,293.67,150.5,284.67,146.5,288.67,142.5,284.67,146.5,293.67" style="stroke: #A80036; stroke-width: 1.0;"/><text fill="#000000" font-family="sans-serif" font-size="13" lengthAdjust="spacingAndGlyphs" textLength="78" x="58.9938" y="282.9945">gameObject</text><!--MD5=[ad5d4cd335a8fa55720cf0dfb6ba8cf1]
@startuml
interface AnchorsRepository {
    + addAnchor(anchor:AnchorGameObject) : void
    + removeAnchor(id:string) : void
    + getAnchor(id:string) : AnchorGameObject?
    + getAnchorsIds() : List<string>
}
class AnchorGameObject <<struct>> {
    + identifier : string
}
AnchorsRepository +- - AnchorGameObject
AnchorGameObject - -> "gameObject" GameObject
@enduml

PlantUML version 1.2020.02(Sun Mar 01 10:22:07 GMT 2020)
(GPL source distribution)
Java Runtime: OpenJDK Runtime Environment
JVM: OpenJDK 64-Bit Server VM
Java Version: 11.0.9+11-Ubuntu-0ubuntu1
Operating System: Linux
Default Encoding: ANSI_X3.4-1968
Language: en
Country: US
--></g></svg>