<?xml version="1.0" encoding="UTF-8" standalone="no"?><svg xmlns="http://www.w3.org/2000/svg" xmlns:xlink="http://www.w3.org/1999/xlink" contentScriptType="application/ecmascript" contentStyleType="text/css" height="309px" preserveAspectRatio="none" style="width:382px;height:309px;" version="1.1" viewBox="0 0 382 309" width="382px" zoomAndPan="magnify"><defs><filter height="300%" id="f119a9lq1gwpcd" width="300%" x="-1" y="-1"><feGaussianBlur result="blurOut" stdDeviation="2.0"/><feColorMatrix in="blurOut" result="blurOut2" type="matrix" values="0 0 0 0 0 0 0 0 0 0 0 0 0 0 0 0 0 0 .4 0"/><feOffset dx="4.0" dy="4.0" in="blurOut2" result="blurOut3"/><feBlend in="SourceGraphic" in2="blurOut3" mode="normal"/></filter></defs><g><!--MD5=[832e841e6c9257fb09d6a50a22367b20]
class AnchorObjectFactory--><rect fill="#FEFECE" filter="url(#f119a9lq1gwpcd)" height="73.6094" id="AnchorObjectFactory" style="stroke: #A80036; stroke-width: 1.5;" width="273" x="98.5" y="116"/><ellipse cx="165.75" cy="132" fill="#ADD1B2" rx="11" ry="11" style="stroke: #A80036; stroke-width: 1.0;"/><path d="M168.7188,137.6406 Q168.1406,137.9375 167.5,138.0781 Q166.8594,138.2344 166.1563,138.2344 Q163.6563,138.2344 162.3281,136.5938 Q161.0156,134.9375 161.0156,131.8125 Q161.0156,128.6875 162.3281,127.0313 Q163.6563,125.375 166.1563,125.375 Q166.8594,125.375 167.5,125.5313 Q168.1563,125.6875 168.7188,125.9844 L168.7188,128.7031 Q168.0938,128.125 167.5,127.8594 Q166.9063,127.5781 166.2813,127.5781 Q164.9375,127.5781 164.25,128.6563 Q163.5625,129.7188 163.5625,131.8125 Q163.5625,133.9063 164.25,134.9844 Q164.9375,136.0469 166.2813,136.0469 Q166.9063,136.0469 167.5,135.7813 Q168.0938,135.5 168.7188,134.9219 L168.7188,137.6406 Z "/><text fill="#000000" font-family="sans-serif" font-size="12" lengthAdjust="spacingAndGlyphs" textLength="130" x="186.25" y="136.1543">AnchorObjectFactory</text><line style="stroke: #A80036; stroke-width: 1.5;" x1="99.5" x2="370.5" y1="148" y2="148"/><line style="stroke: #A80036; stroke-width: 1.5;" x1="99.5" x2="370.5" y1="156" y2="156"/><ellipse cx="109.5" cy="167" fill="#84BE84" rx="3" ry="3" style="stroke: #038048; stroke-width: 1.0;"/><text fill="#000000" font-family="sans-serif" font-size="11" lengthAdjust="spacingAndGlyphs" textLength="247" x="118.5" y="170.2104">AnchorObjectFactory(container:DiContainer)</text><ellipse cx="109.5" cy="179.8047" fill="#84BE84" rx="3" ry="3" style="stroke: #038048; stroke-width: 1.0;"/><text fill="#000000" font-family="sans-serif" font-size="11" lengthAdjust="spacingAndGlyphs" textLength="207" x="118.5" y="183.0151">Create(prefab:Object) : AnchorScript</text><!--MD5=[548e385473997b93ce625fedd7015634]
class IFactory`2--><rect fill="#FEFECE" filter="url(#f119a9lq1gwpcd)" height="48" id="IFactory`2" style="stroke: #A80036; stroke-width: 1.5;" width="133" x="168.5" y="8"/><ellipse cx="183.5" cy="24" fill="#ADD1B2" rx="11" ry="11" style="stroke: #A80036; stroke-width: 1.0;"/><path d="M186.4688,29.6406 Q185.8906,29.9375 185.25,30.0781 Q184.6094,30.2344 183.9063,30.2344 Q181.4063,30.2344 180.0781,28.5938 Q178.7656,26.9375 178.7656,23.8125 Q178.7656,20.6875 180.0781,19.0313 Q181.4063,17.375 183.9063,17.375 Q184.6094,17.375 185.25,17.5313 Q185.9063,17.6875 186.4688,17.9844 L186.4688,20.7031 Q185.8438,20.125 185.25,19.8594 Q184.6563,19.5781 184.0313,19.5781 Q182.6875,19.5781 182,20.6563 Q181.3125,21.7188 181.3125,23.8125 Q181.3125,25.9063 182,26.9844 Q182.6875,28.0469 184.0313,28.0469 Q184.6563,28.0469 185.25,27.7813 Q185.8438,27.5 186.4688,26.9219 L186.4688,29.6406 Z "/><text fill="#000000" font-family="sans-serif" font-size="12" lengthAdjust="spacingAndGlyphs" textLength="63" x="197.5" y="28.1543">IFactory`2</text><rect fill="#FFFFFF" height="15.9688" style="stroke: #000000; stroke-width: 1.0; stroke-dasharray: 2.0,2.0;" width="36" x="268.5" y="5"/><text fill="#000000" font-family="sans-serif" font-size="12" font-style="italic" lengthAdjust="spacingAndGlyphs" textLength="34" x="269.5" y="17.1387">T1,T2</text><line style="stroke: #A80036; stroke-width: 1.5;" x1="169.5" x2="300.5" y1="40" y2="40"/><line style="stroke: #A80036; stroke-width: 1.5;" x1="169.5" x2="300.5" y1="48" y2="48"/><!--MD5=[12490c2ef94baadab3693195df7865ac]
class DiContainer--><rect fill="#FEFECE" filter="url(#f119a9lq1gwpcd)" height="48" id="DiContainer" style="stroke: #A80036; stroke-width: 1.5;" width="105" x="182.5" y="250"/><ellipse cx="197.5" cy="266" fill="#ADD1B2" rx="11" ry="11" style="stroke: #A80036; stroke-width: 1.0;"/><path d="M200.4688,271.6406 Q199.8906,271.9375 199.25,272.0781 Q198.6094,272.2344 197.9063,272.2344 Q195.4063,272.2344 194.0781,270.5938 Q192.7656,268.9375 192.7656,265.8125 Q192.7656,262.6875 194.0781,261.0313 Q195.4063,259.375 197.9063,259.375 Q198.6094,259.375 199.25,259.5313 Q199.9063,259.6875 200.4688,259.9844 L200.4688,262.7031 Q199.8438,262.125 199.25,261.8594 Q198.6563,261.5781 198.0313,261.5781 Q196.6875,261.5781 196,262.6563 Q195.3125,263.7188 195.3125,265.8125 Q195.3125,267.9063 196,268.9844 Q196.6875,270.0469 198.0313,270.0469 Q198.6563,270.0469 199.25,269.7813 Q199.8438,269.5 200.4688,268.9219 L200.4688,271.6406 Z "/><text fill="#000000" font-family="sans-serif" font-size="12" lengthAdjust="spacingAndGlyphs" textLength="73" x="211.5" y="270.1543">DiContainer</text><line style="stroke: #A80036; stroke-width: 1.5;" x1="183.5" x2="286.5" y1="282" y2="282"/><line style="stroke: #A80036; stroke-width: 1.5;" x1="183.5" x2="286.5" y1="290" y2="290"/><!--MD5=[9981bfa0c9d1d308f8ab37e13c66be49]
reverse link IFactory`2 to AnchorObjectFactory--><path d="M235,76.43 C235,89.33 235,103.32 235,115.71 " fill="none" id="IFactory`2&lt;-AnchorObjectFactory" style="stroke: #A80036; stroke-width: 1.0;"/><polygon fill="none" points="228,76.23,235,56.23,242,76.23,228,76.23" style="stroke: #A80036; stroke-width: 1.0;"/><text fill="#000000" font-family="sans-serif" font-size="13" lengthAdjust="spacingAndGlyphs" textLength="229" x="-21.9094" y="76.0473">&lt;UnityEngine.Object,AnchorScript&gt;</text><!--MD5=[aa2b00da962295b8f17ff845cca975aa]
link AnchorObjectFactory to DiContainer--><path d="M235,190.03 C235,207.48 235,228.15 235,244.49 " fill="none" id="AnchorObjectFactory-&gt;DiContainer" style="stroke: #A80036; stroke-width: 1.0;"/><polygon fill="#A80036" points="235,249.85,239,240.85,235,244.85,231,240.85,235,249.85" style="stroke: #A80036; stroke-width: 1.0;"/><text fill="#000000" font-family="sans-serif" font-size="13" lengthAdjust="spacingAndGlyphs" textLength="67" x="159.4156" y="238.8236">_container</text><!--MD5=[add4b2cf6200c0c0969f4cbefc34b0b5]
@startuml
class AnchorObjectFactory {
    + AnchorObjectFactory(container:DiContainer)
    + Create(prefab:Object) : AnchorScript
}
class "IFactory`2"<T1,T2> {
}
"IFactory`2" "<UnityEngine.Object,AnchorScript>" <|- - AnchorObjectFactory
AnchorObjectFactory - -> "_container" DiContainer
@enduml

PlantUML version 1.2020.02(Sun Mar 01 10:22:07 GMT 2020)
(GPL source distribution)
Java Runtime: OpenJDK Runtime Environment
JVM: OpenJDK 64-Bit Server VM
Java Version: 11.0.9+11-Ubuntu-0ubuntu1
Operating System: Linux
Default Encoding: ANSI_X3.4-1968
Language: en
Country: US
--></g></svg>