<?xml version="1.0" encoding="UTF-8" standalone="no"?><svg xmlns="http://www.w3.org/2000/svg" xmlns:xlink="http://www.w3.org/1999/xlink" contentScriptType="application/ecmascript" contentStyleType="text/css" height="398px" preserveAspectRatio="none" style="width:990px;height:398px;" version="1.1" viewBox="0 0 990 398" width="990px" zoomAndPan="magnify"><defs><filter height="300%" id="f1nllxfhxqzxpj" width="300%" x="-1" y="-1"><feGaussianBlur result="blurOut" stdDeviation="2.0"/><feColorMatrix in="blurOut" result="blurOut2" type="matrix" values="0 0 0 0 0 0 0 0 0 0 0 0 0 0 0 0 0 0 .4 0"/><feOffset dx="4.0" dy="4.0" in="blurOut2" result="blurOut3"/><feBlend in="SourceGraphic" in2="blurOut3" mode="normal"/></filter></defs><g><!--MD5=[af8bf0de2b715b8678b05ac4336b4184]
class AnchorScript--><rect fill="#FEFECE" filter="url(#f1nllxfhxqzxpj)" height="163.2422" id="AnchorScript" style="stroke: #A80036; stroke-width: 1.5;" width="630" x="349.13" y="116"/><ellipse cx="619.88" cy="132" fill="#ADD1B2" rx="11" ry="11" style="stroke: #A80036; stroke-width: 1.0;"/><path d="M622.8488,137.6406 Q622.2706,137.9375 621.63,138.0781 Q620.9894,138.2344 620.2863,138.2344 Q617.7863,138.2344 616.4581,136.5938 Q615.1456,134.9375 615.1456,131.8125 Q615.1456,128.6875 616.4581,127.0313 Q617.7863,125.375 620.2863,125.375 Q620.9894,125.375 621.63,125.5313 Q622.2863,125.6875 622.8488,125.9844 L622.8488,128.7031 Q622.2238,128.125 621.63,127.8594 Q621.0363,127.5781 620.4113,127.5781 Q619.0675,127.5781 618.38,128.6563 Q617.6925,129.7188 617.6925,131.8125 Q617.6925,133.9063 618.38,134.9844 Q619.0675,136.0469 620.4113,136.0469 Q621.0363,136.0469 621.63,135.7813 Q622.2238,135.5 622.8488,134.9219 L622.8488,137.6406 Z "/><text fill="#000000" font-family="sans-serif" font-size="12" lengthAdjust="spacingAndGlyphs" textLength="80" x="640.38" y="136.1543">AnchorScript</text><line style="stroke: #A80036; stroke-width: 1.5;" x1="350.13" x2="978.13" y1="148" y2="148"/><ellipse cx="360.13" cy="159" fill="none" rx="3" ry="3" style="stroke: #038048; stroke-width: 1.0;"/><text fill="#000000" font-family="sans-serif" font-size="11" lengthAdjust="spacingAndGlyphs" textLength="56" x="369.13" y="162.2104">index : int</text><line style="stroke: #A80036; stroke-width: 1.5;" x1="350.13" x2="978.13" y1="168.8047" y2="168.8047"/><ellipse cx="360.13" cy="179.8047" fill="#84BE84" rx="3" ry="3" style="stroke: #038048; stroke-width: 1.0;"/><text fill="#000000" font-family="sans-serif" font-size="11" lengthAdjust="spacingAndGlyphs" textLength="604" x="369.13" y="183.0151">Construct(addAnchorUseCase:AddAnchorUseCase, removeAnchorUseCase:RemoveAnchorUseCase) : void</text><ellipse cx="360.13" cy="192.6094" fill="#84BE84" rx="3" ry="3" style="stroke: #038048; stroke-width: 1.0;"/><text fill="#000000" font-family="sans-serif" font-size="11" lengthAdjust="spacingAndGlyphs" textLength="175" x="369.13" y="195.8198">setAnchorCreatedState() : void</text><ellipse cx="360.13" cy="205.4141" fill="#84BE84" rx="3" ry="3" style="stroke: #038048; stroke-width: 1.0;"/><text fill="#000000" font-family="sans-serif" font-size="11" lengthAdjust="spacingAndGlyphs" textLength="194" x="369.13" y="208.6245">setAnchorNotCreatedState() : void</text><ellipse cx="360.13" cy="218.2188" fill="#84BE84" rx="3" ry="3" style="stroke: #038048; stroke-width: 1.0;"/><text fill="#000000" font-family="sans-serif" font-size="11" lengthAdjust="spacingAndGlyphs" textLength="154" x="369.13" y="221.4292">«async» addAnchor() : void</text><ellipse cx="360.13" cy="231.0234" fill="#84BE84" rx="3" ry="3" style="stroke: #038048; stroke-width: 1.0;"/><text fill="#000000" font-family="sans-serif" font-size="11" lengthAdjust="spacingAndGlyphs" textLength="125" x="369.13" y="234.2339">removeAnchor() : void</text><ellipse cx="360.13" cy="243.8281" fill="#84BE84" rx="3" ry="3" style="stroke: #038048; stroke-width: 1.0;"/><text fill="#000000" font-family="sans-serif" font-size="11" lengthAdjust="spacingAndGlyphs" textLength="114" x="369.13" y="247.0386">deleteObject() : void</text><ellipse cx="360.13" cy="256.6328" fill="#84BE84" rx="3" ry="3" style="stroke: #038048; stroke-width: 1.0;"/><text fill="#000000" font-family="sans-serif" font-size="11" lengthAdjust="spacingAndGlyphs" textLength="165" x="369.13" y="259.8433">enableBoundsControl() : void</text><ellipse cx="360.13" cy="269.4375" fill="#84BE84" rx="3" ry="3" style="stroke: #038048; stroke-width: 1.0;"/><text fill="#000000" font-family="sans-serif" font-size="11" lengthAdjust="spacingAndGlyphs" textLength="168" x="369.13" y="272.6479">disableBoundsControl() : void</text><!--MD5=[dcda66dabdb739ec36f1175150e3c9d5]
class Factory--><rect fill="#FEFECE" filter="url(#f1nllxfhxqzxpj)" height="48" id="Factory" style="stroke: #A80036; stroke-width: 1.5;" width="78" x="335.13" y="339"/><ellipse cx="350.13" cy="355" fill="#ADD1B2" rx="11" ry="11" style="stroke: #A80036; stroke-width: 1.0;"/><path d="M353.0988,360.6406 Q352.5206,360.9375 351.88,361.0781 Q351.2394,361.2344 350.5363,361.2344 Q348.0363,361.2344 346.7081,359.5938 Q345.3956,357.9375 345.3956,354.8125 Q345.3956,351.6875 346.7081,350.0313 Q348.0363,348.375 350.5363,348.375 Q351.2394,348.375 351.88,348.5313 Q352.5363,348.6875 353.0988,348.9844 L353.0988,351.7031 Q352.4738,351.125 351.88,350.8594 Q351.2863,350.5781 350.6613,350.5781 Q349.3175,350.5781 348.63,351.6563 Q347.9425,352.7188 347.9425,354.8125 Q347.9425,356.9063 348.63,357.9844 Q349.3175,359.0469 350.6613,359.0469 Q351.2863,359.0469 351.88,358.7813 Q352.4738,358.5 353.0988,357.9219 L353.0988,360.6406 Z "/><text fill="#000000" font-family="sans-serif" font-size="12" lengthAdjust="spacingAndGlyphs" textLength="46" x="364.13" y="359.1543">Factory</text><line style="stroke: #A80036; stroke-width: 1.5;" x1="336.13" x2="412.13" y1="371" y2="371"/><line style="stroke: #A80036; stroke-width: 1.5;" x1="336.13" x2="412.13" y1="379" y2="379"/><!--MD5=[dc4d4dc1135cde0a1b5b7d925b1d0ee8]
class PlaceholderFactory`2--><rect fill="#FEFECE" filter="url(#f1nllxfhxqzxpj)" height="48" id="PlaceholderFactory`2" style="stroke: #A80036; stroke-width: 1.5;" width="204" x="110.13" y="173.5"/><ellipse cx="125.13" cy="189.5" fill="#ADD1B2" rx="11" ry="11" style="stroke: #A80036; stroke-width: 1.0;"/><path d="M128.0988,195.1406 Q127.5206,195.4375 126.88,195.5781 Q126.2394,195.7344 125.5363,195.7344 Q123.0363,195.7344 121.7081,194.0938 Q120.3956,192.4375 120.3956,189.3125 Q120.3956,186.1875 121.7081,184.5313 Q123.0363,182.875 125.5363,182.875 Q126.2394,182.875 126.88,183.0313 Q127.5363,183.1875 128.0988,183.4844 L128.0988,186.2031 Q127.4738,185.625 126.88,185.3594 Q126.2863,185.0781 125.6613,185.0781 Q124.3175,185.0781 123.63,186.1563 Q122.9425,187.2188 122.9425,189.3125 Q122.9425,191.4063 123.63,192.4844 Q124.3175,193.5469 125.6613,193.5469 Q126.2863,193.5469 126.88,193.2813 Q127.4738,193 128.0988,192.4219 L128.0988,195.1406 Z "/><text fill="#000000" font-family="sans-serif" font-size="12" lengthAdjust="spacingAndGlyphs" textLength="134" x="139.13" y="193.6543">PlaceholderFactory`2</text><rect fill="#FFFFFF" height="15.9688" style="stroke: #000000; stroke-width: 1.0; stroke-dasharray: 2.0,2.0;" width="36" x="281.13" y="170.5"/><text fill="#000000" font-family="sans-serif" font-size="12" font-style="italic" lengthAdjust="spacingAndGlyphs" textLength="34" x="282.13" y="182.6387">T1,T2</text><line style="stroke: #A80036; stroke-width: 1.5;" x1="111.13" x2="313.13" y1="205.5" y2="205.5"/><line style="stroke: #A80036; stroke-width: 1.5;" x1="111.13" x2="313.13" y1="213.5" y2="213.5"/><!--MD5=[83b3cf3d23d77c6f1e1b5291a241bc2a]
class MonoBehaviour--><rect fill="#FEFECE" filter="url(#f1nllxfhxqzxpj)" height="48" id="MonoBehaviour" style="stroke: #A80036; stroke-width: 1.5;" width="128" x="600.13" y="8"/><ellipse cx="615.13" cy="24" fill="#ADD1B2" rx="11" ry="11" style="stroke: #A80036; stroke-width: 1.0;"/><path d="M618.0988,29.6406 Q617.5206,29.9375 616.88,30.0781 Q616.2394,30.2344 615.5363,30.2344 Q613.0363,30.2344 611.7081,28.5938 Q610.3956,26.9375 610.3956,23.8125 Q610.3956,20.6875 611.7081,19.0313 Q613.0363,17.375 615.5363,17.375 Q616.2394,17.375 616.88,17.5313 Q617.5363,17.6875 618.0988,17.9844 L618.0988,20.7031 Q617.4738,20.125 616.88,19.8594 Q616.2863,19.5781 615.6613,19.5781 Q614.3175,19.5781 613.63,20.6563 Q612.9425,21.7188 612.9425,23.8125 Q612.9425,25.9063 613.63,26.9844 Q614.3175,28.0469 615.6613,28.0469 Q616.2863,28.0469 616.88,27.7813 Q617.4738,27.5 618.0988,26.9219 L618.0988,29.6406 Z "/><text fill="#000000" font-family="sans-serif" font-size="12" lengthAdjust="spacingAndGlyphs" textLength="96" x="629.13" y="28.1543">MonoBehaviour</text><line style="stroke: #A80036; stroke-width: 1.5;" x1="601.13" x2="727.13" y1="40" y2="40"/><line style="stroke: #A80036; stroke-width: 1.5;" x1="601.13" x2="727.13" y1="48" y2="48"/><!--MD5=[064f7a74fee85463ec1a30143664ee17]
class GameObject--><rect fill="#FEFECE" filter="url(#f1nllxfhxqzxpj)" height="48" id="GameObject" style="stroke: #A80036; stroke-width: 1.5;" width="108" x="610.13" y="339"/><ellipse cx="625.13" cy="355" fill="#ADD1B2" rx="11" ry="11" style="stroke: #A80036; stroke-width: 1.0;"/><path d="M628.0988,360.6406 Q627.5206,360.9375 626.88,361.0781 Q626.2394,361.2344 625.5363,361.2344 Q623.0363,361.2344 621.7081,359.5938 Q620.3956,357.9375 620.3956,354.8125 Q620.3956,351.6875 621.7081,350.0313 Q623.0363,348.375 625.5363,348.375 Q626.2394,348.375 626.88,348.5313 Q627.5363,348.6875 628.0988,348.9844 L628.0988,351.7031 Q627.4738,351.125 626.88,350.8594 Q626.2863,350.5781 625.6613,350.5781 Q624.3175,350.5781 623.63,351.6563 Q622.9425,352.7188 622.9425,354.8125 Q622.9425,356.9063 623.63,357.9844 Q624.3175,359.0469 625.6613,359.0469 Q626.2863,359.0469 626.88,358.7813 Q627.4738,358.5 628.0988,357.9219 L628.0988,360.6406 Z "/><text fill="#000000" font-family="sans-serif" font-size="12" lengthAdjust="spacingAndGlyphs" textLength="76" x="639.13" y="359.1543">GameObject</text><line style="stroke: #A80036; stroke-width: 1.5;" x1="611.13" x2="717.13" y1="371" y2="371"/><line style="stroke: #A80036; stroke-width: 1.5;" x1="611.13" x2="717.13" y1="379" y2="379"/><!--MD5=[a5e745f45ef670347c4fdd6841b19aca]
reverse link MonoBehaviour to AnchorScript--><path d="M664.13,76.19 C664.13,88.45 664.13,102.21 664.13,115.93 " fill="none" id="MonoBehaviour&lt;-AnchorScript" style="stroke: #A80036; stroke-width: 1.0;"/><polygon fill="none" points="657.13,76.08,664.13,56.08,671.13,76.08,657.13,76.08" style="stroke: #A80036; stroke-width: 1.0;"/><!--MD5=[047bd6f21d55e7d7003b081aeedfbe5c]
link AnchorScript to GameObject--><path d="M625.14,279.29 C625.04,299.12 628,319.03 634.02,334.34 " fill="none" id="AnchorScript-&gt;GameObject" style="stroke: #A80036; stroke-width: 1.0;"/><polygon fill="#A80036" points="635.99,338.94,636.1472,329.0924,634.0325,334.3391,628.7858,332.2244,635.99,338.94" style="stroke: #A80036; stroke-width: 1.0;"/><text fill="#000000" font-family="sans-serif" font-size="13" lengthAdjust="spacingAndGlyphs" textLength="112" x="502.4291" y="327.9367">addAnchorButton</text><!--MD5=[047bd6f21d55e7d7003b081aeedfbe5c]
link AnchorScript to GameObject--><path d="M651.38,279.29 C651.35,298.95 652.3,318.69 654.24,333.95 " fill="none" id="AnchorScript-&gt;GameObject-1" style="stroke: #A80036; stroke-width: 1.0;"/><polygon fill="#A80036" points="654.93,338.94,657.6591,329.4768,654.2449,333.9872,649.7345,330.573,654.93,338.94" style="stroke: #A80036; stroke-width: 1.0;"/><text fill="#000000" font-family="sans-serif" font-size="13" lengthAdjust="spacingAndGlyphs" textLength="137" x="670.1256" y="327.9367">removeAnchorButton</text><!--MD5=[047bd6f21d55e7d7003b081aeedfbe5c]
link AnchorScript to GameObject--><path d="M677.63,279.29 C677.67,298.95 676.66,318.69 674.61,333.95 " fill="none" id="AnchorScript-&gt;GameObject-2" style="stroke: #A80036; stroke-width: 1.0;"/><polygon fill="#A80036" points="673.88,338.94,679.1497,330.6195,674.6091,333.9934,671.2352,329.4529,673.88,338.94" style="stroke: #A80036; stroke-width: 1.0;"/><text fill="#000000" font-family="sans-serif" font-size="13" lengthAdjust="spacingAndGlyphs" textLength="113" x="726.0519" y="338.0182">tapToPlaceButton</text><!--MD5=[047bd6f21d55e7d7003b081aeedfbe5c]
link AnchorScript to GameObject--><path d="M703.88,279.29 C703.98,299.12 700.96,319.03 694.82,334.34 " fill="none" id="AnchorScript-&gt;GameObject-3" style="stroke: #A80036; stroke-width: 1.0;"/><polygon fill="#A80036" points="692.82,338.94,700.0844,332.2895,694.8188,334.3569,692.7515,329.0914,692.82,338.94" style="stroke: #A80036; stroke-width: 1.0;"/><text fill="#000000" font-family="sans-serif" font-size="13" lengthAdjust="spacingAndGlyphs" textLength="83" x="606.5374" y="327.9367">deleteButton</text><!--MD5=[d56c99e9b8698ac87cb2f0264ff66afa]
reverse link AnchorScript to Factory--><path d="M507.76,286.66 C472.61,306.48 438.36,325.79 413.33,339.9 " fill="none" id="AnchorScript&lt;-Factory" style="stroke: #A80036; stroke-width: 1.0;"/><ellipse cx="514.2935" cy="282.9829" fill="#FFFFFF" rx="8" ry="8" style="stroke: #A80036; stroke-width: 1.0;"/><line style="stroke: #A80036; stroke-width: 1.0;" x1="507.327" x2="521.26" y1="286.9159" y2="279.05"/><line style="stroke: #A80036; stroke-width: 1.0;" x1="510.3606" x2="518.2265" y1="276.0165" y2="289.9494"/><!--MD5=[d56958d5c2dc1a2c44fd321970666cc8]
reverse link PlaceholderFactory`2 to Factory--><path d="M249.26,235.97 C280.64,267.64 324.6,312.01 351.12,338.77 " fill="none" id="PlaceholderFactory`2&lt;-Factory" style="stroke: #A80036; stroke-width: 1.0;"/><polygon fill="none" points="244.1,240.71,235,221.58,254.05,230.86,244.1,240.71" style="stroke: #A80036; stroke-width: 1.0;"/><text fill="#000000" font-family="sans-serif" font-size="13" lengthAdjust="spacingAndGlyphs" textLength="229" x="-17.4802" y="241.7563">&lt;UnityEngine.Object,AnchorScript&gt;</text><!--MD5=[89082714d9e32b08e9628074a62aab35]
@startuml
class AnchorScript {
    + index : int
    + Construct(addAnchorUseCase:AddAnchorUseCase, removeAnchorUseCase:RemoveAnchorUseCase) : void
    + setAnchorCreatedState() : void
    + setAnchorNotCreatedState() : void
    + <<async>> addAnchor() : void
    + removeAnchor() : void
    + deleteObject() : void
    + enableBoundsControl() : void
    + disableBoundsControl() : void
}
class Factory {
}
class "PlaceholderFactory`2"<T1,T2> {
}
MonoBehaviour <|- - AnchorScript
AnchorScript - -> "addAnchorButton" GameObject
AnchorScript - -> "removeAnchorButton" GameObject
AnchorScript - -> "tapToPlaceButton" GameObject
AnchorScript - -> "deleteButton" GameObject
AnchorScript +- - Factory
"PlaceholderFactory`2" "<UnityEngine.Object,AnchorScript>" <|- - Factory
@enduml

PlantUML version 1.2020.02(Sun Mar 01 10:22:07 GMT 2020)
(GPL source distribution)
Java Runtime: OpenJDK Runtime Environment
JVM: OpenJDK 64-Bit Server VM
Java Version: 11.0.9+11-Ubuntu-0ubuntu1
Operating System: Linux
Default Encoding: ANSI_X3.4-1968
Language: en
Country: US
--></g></svg>