<?xml version="1.0" encoding="UTF-8" standalone="no"?><svg xmlns="http://www.w3.org/2000/svg" xmlns:xlink="http://www.w3.org/1999/xlink" contentScriptType="application/ecmascript" contentStyleType="text/css" height="296px" preserveAspectRatio="none" style="width:989px;height:296px;" version="1.1" viewBox="0 0 989 296" width="989px" zoomAndPan="magnify"><defs><filter height="300%" id="fqwpk692lvgg3" width="300%" x="-1" y="-1"><feGaussianBlur result="blurOut" stdDeviation="2.0"/><feColorMatrix in="blurOut" result="blurOut2" type="matrix" values="0 0 0 0 0 0 0 0 0 0 0 0 0 0 0 0 0 0 .4 0"/><feOffset dx="4.0" dy="4.0" in="blurOut2" result="blurOut3"/><feBlend in="SourceGraphic" in2="blurOut3" mode="normal"/></filter></defs><g><!--MD5=[b9c0ae0544df6b41e252562839feb064]
class AppInstaller--><rect fill="#FEFECE" filter="url(#fqwpk692lvgg3)" height="60.8047" id="AppInstaller" style="stroke: #A80036; stroke-width: 1.5;" width="217" x="399" y="116"/><ellipse cx="466.25" cy="132" fill="#ADD1B2" rx="11" ry="11" style="stroke: #A80036; stroke-width: 1.0;"/><path d="M469.2188,137.6406 Q468.6406,137.9375 468,138.0781 Q467.3594,138.2344 466.6563,138.2344 Q464.1563,138.2344 462.8281,136.5938 Q461.5156,134.9375 461.5156,131.8125 Q461.5156,128.6875 462.8281,127.0313 Q464.1563,125.375 466.6563,125.375 Q467.3594,125.375 468,125.5313 Q468.6563,125.6875 469.2188,125.9844 L469.2188,128.7031 Q468.5938,128.125 468,127.8594 Q467.4063,127.5781 466.7813,127.5781 Q465.4375,127.5781 464.75,128.6563 Q464.0625,129.7188 464.0625,131.8125 Q464.0625,133.9063 464.75,134.9844 Q465.4375,136.0469 466.7813,136.0469 Q467.4063,136.0469 468,135.7813 Q468.5938,135.5 469.2188,134.9219 L469.2188,137.6406 Z "/><text fill="#000000" font-family="sans-serif" font-size="12" lengthAdjust="spacingAndGlyphs" textLength="74" x="486.75" y="136.1543">AppInstaller</text><line style="stroke: #A80036; stroke-width: 1.5;" x1="400" x2="615" y1="148" y2="148"/><line style="stroke: #A80036; stroke-width: 1.5;" x1="400" x2="615" y1="156" y2="156"/><ellipse cx="410" cy="167" fill="#84BE84" rx="3" ry="3" style="stroke: #038048; stroke-width: 1.0;"/><text fill="#000000" font-family="sans-serif" font-size="11" lengthAdjust="spacingAndGlyphs" textLength="191" x="419" y="170.2104">«override» InstallBindings() : void</text><!--MD5=[2317107013010699eb66b939e84ede76]
class MonoInstaller--><rect fill="#FEFECE" filter="url(#fqwpk692lvgg3)" height="48" id="MonoInstaller" style="stroke: #A80036; stroke-width: 1.5;" width="116" x="449.5" y="8"/><ellipse cx="464.5" cy="24" fill="#ADD1B2" rx="11" ry="11" style="stroke: #A80036; stroke-width: 1.0;"/><path d="M467.4688,29.6406 Q466.8906,29.9375 466.25,30.0781 Q465.6094,30.2344 464.9063,30.2344 Q462.4063,30.2344 461.0781,28.5938 Q459.7656,26.9375 459.7656,23.8125 Q459.7656,20.6875 461.0781,19.0313 Q462.4063,17.375 464.9063,17.375 Q465.6094,17.375 466.25,17.5313 Q466.9063,17.6875 467.4688,17.9844 L467.4688,20.7031 Q466.8438,20.125 466.25,19.8594 Q465.6563,19.5781 465.0313,19.5781 Q463.6875,19.5781 463,20.6563 Q462.3125,21.7188 462.3125,23.8125 Q462.3125,25.9063 463,26.9844 Q463.6875,28.0469 465.0313,28.0469 Q465.6563,28.0469 466.25,27.7813 Q466.8438,27.5 467.4688,26.9219 L467.4688,29.6406 Z "/><text fill="#000000" font-family="sans-serif" font-size="12" lengthAdjust="spacingAndGlyphs" textLength="84" x="478.5" y="28.1543">MonoInstaller</text><line style="stroke: #A80036; stroke-width: 1.5;" x1="450.5" x2="564.5" y1="40" y2="40"/><line style="stroke: #A80036; stroke-width: 1.5;" x1="450.5" x2="564.5" y1="48" y2="48"/><!--MD5=[a7fce63651370473a0f16cf8e64e6642]
class AzureSessionCoordinator--><rect fill="#FEFECE" filter="url(#fqwpk692lvgg3)" height="48" id="AzureSessionCoordinator" style="stroke: #A80036; stroke-width: 1.5;" width="189" x="6" y="237"/><ellipse cx="21" cy="253" fill="#ADD1B2" rx="11" ry="11" style="stroke: #A80036; stroke-width: 1.0;"/><path d="M23.9688,258.6406 Q23.3906,258.9375 22.75,259.0781 Q22.1094,259.2344 21.4063,259.2344 Q18.9063,259.2344 17.5781,257.5938 Q16.2656,255.9375 16.2656,252.8125 Q16.2656,249.6875 17.5781,248.0313 Q18.9063,246.375 21.4063,246.375 Q22.1094,246.375 22.75,246.5313 Q23.4063,246.6875 23.9688,246.9844 L23.9688,249.7031 Q23.3438,249.125 22.75,248.8594 Q22.1563,248.5781 21.5313,248.5781 Q20.1875,248.5781 19.5,249.6563 Q18.8125,250.7188 18.8125,252.8125 Q18.8125,254.9063 19.5,255.9844 Q20.1875,257.0469 21.5313,257.0469 Q22.1563,257.0469 22.75,256.7813 Q23.3438,256.5 23.9688,255.9219 L23.9688,258.6406 Z "/><text fill="#000000" font-family="sans-serif" font-size="12" lengthAdjust="spacingAndGlyphs" textLength="157" x="35" y="257.1543">AzureSessionCoordinator</text><line style="stroke: #A80036; stroke-width: 1.5;" x1="7" x2="194" y1="269" y2="269"/><line style="stroke: #A80036; stroke-width: 1.5;" x1="7" x2="194" y1="277" y2="277"/><!--MD5=[6f1e49e2186d2ffd568639261351a372]
class AddAnchorUseCase--><rect fill="#FEFECE" filter="url(#fqwpk692lvgg3)" height="48" id="AddAnchorUseCase" style="stroke: #A80036; stroke-width: 1.5;" width="155" x="230" y="237"/><ellipse cx="245" cy="253" fill="#ADD1B2" rx="11" ry="11" style="stroke: #A80036; stroke-width: 1.0;"/><path d="M247.9688,258.6406 Q247.3906,258.9375 246.75,259.0781 Q246.1094,259.2344 245.4063,259.2344 Q242.9063,259.2344 241.5781,257.5938 Q240.2656,255.9375 240.2656,252.8125 Q240.2656,249.6875 241.5781,248.0313 Q242.9063,246.375 245.4063,246.375 Q246.1094,246.375 246.75,246.5313 Q247.4063,246.6875 247.9688,246.9844 L247.9688,249.7031 Q247.3438,249.125 246.75,248.8594 Q246.1563,248.5781 245.5313,248.5781 Q244.1875,248.5781 243.5,249.6563 Q242.8125,250.7188 242.8125,252.8125 Q242.8125,254.9063 243.5,255.9844 Q244.1875,257.0469 245.5313,257.0469 Q246.1563,257.0469 246.75,256.7813 Q247.3438,256.5 247.9688,255.9219 L247.9688,258.6406 Z "/><text fill="#000000" font-family="sans-serif" font-size="12" lengthAdjust="spacingAndGlyphs" textLength="123" x="259" y="257.1543">AddAnchorUseCase</text><line style="stroke: #A80036; stroke-width: 1.5;" x1="231" x2="384" y1="269" y2="269"/><line style="stroke: #A80036; stroke-width: 1.5;" x1="231" x2="384" y1="277" y2="277"/><!--MD5=[a0c64bc48bcbcdbd0554e43be2e35653]
class SpatialAnchorManager--><rect fill="#FEFECE" filter="url(#fqwpk692lvgg3)" height="48" id="SpatialAnchorManager" style="stroke: #A80036; stroke-width: 1.5;" width="174" x="420.5" y="237"/><ellipse cx="435.5" cy="253" fill="#ADD1B2" rx="11" ry="11" style="stroke: #A80036; stroke-width: 1.0;"/><path d="M438.4688,258.6406 Q437.8906,258.9375 437.25,259.0781 Q436.6094,259.2344 435.9063,259.2344 Q433.4063,259.2344 432.0781,257.5938 Q430.7656,255.9375 430.7656,252.8125 Q430.7656,249.6875 432.0781,248.0313 Q433.4063,246.375 435.9063,246.375 Q436.6094,246.375 437.25,246.5313 Q437.9063,246.6875 438.4688,246.9844 L438.4688,249.7031 Q437.8438,249.125 437.25,248.8594 Q436.6563,248.5781 436.0313,248.5781 Q434.6875,248.5781 434,249.6563 Q433.3125,250.7188 433.3125,252.8125 Q433.3125,254.9063 434,255.9844 Q434.6875,257.0469 436.0313,257.0469 Q436.6563,257.0469 437.25,256.7813 Q437.8438,256.5 438.4688,255.9219 L438.4688,258.6406 Z "/><text fill="#000000" font-family="sans-serif" font-size="12" lengthAdjust="spacingAndGlyphs" textLength="142" x="449.5" y="257.1543">SpatialAnchorManager</text><line style="stroke: #A80036; stroke-width: 1.5;" x1="421.5" x2="593.5" y1="269" y2="269"/><line style="stroke: #A80036; stroke-width: 1.5;" x1="421.5" x2="593.5" y1="277" y2="277"/><!--MD5=[f704c7ac3879b3ecf1b8faa7456ed315]
class ObjectsCreator--><rect fill="#FEFECE" filter="url(#fqwpk692lvgg3)" height="48" id="ObjectsCreator" style="stroke: #A80036; stroke-width: 1.5;" width="126" x="629.5" y="237"/><ellipse cx="644.5" cy="253" fill="#ADD1B2" rx="11" ry="11" style="stroke: #A80036; stroke-width: 1.0;"/><path d="M647.4688,258.6406 Q646.8906,258.9375 646.25,259.0781 Q645.6094,259.2344 644.9063,259.2344 Q642.4063,259.2344 641.0781,257.5938 Q639.7656,255.9375 639.7656,252.8125 Q639.7656,249.6875 641.0781,248.0313 Q642.4063,246.375 644.9063,246.375 Q645.6094,246.375 646.25,246.5313 Q646.9063,246.6875 647.4688,246.9844 L647.4688,249.7031 Q646.8438,249.125 646.25,248.8594 Q645.6563,248.5781 645.0313,248.5781 Q643.6875,248.5781 643,249.6563 Q642.3125,250.7188 642.3125,252.8125 Q642.3125,254.9063 643,255.9844 Q643.6875,257.0469 645.0313,257.0469 Q645.6563,257.0469 646.25,256.7813 Q646.8438,256.5 647.4688,255.9219 L647.4688,258.6406 Z "/><text fill="#000000" font-family="sans-serif" font-size="12" lengthAdjust="spacingAndGlyphs" textLength="94" x="658.5" y="257.1543">ObjectsCreator</text><line style="stroke: #A80036; stroke-width: 1.5;" x1="630.5" x2="754.5" y1="269" y2="269"/><line style="stroke: #A80036; stroke-width: 1.5;" x1="630.5" x2="754.5" y1="277" y2="277"/><!--MD5=[85bf761724dd6650ddd7d56c0b8a868c]
class SceneAwarnessValidator--><rect fill="#FEFECE" filter="url(#fqwpk692lvgg3)" height="48" id="SceneAwarnessValidator" style="stroke: #A80036; stroke-width: 1.5;" width="187" x="791" y="237"/><ellipse cx="806" cy="253" fill="#ADD1B2" rx="11" ry="11" style="stroke: #A80036; stroke-width: 1.0;"/><path d="M808.9688,258.6406 Q808.3906,258.9375 807.75,259.0781 Q807.1094,259.2344 806.4063,259.2344 Q803.9063,259.2344 802.5781,257.5938 Q801.2656,255.9375 801.2656,252.8125 Q801.2656,249.6875 802.5781,248.0313 Q803.9063,246.375 806.4063,246.375 Q807.1094,246.375 807.75,246.5313 Q808.4063,246.6875 808.9688,246.9844 L808.9688,249.7031 Q808.3438,249.125 807.75,248.8594 Q807.1563,248.5781 806.5313,248.5781 Q805.1875,248.5781 804.5,249.6563 Q803.8125,250.7188 803.8125,252.8125 Q803.8125,254.9063 804.5,255.9844 Q805.1875,257.0469 806.5313,257.0469 Q807.1563,257.0469 807.75,256.7813 Q808.3438,256.5 808.9688,255.9219 L808.9688,258.6406 Z "/><text fill="#000000" font-family="sans-serif" font-size="12" lengthAdjust="spacingAndGlyphs" textLength="155" x="820" y="257.1543">SceneAwarnessValidator</text><line style="stroke: #A80036; stroke-width: 1.5;" x1="792" x2="977" y1="269" y2="269"/><line style="stroke: #A80036; stroke-width: 1.5;" x1="792" x2="977" y1="277" y2="277"/><!--MD5=[1d0eb2c87f8b21a3f371b827b370b366]
reverse link MonoInstaller to AppInstaller--><path d="M507.5,76.11 C507.5,89.31 507.5,103.54 507.5,115.65 " fill="none" id="MonoInstaller&lt;-AppInstaller" style="stroke: #A80036; stroke-width: 1.0;"/><polygon fill="none" points="500.5,76.04,507.5,56.04,514.5,76.04,500.5,76.04" style="stroke: #A80036; stroke-width: 1.0;"/><!--MD5=[d546ef9bdce5af46495fc1c8f545c693]
link AppInstaller to AzureSessionCoordinator--><path d="M400.57,177.06 C334.7,195.26 251.28,218.32 189.12,235.51 " fill="none" id="AppInstaller-&gt;AzureSessionCoordinator" style="stroke: #A80036; stroke-width: 1.0;"/><polygon fill="#A80036" points="183.93,236.94,193.6698,238.4017,188.7498,235.6099,191.5416,230.6899,183.93,236.94" style="stroke: #A80036; stroke-width: 1.0;"/><text fill="#000000" font-family="sans-serif" font-size="13" lengthAdjust="spacingAndGlyphs" textLength="123" x="66.5496" y="225.9367">sessionCoordinator</text><!--MD5=[54910aac6d18dd0eb98731b500a3f780]
link AppInstaller to AddAnchorUseCase--><path d="M454.95,177.06 C423.29,194.87 383.37,217.32 353.06,234.37 " fill="none" id="AppInstaller-&gt;AddAnchorUseCase" style="stroke: #A80036; stroke-width: 1.0;"/><polygon fill="#A80036" points="348.66,236.85,358.4665,235.9377,353.0213,234.4048,354.5542,228.9596,348.66,236.85" style="stroke: #A80036; stroke-width: 1.0;"/><text fill="#000000" font-family="sans-serif" font-size="13" lengthAdjust="spacingAndGlyphs" textLength="126" x="217.0635" y="225.8236">addAnchorUseCase</text><!--MD5=[b9d24907baa495d5e9905b5f96a37e69]
link AppInstaller to SpatialAnchorManager--><path d="M507.5,177.06 C507.5,193.93 507.5,214.98 507.5,231.65 " fill="none" id="AppInstaller-&gt;SpatialAnchorManager" style="stroke: #A80036; stroke-width: 1.0;"/><polygon fill="#A80036" points="507.5,236.67,511.5,227.67,507.5,231.67,503.5,227.67,507.5,236.67" style="stroke: #A80036; stroke-width: 1.0;"/><text fill="#000000" font-family="sans-serif" font-size="13" lengthAdjust="spacingAndGlyphs" textLength="90" x="406.5313" y="225.9945">cloudManager</text><!--MD5=[8efcd77dafae135f3ea2f6d15fd9c052]
link AppInstaller to ObjectsCreator--><path d="M556.11,177.06 C585.27,194.79 622.01,217.14 650.01,234.16 " fill="none" id="AppInstaller-&gt;ObjectsCreator" style="stroke: #A80036; stroke-width: 1.0;"/><polygon fill="#A80036" points="654.43,236.85,648.822,228.7537,650.159,234.2503,644.6624,235.5873,654.43,236.85" style="stroke: #A80036; stroke-width: 1.0;"/><text fill="#000000" font-family="sans-serif" font-size="13" lengthAdjust="spacingAndGlyphs" textLength="94" x="586.0371" y="225.8236">objectsCreator</text><!--MD5=[163e6b93662f6e655cc00fb48bb157d4]
link AppInstaller to SceneAwarnessValidator--><path d="M606.55,177.06 C667.56,195.26 744.84,218.32 802.42,235.51 " fill="none" id="AppInstaller-&gt;SceneAwarnessValidator" style="stroke: #A80036; stroke-width: 1.0;"/><polygon fill="#A80036" points="807.22,236.94,799.7349,230.5389,802.4277,235.5137,797.4529,238.2065,807.22,236.94" style="stroke: #A80036; stroke-width: 1.0;"/><text fill="#000000" font-family="sans-serif" font-size="13" lengthAdjust="spacingAndGlyphs" textLength="156" x="807.4045" y="225.9367">sceneAwarnessValidator</text><!--MD5=[741160fbf73e4d54dc4eb75a04593874]
@startuml
class AppInstaller {
    + <<override>> InstallBindings() : void
}
MonoInstaller <|- - AppInstaller
AppInstaller - -> "sessionCoordinator" AzureSessionCoordinator
AppInstaller - -> "addAnchorUseCase" AddAnchorUseCase
AppInstaller - -> "cloudManager" SpatialAnchorManager
AppInstaller - -> "objectsCreator" ObjectsCreator
AppInstaller - -> "sceneAwarnessValidator" SceneAwarnessValidator
@enduml

PlantUML version 1.2020.02(Sun Mar 01 10:22:07 GMT 2020)
(GPL source distribution)
Java Runtime: OpenJDK Runtime Environment
JVM: OpenJDK 64-Bit Server VM
Java Version: 11.0.9+11-Ubuntu-0ubuntu1
Operating System: Linux
Default Encoding: ANSI_X3.4-1968
Language: en
Country: US
--></g></svg>