<?xml version="1.0" encoding="UTF-8" standalone="no"?><svg xmlns="http://www.w3.org/2000/svg" xmlns:xlink="http://www.w3.org/1999/xlink" contentScriptType="application/ecmascript" contentStyleType="text/css" height="213px" preserveAspectRatio="none" style="width:1310px;height:213px;" version="1.1" viewBox="0 0 1310 213" width="1310px" zoomAndPan="magnify"><defs><filter height="300%" id="f121yl4sg5lfvg" width="300%" x="-1" y="-1"><feGaussianBlur result="blurOut" stdDeviation="2.0"/><feColorMatrix in="blurOut" result="blurOut2" type="matrix" values="0 0 0 0 0 0 0 0 0 0 0 0 0 0 0 0 0 0 .4 0"/><feOffset dx="4.0" dy="4.0" in="blurOut2" result="blurOut3"/><feBlend in="SourceGraphic" in2="blurOut3" mode="normal"/></filter></defs><g><!--MD5=[a7fce63651370473a0f16cf8e64e6642]
class AzureSessionCoordinator--><rect fill="#FEFECE" filter="url(#f121yl4sg5lfvg)" height="86.4141" id="AzureSessionCoordinator" style="stroke: #A80036; stroke-width: 1.5;" width="1293" x="6" y="116"/><ellipse cx="569.75" cy="132" fill="#ADD1B2" rx="11" ry="11" style="stroke: #A80036; stroke-width: 1.0;"/><path d="M572.7188,137.6406 Q572.1406,137.9375 571.5,138.0781 Q570.8594,138.2344 570.1563,138.2344 Q567.6563,138.2344 566.3281,136.5938 Q565.0156,134.9375 565.0156,131.8125 Q565.0156,128.6875 566.3281,127.0313 Q567.6563,125.375 570.1563,125.375 Q570.8594,125.375 571.5,125.5313 Q572.1563,125.6875 572.7188,125.9844 L572.7188,128.7031 Q572.0938,128.125 571.5,127.8594 Q570.9063,127.5781 570.2813,127.5781 Q568.9375,127.5781 568.25,128.6563 Q567.5625,129.7188 567.5625,131.8125 Q567.5625,133.9063 568.25,134.9844 Q568.9375,136.0469 570.2813,136.0469 Q570.9063,136.0469 571.5,135.7813 Q572.0938,135.5 572.7188,134.9219 L572.7188,137.6406 Z "/><text fill="#000000" font-family="sans-serif" font-size="12" lengthAdjust="spacingAndGlyphs" textLength="157" x="590.25" y="136.1543">AzureSessionCoordinator</text><line style="stroke: #A80036; stroke-width: 1.5;" x1="7" x2="1298" y1="148" y2="148"/><line style="stroke: #A80036; stroke-width: 1.5;" x1="7" x2="1298" y1="156" y2="156"/><ellipse cx="17" cy="167" fill="#84BE84" rx="3" ry="3" style="stroke: #038048; stroke-width: 1.0;"/><text fill="#000000" font-family="sans-serif" font-size="11" lengthAdjust="spacingAndGlyphs" textLength="1267" x="26" y="170.2104">Construct(anchorsRepository:AnchorsRepository, anchorLocator:AnchorLocator, objectsCreator:ObjectsCreator, startAzureSession:StartAzureSession, saveAnchor:AnchorCreator, gameObjectEditor:GameObjectEditor) : void</text><text fill="#000000" font-family="sans-serif" font-size="11" lengthAdjust="spacingAndGlyphs" textLength="71" x="26" y="183.0151">Start() : void</text><ellipse cx="17" cy="192.6094" fill="#84BE84" rx="3" ry="3" style="stroke: #038048; stroke-width: 1.0;"/><text fill="#000000" font-family="sans-serif" font-size="11" lengthAdjust="spacingAndGlyphs" textLength="134" x="26" y="195.8198">findAzureAnchor() : void</text><!--MD5=[83b3cf3d23d77c6f1e1b5291a241bc2a]
class MonoBehaviour--><rect fill="#FEFECE" filter="url(#f121yl4sg5lfvg)" height="48" id="MonoBehaviour" style="stroke: #A80036; stroke-width: 1.5;" width="128" x="588.5" y="8"/><ellipse cx="603.5" cy="24" fill="#ADD1B2" rx="11" ry="11" style="stroke: #A80036; stroke-width: 1.0;"/><path d="M606.4688,29.6406 Q605.8906,29.9375 605.25,30.0781 Q604.6094,30.2344 603.9063,30.2344 Q601.4063,30.2344 600.0781,28.5938 Q598.7656,26.9375 598.7656,23.8125 Q598.7656,20.6875 600.0781,19.0313 Q601.4063,17.375 603.9063,17.375 Q604.6094,17.375 605.25,17.5313 Q605.9063,17.6875 606.4688,17.9844 L606.4688,20.7031 Q605.8438,20.125 605.25,19.8594 Q604.6563,19.5781 604.0313,19.5781 Q602.6875,19.5781 602,20.6563 Q601.3125,21.7188 601.3125,23.8125 Q601.3125,25.9063 602,26.9844 Q602.6875,28.0469 604.0313,28.0469 Q604.6563,28.0469 605.25,27.7813 Q605.8438,27.5 606.4688,26.9219 L606.4688,29.6406 Z "/><text fill="#000000" font-family="sans-serif" font-size="12" lengthAdjust="spacingAndGlyphs" textLength="96" x="617.5" y="28.1543">MonoBehaviour</text><line style="stroke: #A80036; stroke-width: 1.5;" x1="589.5" x2="715.5" y1="40" y2="40"/><line style="stroke: #A80036; stroke-width: 1.5;" x1="589.5" x2="715.5" y1="48" y2="48"/><!--MD5=[c811324e51799f8c87e183d7cd4d0889]
reverse link MonoBehaviour to AzureSessionCoordinator--><path d="M652.5,76.27 C652.5,89.12 652.5,103.17 652.5,115.94 " fill="none" id="MonoBehaviour&lt;-AzureSessionCoordinator" style="stroke: #A80036; stroke-width: 1.0;"/><polygon fill="none" points="645.5,76.22,652.5,56.22,659.5,76.22,645.5,76.22" style="stroke: #A80036; stroke-width: 1.0;"/><!--MD5=[fa7a43d97811cf2411807606cd61844c]
@startuml
class AzureSessionCoordinator {
    + Construct(anchorsRepository:AnchorsRepository, anchorLocator:AnchorLocator, objectsCreator:ObjectsCreator, startAzureSession:StartAzureSession, saveAnchor:AnchorCreator, gameObjectEditor:GameObjectEditor) : void
    Start() : void
    + findAzureAnchor() : void
}
MonoBehaviour <|- - AzureSessionCoordinator
@enduml

PlantUML version 1.2020.02(Sun Mar 01 10:22:07 GMT 2020)
(GPL source distribution)
Java Runtime: OpenJDK Runtime Environment
JVM: OpenJDK 64-Bit Server VM
Java Version: 11.0.9+11-Ubuntu-0ubuntu1
Operating System: Linux
Default Encoding: ANSI_X3.4-1968
Language: en
Country: US
--></g></svg>