<?xml version="1.0" encoding="UTF-8" standalone="no"?><svg xmlns="http://www.w3.org/2000/svg" xmlns:xlink="http://www.w3.org/1999/xlink" contentScriptType="application/ecmascript" contentStyleType="text/css" height="399px" preserveAspectRatio="none" style="width:718px;height:399px;" version="1.1" viewBox="0 0 718 399" width="718px" zoomAndPan="magnify"><defs><filter height="300%" id="f157hjdsf3mdfg" width="300%" x="-1" y="-1"><feGaussianBlur result="blurOut" stdDeviation="2.0"/><feColorMatrix in="blurOut" result="blurOut2" type="matrix" values="0 0 0 0 0 0 0 0 0 0 0 0 0 0 0 0 0 0 .4 0"/><feOffset dx="4.0" dy="4.0" in="blurOut2" result="blurOut3"/><feBlend in="SourceGraphic" in2="blurOut3" mode="normal"/></filter></defs><g><!--MD5=[16631dca23acfa6291b137ce4d50d9c8]
class StartAzureSession--><rect fill="#FEFECE" filter="url(#f157hjdsf3mdfg)" height="60.8047" id="StartAzureSession" style="stroke: #A80036; stroke-width: 1.5;" width="145" x="6" y="14.5"/><ellipse cx="21" cy="30.5" fill="#B4A7E5" rx="11" ry="11" style="stroke: #A80036; stroke-width: 1.0;"/><path d="M16.9219,26.2656 L16.9219,24.1094 L24.3125,24.1094 L24.3125,26.2656 L21.8438,26.2656 L21.8438,34.3438 L24.3125,34.3438 L24.3125,36.5 L16.9219,36.5 L16.9219,34.3438 L19.3906,34.3438 L19.3906,26.2656 L16.9219,26.2656 Z "/><text fill="#000000" font-family="sans-serif" font-size="12" font-style="italic" lengthAdjust="spacingAndGlyphs" textLength="113" x="35" y="34.6543">StartAzureSession</text><line style="stroke: #A80036; stroke-width: 1.5;" x1="7" x2="150" y1="46.5" y2="46.5"/><line style="stroke: #A80036; stroke-width: 1.5;" x1="7" x2="150" y1="54.5" y2="54.5"/><text fill="#000000" font-family="sans-serif" font-size="11" lengthAdjust="spacingAndGlyphs" textLength="83" x="12" y="68.7104">invoke() : Task</text><!--MD5=[181ad8d5805b29c575b42c1d663145b5]
class AnchorRemover--><rect fill="#FEFECE" filter="url(#f157hjdsf3mdfg)" height="73.6094" id="AnchorRemover" style="stroke: #A80036; stroke-width: 1.5;" width="362" x="186.5" y="8"/><ellipse cx="314.25" cy="24" fill="#B4A7E5" rx="11" ry="11" style="stroke: #A80036; stroke-width: 1.0;"/><path d="M310.1719,19.7656 L310.1719,17.6094 L317.5625,17.6094 L317.5625,19.7656 L315.0938,19.7656 L315.0938,27.8438 L317.5625,27.8438 L317.5625,30 L310.1719,30 L310.1719,27.8438 L312.6406,27.8438 L312.6406,19.7656 L310.1719,19.7656 Z "/><text fill="#000000" font-family="sans-serif" font-size="12" font-style="italic" lengthAdjust="spacingAndGlyphs" textLength="98" x="334.75" y="28.1543">AnchorRemover</text><line style="stroke: #A80036; stroke-width: 1.5;" x1="187.5" x2="547.5" y1="40" y2="40"/><line style="stroke: #A80036; stroke-width: 1.5;" x1="187.5" x2="547.5" y1="48" y2="48"/><ellipse cx="197.5" cy="59" fill="#84BE84" rx="3" ry="3" style="stroke: #038048; stroke-width: 1.0;"/><text fill="#000000" font-family="sans-serif" font-size="11" lengthAdjust="spacingAndGlyphs" textLength="335" x="206.5" y="62.2104">deleteNativeAnchor(anchorGameObject:GameObject) : void</text><ellipse cx="197.5" cy="71.8047" fill="#84BE84" rx="3" ry="3" style="stroke: #038048; stroke-width: 1.0;"/><text fill="#000000" font-family="sans-serif" font-size="11" lengthAdjust="spacingAndGlyphs" textLength="336" x="206.5" y="75.0151">deleteCloudAnchor(anchorGameObject:GameObject) : Task</text><!--MD5=[07d157f96bca7c6ee6c67c7c5737c203]
class AzureCloudManager--><rect fill="#FEFECE" filter="url(#f157hjdsf3mdfg)" height="137.6328" id="AzureCloudManager" style="stroke: #A80036; stroke-width: 1.5;" width="594" x="70.5" y="142"/><ellipse cx="301.25" cy="158" fill="#ADD1B2" rx="11" ry="11" style="stroke: #A80036; stroke-width: 1.0;"/><path d="M304.2188,163.6406 Q303.6406,163.9375 303,164.0781 Q302.3594,164.2344 301.6563,164.2344 Q299.1563,164.2344 297.8281,162.5938 Q296.5156,160.9375 296.5156,157.8125 Q296.5156,154.6875 297.8281,153.0313 Q299.1563,151.375 301.6563,151.375 Q302.3594,151.375 303,151.5313 Q303.6563,151.6875 304.2188,151.9844 L304.2188,154.7031 Q303.5938,154.125 303,153.8594 Q302.4063,153.5781 301.7813,153.5781 Q300.4375,153.5781 299.75,154.6563 Q299.0625,155.7188 299.0625,157.8125 Q299.0625,159.9063 299.75,160.9844 Q300.4375,162.0469 301.7813,162.0469 Q302.4063,162.0469 303,161.7813 Q303.5938,161.5 304.2188,160.9219 L304.2188,163.6406 Z "/><text fill="#000000" font-family="sans-serif" font-size="12" lengthAdjust="spacingAndGlyphs" textLength="124" x="321.75" y="162.1543">AzureCloudManager</text><line style="stroke: #A80036; stroke-width: 1.5;" x1="71.5" x2="663.5" y1="174" y2="174"/><text fill="#000000" font-family="sans-serif" font-size="11" lengthAdjust="spacingAndGlyphs" text-decoration="underline" textLength="270" x="76.5" y="188.2104">ANCHOR_TYPE_PROP : string = "ANCHOR_TYPE"</text><line style="stroke: #A80036; stroke-width: 1.5;" x1="71.5" x2="663.5" y1="194.8047" y2="194.8047"/><ellipse cx="81.5" cy="205.8047" fill="#84BE84" rx="3" ry="3" style="stroke: #038048; stroke-width: 1.0;"/><text fill="#000000" font-family="sans-serif" font-size="11" lengthAdjust="spacingAndGlyphs" textLength="330" x="90.5" y="209.0151">AzureCloudManager(cloudManager:SpatialAnchorManager)</text><ellipse cx="81.5" cy="218.6094" fill="#84BE84" rx="3" ry="3" style="stroke: #038048; stroke-width: 1.0;"/><text fill="#000000" font-family="sans-serif" font-size="11" lengthAdjust="spacingAndGlyphs" textLength="568" x="90.5" y="221.8198">«async» createCloudAnchor(gameObject:GameObject, propIndex:int) : Task&lt;AnchorCreator.Result&gt;</text><ellipse cx="81.5" cy="231.4141" fill="#84BE84" rx="3" ry="3" style="stroke: #038048; stroke-width: 1.0;"/><text fill="#000000" font-family="sans-serif" font-size="11" lengthAdjust="spacingAndGlyphs" textLength="295" x="90.5" y="234.6245">createNativeAnchor(gameObject:GameObject) : void</text><ellipse cx="81.5" cy="244.2188" fill="#84BE84" rx="3" ry="3" style="stroke: #038048; stroke-width: 1.0;"/><text fill="#000000" font-family="sans-serif" font-size="11" lengthAdjust="spacingAndGlyphs" textLength="134" x="90.5" y="247.4292">«async» invoke() : Task</text><ellipse cx="81.5" cy="257.0234" fill="#84BE84" rx="3" ry="3" style="stroke: #038048; stroke-width: 1.0;"/><text fill="#000000" font-family="sans-serif" font-size="11" lengthAdjust="spacingAndGlyphs" textLength="335" x="90.5" y="260.2339">deleteNativeAnchor(anchorGameObject:GameObject) : void</text><ellipse cx="81.5" cy="269.8281" fill="#84BE84" rx="3" ry="3" style="stroke: #038048; stroke-width: 1.0;"/><text fill="#000000" font-family="sans-serif" font-size="11" lengthAdjust="spacingAndGlyphs" textLength="387" x="90.5" y="273.0386">«async» deleteCloudAnchor(anchorGameObject:GameObject) : Task</text><!--MD5=[1f4b09c58f6817b559919d4a5a29b357]
class AnchorCreator--><rect fill="#FEFECE" filter="url(#f157hjdsf3mdfg)" height="48" id="AnchorCreator" style="stroke: #A80036; stroke-width: 1.5;" width="123" x="584" y="21"/><ellipse cx="599" cy="37" fill="#ADD1B2" rx="11" ry="11" style="stroke: #A80036; stroke-width: 1.0;"/><path d="M601.9688,42.6406 Q601.3906,42.9375 600.75,43.0781 Q600.1094,43.2344 599.4063,43.2344 Q596.9063,43.2344 595.5781,41.5938 Q594.2656,39.9375 594.2656,36.8125 Q594.2656,33.6875 595.5781,32.0313 Q596.9063,30.375 599.4063,30.375 Q600.1094,30.375 600.75,30.5313 Q601.4063,30.6875 601.9688,30.9844 L601.9688,33.7031 Q601.3438,33.125 600.75,32.8594 Q600.1563,32.5781 599.5313,32.5781 Q598.1875,32.5781 597.5,33.6563 Q596.8125,34.7188 596.8125,36.8125 Q596.8125,38.9063 597.5,39.9844 Q598.1875,41.0469 599.5313,41.0469 Q600.1563,41.0469 600.75,40.7813 Q601.3438,40.5 601.9688,39.9219 L601.9688,42.6406 Z "/><text fill="#000000" font-family="sans-serif" font-size="12" lengthAdjust="spacingAndGlyphs" textLength="91" x="613" y="41.1543">AnchorCreator</text><line style="stroke: #A80036; stroke-width: 1.5;" x1="585" x2="706" y1="53" y2="53"/><line style="stroke: #A80036; stroke-width: 1.5;" x1="585" x2="706" y1="61" y2="61"/><!--MD5=[a0c64bc48bcbcdbd0554e43be2e35653]
class SpatialAnchorManager--><rect fill="#FEFECE" filter="url(#f157hjdsf3mdfg)" height="48" id="SpatialAnchorManager" style="stroke: #A80036; stroke-width: 1.5;" width="174" x="280.5" y="340"/><ellipse cx="295.5" cy="356" fill="#ADD1B2" rx="11" ry="11" style="stroke: #A80036; stroke-width: 1.0;"/><path d="M298.4688,361.6406 Q297.8906,361.9375 297.25,362.0781 Q296.6094,362.2344 295.9063,362.2344 Q293.4063,362.2344 292.0781,360.5938 Q290.7656,358.9375 290.7656,355.8125 Q290.7656,352.6875 292.0781,351.0313 Q293.4063,349.375 295.9063,349.375 Q296.6094,349.375 297.25,349.5313 Q297.9063,349.6875 298.4688,349.9844 L298.4688,352.7031 Q297.8438,352.125 297.25,351.8594 Q296.6563,351.5781 296.0313,351.5781 Q294.6875,351.5781 294,352.6563 Q293.3125,353.7188 293.3125,355.8125 Q293.3125,357.9063 294,358.9844 Q294.6875,360.0469 296.0313,360.0469 Q296.6563,360.0469 297.25,359.7813 Q297.8438,359.5 298.4688,358.9219 L298.4688,361.6406 Z "/><text fill="#000000" font-family="sans-serif" font-size="12" lengthAdjust="spacingAndGlyphs" textLength="142" x="309.5" y="360.1543">SpatialAnchorManager</text><line style="stroke: #A80036; stroke-width: 1.5;" x1="281.5" x2="453.5" y1="372" y2="372"/><line style="stroke: #A80036; stroke-width: 1.5;" x1="281.5" x2="453.5" y1="380" y2="380"/><!--MD5=[48e4bd3988da64386b493338d7657e19]
reverse link AnchorCreator to AzureCloudManager--><path d="M588.85,79.42 C558.3,97.44 519.44,120.37 482.83,141.96 " fill="none" id="AnchorCreator&lt;-AzureCloudManager" style="stroke: #A80036; stroke-width: 1.0;"/><polygon fill="none" points="585.48,73.28,606.26,69.15,592.59,85.34,585.48,73.28" style="stroke: #A80036; stroke-width: 1.0;"/><!--MD5=[91e1d88dc80a3a9c8bd9e99220a1792f]
reverse link AnchorRemover to AzureCloudManager--><path d="M367.5,102.54 C367.5,115.16 367.5,128.67 367.5,141.7 " fill="none" id="AnchorRemover&lt;-AzureCloudManager" style="stroke: #A80036; stroke-width: 1.0;"/><polygon fill="none" points="360.5,102.4,367.5,82.4,374.5,102.4,360.5,102.4" style="stroke: #A80036; stroke-width: 1.0;"/><!--MD5=[3d2080acf00bada66d985325a6862e99]
reverse link StartAzureSession to AzureCloudManager--><path d="M148.24,85.58 C178.05,102.49 213.73,122.74 247.56,141.93 " fill="none" id="StartAzureSession&lt;-AzureCloudManager" style="stroke: #A80036; stroke-width: 1.0;"/><polygon fill="none" points="144.44,91.47,130.5,75.51,151.35,79.29,144.44,91.47" style="stroke: #A80036; stroke-width: 1.0;"/><!--MD5=[929101748fb9cd203682006127fb970c]
link AzureCloudManager to SpatialAnchorManager--><path d="M367.5,280.43 C367.5,299.64 367.5,319.47 367.5,334.87 " fill="none" id="AzureCloudManager-&gt;SpatialAnchorManager" style="stroke: #A80036; stroke-width: 1.0;"/><polygon fill="#A80036" points="367.5,339.92,371.5,330.92,367.5,334.92,363.5,330.92,367.5,339.92" style="stroke: #A80036; stroke-width: 1.0;"/><text fill="#000000" font-family="sans-serif" font-size="13" lengthAdjust="spacingAndGlyphs" textLength="97" x="258.0719" y="328.9115">_cloudManager</text><!--MD5=[7ee46fa4da453f7448b33f42b32d9dac]
@startuml
interface StartAzureSession {
    invoke() : Task
}
interface AnchorRemover {
    + deleteNativeAnchor(anchorGameObject:GameObject) : void
    + deleteCloudAnchor(anchorGameObject:GameObject) : Task
}
class AzureCloudManager {
    {static} ANCHOR_TYPE_PROP : string = "ANCHOR_TYPE"
    + AzureCloudManager(cloudManager:SpatialAnchorManager)
    + <<async>> createCloudAnchor(gameObject:GameObject, propIndex:int) : Task<AnchorCreator.Result>
    + createNativeAnchor(gameObject:GameObject) : void
    + <<async>> invoke() : Task
    + deleteNativeAnchor(anchorGameObject:GameObject) : void
    + <<async>> deleteCloudAnchor(anchorGameObject:GameObject) : Task
}
AnchorCreator <|- - AzureCloudManager
AnchorRemover <|- - AzureCloudManager
StartAzureSession <|- - AzureCloudManager
AzureCloudManager - -> "_cloudManager" SpatialAnchorManager
@enduml

PlantUML version 1.2020.02(Sun Mar 01 10:22:07 GMT 2020)
(GPL source distribution)
Java Runtime: OpenJDK Runtime Environment
JVM: OpenJDK 64-Bit Server VM
Java Version: 11.0.9+11-Ubuntu-0ubuntu1
Operating System: Linux
Default Encoding: ANSI_X3.4-1968
Language: en
Country: US
--></g></svg>