<?xml version="1.0" encoding="UTF-8" standalone="no"?><svg xmlns="http://www.w3.org/2000/svg" xmlns:xlink="http://www.w3.org/1999/xlink" contentScriptType="application/ecmascript" contentStyleType="text/css" height="213px" preserveAspectRatio="none" style="width:1325px;height:213px;" version="1.1" viewBox="0 0 1325 213" width="1325px" zoomAndPan="magnify"><defs><filter height="300%" id="f1rhyckpdna013" width="300%" x="-1" y="-1"><feGaussianBlur result="blurOut" stdDeviation="2.0"/><feColorMatrix in="blurOut" result="blurOut2" type="matrix" values="0 0 0 0 0 0 0 0 0 0 0 0 0 0 0 0 0 0 .4 0"/><feOffset dx="4.0" dy="4.0" in="blurOut2" result="blurOut3"/><feBlend in="SourceGraphic" in2="blurOut3" mode="normal"/></filter></defs><g><!--MD5=[a7fce63651370473a0f16cf8e64e6642]
class AzureSessionCoordinator--><rect fill="#FEFECE" filter="url(#f1rhyckpdna013)" height="86.4141" id="AzureSessionCoordinator" style="stroke: #A80036; stroke-width: 1.5;" width="1308" x="6" y="116"/><ellipse cx="577.25" cy="132" fill="#ADD1B2" rx="11" ry="11" style="stroke: #A80036; stroke-width: 1.0;"/><path d="M580.2188,137.6406 Q579.6406,137.9375 579,138.0781 Q578.3594,138.2344 577.6563,138.2344 Q575.1563,138.2344 573.8281,136.5938 Q572.5156,134.9375 572.5156,131.8125 Q572.5156,128.6875 573.8281,127.0313 Q575.1563,125.375 577.6563,125.375 Q578.3594,125.375 579,125.5313 Q579.6563,125.6875 580.2188,125.9844 L580.2188,128.7031 Q579.5938,128.125 579,127.8594 Q578.4063,127.5781 577.7813,127.5781 Q576.4375,127.5781 575.75,128.6563 Q575.0625,129.7188 575.0625,131.8125 Q575.0625,133.9063 575.75,134.9844 Q576.4375,136.0469 577.7813,136.0469 Q578.4063,136.0469 579,135.7813 Q579.5938,135.5 580.2188,134.9219 L580.2188,137.6406 Z "/><text fill="#000000" font-family="sans-serif" font-size="12" lengthAdjust="spacingAndGlyphs" textLength="157" x="597.75" y="136.1543">AzureSessionCoordinator</text><line style="stroke: #A80036; stroke-width: 1.5;" x1="7" x2="1313" y1="148" y2="148"/><ellipse cx="17" cy="159" fill="none" rx="3" ry="3" style="stroke: #038048; stroke-width: 1.0;"/><text fill="#000000" font-family="sans-serif" font-size="11" lengthAdjust="spacingAndGlyphs" textLength="133" x="26" y="162.2104">isStarted : bool = false</text><line style="stroke: #A80036; stroke-width: 1.5;" x1="7" x2="1313" y1="168.8047" y2="168.8047"/><ellipse cx="17" cy="179.8047" fill="#84BE84" rx="3" ry="3" style="stroke: #038048; stroke-width: 1.0;"/><text fill="#000000" font-family="sans-serif" font-size="11" lengthAdjust="spacingAndGlyphs" textLength="1282" x="26" y="183.0151">Construct(anchorsRepository:IAnchorsRepository, anchorLocator:IAnchorLocator, objectsCreator:IObjectsCreator, startAzureSession:IStartAzureSession, saveAnchor:IAnchorCreator, gameObjectEditor:GameObjectEditor) : void</text><ellipse cx="17" cy="192.6094" fill="#84BE84" rx="3" ry="3" style="stroke: #038048; stroke-width: 1.0;"/><text fill="#000000" font-family="sans-serif" font-size="11" lengthAdjust="spacingAndGlyphs" textLength="71" x="26" y="195.8198">Start() : void</text><!--MD5=[83b3cf3d23d77c6f1e1b5291a241bc2a]
class MonoBehaviour--><rect fill="#FEFECE" filter="url(#f1rhyckpdna013)" height="48" id="MonoBehaviour" style="stroke: #A80036; stroke-width: 1.5;" width="128" x="596" y="8"/><ellipse cx="611" cy="24" fill="#ADD1B2" rx="11" ry="11" style="stroke: #A80036; stroke-width: 1.0;"/><path d="M613.9688,29.6406 Q613.3906,29.9375 612.75,30.0781 Q612.1094,30.2344 611.4063,30.2344 Q608.9063,30.2344 607.5781,28.5938 Q606.2656,26.9375 606.2656,23.8125 Q606.2656,20.6875 607.5781,19.0313 Q608.9063,17.375 611.4063,17.375 Q612.1094,17.375 612.75,17.5313 Q613.4063,17.6875 613.9688,17.9844 L613.9688,20.7031 Q613.3438,20.125 612.75,19.8594 Q612.1563,19.5781 611.5313,19.5781 Q610.1875,19.5781 609.5,20.6563 Q608.8125,21.7188 608.8125,23.8125 Q608.8125,25.9063 609.5,26.9844 Q610.1875,28.0469 611.5313,28.0469 Q612.1563,28.0469 612.75,27.7813 Q613.3438,27.5 613.9688,26.9219 L613.9688,29.6406 Z "/><text fill="#000000" font-family="sans-serif" font-size="12" lengthAdjust="spacingAndGlyphs" textLength="96" x="625" y="28.1543">MonoBehaviour</text><line style="stroke: #A80036; stroke-width: 1.5;" x1="597" x2="723" y1="40" y2="40"/><line style="stroke: #A80036; stroke-width: 1.5;" x1="597" x2="723" y1="48" y2="48"/><!--MD5=[c811324e51799f8c87e183d7cd4d0889]
reverse link MonoBehaviour to AzureSessionCoordinator--><path d="M660,76.27 C660,89.12 660,103.17 660,115.94 " fill="none" id="MonoBehaviour&lt;-AzureSessionCoordinator" style="stroke: #A80036; stroke-width: 1.0;"/><polygon fill="none" points="653,76.22,660,56.22,667,76.22,653,76.22" style="stroke: #A80036; stroke-width: 1.0;"/><!--MD5=[611d1a6f66c386cd7215fda8a5817767]
@startuml
class AzureSessionCoordinator {
    + isStarted : bool = false
    + Construct(anchorsRepository:IAnchorsRepository, anchorLocator:IAnchorLocator, objectsCreator:IObjectsCreator, startAzureSession:IStartAzureSession, saveAnchor:IAnchorCreator, gameObjectEditor:GameObjectEditor) : void
    + Start() : void
}
MonoBehaviour <|- - AzureSessionCoordinator
@enduml

PlantUML version 1.2020.02(Sun Mar 01 10:22:07 GMT 2020)
(GPL source distribution)
Java Runtime: OpenJDK Runtime Environment
JVM: OpenJDK 64-Bit Server VM
Java Version: 11.0.9+11-Ubuntu-0ubuntu1
Operating System: Linux
Default Encoding: ANSI_X3.4-1968
Language: en
Country: US
--></g></svg>