<?xml version="1.0" encoding="UTF-8" standalone="no"?><svg xmlns="http://www.w3.org/2000/svg" xmlns:xlink="http://www.w3.org/1999/xlink" contentScriptType="application/ecmascript" contentStyleType="text/css" height="226px" preserveAspectRatio="none" style="width:368px;height:226px;" version="1.1" viewBox="0 0 368 226" width="368px" zoomAndPan="magnify"><defs><filter height="300%" id="f1sbp04880in9k" width="300%" x="-1" y="-1"><feGaussianBlur result="blurOut" stdDeviation="2.0"/><feColorMatrix in="blurOut" result="blurOut2" type="matrix" values="0 0 0 0 0 0 0 0 0 0 0 0 0 0 0 0 0 0 .4 0"/><feOffset dx="4.0" dy="4.0" in="blurOut2" result="blurOut3"/><feBlend in="SourceGraphic" in2="blurOut3" mode="normal"/></filter></defs><g><!--MD5=[825202f1a9e436991265ca41804fd242]
class AzureAnchorsReporitory--><rect fill="#FEFECE" filter="url(#f1sbp04880in9k)" height="99.2188" id="AzureAnchorsReporitory" style="stroke: #A80036; stroke-width: 1.5;" width="351" x="6" y="116"/><ellipse cx="102.75" cy="132" fill="#ADD1B2" rx="11" ry="11" style="stroke: #A80036; stroke-width: 1.0;"/><path d="M105.7188,137.6406 Q105.1406,137.9375 104.5,138.0781 Q103.8594,138.2344 103.1563,138.2344 Q100.6563,138.2344 99.3281,136.5938 Q98.0156,134.9375 98.0156,131.8125 Q98.0156,128.6875 99.3281,127.0313 Q100.6563,125.375 103.1563,125.375 Q103.8594,125.375 104.5,125.5313 Q105.1563,125.6875 105.7188,125.9844 L105.7188,128.7031 Q105.0938,128.125 104.5,127.8594 Q103.9063,127.5781 103.2813,127.5781 Q101.9375,127.5781 101.25,128.6563 Q100.5625,129.7188 100.5625,131.8125 Q100.5625,133.9063 101.25,134.9844 Q101.9375,136.0469 103.2813,136.0469 Q103.9063,136.0469 104.5,135.7813 Q105.0938,135.5 105.7188,134.9219 L105.7188,137.6406 Z "/><text fill="#000000" font-family="sans-serif" font-size="12" lengthAdjust="spacingAndGlyphs" textLength="149" x="123.25" y="136.1543">AzureAnchorsReporitory</text><line style="stroke: #A80036; stroke-width: 1.5;" x1="7" x2="356" y1="148" y2="148"/><line style="stroke: #A80036; stroke-width: 1.5;" x1="7" x2="356" y1="156" y2="156"/><ellipse cx="17" cy="167" fill="#84BE84" rx="3" ry="3" style="stroke: #038048; stroke-width: 1.0;"/><text fill="#000000" font-family="sans-serif" font-size="11" lengthAdjust="spacingAndGlyphs" textLength="325" x="26" y="170.2104">addAnchor(anchorGameObject:AnchorGameObject) : void</text><ellipse cx="17" cy="179.8047" fill="#84BE84" rx="3" ry="3" style="stroke: #038048; stroke-width: 1.0;"/><text fill="#000000" font-family="sans-serif" font-size="11" lengthAdjust="spacingAndGlyphs" textLength="173" x="26" y="183.0151">removeAnchor(id:String) : void</text><ellipse cx="17" cy="192.6094" fill="#84BE84" rx="3" ry="3" style="stroke: #038048; stroke-width: 1.0;"/><text fill="#000000" font-family="sans-serif" font-size="11" lengthAdjust="spacingAndGlyphs" textLength="240" x="26" y="195.8198">getAnchor(id:String) : AnchorGameObject?</text><ellipse cx="17" cy="205.4141" fill="#84BE84" rx="3" ry="3" style="stroke: #038048; stroke-width: 1.0;"/><text fill="#000000" font-family="sans-serif" font-size="11" lengthAdjust="spacingAndGlyphs" textLength="172" x="26" y="208.6245">getAnchorsIds() : List&lt;string&gt;</text><!--MD5=[932a626bed533254c20735e19e148d61]
class IAnchorsRepository--><rect fill="#FEFECE" filter="url(#f1sbp04880in9k)" height="48" id="IAnchorsRepository" style="stroke: #A80036; stroke-width: 1.5;" width="152" x="105.5" y="8"/><ellipse cx="120.5" cy="24" fill="#ADD1B2" rx="11" ry="11" style="stroke: #A80036; stroke-width: 1.0;"/><path d="M123.4688,29.6406 Q122.8906,29.9375 122.25,30.0781 Q121.6094,30.2344 120.9063,30.2344 Q118.4063,30.2344 117.0781,28.5938 Q115.7656,26.9375 115.7656,23.8125 Q115.7656,20.6875 117.0781,19.0313 Q118.4063,17.375 120.9063,17.375 Q121.6094,17.375 122.25,17.5313 Q122.9063,17.6875 123.4688,17.9844 L123.4688,20.7031 Q122.8438,20.125 122.25,19.8594 Q121.6563,19.5781 121.0313,19.5781 Q119.6875,19.5781 119,20.6563 Q118.3125,21.7188 118.3125,23.8125 Q118.3125,25.9063 119,26.9844 Q119.6875,28.0469 121.0313,28.0469 Q121.6563,28.0469 122.25,27.7813 Q122.8438,27.5 123.4688,26.9219 L123.4688,29.6406 Z "/><text fill="#000000" font-family="sans-serif" font-size="12" lengthAdjust="spacingAndGlyphs" textLength="120" x="134.5" y="28.1543">IAnchorsRepository</text><line style="stroke: #A80036; stroke-width: 1.5;" x1="106.5" x2="256.5" y1="40" y2="40"/><line style="stroke: #A80036; stroke-width: 1.5;" x1="106.5" x2="256.5" y1="48" y2="48"/><!--MD5=[302785f5be5f56c26982c5197317639e]
reverse link IAnchorsRepository to AzureAnchorsReporitory--><path d="M181.5,76.51 C181.5,89.14 181.5,103.01 181.5,115.93 " fill="none" id="IAnchorsRepository&lt;-AzureAnchorsReporitory" style="stroke: #A80036; stroke-width: 1.0;"/><polygon fill="none" points="174.5,76.21,181.5,56.21,188.5,76.21,174.5,76.21" style="stroke: #A80036; stroke-width: 1.0;"/><!--MD5=[3c454638bed3af4c40ddaac2d12a5347]
@startuml
class AzureAnchorsReporitory {
    + addAnchor(anchorGameObject:AnchorGameObject) : void
    + removeAnchor(id:String) : void
    + getAnchor(id:String) : AnchorGameObject?
    + getAnchorsIds() : List<string>
}
IAnchorsRepository <|- - AzureAnchorsReporitory
@enduml

PlantUML version 1.2020.02(Sun Mar 01 10:22:07 GMT 2020)
(GPL source distribution)
Java Runtime: OpenJDK Runtime Environment
JVM: OpenJDK 64-Bit Server VM
Java Version: 11.0.9+11-Ubuntu-0ubuntu1
Operating System: Linux
Default Encoding: ANSI_X3.4-1968
Language: en
Country: US
--></g></svg>