<?xml version="1.0" encoding="UTF-8" standalone="no"?><svg xmlns="http://www.w3.org/2000/svg" xmlns:xlink="http://www.w3.org/1999/xlink" contentScriptType="application/ecmascript" contentStyleType="text/css" height="334px" preserveAspectRatio="none" style="width:596px;height:334px;" version="1.1" viewBox="0 0 596 334" width="596px" zoomAndPan="magnify"><defs><filter height="300%" id="f1f3kpfag1fz61" width="300%" x="-1" y="-1"><feGaussianBlur result="blurOut" stdDeviation="2.0"/><feColorMatrix in="blurOut" result="blurOut2" type="matrix" values="0 0 0 0 0 0 0 0 0 0 0 0 0 0 0 0 0 0 .4 0"/><feOffset dx="4.0" dy="4.0" in="blurOut2" result="blurOut3"/><feBlend in="SourceGraphic" in2="blurOut3" mode="normal"/></filter></defs><g><!--MD5=[16631dca23acfa6291b137ce4d50d9c8]
class StartAzureSession--><rect fill="#FEFECE" filter="url(#f1f3kpfag1fz61)" height="48" id="StartAzureSession" style="stroke: #A80036; stroke-width: 1.5;" width="145" x="62" y="8"/><ellipse cx="77" cy="24" fill="#B4A7E5" rx="11" ry="11" style="stroke: #A80036; stroke-width: 1.0;"/><path d="M72.9219,19.7656 L72.9219,17.6094 L80.3125,17.6094 L80.3125,19.7656 L77.8438,19.7656 L77.8438,27.8438 L80.3125,27.8438 L80.3125,30 L72.9219,30 L72.9219,27.8438 L75.3906,27.8438 L75.3906,19.7656 L72.9219,19.7656 Z "/><text fill="#000000" font-family="sans-serif" font-size="12" font-style="italic" lengthAdjust="spacingAndGlyphs" textLength="113" x="91" y="28.1543">StartAzureSession</text><line style="stroke: #A80036; stroke-width: 1.5;" x1="63" x2="206" y1="40" y2="40"/><line style="stroke: #A80036; stroke-width: 1.5;" x1="63" x2="206" y1="48" y2="48"/><!--MD5=[07d157f96bca7c6ee6c67c7c5737c203]
class AzureCloudManager--><rect fill="#FEFECE" filter="url(#f1f3kpfag1fz61)" height="99.2188" id="AzureCloudManager" style="stroke: #A80036; stroke-width: 1.5;" width="579" x="6" y="116"/><ellipse cx="229.25" cy="132" fill="#ADD1B2" rx="11" ry="11" style="stroke: #A80036; stroke-width: 1.0;"/><path d="M232.2188,137.6406 Q231.6406,137.9375 231,138.0781 Q230.3594,138.2344 229.6563,138.2344 Q227.1563,138.2344 225.8281,136.5938 Q224.5156,134.9375 224.5156,131.8125 Q224.5156,128.6875 225.8281,127.0313 Q227.1563,125.375 229.6563,125.375 Q230.3594,125.375 231,125.5313 Q231.6563,125.6875 232.2188,125.9844 L232.2188,128.7031 Q231.5938,128.125 231,127.8594 Q230.4063,127.5781 229.7813,127.5781 Q228.4375,127.5781 227.75,128.6563 Q227.0625,129.7188 227.0625,131.8125 Q227.0625,133.9063 227.75,134.9844 Q228.4375,136.0469 229.7813,136.0469 Q230.4063,136.0469 231,135.7813 Q231.5938,135.5 232.2188,134.9219 L232.2188,137.6406 Z "/><text fill="#000000" font-family="sans-serif" font-size="12" lengthAdjust="spacingAndGlyphs" textLength="124" x="249.75" y="136.1543">AzureCloudManager</text><line style="stroke: #A80036; stroke-width: 1.5;" x1="7" x2="584" y1="148" y2="148"/><text fill="#000000" font-family="sans-serif" font-size="11" lengthAdjust="spacingAndGlyphs" text-decoration="underline" textLength="270" x="12" y="162.2104">ANCHOR_TYPE_PROP : string = "ANCHOR_TYPE"</text><line style="stroke: #A80036; stroke-width: 1.5;" x1="7" x2="584" y1="168.8047" y2="168.8047"/><ellipse cx="17" cy="179.8047" fill="#84BE84" rx="3" ry="3" style="stroke: #038048; stroke-width: 1.0;"/><text fill="#000000" font-family="sans-serif" font-size="11" lengthAdjust="spacingAndGlyphs" textLength="330" x="26" y="183.0151">AzureCloudManager(cloudManager:SpatialAnchorManager)</text><ellipse cx="17" cy="192.6094" fill="#84BE84" rx="3" ry="3" style="stroke: #038048; stroke-width: 1.0;"/><text fill="#000000" font-family="sans-serif" font-size="11" lengthAdjust="spacingAndGlyphs" textLength="553" x="26" y="195.8198">«async» createCloudAnchor(gameObject:GameObject, propIndex:int) : Task&lt;SaveAnchor.Result&gt;</text><ellipse cx="17" cy="205.4141" fill="#84BE84" rx="3" ry="3" style="stroke: #038048; stroke-width: 1.0;"/><text fill="#000000" font-family="sans-serif" font-size="11" lengthAdjust="spacingAndGlyphs" textLength="295" x="26" y="208.6245">createNativeAnchor(gameObject:GameObject) : void</text><!--MD5=[e39e83354f6cd81ff51a2650f46d8ea7]
class SaveAnchor--><rect fill="#FEFECE" filter="url(#f1f3kpfag1fz61)" height="48" id="SaveAnchor" style="stroke: #A80036; stroke-width: 1.5;" width="106" x="242.5" y="8"/><ellipse cx="257.5" cy="24" fill="#ADD1B2" rx="11" ry="11" style="stroke: #A80036; stroke-width: 1.0;"/><path d="M260.4688,29.6406 Q259.8906,29.9375 259.25,30.0781 Q258.6094,30.2344 257.9063,30.2344 Q255.4063,30.2344 254.0781,28.5938 Q252.7656,26.9375 252.7656,23.8125 Q252.7656,20.6875 254.0781,19.0313 Q255.4063,17.375 257.9063,17.375 Q258.6094,17.375 259.25,17.5313 Q259.9063,17.6875 260.4688,17.9844 L260.4688,20.7031 Q259.8438,20.125 259.25,19.8594 Q258.6563,19.5781 258.0313,19.5781 Q256.6875,19.5781 256,20.6563 Q255.3125,21.7188 255.3125,23.8125 Q255.3125,25.9063 256,26.9844 Q256.6875,28.0469 258.0313,28.0469 Q258.6563,28.0469 259.25,27.7813 Q259.8438,27.5 260.4688,26.9219 L260.4688,29.6406 Z "/><text fill="#000000" font-family="sans-serif" font-size="12" lengthAdjust="spacingAndGlyphs" textLength="74" x="271.5" y="28.1543">SaveAnchor</text><line style="stroke: #A80036; stroke-width: 1.5;" x1="243.5" x2="347.5" y1="40" y2="40"/><line style="stroke: #A80036; stroke-width: 1.5;" x1="243.5" x2="347.5" y1="48" y2="48"/><!--MD5=[a0c64bc48bcbcdbd0554e43be2e35653]
class SpatialAnchorManager--><rect fill="#FEFECE" filter="url(#f1f3kpfag1fz61)" height="48" id="SpatialAnchorManager" style="stroke: #A80036; stroke-width: 1.5;" width="174" x="208.5" y="275"/><ellipse cx="223.5" cy="291" fill="#ADD1B2" rx="11" ry="11" style="stroke: #A80036; stroke-width: 1.0;"/><path d="M226.4688,296.6406 Q225.8906,296.9375 225.25,297.0781 Q224.6094,297.2344 223.9063,297.2344 Q221.4063,297.2344 220.0781,295.5938 Q218.7656,293.9375 218.7656,290.8125 Q218.7656,287.6875 220.0781,286.0313 Q221.4063,284.375 223.9063,284.375 Q224.6094,284.375 225.25,284.5313 Q225.9063,284.6875 226.4688,284.9844 L226.4688,287.7031 Q225.8438,287.125 225.25,286.8594 Q224.6563,286.5781 224.0313,286.5781 Q222.6875,286.5781 222,287.6563 Q221.3125,288.7188 221.3125,290.8125 Q221.3125,292.9063 222,293.9844 Q222.6875,295.0469 224.0313,295.0469 Q224.6563,295.0469 225.25,294.7813 Q225.8438,294.5 226.4688,293.9219 L226.4688,296.6406 Z "/><text fill="#000000" font-family="sans-serif" font-size="12" lengthAdjust="spacingAndGlyphs" textLength="142" x="237.5" y="295.1543">SpatialAnchorManager</text><line style="stroke: #A80036; stroke-width: 1.5;" x1="209.5" x2="381.5" y1="307" y2="307"/><line style="stroke: #A80036; stroke-width: 1.5;" x1="209.5" x2="381.5" y1="315" y2="315"/><!--MD5=[7b59575c92e92f361a3a396260a279b2]
reverse link SaveAnchor to AzureCloudManager--><path d="M295.5,76.51 C295.5,89.14 295.5,103.01 295.5,115.93 " fill="none" id="SaveAnchor&lt;-AzureCloudManager" style="stroke: #A80036; stroke-width: 1.0;"/><polygon fill="none" points="288.5,76.21,295.5,56.21,302.5,76.21,288.5,76.21" style="stroke: #A80036; stroke-width: 1.0;"/><!--MD5=[929101748fb9cd203682006127fb970c]
link AzureCloudManager to SpatialAnchorManager--><path d="M295.5,215.09 C295.5,233.5 295.5,253.83 295.5,269.75 " fill="none" id="AzureCloudManager-&gt;SpatialAnchorManager" style="stroke: #A80036; stroke-width: 1.0;"/><polygon fill="#A80036" points="295.5,274.98,299.5,265.98,295.5,269.98,291.5,265.98,295.5,274.98" style="stroke: #A80036; stroke-width: 1.0;"/><text fill="#000000" font-family="sans-serif" font-size="13" lengthAdjust="spacingAndGlyphs" textLength="97" x="186.0719" y="263.9869">_cloudManager</text><!--MD5=[bd5df375d79d1e1b79ca0494c6c735b3]
@startuml
interface StartAzureSession {
}
class AzureCloudManager {
    {static} ANCHOR_TYPE_PROP : string = "ANCHOR_TYPE"
    + AzureCloudManager(cloudManager:SpatialAnchorManager)
    + <<async>> createCloudAnchor(gameObject:GameObject, propIndex:int) : Task<SaveAnchor.Result>
    + createNativeAnchor(gameObject:GameObject) : void
}
SaveAnchor <|- - AzureCloudManager
AzureCloudManager - -> "_cloudManager" SpatialAnchorManager
@enduml

PlantUML version 1.2020.02(Sun Mar 01 10:22:07 GMT 2020)
(GPL source distribution)
Java Runtime: OpenJDK Runtime Environment
JVM: OpenJDK 64-Bit Server VM
Java Version: 11.0.9+11-Ubuntu-0ubuntu1
Operating System: Linux
Default Encoding: ANSI_X3.4-1968
Language: en
Country: US
--></g></svg>