<?xml version="1.0" encoding="UTF-8" standalone="no"?><svg xmlns="http://www.w3.org/2000/svg" xmlns:xlink="http://www.w3.org/1999/xlink" contentScriptType="application/ecmascript" contentStyleType="text/css" height="226px" preserveAspectRatio="none" style="width:368px;height:226px;" version="1.1" viewBox="0 0 368 226" width="368px" zoomAndPan="magnify"><defs><filter height="300%" id="ffgq2u2nk0fsx" width="300%" x="-1" y="-1"><feGaussianBlur result="blurOut" stdDeviation="2.0"/><feColorMatrix in="blurOut" result="blurOut2" type="matrix" values="0 0 0 0 0 0 0 0 0 0 0 0 0 0 0 0 0 0 .4 0"/><feOffset dx="4.0" dy="4.0" in="blurOut2" result="blurOut3"/><feBlend in="SourceGraphic" in2="blurOut3" mode="normal"/></filter></defs><g><!--MD5=[825202f1a9e436991265ca41804fd242]
class AzureAnchorsReporitory--><rect fill="#FEFECE" filter="url(#ffgq2u2nk0fsx)" height="99.2188" id="AzureAnchorsReporitory" style="stroke: #A80036; stroke-width: 1.5;" width="351" x="6" y="116"/><ellipse cx="102.75" cy="132" fill="#ADD1B2" rx="11" ry="11" style="stroke: #A80036; stroke-width: 1.0;"/><path d="M105.7188,137.6406 Q105.1406,137.9375 104.5,138.0781 Q103.8594,138.2344 103.1563,138.2344 Q100.6563,138.2344 99.3281,136.5938 Q98.0156,134.9375 98.0156,131.8125 Q98.0156,128.6875 99.3281,127.0313 Q100.6563,125.375 103.1563,125.375 Q103.8594,125.375 104.5,125.5313 Q105.1563,125.6875 105.7188,125.9844 L105.7188,128.7031 Q105.0938,128.125 104.5,127.8594 Q103.9063,127.5781 103.2813,127.5781 Q101.9375,127.5781 101.25,128.6563 Q100.5625,129.7188 100.5625,131.8125 Q100.5625,133.9063 101.25,134.9844 Q101.9375,136.0469 103.2813,136.0469 Q103.9063,136.0469 104.5,135.7813 Q105.0938,135.5 105.7188,134.9219 L105.7188,137.6406 Z "/><text fill="#000000" font-family="sans-serif" font-size="12" lengthAdjust="spacingAndGlyphs" textLength="149" x="123.25" y="136.1543">AzureAnchorsReporitory</text><line style="stroke: #A80036; stroke-width: 1.5;" x1="7" x2="356" y1="148" y2="148"/><line style="stroke: #A80036; stroke-width: 1.5;" x1="7" x2="356" y1="156" y2="156"/><ellipse cx="17" cy="167" fill="#84BE84" rx="3" ry="3" style="stroke: #038048; stroke-width: 1.0;"/><text fill="#000000" font-family="sans-serif" font-size="11" lengthAdjust="spacingAndGlyphs" textLength="325" x="26" y="170.2104">addAnchor(anchorGameObject:AnchorGameObject) : void</text><ellipse cx="17" cy="179.8047" fill="#84BE84" rx="3" ry="3" style="stroke: #038048; stroke-width: 1.0;"/><text fill="#000000" font-family="sans-serif" font-size="11" lengthAdjust="spacingAndGlyphs" textLength="173" x="26" y="183.0151">removeAnchor(id:String) : void</text><ellipse cx="17" cy="192.6094" fill="#84BE84" rx="3" ry="3" style="stroke: #038048; stroke-width: 1.0;"/><text fill="#000000" font-family="sans-serif" font-size="11" lengthAdjust="spacingAndGlyphs" textLength="240" x="26" y="195.8198">getAnchor(id:String) : AnchorGameObject?</text><ellipse cx="17" cy="205.4141" fill="#84BE84" rx="3" ry="3" style="stroke: #038048; stroke-width: 1.0;"/><text fill="#000000" font-family="sans-serif" font-size="11" lengthAdjust="spacingAndGlyphs" textLength="172" x="26" y="208.6245">getAnchorsIds() : List&lt;string&gt;</text><!--MD5=[aee96fbe8eecbf0b0a41f2407f1ba7d9]
class AnchorsRepository--><rect fill="#FEFECE" filter="url(#ffgq2u2nk0fsx)" height="48" id="AnchorsRepository" style="stroke: #A80036; stroke-width: 1.5;" width="149" x="107" y="8"/><ellipse cx="122" cy="24" fill="#ADD1B2" rx="11" ry="11" style="stroke: #A80036; stroke-width: 1.0;"/><path d="M124.9688,29.6406 Q124.3906,29.9375 123.75,30.0781 Q123.1094,30.2344 122.4063,30.2344 Q119.9063,30.2344 118.5781,28.5938 Q117.2656,26.9375 117.2656,23.8125 Q117.2656,20.6875 118.5781,19.0313 Q119.9063,17.375 122.4063,17.375 Q123.1094,17.375 123.75,17.5313 Q124.4063,17.6875 124.9688,17.9844 L124.9688,20.7031 Q124.3438,20.125 123.75,19.8594 Q123.1563,19.5781 122.5313,19.5781 Q121.1875,19.5781 120.5,20.6563 Q119.8125,21.7188 119.8125,23.8125 Q119.8125,25.9063 120.5,26.9844 Q121.1875,28.0469 122.5313,28.0469 Q123.1563,28.0469 123.75,27.7813 Q124.3438,27.5 124.9688,26.9219 L124.9688,29.6406 Z "/><text fill="#000000" font-family="sans-serif" font-size="12" lengthAdjust="spacingAndGlyphs" textLength="117" x="136" y="28.1543">AnchorsRepository</text><line style="stroke: #A80036; stroke-width: 1.5;" x1="108" x2="255" y1="40" y2="40"/><line style="stroke: #A80036; stroke-width: 1.5;" x1="108" x2="255" y1="48" y2="48"/><!--MD5=[f915b0ec8fd68dc3afd89f192c50a4f5]
reverse link AnchorsRepository to AzureAnchorsReporitory--><path d="M181.5,76.51 C181.5,89.14 181.5,103.01 181.5,115.93 " fill="none" id="AnchorsRepository&lt;-AzureAnchorsReporitory" style="stroke: #A80036; stroke-width: 1.0;"/><polygon fill="none" points="174.5,76.21,181.5,56.21,188.5,76.21,174.5,76.21" style="stroke: #A80036; stroke-width: 1.0;"/><!--MD5=[7e437f0d9a41ddbfa4ed8fac05670a3d]
@startuml
class AzureAnchorsReporitory {
    + addAnchor(anchorGameObject:AnchorGameObject) : void
    + removeAnchor(id:String) : void
    + getAnchor(id:String) : AnchorGameObject?
    + getAnchorsIds() : List<string>
}
AnchorsRepository <|- - AzureAnchorsReporitory
@enduml

PlantUML version 1.2020.02(Sun Mar 01 10:22:07 GMT 2020)
(GPL source distribution)
Java Runtime: OpenJDK Runtime Environment
JVM: OpenJDK 64-Bit Server VM
Java Version: 11.0.9+11-Ubuntu-0ubuntu1
Operating System: Linux
Default Encoding: ANSI_X3.4-1968
Language: en
Country: US
--></g></svg>