<?xml version="1.0" encoding="UTF-8" standalone="no"?><svg xmlns="http://www.w3.org/2000/svg" xmlns:xlink="http://www.w3.org/1999/xlink" contentScriptType="application/ecmascript" contentStyleType="text/css" height="360px" preserveAspectRatio="none" style="width:611px;height:360px;" version="1.1" viewBox="0 0 611 360" width="611px" zoomAndPan="magnify"><defs><filter height="300%" id="fj3h8zdvgoddd" width="300%" x="-1" y="-1"><feGaussianBlur result="blurOut" stdDeviation="2.0"/><feColorMatrix in="blurOut" result="blurOut2" type="matrix" values="0 0 0 0 0 0 0 0 0 0 0 0 0 0 0 0 0 0 .4 0"/><feOffset dx="4.0" dy="4.0" in="blurOut2" result="blurOut3"/><feBlend in="SourceGraphic" in2="blurOut3" mode="normal"/></filter></defs><g><!--MD5=[16631dca23acfa6291b137ce4d50d9c8]
class StartAzureSession--><rect fill="#FEFECE" filter="url(#fj3h8zdvgoddd)" height="60.8047" id="StartAzureSession" style="stroke: #A80036; stroke-width: 1.5;" width="145" x="146.5" y="8"/><ellipse cx="161.5" cy="24" fill="#B4A7E5" rx="11" ry="11" style="stroke: #A80036; stroke-width: 1.0;"/><path d="M157.4219,19.7656 L157.4219,17.6094 L164.8125,17.6094 L164.8125,19.7656 L162.3438,19.7656 L162.3438,27.8438 L164.8125,27.8438 L164.8125,30 L157.4219,30 L157.4219,27.8438 L159.8906,27.8438 L159.8906,19.7656 L157.4219,19.7656 Z "/><text fill="#000000" font-family="sans-serif" font-size="12" font-style="italic" lengthAdjust="spacingAndGlyphs" textLength="113" x="175.5" y="28.1543">StartAzureSession</text><line style="stroke: #A80036; stroke-width: 1.5;" x1="147.5" x2="290.5" y1="40" y2="40"/><line style="stroke: #A80036; stroke-width: 1.5;" x1="147.5" x2="290.5" y1="48" y2="48"/><text fill="#000000" font-family="sans-serif" font-size="11" lengthAdjust="spacingAndGlyphs" textLength="83" x="152.5" y="62.2104">invoke() : Task</text><!--MD5=[07d157f96bca7c6ee6c67c7c5737c203]
class AzureCloudManager--><rect fill="#FEFECE" filter="url(#fj3h8zdvgoddd)" height="112.0234" id="AzureCloudManager" style="stroke: #A80036; stroke-width: 1.5;" width="594" x="6" y="129"/><ellipse cx="236.75" cy="145" fill="#ADD1B2" rx="11" ry="11" style="stroke: #A80036; stroke-width: 1.0;"/><path d="M239.7188,150.6406 Q239.1406,150.9375 238.5,151.0781 Q237.8594,151.2344 237.1563,151.2344 Q234.6563,151.2344 233.3281,149.5938 Q232.0156,147.9375 232.0156,144.8125 Q232.0156,141.6875 233.3281,140.0313 Q234.6563,138.375 237.1563,138.375 Q237.8594,138.375 238.5,138.5313 Q239.1563,138.6875 239.7188,138.9844 L239.7188,141.7031 Q239.0938,141.125 238.5,140.8594 Q237.9063,140.5781 237.2813,140.5781 Q235.9375,140.5781 235.25,141.6563 Q234.5625,142.7188 234.5625,144.8125 Q234.5625,146.9063 235.25,147.9844 Q235.9375,149.0469 237.2813,149.0469 Q237.9063,149.0469 238.5,148.7813 Q239.0938,148.5 239.7188,147.9219 L239.7188,150.6406 Z "/><text fill="#000000" font-family="sans-serif" font-size="12" lengthAdjust="spacingAndGlyphs" textLength="124" x="257.25" y="149.1543">AzureCloudManager</text><line style="stroke: #A80036; stroke-width: 1.5;" x1="7" x2="599" y1="161" y2="161"/><text fill="#000000" font-family="sans-serif" font-size="11" lengthAdjust="spacingAndGlyphs" text-decoration="underline" textLength="270" x="12" y="175.2104">ANCHOR_TYPE_PROP : string = "ANCHOR_TYPE"</text><line style="stroke: #A80036; stroke-width: 1.5;" x1="7" x2="599" y1="181.8047" y2="181.8047"/><ellipse cx="17" cy="192.8047" fill="#84BE84" rx="3" ry="3" style="stroke: #038048; stroke-width: 1.0;"/><text fill="#000000" font-family="sans-serif" font-size="11" lengthAdjust="spacingAndGlyphs" textLength="330" x="26" y="196.0151">AzureCloudManager(cloudManager:SpatialAnchorManager)</text><ellipse cx="17" cy="205.6094" fill="#84BE84" rx="3" ry="3" style="stroke: #038048; stroke-width: 1.0;"/><text fill="#000000" font-family="sans-serif" font-size="11" lengthAdjust="spacingAndGlyphs" textLength="568" x="26" y="208.8198">«async» createCloudAnchor(gameObject:GameObject, propIndex:int) : Task&lt;AnchorCreator.Result&gt;</text><ellipse cx="17" cy="218.4141" fill="#84BE84" rx="3" ry="3" style="stroke: #038048; stroke-width: 1.0;"/><text fill="#000000" font-family="sans-serif" font-size="11" lengthAdjust="spacingAndGlyphs" textLength="295" x="26" y="221.6245">createNativeAnchor(gameObject:GameObject) : void</text><ellipse cx="17" cy="231.2188" fill="#84BE84" rx="3" ry="3" style="stroke: #038048; stroke-width: 1.0;"/><text fill="#000000" font-family="sans-serif" font-size="11" lengthAdjust="spacingAndGlyphs" textLength="134" x="26" y="234.4292">«async» invoke() : Task</text><!--MD5=[1f4b09c58f6817b559919d4a5a29b357]
class AnchorCreator--><rect fill="#FEFECE" filter="url(#fj3h8zdvgoddd)" height="48" id="AnchorCreator" style="stroke: #A80036; stroke-width: 1.5;" width="123" x="326.5" y="14.5"/><ellipse cx="341.5" cy="30.5" fill="#ADD1B2" rx="11" ry="11" style="stroke: #A80036; stroke-width: 1.0;"/><path d="M344.4688,36.1406 Q343.8906,36.4375 343.25,36.5781 Q342.6094,36.7344 341.9063,36.7344 Q339.4063,36.7344 338.0781,35.0938 Q336.7656,33.4375 336.7656,30.3125 Q336.7656,27.1875 338.0781,25.5313 Q339.4063,23.875 341.9063,23.875 Q342.6094,23.875 343.25,24.0313 Q343.9063,24.1875 344.4688,24.4844 L344.4688,27.2031 Q343.8438,26.625 343.25,26.3594 Q342.6563,26.0781 342.0313,26.0781 Q340.6875,26.0781 340,27.1563 Q339.3125,28.2188 339.3125,30.3125 Q339.3125,32.4063 340,33.4844 Q340.6875,34.5469 342.0313,34.5469 Q342.6563,34.5469 343.25,34.2813 Q343.8438,34 344.4688,33.4219 L344.4688,36.1406 Z "/><text fill="#000000" font-family="sans-serif" font-size="12" lengthAdjust="spacingAndGlyphs" textLength="91" x="355.5" y="34.6543">AnchorCreator</text><line style="stroke: #A80036; stroke-width: 1.5;" x1="327.5" x2="448.5" y1="46.5" y2="46.5"/><line style="stroke: #A80036; stroke-width: 1.5;" x1="327.5" x2="448.5" y1="54.5" y2="54.5"/><!--MD5=[a0c64bc48bcbcdbd0554e43be2e35653]
class SpatialAnchorManager--><rect fill="#FEFECE" filter="url(#fj3h8zdvgoddd)" height="48" id="SpatialAnchorManager" style="stroke: #A80036; stroke-width: 1.5;" width="174" x="216" y="301"/><ellipse cx="231" cy="317" fill="#ADD1B2" rx="11" ry="11" style="stroke: #A80036; stroke-width: 1.0;"/><path d="M233.9688,322.6406 Q233.3906,322.9375 232.75,323.0781 Q232.1094,323.2344 231.4063,323.2344 Q228.9063,323.2344 227.5781,321.5938 Q226.2656,319.9375 226.2656,316.8125 Q226.2656,313.6875 227.5781,312.0313 Q228.9063,310.375 231.4063,310.375 Q232.1094,310.375 232.75,310.5313 Q233.4063,310.6875 233.9688,310.9844 L233.9688,313.7031 Q233.3438,313.125 232.75,312.8594 Q232.1563,312.5781 231.5313,312.5781 Q230.1875,312.5781 229.5,313.6563 Q228.8125,314.7188 228.8125,316.8125 Q228.8125,318.9063 229.5,319.9844 Q230.1875,321.0469 231.5313,321.0469 Q232.1563,321.0469 232.75,320.7813 Q233.3438,320.5 233.9688,319.9219 L233.9688,322.6406 Z "/><text fill="#000000" font-family="sans-serif" font-size="12" lengthAdjust="spacingAndGlyphs" textLength="142" x="245" y="321.1543">SpatialAnchorManager</text><line style="stroke: #A80036; stroke-width: 1.5;" x1="217" x2="389" y1="333" y2="333"/><line style="stroke: #A80036; stroke-width: 1.5;" x1="217" x2="389" y1="341" y2="341"/><!--MD5=[48e4bd3988da64386b493338d7657e19]
reverse link AnchorCreator to AzureCloudManager--><path d="M364.15,80.04 C355.28,95.13 345.05,112.52 335.53,128.7 " fill="none" id="AnchorCreator&lt;-AzureCloudManager" style="stroke: #A80036; stroke-width: 1.0;"/><polygon fill="none" points="358.17,76.41,374.34,62.72,370.24,83.5,358.17,76.41" style="stroke: #A80036; stroke-width: 1.0;"/><!--MD5=[3d2080acf00bada66d985325a6862e99]
reverse link StartAzureSession to AzureCloudManager--><path d="M246.29,86.45 C254.14,99.95 262.77,114.79 270.88,128.74 " fill="none" id="StartAzureSession&lt;-AzureCloudManager" style="stroke: #A80036; stroke-width: 1.0;"/><polygon fill="none" points="240.2,89.9,236.2,69.09,252.3,82.86,240.2,89.9" style="stroke: #A80036; stroke-width: 1.0;"/><!--MD5=[929101748fb9cd203682006127fb970c]
link AzureCloudManager to SpatialAnchorManager--><path d="M303,241.33 C303,259.93 303,279.9 303,295.56 " fill="none" id="AzureCloudManager-&gt;SpatialAnchorManager" style="stroke: #A80036; stroke-width: 1.0;"/><polygon fill="#A80036" points="303,300.69,307,291.69,303,295.69,299,291.69,303,300.69" style="stroke: #A80036; stroke-width: 1.0;"/><text fill="#000000" font-family="sans-serif" font-size="13" lengthAdjust="spacingAndGlyphs" textLength="97" x="194.1781" y="290.0194">_cloudManager</text><!--MD5=[14a68445dc49151c5ea8908701abc1b3]
@startuml
interface StartAzureSession {
    invoke() : Task
}
class AzureCloudManager {
    {static} ANCHOR_TYPE_PROP : string = "ANCHOR_TYPE"
    + AzureCloudManager(cloudManager:SpatialAnchorManager)
    + <<async>> createCloudAnchor(gameObject:GameObject, propIndex:int) : Task<AnchorCreator.Result>
    + createNativeAnchor(gameObject:GameObject) : void
    + <<async>> invoke() : Task
}
AnchorCreator <|- - AzureCloudManager
StartAzureSession <|- - AzureCloudManager
AzureCloudManager - -> "_cloudManager" SpatialAnchorManager
@enduml

PlantUML version 1.2020.02(Sun Mar 01 10:22:07 GMT 2020)
(GPL source distribution)
Java Runtime: OpenJDK Runtime Environment
JVM: OpenJDK 64-Bit Server VM
Java Version: 11.0.9+11-Ubuntu-0ubuntu1
Operating System: Linux
Default Encoding: ANSI_X3.4-1968
Language: en
Country: US
--></g></svg>