<?xml version="1.0" encoding="UTF-8" standalone="no"?><svg xmlns="http://www.w3.org/2000/svg" xmlns:xlink="http://www.w3.org/1999/xlink" contentScriptType="application/ecmascript" contentStyleType="text/css" height="226px" preserveAspectRatio="none" style="width:356px;height:226px;" version="1.1" viewBox="0 0 356 226" width="356px" zoomAndPan="magnify"><defs><filter height="300%" id="f151gl396x8q00" width="300%" x="-1" y="-1"><feGaussianBlur result="blurOut" stdDeviation="2.0"/><feColorMatrix in="blurOut" result="blurOut2" type="matrix" values="0 0 0 0 0 0 0 0 0 0 0 0 0 0 0 0 0 0 .4 0"/><feOffset dx="4.0" dy="4.0" in="blurOut2" result="blurOut3"/><feBlend in="SourceGraphic" in2="blurOut3" mode="normal"/></filter></defs><g><!--MD5=[d52e42beb0fb691ab9a1077367a59e6a]
class GameObjectEditor--><rect fill="#FEFECE" filter="url(#f151gl396x8q00)" height="73.6094" id="GameObjectEditor" style="stroke: #A80036; stroke-width: 1.5;" width="325" x="13" y="8"/><ellipse cx="115.25" cy="24" fill="#B4A7E5" rx="11" ry="11" style="stroke: #A80036; stroke-width: 1.0;"/><path d="M111.1719,19.7656 L111.1719,17.6094 L118.5625,17.6094 L118.5625,19.7656 L116.0938,19.7656 L116.0938,27.8438 L118.5625,27.8438 L118.5625,30 L111.1719,30 L111.1719,27.8438 L113.6406,27.8438 L113.6406,19.7656 L111.1719,19.7656 Z "/><text fill="#000000" font-family="sans-serif" font-size="12" font-style="italic" lengthAdjust="spacingAndGlyphs" textLength="112" x="135.75" y="28.1543">GameObjectEditor</text><line style="stroke: #A80036; stroke-width: 1.5;" x1="14" x2="337" y1="40" y2="40"/><line style="stroke: #A80036; stroke-width: 1.5;" x1="14" x2="337" y1="48" y2="48"/><text fill="#000000" font-family="sans-serif" font-size="11" lengthAdjust="spacingAndGlyphs" textLength="313" x="19" y="62.2104">setName(gameObject:GameObject, name:string) : void</text><text fill="#000000" font-family="sans-serif" font-size="11" lengthAdjust="spacingAndGlyphs" textLength="246" x="19" y="75.0151">getName(gameObject:GameObject) : string</text><!--MD5=[d31aeaf390f2ce361b44066ff480cd65]
class GameObjectEditorImpl--><rect fill="#FEFECE" filter="url(#f151gl396x8q00)" height="73.6094" id="GameObjectEditorImpl" style="stroke: #A80036; stroke-width: 1.5;" width="339" x="6" y="142"/><ellipse cx="102.25" cy="158" fill="#ADD1B2" rx="11" ry="11" style="stroke: #A80036; stroke-width: 1.0;"/><path d="M105.2188,163.6406 Q104.6406,163.9375 104,164.0781 Q103.3594,164.2344 102.6563,164.2344 Q100.1563,164.2344 98.8281,162.5938 Q97.5156,160.9375 97.5156,157.8125 Q97.5156,154.6875 98.8281,153.0313 Q100.1563,151.375 102.6563,151.375 Q103.3594,151.375 104,151.5313 Q104.6563,151.6875 105.2188,151.9844 L105.2188,154.7031 Q104.5938,154.125 104,153.8594 Q103.4063,153.5781 102.7813,153.5781 Q101.4375,153.5781 100.75,154.6563 Q100.0625,155.7188 100.0625,157.8125 Q100.0625,159.9063 100.75,160.9844 Q101.4375,162.0469 102.7813,162.0469 Q103.4063,162.0469 104,161.7813 Q104.5938,161.5 105.2188,160.9219 L105.2188,163.6406 Z "/><text fill="#000000" font-family="sans-serif" font-size="12" lengthAdjust="spacingAndGlyphs" textLength="138" x="122.75" y="162.1543">GameObjectEditorImpl</text><line style="stroke: #A80036; stroke-width: 1.5;" x1="7" x2="344" y1="174" y2="174"/><line style="stroke: #A80036; stroke-width: 1.5;" x1="7" x2="344" y1="182" y2="182"/><ellipse cx="17" cy="193" fill="#84BE84" rx="3" ry="3" style="stroke: #038048; stroke-width: 1.0;"/><text fill="#000000" font-family="sans-serif" font-size="11" lengthAdjust="spacingAndGlyphs" textLength="246" x="26" y="196.2104">getName(gameObject:GameObject) : string</text><ellipse cx="17" cy="205.8047" fill="#84BE84" rx="3" ry="3" style="stroke: #038048; stroke-width: 1.0;"/><text fill="#000000" font-family="sans-serif" font-size="11" lengthAdjust="spacingAndGlyphs" textLength="313" x="26" y="209.0151">setName(gameObject:GameObject, name:string) : void</text><!--MD5=[3f6103d26e86905faa1a5cd2f1406e08]
reverse link GameObjectEditor to GameObjectEditorImpl--><path d="M175.5,102.38 C175.5,115.8 175.5,129.76 175.5,141.97 " fill="none" id="GameObjectEditor&lt;-GameObjectEditorImpl" style="stroke: #A80036; stroke-width: 1.0;"/><polygon fill="none" points="168.5,102.07,175.5,82.07,182.5,102.07,168.5,102.07" style="stroke: #A80036; stroke-width: 1.0;"/><!--MD5=[c400e20b65960ebcd0672eb0ff5d89e1]
@startuml
interface GameObjectEditor {
    setName(gameObject:GameObject, name:string) : void
    getName(gameObject:GameObject) : string
}
class GameObjectEditorImpl {
    + getName(gameObject:GameObject) : string
    + setName(gameObject:GameObject, name:string) : void
}
GameObjectEditor <|- - GameObjectEditorImpl
@enduml

PlantUML version 1.2020.02(Sun Mar 01 10:22:07 GMT 2020)
(GPL source distribution)
Java Runtime: OpenJDK Runtime Environment
JVM: OpenJDK 64-Bit Server VM
Java Version: 11.0.9+11-Ubuntu-0ubuntu1
Operating System: Linux
Default Encoding: ANSI_X3.4-1968
Language: en
Country: US
--></g></svg>