<?xml version="1.0" encoding="UTF-8" standalone="no"?><svg xmlns="http://www.w3.org/2000/svg" xmlns:xlink="http://www.w3.org/1999/xlink" contentScriptType="application/ecmascript" contentStyleType="text/css" height="335px" preserveAspectRatio="none" style="width:465px;height:335px;" version="1.1" viewBox="0 0 465 335" width="465px" zoomAndPan="magnify"><defs><filter height="300%" id="f9u80yqf6lvvq" width="300%" x="-1" y="-1"><feGaussianBlur result="blurOut" stdDeviation="2.0"/><feColorMatrix in="blurOut" result="blurOut2" type="matrix" values="0 0 0 0 0 0 0 0 0 0 0 0 0 0 0 0 0 0 .4 0"/><feOffset dx="4.0" dy="4.0" in="blurOut2" result="blurOut3"/><feBlend in="SourceGraphic" in2="blurOut3" mode="normal"/></filter></defs><g><!--MD5=[8156104a4607c503624acc84a6cf76de]
class IBoundsControlEditor--><rect fill="#FEFECE" filter="url(#f9u80yqf6lvvq)" height="73.6094" id="IBoundsControlEditor" style="stroke: #A80036; stroke-width: 1.5;" width="193" x="6" y="8"/><ellipse cx="34.05" cy="24" fill="#B4A7E5" rx="11" ry="11" style="stroke: #A80036; stroke-width: 1.0;"/><path d="M29.9719,19.7656 L29.9719,17.6094 L37.3625,17.6094 L37.3625,19.7656 L34.8938,19.7656 L34.8938,27.8438 L37.3625,27.8438 L37.3625,30 L29.9719,30 L29.9719,27.8438 L32.4406,27.8438 L32.4406,19.7656 L29.9719,19.7656 Z "/><text fill="#000000" font-family="sans-serif" font-size="12" font-style="italic" lengthAdjust="spacingAndGlyphs" textLength="132" x="50.95" y="28.1543">IBoundsControlEditor</text><line style="stroke: #A80036; stroke-width: 1.5;" x1="7" x2="198" y1="40" y2="40"/><line style="stroke: #A80036; stroke-width: 1.5;" x1="7" x2="198" y1="48" y2="48"/><ellipse cx="17" cy="59" fill="#84BE84" rx="3" ry="3" style="stroke: #038048; stroke-width: 1.0;"/><text fill="#000000" font-family="sans-serif" font-size="11" font-style="italic" lengthAdjust="spacingAndGlyphs" textLength="165" x="26" y="62.2104">enableBoundsControl() : void</text><ellipse cx="17" cy="71.8047" fill="#84BE84" rx="3" ry="3" style="stroke: #038048; stroke-width: 1.0;"/><text fill="#000000" font-family="sans-serif" font-size="11" font-style="italic" lengthAdjust="spacingAndGlyphs" textLength="167" x="26" y="75.0151">disableBoundsControl() : void</text><!--MD5=[6d7fd57196df70586a73b2c77e53fa94]
class IBoundsControlProvider--><rect fill="#FEFECE" filter="url(#f9u80yqf6lvvq)" height="48" id="IBoundsControlProvider" style="stroke: #A80036; stroke-width: 1.5;" width="177" x="234" y="21"/><ellipse cx="249" cy="37" fill="#B4A7E5" rx="11" ry="11" style="stroke: #A80036; stroke-width: 1.0;"/><path d="M244.9219,32.7656 L244.9219,30.6094 L252.3125,30.6094 L252.3125,32.7656 L249.8438,32.7656 L249.8438,40.8438 L252.3125,40.8438 L252.3125,43 L244.9219,43 L244.9219,40.8438 L247.3906,40.8438 L247.3906,32.7656 L244.9219,32.7656 Z "/><text fill="#000000" font-family="sans-serif" font-size="12" font-style="italic" lengthAdjust="spacingAndGlyphs" textLength="145" x="263" y="41.1543">IBoundsControlProvider</text><line style="stroke: #A80036; stroke-width: 1.5;" x1="235" x2="410" y1="53" y2="53"/><line style="stroke: #A80036; stroke-width: 1.5;" x1="235" x2="410" y1="61" y2="61"/><!--MD5=[c6ece3ea567f154d8ff9cbdff4df8dee]
class BoundsControlRepository--><rect fill="#FEFECE" filter="url(#f9u80yqf6lvvq)" height="73.6094" id="BoundsControlRepository" style="stroke: #A80036; stroke-width: 1.5;" width="194" x="75.5" y="142"/><ellipse cx="92.3" cy="158" fill="#ADD1B2" rx="11" ry="11" style="stroke: #A80036; stroke-width: 1.0;"/><path d="M95.2688,163.6406 Q94.6906,163.9375 94.05,164.0781 Q93.4094,164.2344 92.7063,164.2344 Q90.2063,164.2344 88.8781,162.5938 Q87.5656,160.9375 87.5656,157.8125 Q87.5656,154.6875 88.8781,153.0313 Q90.2063,151.375 92.7063,151.375 Q93.4094,151.375 94.05,151.5313 Q94.7063,151.6875 95.2688,151.9844 L95.2688,154.7031 Q94.6438,154.125 94.05,153.8594 Q93.4563,153.5781 92.8313,153.5781 Q91.4875,153.5781 90.8,154.6563 Q90.1125,155.7188 90.1125,157.8125 Q90.1125,159.9063 90.8,160.9844 Q91.4875,162.0469 92.8313,162.0469 Q93.4563,162.0469 94.05,161.7813 Q94.6438,161.5 95.2688,160.9219 L95.2688,163.6406 Z "/><text fill="#000000" font-family="sans-serif" font-size="12" lengthAdjust="spacingAndGlyphs" textLength="158" x="106.7" y="162.1543">BoundsControlRepository</text><line style="stroke: #A80036; stroke-width: 1.5;" x1="76.5" x2="268.5" y1="174" y2="174"/><line style="stroke: #A80036; stroke-width: 1.5;" x1="76.5" x2="268.5" y1="182" y2="182"/><ellipse cx="86.5" cy="193" fill="#84BE84" rx="3" ry="3" style="stroke: #038048; stroke-width: 1.0;"/><text fill="#000000" font-family="sans-serif" font-size="11" lengthAdjust="spacingAndGlyphs" textLength="165" x="95.5" y="196.2104">enableBoundsControl() : void</text><ellipse cx="86.5" cy="205.8047" fill="#84BE84" rx="3" ry="3" style="stroke: #038048; stroke-width: 1.0;"/><text fill="#000000" font-family="sans-serif" font-size="11" lengthAdjust="spacingAndGlyphs" textLength="168" x="95.5" y="209.0151">disableBoundsControl() : void</text><!--MD5=[6037395b81641dc9f341bda23115c5fd]
class IReadOnlyReactiveProperty`1--><rect fill="#FEFECE" filter="url(#f9u80yqf6lvvq)" height="48" id="IReadOnlyReactiveProperty`1" style="stroke: #A80036; stroke-width: 1.5;" width="224" x="135.5" y="276"/><ellipse cx="150.5" cy="292" fill="#ADD1B2" rx="11" ry="11" style="stroke: #A80036; stroke-width: 1.0;"/><path d="M153.4688,297.6406 Q152.8906,297.9375 152.25,298.0781 Q151.6094,298.2344 150.9063,298.2344 Q148.4063,298.2344 147.0781,296.5938 Q145.7656,294.9375 145.7656,291.8125 Q145.7656,288.6875 147.0781,287.0313 Q148.4063,285.375 150.9063,285.375 Q151.6094,285.375 152.25,285.5313 Q152.9063,285.6875 153.4688,285.9844 L153.4688,288.7031 Q152.8438,288.125 152.25,287.8594 Q151.6563,287.5781 151.0313,287.5781 Q149.6875,287.5781 149,288.6563 Q148.3125,289.7188 148.3125,291.8125 Q148.3125,293.9063 149,294.9844 Q149.6875,296.0469 151.0313,296.0469 Q151.6563,296.0469 152.25,295.7813 Q152.8438,295.5 153.4688,294.9219 L153.4688,297.6406 Z "/><text fill="#000000" font-family="sans-serif" font-size="12" lengthAdjust="spacingAndGlyphs" textLength="181" x="164.5" y="296.1543">IReadOnlyReactiveProperty`1</text><rect fill="#FFFFFF" height="15.9688" style="stroke: #000000; stroke-width: 1.0; stroke-dasharray: 2.0,2.0;" width="9" x="353.5" y="273"/><text fill="#000000" font-family="sans-serif" font-size="12" font-style="italic" lengthAdjust="spacingAndGlyphs" textLength="7" x="354.5" y="285.1387">T</text><line style="stroke: #A80036; stroke-width: 1.5;" x1="136.5" x2="358.5" y1="308" y2="308"/><line style="stroke: #A80036; stroke-width: 1.5;" x1="136.5" x2="358.5" y1="316" y2="316"/><!--MD5=[1902cffab101122d4ff1fe7aa463082a]
link IBoundsControlProvider to IReadOnlyReactiveProperty`1--><path d="M319.31,69.27 C314.38,102.44 303.64,164.95 286.5,216 C280.12,235.01 270.57,255.41 262.52,271.23 " fill="none" id="IBoundsControlProvider-&gt;IReadOnlyReactiveProperty`1" style="stroke: #A80036; stroke-width: 1.0;"/><polygon fill="#A80036" points="260.08,275.98,267.7542,269.8069,262.3674,271.5339,260.6404,266.1471,260.08,275.98" style="stroke: #A80036; stroke-width: 1.0;"/><text fill="#000000" font-family="sans-serif" font-size="13" lengthAdjust="spacingAndGlyphs" textLength="169" x="284.9568" y="264.9869">areBoundsEnabled&lt;bool&gt;</text><!--MD5=[2f29cf0f77c9b80e22c363e56ff1574e]
reverse link IBoundsControlEditor to BoundsControlRepository--><path d="M131.13,99.99 C138.63,114.13 146.53,129.03 153.4,141.97 " fill="none" id="IBoundsControlEditor&lt;-BoundsControlRepository" style="stroke: #A80036; stroke-width: 1.0;"/><polygon fill="none" points="124.81,103.02,121.63,82.07,137.18,96.46,124.81,103.02" style="stroke: #A80036; stroke-width: 1.0;"/><!--MD5=[211797b63529804d6e845086303cca22]
reverse link IBoundsControlProvider to BoundsControlRepository--><path d="M280.99,82.53 C260.01,100.99 234.63,123.33 213.69,141.75 " fill="none" id="IBoundsControlProvider&lt;-BoundsControlRepository" style="stroke: #A80036; stroke-width: 1.0;"/><polygon fill="none" points="276.39,77.25,296.03,69.3,285.64,87.76,276.39,77.25" style="stroke: #A80036; stroke-width: 1.0;"/><!--MD5=[6fbc934957ecbfdd23a5253176f64b7c]
link BoundsControlRepository to IReadOnlyReactiveProperty`1--><path d="M195.21,216.03 C206.4,233.79 219.68,254.87 230.06,271.33 " fill="none" id="BoundsControlRepository-&gt;IReadOnlyReactiveProperty`1" style="stroke: #A80036; stroke-width: 1.0;"/><polygon fill="#A80036" points="232.91,275.85,231.5084,266.1014,230.2497,271.6164,224.7347,270.3578,232.91,275.85" style="stroke: #A80036; stroke-width: 1.0;"/><text fill="#000000" font-family="sans-serif" font-size="13" lengthAdjust="spacingAndGlyphs" textLength="169" x="38.5182" y="264.8236">areBoundsEnabled&lt;bool&gt;</text><!--MD5=[c0f18f612ac980aba5528e6acc46044f]
@startuml
interface IBoundsControlEditor {
    + {abstract} enableBoundsControl() : void
    + {abstract} disableBoundsControl() : void
}
interface IBoundsControlProvider {
}
class BoundsControlRepository {
    + enableBoundsControl() : void
    + disableBoundsControl() : void
}
class "IReadOnlyReactiveProperty`1"<T> {
}
IBoundsControlProvider - -> "areBoundsEnabled<bool>" "IReadOnlyReactiveProperty`1"
IBoundsControlEditor <|- - BoundsControlRepository
IBoundsControlProvider <|- - BoundsControlRepository
BoundsControlRepository - -> "areBoundsEnabled<bool>" "IReadOnlyReactiveProperty`1"
@enduml

PlantUML version 1.2020.02(Sun Mar 01 10:22:07 GMT 2020)
(GPL source distribution)
Java Runtime: OpenJDK Runtime Environment
JVM: OpenJDK 64-Bit Server VM
Java Version: 11.0.9+11-Ubuntu-0ubuntu1
Operating System: Linux
Default Encoding: ANSI_X3.4-1968
Language: en
Country: US
--></g></svg>