<?xml version="1.0" encoding="UTF-8" standalone="no"?><svg xmlns="http://www.w3.org/2000/svg" xmlns:xlink="http://www.w3.org/1999/xlink" contentScriptType="application/ecmascript" contentStyleType="text/css" height="366px" preserveAspectRatio="none" style="width:1290px;height:366px;" version="1.1" viewBox="0 0 1290 366" width="1290px" zoomAndPan="magnify"><defs><filter height="300%" id="ffvm5hv8xiu71" width="300%" x="-1" y="-1"><feGaussianBlur result="blurOut" stdDeviation="2.0"/><feColorMatrix in="blurOut" result="blurOut2" type="matrix" values="0 0 0 0 0 0 0 0 0 0 0 0 0 0 0 0 0 0 .4 0"/><feOffset dx="4.0" dy="4.0" in="blurOut2" result="blurOut3"/><feBlend in="SourceGraphic" in2="blurOut3" mode="normal"/></filter></defs><g><!--MD5=[78bd35b629a69756b1f07cd4ac2391b5]
class MachinePresenter--><rect fill="#FEFECE" filter="url(#ffvm5hv8xiu71)" height="163.2422" id="MachinePresenter" style="stroke: #A80036; stroke-width: 1.5;" width="980" x="6" y="8"/><ellipse cx="434.75" cy="24" fill="#ADD1B2" rx="11" ry="11" style="stroke: #A80036; stroke-width: 1.0;"/><path d="M437.7188,29.6406 Q437.1406,29.9375 436.5,30.0781 Q435.8594,30.2344 435.1563,30.2344 Q432.6563,30.2344 431.3281,28.5938 Q430.0156,26.9375 430.0156,23.8125 Q430.0156,20.6875 431.3281,19.0313 Q432.6563,17.375 435.1563,17.375 Q435.8594,17.375 436.5,17.5313 Q437.1563,17.6875 437.7188,17.9844 L437.7188,20.7031 Q437.0938,20.125 436.5,19.8594 Q435.9063,19.5781 435.2813,19.5781 Q433.9375,19.5781 433.25,20.6563 Q432.5625,21.7188 432.5625,23.8125 Q432.5625,25.9063 433.25,26.9844 Q433.9375,28.0469 435.2813,28.0469 Q435.9063,28.0469 436.5,27.7813 Q437.0938,27.5 437.7188,26.9219 L437.7188,29.6406 Z "/><text fill="#000000" font-family="sans-serif" font-size="12" lengthAdjust="spacingAndGlyphs" textLength="114" x="455.25" y="28.1543">MachinePresenter</text><line style="stroke: #A80036; stroke-width: 1.5;" x1="7" x2="985" y1="40" y2="40"/><ellipse cx="17" cy="51" fill="none" rx="3" ry="3" style="stroke: #038048; stroke-width: 1.0;"/><text fill="#000000" font-family="sans-serif" font-size="11" lengthAdjust="spacingAndGlyphs" textLength="201" x="26" y="54.2104">«event» disableTapToPlace : Action</text><ellipse cx="17" cy="63.8047" fill="none" rx="3" ry="3" style="stroke: #038048; stroke-width: 1.0;"/><text fill="#000000" font-family="sans-serif" font-size="11" lengthAdjust="spacingAndGlyphs" textLength="219" x="26" y="67.0151">«event» deleteCurrentMachine : Action</text><line style="stroke: #A80036; stroke-width: 1.5;" x1="7" x2="985" y1="73.6094" y2="73.6094"/><ellipse cx="17" cy="84.6094" fill="#84BE84" rx="3" ry="3" style="stroke: #038048; stroke-width: 1.0;"/><text fill="#000000" font-family="sans-serif" font-size="11" lengthAdjust="spacingAndGlyphs" textLength="954" x="26" y="87.8198">MachinePresenter(index:int, addAnchorUseCase:IAddAnchorUseCase, removeAnchorUseCase:IRemoveAnchorUseCase, boundsControlProvider:IBoundsControlProvider)</text><ellipse cx="17" cy="97.4141" fill="#84BE84" rx="3" ry="3" style="stroke: #038048; stroke-width: 1.0;"/><text fill="#000000" font-family="sans-serif" font-size="11" lengthAdjust="spacingAndGlyphs" textLength="175" x="26" y="100.6245">setAnchorCreatedState() : void</text><ellipse cx="17" cy="110.2188" fill="#84BE84" rx="3" ry="3" style="stroke: #038048; stroke-width: 1.0;"/><text fill="#000000" font-family="sans-serif" font-size="11" lengthAdjust="spacingAndGlyphs" textLength="194" x="26" y="113.4292">setAnchorNotCreatedState() : void</text><ellipse cx="17" cy="123.0234" fill="#84BE84" rx="3" ry="3" style="stroke: #038048; stroke-width: 1.0;"/><text fill="#000000" font-family="sans-serif" font-size="11" lengthAdjust="spacingAndGlyphs" textLength="293" x="26" y="126.2339">«async» setAnchor(gameObject:GameObject) : void</text><ellipse cx="17" cy="135.8281" fill="#84BE84" rx="3" ry="3" style="stroke: #038048; stroke-width: 1.0;"/><text fill="#000000" font-family="sans-serif" font-size="11" lengthAdjust="spacingAndGlyphs" textLength="318" x="26" y="139.0386">«async» removeAnchor(gameObject:GameObject) : void</text><ellipse cx="17" cy="148.6328" fill="#84BE84" rx="3" ry="3" style="stroke: #038048; stroke-width: 1.0;"/><text fill="#000000" font-family="sans-serif" font-size="11" lengthAdjust="spacingAndGlyphs" textLength="78" x="26" y="151.8433">delete() : void</text><ellipse cx="17" cy="161.4375" fill="#84BE84" rx="3" ry="3" style="stroke: #038048; stroke-width: 1.0;"/><text fill="#000000" font-family="sans-serif" font-size="11" lengthAdjust="spacingAndGlyphs" textLength="187" x="26" y="164.6479">setTapToPlaceNotStarted() : void</text><!--MD5=[6037395b81641dc9f341bda23115c5fd]
class IReadOnlyReactiveProperty`1--><rect fill="#FEFECE" filter="url(#ffvm5hv8xiu71)" height="48" id="IReadOnlyReactiveProperty`1" style="stroke: #A80036; stroke-width: 1.5;" width="224" x="249" y="269.5"/><ellipse cx="264" cy="285.5" fill="#ADD1B2" rx="11" ry="11" style="stroke: #A80036; stroke-width: 1.0;"/><path d="M266.9688,291.1406 Q266.3906,291.4375 265.75,291.5781 Q265.1094,291.7344 264.4063,291.7344 Q261.9063,291.7344 260.5781,290.0938 Q259.2656,288.4375 259.2656,285.3125 Q259.2656,282.1875 260.5781,280.5313 Q261.9063,278.875 264.4063,278.875 Q265.1094,278.875 265.75,279.0313 Q266.4063,279.1875 266.9688,279.4844 L266.9688,282.2031 Q266.3438,281.625 265.75,281.3594 Q265.1563,281.0781 264.5313,281.0781 Q263.1875,281.0781 262.5,282.1563 Q261.8125,283.2188 261.8125,285.3125 Q261.8125,287.4063 262.5,288.4844 Q263.1875,289.5469 264.5313,289.5469 Q265.1563,289.5469 265.75,289.2813 Q266.3438,289 266.9688,288.4219 L266.9688,291.1406 Z "/><text fill="#000000" font-family="sans-serif" font-size="12" lengthAdjust="spacingAndGlyphs" textLength="181" x="278" y="289.6543">IReadOnlyReactiveProperty`1</text><rect fill="#FFFFFF" height="15.9688" style="stroke: #000000; stroke-width: 1.0; stroke-dasharray: 2.0,2.0;" width="9" x="467" y="266.5"/><text fill="#000000" font-family="sans-serif" font-size="12" font-style="italic" lengthAdjust="spacingAndGlyphs" textLength="7" x="468" y="278.6387">T</text><line style="stroke: #A80036; stroke-width: 1.5;" x1="250" x2="472" y1="301.5" y2="301.5"/><line style="stroke: #A80036; stroke-width: 1.5;" x1="250" x2="472" y1="309.5" y2="309.5"/><!--MD5=[dcda66dabdb739ec36f1175150e3c9d5]
class Factory--><rect fill="#FEFECE" filter="url(#ffvm5hv8xiu71)" height="48" id="Factory" style="stroke: #A80036; stroke-width: 1.5;" width="78" x="937" y="269.5"/><ellipse cx="952" cy="285.5" fill="#ADD1B2" rx="11" ry="11" style="stroke: #A80036; stroke-width: 1.0;"/><path d="M954.9688,291.1406 Q954.3906,291.4375 953.75,291.5781 Q953.1094,291.7344 952.4063,291.7344 Q949.9063,291.7344 948.5781,290.0938 Q947.2656,288.4375 947.2656,285.3125 Q947.2656,282.1875 948.5781,280.5313 Q949.9063,278.875 952.4063,278.875 Q953.1094,278.875 953.75,279.0313 Q954.4063,279.1875 954.9688,279.4844 L954.9688,282.2031 Q954.3438,281.625 953.75,281.3594 Q953.1563,281.0781 952.5313,281.0781 Q951.1875,281.0781 950.5,282.1563 Q949.8125,283.2188 949.8125,285.3125 Q949.8125,287.4063 950.5,288.4844 Q951.1875,289.5469 952.5313,289.5469 Q953.1563,289.5469 953.75,289.2813 Q954.3438,289 954.9688,288.4219 L954.9688,291.1406 Z "/><text fill="#000000" font-family="sans-serif" font-size="12" lengthAdjust="spacingAndGlyphs" textLength="46" x="966" y="289.6543">Factory</text><line style="stroke: #A80036; stroke-width: 1.5;" x1="938" x2="1014" y1="301.5" y2="301.5"/><line style="stroke: #A80036; stroke-width: 1.5;" x1="938" x2="1014" y1="309.5" y2="309.5"/><!--MD5=[60d6b92408f98aed8df94d5c6e04aa63]
class State--><rect fill="#FEFECE" filter="url(#ffvm5hv8xiu71)" height="124.8281" id="State" style="stroke: #A80036; stroke-width: 1.5;" width="247" x="508.5" y="231"/><ellipse cx="610.75" cy="247" fill="#ADD1B2" rx="11" ry="11" style="stroke: #A80036; stroke-width: 1.0;"/><path d="M613.7188,252.6406 Q613.1406,252.9375 612.5,253.0781 Q611.8594,253.2344 611.1563,253.2344 Q608.6563,253.2344 607.3281,251.5938 Q606.0156,249.9375 606.0156,246.8125 Q606.0156,243.6875 607.3281,242.0313 Q608.6563,240.375 611.1563,240.375 Q611.8594,240.375 612.5,240.5313 Q613.1563,240.6875 613.7188,240.9844 L613.7188,243.7031 Q613.0938,243.125 612.5,242.8594 Q611.9063,242.5781 611.2813,242.5781 Q609.9375,242.5781 609.25,243.6563 Q608.5625,244.7188 608.5625,246.8125 Q608.5625,248.9063 609.25,249.9844 Q609.9375,251.0469 611.2813,251.0469 Q611.9063,251.0469 612.5,250.7813 Q613.0938,250.5 613.7188,249.9219 L613.7188,252.6406 Z "/><text fill="#000000" font-family="sans-serif" font-size="12" lengthAdjust="spacingAndGlyphs" textLength="34" x="631.25" y="251.1543">State</text><line style="stroke: #A80036; stroke-width: 1.5;" x1="509.5" x2="754.5" y1="263" y2="263"/><ellipse cx="519.5" cy="274" fill="none" rx="3" ry="3" style="stroke: #038048; stroke-width: 1.0;"/><text fill="#000000" font-family="sans-serif" font-size="11" lengthAdjust="spacingAndGlyphs" textLength="183" x="528.5" y="277.2104">isAddAnchorVisible : bool = true</text><ellipse cx="519.5" cy="286.8047" fill="none" rx="3" ry="3" style="stroke: #038048; stroke-width: 1.0;"/><text fill="#000000" font-family="sans-serif" font-size="11" lengthAdjust="spacingAndGlyphs" textLength="188" x="528.5" y="290.0151">isTapToPlaceVisible : bool = true</text><ellipse cx="519.5" cy="299.6094" fill="none" rx="3" ry="3" style="stroke: #038048; stroke-width: 1.0;"/><text fill="#000000" font-family="sans-serif" font-size="11" lengthAdjust="spacingAndGlyphs" textLength="205" x="528.5" y="302.8198">isDeleteMachineVisible : bool = true</text><ellipse cx="519.5" cy="312.4141" fill="none" rx="3" ry="3" style="stroke: #038048; stroke-width: 1.0;"/><text fill="#000000" font-family="sans-serif" font-size="11" lengthAdjust="spacingAndGlyphs" textLength="212" x="528.5" y="315.6245">isRemoveAnchorVisible : bool = false</text><ellipse cx="519.5" cy="325.2188" fill="none" rx="3" ry="3" style="stroke: #038048; stroke-width: 1.0;"/><text fill="#000000" font-family="sans-serif" font-size="11" lengthAdjust="spacingAndGlyphs" textLength="221" x="528.5" y="328.4292">areBoundControlsVisible : bool = false</text><line style="stroke: #A80036; stroke-width: 1.5;" x1="509.5" x2="754.5" y1="335.0234" y2="335.0234"/><ellipse cx="519.5" cy="346.0234" fill="#84BE84" rx="3" ry="3" style="stroke: #038048; stroke-width: 1.0;"/><text fill="#000000" font-family="sans-serif" font-size="11" lengthAdjust="spacingAndGlyphs" textLength="101" x="528.5" y="349.2339">State(state:State)</text><!--MD5=[dc4d4dc1135cde0a1b5b7d925b1d0ee8]
class PlaceholderFactory`2--><rect fill="#FEFECE" filter="url(#ffvm5hv8xiu71)" height="48" id="PlaceholderFactory`2" style="stroke: #A80036; stroke-width: 1.5;" width="204" x="1021" y="65.5"/><ellipse cx="1036" cy="81.5" fill="#ADD1B2" rx="11" ry="11" style="stroke: #A80036; stroke-width: 1.0;"/><path d="M1038.9688,87.1406 Q1038.3906,87.4375 1037.75,87.5781 Q1037.1094,87.7344 1036.4063,87.7344 Q1033.9063,87.7344 1032.5781,86.0938 Q1031.2656,84.4375 1031.2656,81.3125 Q1031.2656,78.1875 1032.5781,76.5313 Q1033.9063,74.875 1036.4063,74.875 Q1037.1094,74.875 1037.75,75.0313 Q1038.4063,75.1875 1038.9688,75.4844 L1038.9688,78.2031 Q1038.3438,77.625 1037.75,77.3594 Q1037.1563,77.0781 1036.5313,77.0781 Q1035.1875,77.0781 1034.5,78.1563 Q1033.8125,79.2188 1033.8125,81.3125 Q1033.8125,83.4063 1034.5,84.4844 Q1035.1875,85.5469 1036.5313,85.5469 Q1037.1563,85.5469 1037.75,85.2813 Q1038.3438,85 1038.9688,84.4219 L1038.9688,87.1406 Z "/><text fill="#000000" font-family="sans-serif" font-size="12" lengthAdjust="spacingAndGlyphs" textLength="134" x="1050" y="85.6543">PlaceholderFactory`2</text><rect fill="#FFFFFF" height="15.9688" style="stroke: #000000; stroke-width: 1.0; stroke-dasharray: 2.0,2.0;" width="36" x="1192" y="62.5"/><text fill="#000000" font-family="sans-serif" font-size="12" font-style="italic" lengthAdjust="spacingAndGlyphs" textLength="34" x="1193" y="74.6387">T1,T2</text><line style="stroke: #A80036; stroke-width: 1.5;" x1="1022" x2="1224" y1="97.5" y2="97.5"/><line style="stroke: #A80036; stroke-width: 1.5;" x1="1022" x2="1224" y1="105.5" y2="105.5"/><!--MD5=[1209a7d70a91ee2b0422ae584ed45bb1]
link MachinePresenter to IReadOnlyReactiveProperty`1--><path d="M442.06,171.21 C419.8,204.52 395.48,240.9 379.35,265.04 " fill="none" id="MachinePresenter-&gt;IReadOnlyReactiveProperty`1" style="stroke: #A80036; stroke-width: 1.0;"/><polygon fill="#A80036" points="376.43,269.41,384.7505,264.1403,379.2035,265.2497,378.0941,259.7027,376.43,269.41" style="stroke: #A80036; stroke-width: 1.0;"/><text fill="#000000" font-family="sans-serif" font-size="13" lengthAdjust="spacingAndGlyphs" textLength="90" x="278.8527" y="258.399">state&lt;State&gt;</text><!--MD5=[bd9a53f6827cf5c5093200c0b8c826d2]
reverse link MachinePresenter to Factory--><path d="M701.32,176.91 C790.02,214.23 885.18,254.28 936.94,276.06 " fill="none" id="MachinePresenter&lt;-Factory" style="stroke: #A80036; stroke-width: 1.0;"/><ellipse cx="694.8047" cy="174.1607" fill="#FFFFFF" rx="8" ry="8" style="stroke: #A80036; stroke-width: 1.0;"/><line style="stroke: #A80036; stroke-width: 1.0;" x1="702.1793" x2="687.43" y1="177.2614" y2="171.06"/><line style="stroke: #A80036; stroke-width: 1.0;" x1="691.704" x2="697.9054" y1="181.5354" y2="166.786"/><!--MD5=[d56958d5c2dc1a2c44fd321970666cc8]
reverse link PlaceholderFactory`2 to Factory--><path d="M1094.31,129.92 C1064.13,171.39 1017.65,235.26 992.89,269.29 " fill="none" id="PlaceholderFactory`2&lt;-Factory" style="stroke: #A80036; stroke-width: 1.0;"/><polygon fill="none" points="1088.71,125.72,1106.14,113.67,1100.03,133.96,1088.71,125.72" style="stroke: #A80036; stroke-width: 1.0;"/><text fill="#000000" font-family="sans-serif" font-size="13" lengthAdjust="spacingAndGlyphs" textLength="157" x="1121.1648" y="133.4726">&lt;int,MachinePresenter&gt;</text><!--MD5=[3ab6dad1770b26ff46192a831d38109e]
reverse link MachinePresenter to State--><path d="M558.89,183.91 C569.62,199.85 580.53,216.05 590.53,230.9 " fill="none" id="MachinePresenter&lt;-State" style="stroke: #A80036; stroke-width: 1.0;"/><ellipse cx="554.8057" cy="177.8476" fill="#FFFFFF" rx="8" ry="8" style="stroke: #A80036; stroke-width: 1.0;"/><line style="stroke: #A80036; stroke-width: 1.0;" x1="559.2714" x2="550.34" y1="184.4852" y2="171.21"/><line style="stroke: #A80036; stroke-width: 1.0;" x1="548.1681" x2="561.4433" y1="182.3133" y2="173.3819"/><!--MD5=[794690b89ea8e758d0be2e485800c117]
@startuml
class MachinePresenter {
    + MachinePresenter(index:int, addAnchorUseCase:IAddAnchorUseCase, removeAnchorUseCase:IRemoveAnchorUseCase, boundsControlProvider:IBoundsControlProvider)
    +  <<event>> disableTapToPlace : Action 
    +  <<event>> deleteCurrentMachine : Action 
    + setAnchorCreatedState() : void
    + setAnchorNotCreatedState() : void
    + <<async>> setAnchor(gameObject:GameObject) : void
    + <<async>> removeAnchor(gameObject:GameObject) : void
    + delete() : void
    + setTapToPlaceNotStarted() : void
}
class "IReadOnlyReactiveProperty`1"<T> {
}
class Factory {
}
class State {
    + isAddAnchorVisible : bool = true
    + isTapToPlaceVisible : bool = true
    + isDeleteMachineVisible : bool = true
    + isRemoveAnchorVisible : bool = false
    + areBoundControlsVisible : bool = false
    + State(state:State)
}
class "PlaceholderFactory`2"<T1,T2> {
}
MachinePresenter - -> "state<State>" "IReadOnlyReactiveProperty`1"
MachinePresenter +- - Factory
"PlaceholderFactory`2" "<int,MachinePresenter>" <|- - Factory
MachinePresenter +- - State
@enduml

PlantUML version 1.2020.02(Sun Mar 01 10:22:07 GMT 2020)
(GPL source distribution)
Java Runtime: OpenJDK Runtime Environment
JVM: OpenJDK 64-Bit Server VM
Java Version: 11.0.9+11-Ubuntu-0ubuntu1
Operating System: Linux
Default Encoding: ANSI_X3.4-1968
Language: en
Country: US
--></g></svg>