<?xml version="1.0" encoding="UTF-8" standalone="no"?><svg xmlns="http://www.w3.org/2000/svg" xmlns:xlink="http://www.w3.org/1999/xlink" contentScriptType="application/ecmascript" contentStyleType="text/css" height="321px" preserveAspectRatio="none" style="width:1248px;height:321px;" version="1.1" viewBox="0 0 1248 321" width="1248px" zoomAndPan="magnify"><defs><filter height="300%" id="f8veyv9kp8old" width="300%" x="-1" y="-1"><feGaussianBlur result="blurOut" stdDeviation="2.0"/><feColorMatrix in="blurOut" result="blurOut2" type="matrix" values="0 0 0 0 0 0 0 0 0 0 0 0 0 0 0 0 0 0 .4 0"/><feOffset dx="4.0" dy="4.0" in="blurOut2" result="blurOut3"/><feBlend in="SourceGraphic" in2="blurOut3" mode="normal"/></filter></defs><g><!--MD5=[1053962b7569b3638c162cc789817f72]
class MachineView--><rect fill="#FEFECE" filter="url(#f8veyv9kp8old)" height="73.6094" id="MachineView" style="stroke: #A80036; stroke-width: 1.5;" width="315" x="484.15" y="122"/><ellipse cx="597.4" cy="138" fill="#ADD1B2" rx="11" ry="11" style="stroke: #A80036; stroke-width: 1.0;"/><path d="M600.3688,143.6406 Q599.7906,143.9375 599.15,144.0781 Q598.5094,144.2344 597.8063,144.2344 Q595.3063,144.2344 593.9781,142.5938 Q592.6656,140.9375 592.6656,137.8125 Q592.6656,134.6875 593.9781,133.0313 Q595.3063,131.375 597.8063,131.375 Q598.5094,131.375 599.15,131.5313 Q599.8063,131.6875 600.3688,131.9844 L600.3688,134.7031 Q599.7438,134.125 599.15,133.8594 Q598.5563,133.5781 597.9313,133.5781 Q596.5875,133.5781 595.9,134.6563 Q595.2125,135.7188 595.2125,137.8125 Q595.2125,139.9063 595.9,140.9844 Q596.5875,142.0469 597.9313,142.0469 Q598.5563,142.0469 599.15,141.7813 Q599.7438,141.5 600.3688,140.9219 L600.3688,143.6406 Z "/><text fill="#000000" font-family="sans-serif" font-size="12" lengthAdjust="spacingAndGlyphs" textLength="80" x="617.9" y="142.1543">MachineView</text><line style="stroke: #A80036; stroke-width: 1.5;" x1="485.15" x2="798.15" y1="154" y2="154"/><line style="stroke: #A80036; stroke-width: 1.5;" x1="485.15" x2="798.15" y1="162" y2="162"/><ellipse cx="495.15" cy="173" fill="#84BE84" rx="3" ry="3" style="stroke: #038048; stroke-width: 1.0;"/><text fill="#000000" font-family="sans-serif" font-size="11" lengthAdjust="spacingAndGlyphs" textLength="71" x="504.15" y="176.2104">Start() : void</text><ellipse cx="495.15" cy="185.8047" fill="#84BE84" rx="3" ry="3" style="stroke: #038048; stroke-width: 1.0;"/><text fill="#000000" font-family="sans-serif" font-size="11" lengthAdjust="spacingAndGlyphs" textLength="289" x="504.15" y="189.0151">Initialize(anchorPresenter:MachinePresenter) : void</text><!--MD5=[8fd3f8d0e7d3d059d0e483e515d05c15]
class MachineViewFactory--><rect fill="#FEFECE" filter="url(#f8veyv9kp8old)" height="86.4141" id="MachineViewFactory" style="stroke: #A80036; stroke-width: 1.5;" width="403" x="834.15" y="116"/><ellipse cx="968.4" cy="132" fill="#ADD1B2" rx="11" ry="11" style="stroke: #A80036; stroke-width: 1.0;"/><path d="M971.3688,137.6406 Q970.7906,137.9375 970.15,138.0781 Q969.5094,138.2344 968.8063,138.2344 Q966.3063,138.2344 964.9781,136.5938 Q963.6656,134.9375 963.6656,131.8125 Q963.6656,128.6875 964.9781,127.0313 Q966.3063,125.375 968.8063,125.375 Q969.5094,125.375 970.15,125.5313 Q970.8063,125.6875 971.3688,125.9844 L971.3688,128.7031 Q970.7438,128.125 970.15,127.8594 Q969.5563,127.5781 968.9313,127.5781 Q967.5875,127.5781 966.9,128.6563 Q966.2125,129.7188 966.2125,131.8125 Q966.2125,133.9063 966.9,134.9844 Q967.5875,136.0469 968.9313,136.0469 Q969.5563,136.0469 970.15,135.7813 Q970.7438,135.5 971.3688,134.9219 L971.3688,137.6406 Z "/><text fill="#000000" font-family="sans-serif" font-size="12" lengthAdjust="spacingAndGlyphs" textLength="126" x="988.9" y="136.1543">MachineViewFactory</text><line style="stroke: #A80036; stroke-width: 1.5;" x1="835.15" x2="1236.15" y1="148" y2="148"/><line style="stroke: #A80036; stroke-width: 1.5;" x1="835.15" x2="1236.15" y1="156" y2="156"/><ellipse cx="845.15" cy="167" fill="#84BE84" rx="3" ry="3" style="stroke: #038048; stroke-width: 1.0;"/><text fill="#000000" font-family="sans-serif" font-size="11" lengthAdjust="spacingAndGlyphs" textLength="244" x="854.15" y="170.2104">MachineViewFactory(container:DiContainer)</text><ellipse cx="845.15" cy="179.8047" fill="#84BE84" rx="3" ry="3" style="stroke: #038048; stroke-width: 1.0;"/><text fill="#000000" font-family="sans-serif" font-size="11" lengthAdjust="spacingAndGlyphs" textLength="237" x="854.15" y="183.0151">Create(prefab:Object) : MachinePresenter</text><ellipse cx="845.15" cy="192.6094" fill="#84BE84" rx="3" ry="3" style="stroke: #038048; stroke-width: 1.0;"/><text fill="#000000" font-family="sans-serif" font-size="11" lengthAdjust="spacingAndGlyphs" textLength="377" x="854.15" y="195.8198">Create(prefab:Object, presenter:MachinePresenter) : MachineView</text><!--MD5=[dcda66dabdb739ec36f1175150e3c9d5]
class Factory--><rect fill="#FEFECE" filter="url(#f8veyv9kp8old)" height="48" id="Factory" style="stroke: #A80036; stroke-width: 1.5;" width="78" x="386.65" y="262"/><ellipse cx="401.65" cy="278" fill="#ADD1B2" rx="11" ry="11" style="stroke: #A80036; stroke-width: 1.0;"/><path d="M404.6188,283.6406 Q404.0406,283.9375 403.4,284.0781 Q402.7594,284.2344 402.0563,284.2344 Q399.5563,284.2344 398.2281,282.5938 Q396.9156,280.9375 396.9156,277.8125 Q396.9156,274.6875 398.2281,273.0313 Q399.5563,271.375 402.0563,271.375 Q402.7594,271.375 403.4,271.5313 Q404.0563,271.6875 404.6188,271.9844 L404.6188,274.7031 Q403.9938,274.125 403.4,273.8594 Q402.8063,273.5781 402.1813,273.5781 Q400.8375,273.5781 400.15,274.6563 Q399.4625,275.7188 399.4625,277.8125 Q399.4625,279.9063 400.15,280.9844 Q400.8375,282.0469 402.1813,282.0469 Q402.8063,282.0469 403.4,281.7813 Q403.9938,281.5 404.6188,280.9219 L404.6188,283.6406 Z "/><text fill="#000000" font-family="sans-serif" font-size="12" lengthAdjust="spacingAndGlyphs" textLength="46" x="415.65" y="282.1543">Factory</text><line style="stroke: #A80036; stroke-width: 1.5;" x1="387.65" x2="463.65" y1="294" y2="294"/><line style="stroke: #A80036; stroke-width: 1.5;" x1="387.65" x2="463.65" y1="302" y2="302"/><!--MD5=[237bd2776f56ff23c5556d5c50d74300]
class IFactory`3--><rect fill="#FEFECE" filter="url(#f8veyv9kp8old)" height="48" id="IFactory`3" style="stroke: #A80036; stroke-width: 1.5;" width="152" x="959.65" y="8"/><ellipse cx="974.65" cy="24" fill="#ADD1B2" rx="11" ry="11" style="stroke: #A80036; stroke-width: 1.0;"/><path d="M977.6188,29.6406 Q977.0406,29.9375 976.4,30.0781 Q975.7594,30.2344 975.0563,30.2344 Q972.5563,30.2344 971.2281,28.5938 Q969.9156,26.9375 969.9156,23.8125 Q969.9156,20.6875 971.2281,19.0313 Q972.5563,17.375 975.0563,17.375 Q975.7594,17.375 976.4,17.5313 Q977.0563,17.6875 977.6188,17.9844 L977.6188,20.7031 Q976.9938,20.125 976.4,19.8594 Q975.8063,19.5781 975.1813,19.5781 Q973.8375,19.5781 973.15,20.6563 Q972.4625,21.7188 972.4625,23.8125 Q972.4625,25.9063 973.15,26.9844 Q973.8375,28.0469 975.1813,28.0469 Q975.8063,28.0469 976.4,27.7813 Q976.9938,27.5 977.6188,26.9219 L977.6188,29.6406 Z "/><text fill="#000000" font-family="sans-serif" font-size="12" lengthAdjust="spacingAndGlyphs" textLength="63" x="988.65" y="28.1543">IFactory`3</text><rect fill="#FFFFFF" height="15.9688" style="stroke: #000000; stroke-width: 1.0; stroke-dasharray: 2.0,2.0;" width="55" x="1059.65" y="5"/><text fill="#000000" font-family="sans-serif" font-size="12" font-style="italic" lengthAdjust="spacingAndGlyphs" textLength="53" x="1060.65" y="17.1387">T1,T2,T3</text><line style="stroke: #A80036; stroke-width: 1.5;" x1="960.65" x2="1110.65" y1="40" y2="40"/><line style="stroke: #A80036; stroke-width: 1.5;" x1="960.65" x2="1110.65" y1="48" y2="48"/><!--MD5=[9081946f5f4034b09619a4603415a817]
class PlaceholderFactory`3--><rect fill="#FEFECE" filter="url(#f8veyv9kp8old)" height="48" id="PlaceholderFactory`3" style="stroke: #A80036; stroke-width: 1.5;" width="223" x="226.15" y="135"/><ellipse cx="241.15" cy="151" fill="#ADD1B2" rx="11" ry="11" style="stroke: #A80036; stroke-width: 1.0;"/><path d="M244.1188,156.6406 Q243.5406,156.9375 242.9,157.0781 Q242.2594,157.2344 241.5563,157.2344 Q239.0563,157.2344 237.7281,155.5938 Q236.4156,153.9375 236.4156,150.8125 Q236.4156,147.6875 237.7281,146.0313 Q239.0563,144.375 241.5563,144.375 Q242.2594,144.375 242.9,144.5313 Q243.5563,144.6875 244.1188,144.9844 L244.1188,147.7031 Q243.4938,147.125 242.9,146.8594 Q242.3063,146.5781 241.6813,146.5781 Q240.3375,146.5781 239.65,147.6563 Q238.9625,148.7188 238.9625,150.8125 Q238.9625,152.9063 239.65,153.9844 Q240.3375,155.0469 241.6813,155.0469 Q242.3063,155.0469 242.9,154.7813 Q243.4938,154.5 244.1188,153.9219 L244.1188,156.6406 Z "/><text fill="#000000" font-family="sans-serif" font-size="12" lengthAdjust="spacingAndGlyphs" textLength="134" x="255.15" y="155.1543">PlaceholderFactory`3</text><rect fill="#FFFFFF" height="15.9688" style="stroke: #000000; stroke-width: 1.0; stroke-dasharray: 2.0,2.0;" width="55" x="397.15" y="132"/><text fill="#000000" font-family="sans-serif" font-size="12" font-style="italic" lengthAdjust="spacingAndGlyphs" textLength="53" x="398.15" y="144.1387">T1,T2,T3</text><line style="stroke: #A80036; stroke-width: 1.5;" x1="227.15" x2="448.15" y1="167" y2="167"/><line style="stroke: #A80036; stroke-width: 1.5;" x1="227.15" x2="448.15" y1="175" y2="175"/><!--MD5=[83b3cf3d23d77c6f1e1b5291a241bc2a]
class MonoBehaviour--><rect fill="#FEFECE" filter="url(#f8veyv9kp8old)" height="48" id="MonoBehaviour" style="stroke: #A80036; stroke-width: 1.5;" width="128" x="577.65" y="8"/><ellipse cx="592.65" cy="24" fill="#ADD1B2" rx="11" ry="11" style="stroke: #A80036; stroke-width: 1.0;"/><path d="M595.6188,29.6406 Q595.0406,29.9375 594.4,30.0781 Q593.7594,30.2344 593.0563,30.2344 Q590.5563,30.2344 589.2281,28.5938 Q587.9156,26.9375 587.9156,23.8125 Q587.9156,20.6875 589.2281,19.0313 Q590.5563,17.375 593.0563,17.375 Q593.7594,17.375 594.4,17.5313 Q595.0563,17.6875 595.6188,17.9844 L595.6188,20.7031 Q594.9938,20.125 594.4,19.8594 Q593.8063,19.5781 593.1813,19.5781 Q591.8375,19.5781 591.15,20.6563 Q590.4625,21.7188 590.4625,23.8125 Q590.4625,25.9063 591.15,26.9844 Q591.8375,28.0469 593.1813,28.0469 Q593.8063,28.0469 594.4,27.7813 Q594.9938,27.5 595.6188,26.9219 L595.6188,29.6406 Z "/><text fill="#000000" font-family="sans-serif" font-size="12" lengthAdjust="spacingAndGlyphs" textLength="96" x="606.65" y="28.1543">MonoBehaviour</text><line style="stroke: #A80036; stroke-width: 1.5;" x1="578.65" x2="704.65" y1="40" y2="40"/><line style="stroke: #A80036; stroke-width: 1.5;" x1="578.65" x2="704.65" y1="48" y2="48"/><!--MD5=[947e0e68606267bc54847deefece0bae]
class Interactable--><rect fill="#FEFECE" filter="url(#f8veyv9kp8old)" height="48" id="Interactable" style="stroke: #A80036; stroke-width: 1.5;" width="108" x="587.65" y="262"/><ellipse cx="602.65" cy="278" fill="#ADD1B2" rx="11" ry="11" style="stroke: #A80036; stroke-width: 1.0;"/><path d="M605.6188,283.6406 Q605.0406,283.9375 604.4,284.0781 Q603.7594,284.2344 603.0563,284.2344 Q600.5563,284.2344 599.2281,282.5938 Q597.9156,280.9375 597.9156,277.8125 Q597.9156,274.6875 599.2281,273.0313 Q600.5563,271.375 603.0563,271.375 Q603.7594,271.375 604.4,271.5313 Q605.0563,271.6875 605.6188,271.9844 L605.6188,274.7031 Q604.9938,274.125 604.4,273.8594 Q603.8063,273.5781 603.1813,273.5781 Q601.8375,273.5781 601.15,274.6563 Q600.4625,275.7188 600.4625,277.8125 Q600.4625,279.9063 601.15,280.9844 Q601.8375,282.0469 603.1813,282.0469 Q603.8063,282.0469 604.4,281.7813 Q604.9938,281.5 605.6188,280.9219 L605.6188,283.6406 Z "/><text fill="#000000" font-family="sans-serif" font-size="12" lengthAdjust="spacingAndGlyphs" textLength="76" x="616.65" y="282.1543">Interactable</text><line style="stroke: #A80036; stroke-width: 1.5;" x1="588.65" x2="694.65" y1="294" y2="294"/><line style="stroke: #A80036; stroke-width: 1.5;" x1="588.65" x2="694.65" y1="302" y2="302"/><!--MD5=[12490c2ef94baadab3693195df7865ac]
class DiContainer--><rect fill="#FEFECE" filter="url(#f8veyv9kp8old)" height="48" id="DiContainer" style="stroke: #A80036; stroke-width: 1.5;" width="105" x="983.15" y="262"/><ellipse cx="998.15" cy="278" fill="#ADD1B2" rx="11" ry="11" style="stroke: #A80036; stroke-width: 1.0;"/><path d="M1001.1188,283.6406 Q1000.5406,283.9375 999.9,284.0781 Q999.2594,284.2344 998.5563,284.2344 Q996.0563,284.2344 994.7281,282.5938 Q993.4156,280.9375 993.4156,277.8125 Q993.4156,274.6875 994.7281,273.0313 Q996.0563,271.375 998.5563,271.375 Q999.2594,271.375 999.9,271.5313 Q1000.5563,271.6875 1001.1188,271.9844 L1001.1188,274.7031 Q1000.4938,274.125 999.9,273.8594 Q999.3063,273.5781 998.6813,273.5781 Q997.3375,273.5781 996.65,274.6563 Q995.9625,275.7188 995.9625,277.8125 Q995.9625,279.9063 996.65,280.9844 Q997.3375,282.0469 998.6813,282.0469 Q999.3063,282.0469 999.9,281.7813 Q1000.4938,281.5 1001.1188,280.9219 L1001.1188,283.6406 Z "/><text fill="#000000" font-family="sans-serif" font-size="12" lengthAdjust="spacingAndGlyphs" textLength="73" x="1012.15" y="282.1543">DiContainer</text><line style="stroke: #A80036; stroke-width: 1.5;" x1="984.15" x2="1087.15" y1="294" y2="294"/><line style="stroke: #A80036; stroke-width: 1.5;" x1="984.15" x2="1087.15" y1="302" y2="302"/><!--MD5=[8b7e2b839faa0db3c9169c09781815bc]
reverse link MonoBehaviour to MachineView--><path d="M641.65,76.3 C641.65,91.09 641.65,107.46 641.65,121.64 " fill="none" id="MonoBehaviour&lt;-MachineView" style="stroke: #A80036; stroke-width: 1.0;"/><polygon fill="none" points="634.65,76.22,641.65,56.22,648.65,76.22,634.65,76.22" style="stroke: #A80036; stroke-width: 1.0;"/><!--MD5=[3bbe064111278c24554e70f98a701bb5]
link MachineView to Interactable--><path d="M605.91,196.16 C600.83,215.53 601.69,239.04 608.51,257.01 " fill="none" id="MachineView-&gt;Interactable" style="stroke: #A80036; stroke-width: 1.0;"/><polygon fill="#A80036" points="610.59,261.93,610.7731,252.0828,608.6446,257.324,603.4035,255.1955,610.59,261.93" style="stroke: #A80036; stroke-width: 1.0;"/><text fill="#000000" font-family="sans-serif" font-size="13" lengthAdjust="spacingAndGlyphs" textLength="112" x="476.2809" y="250.9241">addAnchorButton</text><!--MD5=[3bbe064111278c24554e70f98a701bb5]
link MachineView to Interactable--><path d="M629.97,196.16 C628.32,215.37 628.59,238.64 630.76,256.55 " fill="none" id="MachineView-&gt;Interactable-1" style="stroke: #A80036; stroke-width: 1.0;"/><polygon fill="#A80036" points="631.5,261.93,634.2253,252.4657,630.8129,256.9774,626.3012,253.565,631.5,261.93" style="stroke: #A80036; stroke-width: 1.0;"/><text fill="#000000" font-family="sans-serif" font-size="13" lengthAdjust="spacingAndGlyphs" textLength="137" x="646.4522" y="250.9241">removeAnchorButton</text><!--MD5=[3bbe064111278c24554e70f98a701bb5]
link MachineView to Interactable--><path d="M654.03,196.16 C655.77,215.37 655.49,238.64 653.19,256.55 " fill="none" id="MachineView-&gt;Interactable-2" style="stroke: #A80036; stroke-width: 1.0;"/><polygon fill="#A80036" points="652.41,261.93,657.6527,253.5925,653.1231,256.9811,649.7345,252.4515,652.41,261.93" style="stroke: #A80036; stroke-width: 1.0;"/><text fill="#000000" font-family="sans-serif" font-size="13" lengthAdjust="spacingAndGlyphs" textLength="113" x="703.6958" y="261.4129">tapToPlaceButton</text><!--MD5=[3bbe064111278c24554e70f98a701bb5]
link MachineView to Interactable--><path d="M678.08,196.16 C683.27,215.53 682.38,239.04 675.43,257.01 " fill="none" id="MachineView-&gt;Interactable-3" style="stroke: #A80036; stroke-width: 1.0;"/><polygon fill="#A80036" points="673.31,261.93,680.5569,255.2605,675.2968,257.3417,673.2157,252.0816,673.31,261.93" style="stroke: #A80036; stroke-width: 1.0;"/><text fill="#000000" font-family="sans-serif" font-size="13" lengthAdjust="spacingAndGlyphs" textLength="83" x="587.7885" y="250.9241">deleteButton</text><!--MD5=[ba9e2ae6028dd0a2bb192735e8f06a09]
reverse link IFactory`3 to MachineViewFactory--><path d="M1035.65,76.27 C1035.65,89.12 1035.65,103.17 1035.65,115.94 " fill="none" id="IFactory`3&lt;-MachineViewFactory" style="stroke: #A80036; stroke-width: 1.0;"/><polygon fill="none" points="1028.65,76.22,1035.65,56.22,1042.65,76.22,1028.65,76.22" style="stroke: #A80036; stroke-width: 1.0;"/><text fill="#000000" font-family="sans-serif" font-size="13" lengthAdjust="spacingAndGlyphs" textLength="348" x="645.515" y="76.0966">&lt;UnityEngine.Object,MachinePresenter,MachineView&gt;</text><!--MD5=[687ee0209ee7760aee62de32c379c445]
link MachineViewFactory to DiContainer--><path d="M1035.65,202.32 C1035.65,220.14 1035.65,240.41 1035.65,256.42 " fill="none" id="MachineViewFactory-&gt;DiContainer" style="stroke: #A80036; stroke-width: 1.0;"/><polygon fill="#A80036" points="1035.65,261.67,1039.65,252.67,1035.65,256.67,1031.65,252.67,1035.65,261.67" style="stroke: #A80036; stroke-width: 1.0;"/><text fill="#000000" font-family="sans-serif" font-size="13" lengthAdjust="spacingAndGlyphs" textLength="67" x="960.4844" y="250.9945">_container</text><!--MD5=[199b788bd09407402199d51bb5d80bd4]
reverse link MachineView to Factory--><path d="M565.89,203.84 C531.81,223.57 493.01,246.02 464.88,262.3 " fill="none" id="MachineView&lt;-Factory" style="stroke: #A80036; stroke-width: 1.0;"/><ellipse cx="572.2524" cy="200.1611" fill="#FFFFFF" rx="8" ry="8" style="stroke: #A80036; stroke-width: 1.0;"/><line style="stroke: #A80036; stroke-width: 1.0;" x1="565.3248" x2="579.18" y1="204.1622" y2="196.16"/><line style="stroke: #A80036; stroke-width: 1.0;" x1="568.2513" x2="576.2535" y1="193.2335" y2="207.0887"/><!--MD5=[1fe9699dbc6dd4da66d103656c93cd8c]
reverse link PlaceholderFactory`3 to Factory--><path d="M365.57,199.66 C380.01,220.17 397.13,244.49 409.4,261.91 " fill="none" id="PlaceholderFactory`3&lt;-Factory" style="stroke: #A80036; stroke-width: 1.0;"/><polygon fill="none" points="359.79,203.6,354,183.22,371.24,195.54,359.79,203.6" style="stroke: #A80036; stroke-width: 1.0;"/><text fill="#000000" font-family="sans-serif" font-size="13" lengthAdjust="spacingAndGlyphs" textLength="348" x="-32.4272" y="203.0348">&lt;UnityEngine.Object,MachinePresenter,MachineView&gt;</text><!--MD5=[2cba3f778642ff0e02bb2e310a1631a5]
@startuml
class MachineView {
    + Start() : void
    + Initialize(anchorPresenter:MachinePresenter) : void
}
class MachineViewFactory {
    + MachineViewFactory(container:DiContainer)
    + Create(prefab:Object) : MachinePresenter
    + Create(prefab:Object, presenter:MachinePresenter) : MachineView
}
class Factory {
}
class "IFactory`3"<T1,T2,T3> {
}
class "PlaceholderFactory`3"<T1,T2,T3> {
}
MonoBehaviour <|- - MachineView
MachineView - -> "addAnchorButton" Interactable
MachineView - -> "removeAnchorButton" Interactable
MachineView - -> "tapToPlaceButton" Interactable
MachineView - -> "deleteButton" Interactable
"IFactory`3" "<UnityEngine.Object,MachinePresenter,MachineView>" <|- - MachineViewFactory
MachineViewFactory - -> "_container" DiContainer
MachineView +- - Factory
"PlaceholderFactory`3" "<UnityEngine.Object,MachinePresenter,MachineView>" <|- - Factory
@enduml

PlantUML version 1.2020.02(Sun Mar 01 10:22:07 GMT 2020)
(GPL source distribution)
Java Runtime: OpenJDK Runtime Environment
JVM: OpenJDK 64-Bit Server VM
Java Version: 11.0.9+11-Ubuntu-0ubuntu1
Operating System: Linux
Default Encoding: ANSI_X3.4-1968
Language: en
Country: US
--></g></svg>