<?xml version="1.0" encoding="UTF-8" standalone="no"?><svg xmlns="http://www.w3.org/2000/svg" xmlns:xlink="http://www.w3.org/1999/xlink" contentScriptType="application/ecmascript" contentStyleType="text/css" height="321px" preserveAspectRatio="none" style="width:1226px;height:321px;" version="1.1" viewBox="0 0 1226 321" width="1226px" zoomAndPan="magnify"><defs><filter height="300%" id="f3cj443x3yxwl" width="300%" x="-1" y="-1"><feGaussianBlur result="blurOut" stdDeviation="2.0"/><feColorMatrix in="blurOut" result="blurOut2" type="matrix" values="0 0 0 0 0 0 0 0 0 0 0 0 0 0 0 0 0 0 .4 0"/><feOffset dx="4.0" dy="4.0" in="blurOut2" result="blurOut3"/><feBlend in="SourceGraphic" in2="blurOut3" mode="normal"/></filter></defs><g><!--MD5=[1053962b7569b3638c162cc789817f72]
class MachineView--><rect fill="#FEFECE" filter="url(#f3cj443x3yxwl)" height="73.6094" id="MachineView" style="stroke: #A80036; stroke-width: 1.5;" width="308" x="476.84" y="122"/><ellipse cx="586.59" cy="138" fill="#ADD1B2" rx="11" ry="11" style="stroke: #A80036; stroke-width: 1.0;"/><path d="M589.5587,143.6406 Q588.9806,143.9375 588.34,144.0781 Q587.6994,144.2344 586.9962,144.2344 Q584.4962,144.2344 583.1681,142.5938 Q581.8556,140.9375 581.8556,137.8125 Q581.8556,134.6875 583.1681,133.0313 Q584.4962,131.375 586.9962,131.375 Q587.6994,131.375 588.34,131.5313 Q588.9962,131.6875 589.5587,131.9844 L589.5587,134.7031 Q588.9337,134.125 588.34,133.8594 Q587.7462,133.5781 587.1212,133.5781 Q585.7775,133.5781 585.09,134.6563 Q584.4025,135.7188 584.4025,137.8125 Q584.4025,139.9063 585.09,140.9844 Q585.7775,142.0469 587.1212,142.0469 Q587.7462,142.0469 588.34,141.7813 Q588.9337,141.5 589.5587,140.9219 L589.5587,143.6406 Z "/><text fill="#000000" font-family="sans-serif" font-size="12" lengthAdjust="spacingAndGlyphs" textLength="80" x="607.09" y="142.1543">MachineView</text><line style="stroke: #A80036; stroke-width: 1.5;" x1="477.84" x2="783.84" y1="154" y2="154"/><line style="stroke: #A80036; stroke-width: 1.5;" x1="477.84" x2="783.84" y1="162" y2="162"/><ellipse cx="487.84" cy="173" fill="#84BE84" rx="3" ry="3" style="stroke: #038048; stroke-width: 1.0;"/><text fill="#000000" font-family="sans-serif" font-size="11" lengthAdjust="spacingAndGlyphs" textLength="71" x="496.84" y="176.2104">Start() : void</text><ellipse cx="487.84" cy="185.8047" fill="#84BE84" rx="3" ry="3" style="stroke: #038048; stroke-width: 1.0;"/><text fill="#000000" font-family="sans-serif" font-size="11" lengthAdjust="spacingAndGlyphs" textLength="282" x="496.84" y="189.0151">Initialize(anchorPresenter:AnchorPresenter) : void</text><!--MD5=[8fd3f8d0e7d3d059d0e483e515d05c15]
class MachineViewFactory--><rect fill="#FEFECE" filter="url(#f3cj443x3yxwl)" height="86.4141" id="MachineViewFactory" style="stroke: #A80036; stroke-width: 1.5;" width="396" x="819.84" y="116"/><ellipse cx="950.59" cy="132" fill="#ADD1B2" rx="11" ry="11" style="stroke: #A80036; stroke-width: 1.0;"/><path d="M953.5588,137.6406 Q952.9806,137.9375 952.34,138.0781 Q951.6994,138.2344 950.9963,138.2344 Q948.4963,138.2344 947.1681,136.5938 Q945.8556,134.9375 945.8556,131.8125 Q945.8556,128.6875 947.1681,127.0313 Q948.4963,125.375 950.9963,125.375 Q951.6994,125.375 952.34,125.5313 Q952.9963,125.6875 953.5588,125.9844 L953.5588,128.7031 Q952.9338,128.125 952.34,127.8594 Q951.7463,127.5781 951.1213,127.5781 Q949.7775,127.5781 949.09,128.6563 Q948.4025,129.7188 948.4025,131.8125 Q948.4025,133.9063 949.09,134.9844 Q949.7775,136.0469 951.1213,136.0469 Q951.7463,136.0469 952.34,135.7813 Q952.9338,135.5 953.5588,134.9219 L953.5588,137.6406 Z "/><text fill="#000000" font-family="sans-serif" font-size="12" lengthAdjust="spacingAndGlyphs" textLength="126" x="971.09" y="136.1543">MachineViewFactory</text><line style="stroke: #A80036; stroke-width: 1.5;" x1="820.84" x2="1214.84" y1="148" y2="148"/><line style="stroke: #A80036; stroke-width: 1.5;" x1="820.84" x2="1214.84" y1="156" y2="156"/><ellipse cx="830.84" cy="167" fill="#84BE84" rx="3" ry="3" style="stroke: #038048; stroke-width: 1.0;"/><text fill="#000000" font-family="sans-serif" font-size="11" lengthAdjust="spacingAndGlyphs" textLength="244" x="839.84" y="170.2104">MachineViewFactory(container:DiContainer)</text><ellipse cx="830.84" cy="179.8047" fill="#84BE84" rx="3" ry="3" style="stroke: #038048; stroke-width: 1.0;"/><text fill="#000000" font-family="sans-serif" font-size="11" lengthAdjust="spacingAndGlyphs" textLength="230" x="839.84" y="183.0151">Create(prefab:Object) : AnchorPresenter</text><ellipse cx="830.84" cy="192.6094" fill="#84BE84" rx="3" ry="3" style="stroke: #038048; stroke-width: 1.0;"/><text fill="#000000" font-family="sans-serif" font-size="11" lengthAdjust="spacingAndGlyphs" textLength="370" x="839.84" y="195.8198">Create(prefab:Object, presenter:AnchorPresenter) : MachineView</text><!--MD5=[dcda66dabdb739ec36f1175150e3c9d5]
class Factory--><rect fill="#FEFECE" filter="url(#f3cj443x3yxwl)" height="48" id="Factory" style="stroke: #A80036; stroke-width: 1.5;" width="78" x="377.84" y="262"/><ellipse cx="392.84" cy="278" fill="#ADD1B2" rx="11" ry="11" style="stroke: #A80036; stroke-width: 1.0;"/><path d="M395.8088,283.6406 Q395.2306,283.9375 394.59,284.0781 Q393.9494,284.2344 393.2463,284.2344 Q390.7463,284.2344 389.4181,282.5938 Q388.1056,280.9375 388.1056,277.8125 Q388.1056,274.6875 389.4181,273.0313 Q390.7463,271.375 393.2463,271.375 Q393.9494,271.375 394.59,271.5313 Q395.2463,271.6875 395.8088,271.9844 L395.8088,274.7031 Q395.1838,274.125 394.59,273.8594 Q393.9963,273.5781 393.3713,273.5781 Q392.0275,273.5781 391.34,274.6563 Q390.6525,275.7188 390.6525,277.8125 Q390.6525,279.9063 391.34,280.9844 Q392.0275,282.0469 393.3713,282.0469 Q393.9963,282.0469 394.59,281.7813 Q395.1838,281.5 395.8088,280.9219 L395.8088,283.6406 Z "/><text fill="#000000" font-family="sans-serif" font-size="12" lengthAdjust="spacingAndGlyphs" textLength="46" x="406.84" y="282.1543">Factory</text><line style="stroke: #A80036; stroke-width: 1.5;" x1="378.84" x2="454.84" y1="294" y2="294"/><line style="stroke: #A80036; stroke-width: 1.5;" x1="378.84" x2="454.84" y1="302" y2="302"/><!--MD5=[237bd2776f56ff23c5556d5c50d74300]
class IFactory`3--><rect fill="#FEFECE" filter="url(#f3cj443x3yxwl)" height="48" id="IFactory`3" style="stroke: #A80036; stroke-width: 1.5;" width="152" x="941.84" y="8"/><ellipse cx="956.84" cy="24" fill="#ADD1B2" rx="11" ry="11" style="stroke: #A80036; stroke-width: 1.0;"/><path d="M959.8088,29.6406 Q959.2306,29.9375 958.59,30.0781 Q957.9494,30.2344 957.2463,30.2344 Q954.7463,30.2344 953.4181,28.5938 Q952.1056,26.9375 952.1056,23.8125 Q952.1056,20.6875 953.4181,19.0313 Q954.7463,17.375 957.2463,17.375 Q957.9494,17.375 958.59,17.5313 Q959.2463,17.6875 959.8088,17.9844 L959.8088,20.7031 Q959.1838,20.125 958.59,19.8594 Q957.9963,19.5781 957.3713,19.5781 Q956.0275,19.5781 955.34,20.6563 Q954.6525,21.7188 954.6525,23.8125 Q954.6525,25.9063 955.34,26.9844 Q956.0275,28.0469 957.3713,28.0469 Q957.9963,28.0469 958.59,27.7813 Q959.1838,27.5 959.8088,26.9219 L959.8088,29.6406 Z "/><text fill="#000000" font-family="sans-serif" font-size="12" lengthAdjust="spacingAndGlyphs" textLength="63" x="970.84" y="28.1543">IFactory`3</text><rect fill="#FFFFFF" height="15.9688" style="stroke: #000000; stroke-width: 1.0; stroke-dasharray: 2.0,2.0;" width="55" x="1041.84" y="5"/><text fill="#000000" font-family="sans-serif" font-size="12" font-style="italic" lengthAdjust="spacingAndGlyphs" textLength="53" x="1042.84" y="17.1387">T1,T2,T3</text><line style="stroke: #A80036; stroke-width: 1.5;" x1="942.84" x2="1092.84" y1="40" y2="40"/><line style="stroke: #A80036; stroke-width: 1.5;" x1="942.84" x2="1092.84" y1="48" y2="48"/><!--MD5=[9081946f5f4034b09619a4603415a817]
class PlaceholderFactory`3--><rect fill="#FEFECE" filter="url(#f3cj443x3yxwl)" height="48" id="PlaceholderFactory`3" style="stroke: #A80036; stroke-width: 1.5;" width="223" x="218.34" y="135"/><ellipse cx="233.34" cy="151" fill="#ADD1B2" rx="11" ry="11" style="stroke: #A80036; stroke-width: 1.0;"/><path d="M236.3088,156.6406 Q235.7306,156.9375 235.09,157.0781 Q234.4494,157.2344 233.7463,157.2344 Q231.2463,157.2344 229.9181,155.5938 Q228.6056,153.9375 228.6056,150.8125 Q228.6056,147.6875 229.9181,146.0313 Q231.2463,144.375 233.7463,144.375 Q234.4494,144.375 235.09,144.5313 Q235.7463,144.6875 236.3088,144.9844 L236.3088,147.7031 Q235.6838,147.125 235.09,146.8594 Q234.4963,146.5781 233.8713,146.5781 Q232.5275,146.5781 231.84,147.6563 Q231.1525,148.7188 231.1525,150.8125 Q231.1525,152.9063 231.84,153.9844 Q232.5275,155.0469 233.8713,155.0469 Q234.4963,155.0469 235.09,154.7813 Q235.6838,154.5 236.3088,153.9219 L236.3088,156.6406 Z "/><text fill="#000000" font-family="sans-serif" font-size="12" lengthAdjust="spacingAndGlyphs" textLength="134" x="247.34" y="155.1543">PlaceholderFactory`3</text><rect fill="#FFFFFF" height="15.9688" style="stroke: #000000; stroke-width: 1.0; stroke-dasharray: 2.0,2.0;" width="55" x="389.34" y="132"/><text fill="#000000" font-family="sans-serif" font-size="12" font-style="italic" lengthAdjust="spacingAndGlyphs" textLength="53" x="390.34" y="144.1387">T1,T2,T3</text><line style="stroke: #A80036; stroke-width: 1.5;" x1="219.34" x2="440.34" y1="167" y2="167"/><line style="stroke: #A80036; stroke-width: 1.5;" x1="219.34" x2="440.34" y1="175" y2="175"/><!--MD5=[83b3cf3d23d77c6f1e1b5291a241bc2a]
class MonoBehaviour--><rect fill="#FEFECE" filter="url(#f3cj443x3yxwl)" height="48" id="MonoBehaviour" style="stroke: #A80036; stroke-width: 1.5;" width="128" x="566.84" y="8"/><ellipse cx="581.84" cy="24" fill="#ADD1B2" rx="11" ry="11" style="stroke: #A80036; stroke-width: 1.0;"/><path d="M584.8088,29.6406 Q584.2306,29.9375 583.59,30.0781 Q582.9494,30.2344 582.2463,30.2344 Q579.7463,30.2344 578.4181,28.5938 Q577.1056,26.9375 577.1056,23.8125 Q577.1056,20.6875 578.4181,19.0313 Q579.7463,17.375 582.2463,17.375 Q582.9494,17.375 583.59,17.5313 Q584.2463,17.6875 584.8088,17.9844 L584.8088,20.7031 Q584.1838,20.125 583.59,19.8594 Q582.9963,19.5781 582.3713,19.5781 Q581.0275,19.5781 580.34,20.6563 Q579.6525,21.7188 579.6525,23.8125 Q579.6525,25.9063 580.34,26.9844 Q581.0275,28.0469 582.3713,28.0469 Q582.9963,28.0469 583.59,27.7813 Q584.1838,27.5 584.8088,26.9219 L584.8088,29.6406 Z "/><text fill="#000000" font-family="sans-serif" font-size="12" lengthAdjust="spacingAndGlyphs" textLength="96" x="595.84" y="28.1543">MonoBehaviour</text><line style="stroke: #A80036; stroke-width: 1.5;" x1="567.84" x2="693.84" y1="40" y2="40"/><line style="stroke: #A80036; stroke-width: 1.5;" x1="567.84" x2="693.84" y1="48" y2="48"/><!--MD5=[947e0e68606267bc54847deefece0bae]
class Interactable--><rect fill="#FEFECE" filter="url(#f3cj443x3yxwl)" height="48" id="Interactable" style="stroke: #A80036; stroke-width: 1.5;" width="108" x="576.84" y="262"/><ellipse cx="591.84" cy="278" fill="#ADD1B2" rx="11" ry="11" style="stroke: #A80036; stroke-width: 1.0;"/><path d="M594.8088,283.6406 Q594.2306,283.9375 593.59,284.0781 Q592.9494,284.2344 592.2463,284.2344 Q589.7463,284.2344 588.4181,282.5938 Q587.1056,280.9375 587.1056,277.8125 Q587.1056,274.6875 588.4181,273.0313 Q589.7463,271.375 592.2463,271.375 Q592.9494,271.375 593.59,271.5313 Q594.2463,271.6875 594.8088,271.9844 L594.8088,274.7031 Q594.1838,274.125 593.59,273.8594 Q592.9963,273.5781 592.3713,273.5781 Q591.0275,273.5781 590.34,274.6563 Q589.6525,275.7188 589.6525,277.8125 Q589.6525,279.9063 590.34,280.9844 Q591.0275,282.0469 592.3713,282.0469 Q592.9963,282.0469 593.59,281.7813 Q594.1838,281.5 594.8088,280.9219 L594.8088,283.6406 Z "/><text fill="#000000" font-family="sans-serif" font-size="12" lengthAdjust="spacingAndGlyphs" textLength="76" x="605.84" y="282.1543">Interactable</text><line style="stroke: #A80036; stroke-width: 1.5;" x1="577.84" x2="683.84" y1="294" y2="294"/><line style="stroke: #A80036; stroke-width: 1.5;" x1="577.84" x2="683.84" y1="302" y2="302"/><!--MD5=[12490c2ef94baadab3693195df7865ac]
class DiContainer--><rect fill="#FEFECE" filter="url(#f3cj443x3yxwl)" height="48" id="DiContainer" style="stroke: #A80036; stroke-width: 1.5;" width="105" x="965.34" y="262"/><ellipse cx="980.34" cy="278" fill="#ADD1B2" rx="11" ry="11" style="stroke: #A80036; stroke-width: 1.0;"/><path d="M983.3088,283.6406 Q982.7306,283.9375 982.09,284.0781 Q981.4494,284.2344 980.7463,284.2344 Q978.2463,284.2344 976.9181,282.5938 Q975.6056,280.9375 975.6056,277.8125 Q975.6056,274.6875 976.9181,273.0313 Q978.2463,271.375 980.7463,271.375 Q981.4494,271.375 982.09,271.5313 Q982.7463,271.6875 983.3088,271.9844 L983.3088,274.7031 Q982.6838,274.125 982.09,273.8594 Q981.4963,273.5781 980.8713,273.5781 Q979.5275,273.5781 978.84,274.6563 Q978.1525,275.7188 978.1525,277.8125 Q978.1525,279.9063 978.84,280.9844 Q979.5275,282.0469 980.8713,282.0469 Q981.4963,282.0469 982.09,281.7813 Q982.6838,281.5 983.3088,280.9219 L983.3088,283.6406 Z "/><text fill="#000000" font-family="sans-serif" font-size="12" lengthAdjust="spacingAndGlyphs" textLength="73" x="994.34" y="282.1543">DiContainer</text><line style="stroke: #A80036; stroke-width: 1.5;" x1="966.34" x2="1069.34" y1="294" y2="294"/><line style="stroke: #A80036; stroke-width: 1.5;" x1="966.34" x2="1069.34" y1="302" y2="302"/><!--MD5=[8b7e2b839faa0db3c9169c09781815bc]
reverse link MonoBehaviour to MachineView--><path d="M630.84,76.3 C630.84,91.09 630.84,107.46 630.84,121.64 " fill="none" id="MonoBehaviour&lt;-MachineView" style="stroke: #A80036; stroke-width: 1.0;"/><polygon fill="none" points="623.84,76.22,630.84,56.22,637.84,76.22,623.84,76.22" style="stroke: #A80036; stroke-width: 1.0;"/><!--MD5=[3bbe064111278c24554e70f98a701bb5]
link MachineView to Interactable--><path d="M595.1,196.16 C590.01,215.53 590.88,239.04 597.7,257.01 " fill="none" id="MachineView-&gt;Interactable" style="stroke: #A80036; stroke-width: 1.0;"/><polygon fill="#A80036" points="599.78,261.93,599.9631,252.0828,597.8346,257.324,592.5935,255.1955,599.78,261.93" style="stroke: #A80036; stroke-width: 1.0;"/><text fill="#000000" font-family="sans-serif" font-size="13" lengthAdjust="spacingAndGlyphs" textLength="112" x="465.4709" y="250.9241">addAnchorButton</text><!--MD5=[3bbe064111278c24554e70f98a701bb5]
link MachineView to Interactable--><path d="M619.16,196.16 C617.51,215.37 617.77,238.64 619.95,256.55 " fill="none" id="MachineView-&gt;Interactable-1" style="stroke: #A80036; stroke-width: 1.0;"/><polygon fill="#A80036" points="620.68,261.93,623.4091,252.4668,619.9949,256.9772,615.4845,253.563,620.68,261.93" style="stroke: #A80036; stroke-width: 1.0;"/><text fill="#000000" font-family="sans-serif" font-size="13" lengthAdjust="spacingAndGlyphs" textLength="137" x="635.6296" y="250.9241">removeAnchorButton</text><!--MD5=[3bbe064111278c24554e70f98a701bb5]
link MachineView to Interactable--><path d="M643.21,196.16 C644.96,215.37 644.68,238.64 642.37,256.55 " fill="none" id="MachineView-&gt;Interactable-2" style="stroke: #A80036; stroke-width: 1.0;"/><polygon fill="#A80036" points="641.59,261.93,646.8361,253.5946,642.3051,256.9814,638.9183,252.4504,641.59,261.93" style="stroke: #A80036; stroke-width: 1.0;"/><text fill="#000000" font-family="sans-serif" font-size="13" lengthAdjust="spacingAndGlyphs" textLength="113" x="692.8681" y="261.4129">tapToPlaceButton</text><!--MD5=[3bbe064111278c24554e70f98a701bb5]
link MachineView to Interactable--><path d="M667.27,196.16 C672.45,215.53 671.57,239.04 664.62,257.01 " fill="none" id="MachineView-&gt;Interactable-3" style="stroke: #A80036; stroke-width: 1.0;"/><polygon fill="#A80036" points="662.5,261.93,669.7394,255.2523,664.4816,257.3395,662.3945,252.0817,662.5,261.93" style="stroke: #A80036; stroke-width: 1.0;"/><text fill="#000000" font-family="sans-serif" font-size="13" lengthAdjust="spacingAndGlyphs" textLength="83" x="681.2473" y="250.9241">deleteButton</text><!--MD5=[ba9e2ae6028dd0a2bb192735e8f06a09]
reverse link IFactory`3 to MachineViewFactory--><path d="M1017.84,76.27 C1017.84,89.12 1017.84,103.17 1017.84,115.94 " fill="none" id="IFactory`3&lt;-MachineViewFactory" style="stroke: #A80036; stroke-width: 1.0;"/><polygon fill="none" points="1010.84,76.22,1017.84,56.22,1024.84,76.22,1010.84,76.22" style="stroke: #A80036; stroke-width: 1.0;"/><text fill="#000000" font-family="sans-serif" font-size="13" lengthAdjust="spacingAndGlyphs" textLength="340" x="636.6768" y="76.0966">&lt;UnityEngine.Object,AnchorPresenter,MachineView&gt;</text><!--MD5=[687ee0209ee7760aee62de32c379c445]
link MachineViewFactory to DiContainer--><path d="M1017.84,202.32 C1017.84,220.14 1017.84,240.41 1017.84,256.42 " fill="none" id="MachineViewFactory-&gt;DiContainer" style="stroke: #A80036; stroke-width: 1.0;"/><polygon fill="#A80036" points="1017.84,261.67,1021.84,252.67,1017.84,256.67,1013.84,252.67,1017.84,261.67" style="stroke: #A80036; stroke-width: 1.0;"/><text fill="#000000" font-family="sans-serif" font-size="13" lengthAdjust="spacingAndGlyphs" textLength="67" x="942.6744" y="250.9945">_container</text><!--MD5=[199b788bd09407402199d51bb5d80bd4]
reverse link MachineView to Factory--><path d="M555.82,203.82 C522.18,223.47 483.88,245.84 456.02,262.11 " fill="none" id="MachineView&lt;-Factory" style="stroke: #A80036; stroke-width: 1.0;"/><ellipse cx="562.0347" cy="200.1995" fill="#FFFFFF" rx="8" ry="8" style="stroke: #A80036; stroke-width: 1.0;"/><line style="stroke: #A80036; stroke-width: 1.0;" x1="555.1295" x2="568.94" y1="204.239" y2="196.16"/><line style="stroke: #A80036; stroke-width: 1.0;" x1="557.9953" x2="566.0742" y1="193.2942" y2="207.1047"/><!--MD5=[1fe9699dbc6dd4da66d103656c93cd8c]
reverse link PlaceholderFactory`3 to Factory--><path d="M357.44,199.66 C371.72,220.17 388.64,244.49 400.77,261.91 " fill="none" id="PlaceholderFactory`3&lt;-Factory" style="stroke: #A80036; stroke-width: 1.0;"/><polygon fill="none" points="351.68,203.63,346,183.22,363.17,195.64,351.68,203.63" style="stroke: #A80036; stroke-width: 1.0;"/><text fill="#000000" font-family="sans-serif" font-size="13" lengthAdjust="spacingAndGlyphs" textLength="340" x="-31.4985" y="203.0348">&lt;UnityEngine.Object,AnchorPresenter,MachineView&gt;</text><!--MD5=[32ff3ea968572b30e81922d1ebe54bc8]
@startuml
class MachineView {
    + Start() : void
    + Initialize(anchorPresenter:AnchorPresenter) : void
}
class MachineViewFactory {
    + MachineViewFactory(container:DiContainer)
    + Create(prefab:Object) : AnchorPresenter
    + Create(prefab:Object, presenter:AnchorPresenter) : MachineView
}
class Factory {
}
class "IFactory`3"<T1,T2,T3> {
}
class "PlaceholderFactory`3"<T1,T2,T3> {
}
MonoBehaviour <|- - MachineView
MachineView - -> "addAnchorButton" Interactable
MachineView - -> "removeAnchorButton" Interactable
MachineView - -> "tapToPlaceButton" Interactable
MachineView - -> "deleteButton" Interactable
"IFactory`3" "<UnityEngine.Object,AnchorPresenter,MachineView>" <|- - MachineViewFactory
MachineViewFactory - -> "_container" DiContainer
MachineView +- - Factory
"PlaceholderFactory`3" "<UnityEngine.Object,AnchorPresenter,MachineView>" <|- - Factory
@enduml

PlantUML version 1.2020.02(Sun Mar 01 10:22:07 GMT 2020)
(GPL source distribution)
Java Runtime: OpenJDK Runtime Environment
JVM: OpenJDK 64-Bit Server VM
Java Version: 11.0.9+11-Ubuntu-0ubuntu1
Operating System: Linux
Default Encoding: ANSI_X3.4-1968
Language: en
Country: US
--></g></svg>