<?xml version="1.0" encoding="UTF-8" standalone="no"?><svg xmlns="http://www.w3.org/2000/svg" xmlns:xlink="http://www.w3.org/1999/xlink" contentScriptType="application/ecmascript" contentStyleType="text/css" height="290px" preserveAspectRatio="none" style="width:536px;height:290px;" version="1.1" viewBox="0 0 536 290" width="536px" zoomAndPan="magnify"><defs><filter height="300%" id="fz1p2150ftkah" width="300%" x="-1" y="-1"><feGaussianBlur result="blurOut" stdDeviation="2.0"/><feColorMatrix in="blurOut" result="blurOut2" type="matrix" values="0 0 0 0 0 0 0 0 0 0 0 0 0 0 0 0 0 0 .4 0"/><feOffset dx="4.0" dy="4.0" in="blurOut2" result="blurOut3"/><feBlend in="SourceGraphic" in2="blurOut3" mode="normal"/></filter></defs><g><!--MD5=[c87c20e839afe8f776011f83a8173374]
class ObjectCreator--><rect fill="#FEFECE" filter="url(#fz1p2150ftkah)" height="99.2188" id="ObjectCreator" style="stroke: #A80036; stroke-width: 1.5;" width="356" x="6" y="8"/><ellipse cx="136.75" cy="24" fill="#B4A7E5" rx="11" ry="11" style="stroke: #A80036; stroke-width: 1.0;"/><path d="M132.6719,19.7656 L132.6719,17.6094 L140.0625,17.6094 L140.0625,19.7656 L137.5938,19.7656 L137.5938,27.8438 L140.0625,27.8438 L140.0625,30 L132.6719,30 L132.6719,27.8438 L135.1406,27.8438 L135.1406,19.7656 L132.6719,19.7656 Z "/><text fill="#000000" font-family="sans-serif" font-size="12" font-style="italic" lengthAdjust="spacingAndGlyphs" textLength="86" x="157.25" y="28.1543">ObjectCreator</text><line style="stroke: #A80036; stroke-width: 1.5;" x1="7" x2="361" y1="40" y2="40"/><line style="stroke: #A80036; stroke-width: 1.5;" x1="7" x2="361" y1="48" y2="48"/><ellipse cx="17" cy="59" fill="#84BE84" rx="3" ry="3" style="stroke: #038048; stroke-width: 1.0;"/><text fill="#000000" font-family="sans-serif" font-size="11" font-style="italic" lengthAdjust="spacingAndGlyphs" textLength="165" x="26" y="62.2104">enableBoundsControl() : void</text><ellipse cx="17" cy="71.8047" fill="#84BE84" rx="3" ry="3" style="stroke: #038048; stroke-width: 1.0;"/><text fill="#000000" font-family="sans-serif" font-size="11" font-style="italic" lengthAdjust="spacingAndGlyphs" textLength="167" x="26" y="75.0151">disableBoundsControl() : void</text><ellipse cx="17" cy="84.6094" fill="#84BE84" rx="3" ry="3" style="stroke: #038048; stroke-width: 1.0;"/><text fill="#000000" font-family="sans-serif" font-size="11" font-style="italic" lengthAdjust="spacingAndGlyphs" textLength="241" x="26" y="87.8198">createNewMachine(obj:GameObject) : void</text><ellipse cx="17" cy="97.4141" fill="#84BE84" rx="3" ry="3" style="stroke: #038048; stroke-width: 1.0;"/><text fill="#000000" font-family="sans-serif" font-size="11" font-style="italic" lengthAdjust="spacingAndGlyphs" textLength="330" x="26" y="100.6245">createNewMachineWithGO(obj:GameObject) : GameObject</text><!--MD5=[2637506e31a2bd827573dd50f9f6829a]
class ObjectsCreatorImpl--><rect fill="#FEFECE" filter="url(#fz1p2150ftkah)" height="112.0234" id="ObjectsCreatorImpl" style="stroke: #A80036; stroke-width: 1.5;" width="361" x="141.5" y="167"/><ellipse cx="258.25" cy="183" fill="#ADD1B2" rx="11" ry="11" style="stroke: #A80036; stroke-width: 1.0;"/><path d="M261.2188,188.6406 Q260.6406,188.9375 260,189.0781 Q259.3594,189.2344 258.6563,189.2344 Q256.1563,189.2344 254.8281,187.5938 Q253.5156,185.9375 253.5156,182.8125 Q253.5156,179.6875 254.8281,178.0313 Q256.1563,176.375 258.6563,176.375 Q259.3594,176.375 260,176.5313 Q260.6563,176.6875 261.2188,176.9844 L261.2188,179.7031 Q260.5938,179.125 260,178.8594 Q259.4063,178.5781 258.7813,178.5781 Q257.4375,178.5781 256.75,179.6563 Q256.0625,180.7188 256.0625,182.8125 Q256.0625,184.9063 256.75,185.9844 Q257.4375,187.0469 258.7813,187.0469 Q259.4063,187.0469 260,186.7813 Q260.5938,186.5 261.2188,185.9219 L261.2188,188.6406 Z "/><text fill="#000000" font-family="sans-serif" font-size="12" lengthAdjust="spacingAndGlyphs" textLength="119" x="278.75" y="187.1543">ObjectsCreatorImpl</text><line style="stroke: #A80036; stroke-width: 1.5;" x1="142.5" x2="501.5" y1="199" y2="199"/><line style="stroke: #A80036; stroke-width: 1.5;" x1="142.5" x2="501.5" y1="207" y2="207"/><ellipse cx="152.5" cy="218" fill="#84BE84" rx="3" ry="3" style="stroke: #038048; stroke-width: 1.0;"/><text fill="#000000" font-family="sans-serif" font-size="11" lengthAdjust="spacingAndGlyphs" textLength="335" x="161.5" y="221.2104">Construct(anchorObjectFactory:AnchorScript.Factory) : void</text><ellipse cx="152.5" cy="230.8047" fill="#84BE84" rx="3" ry="3" style="stroke: #038048; stroke-width: 1.0;"/><text fill="#000000" font-family="sans-serif" font-size="11" lengthAdjust="spacingAndGlyphs" textLength="165" x="161.5" y="234.0151">enableBoundsControl() : void</text><ellipse cx="152.5" cy="243.6094" fill="#84BE84" rx="3" ry="3" style="stroke: #038048; stroke-width: 1.0;"/><text fill="#000000" font-family="sans-serif" font-size="11" lengthAdjust="spacingAndGlyphs" textLength="168" x="161.5" y="246.8198">disableBoundsControl() : void</text><ellipse cx="152.5" cy="256.4141" fill="#84BE84" rx="3" ry="3" style="stroke: #038048; stroke-width: 1.0;"/><text fill="#000000" font-family="sans-serif" font-size="11" lengthAdjust="spacingAndGlyphs" textLength="240" x="161.5" y="259.6245">createNewMachine(obj:GameObject) : void</text><ellipse cx="152.5" cy="269.2188" fill="#84BE84" rx="3" ry="3" style="stroke: #038048; stroke-width: 1.0;"/><text fill="#000000" font-family="sans-serif" font-size="11" lengthAdjust="spacingAndGlyphs" textLength="328" x="161.5" y="272.4292">createNewMachineWithGO(obj:GameObject) : GameObject</text><!--MD5=[83b3cf3d23d77c6f1e1b5291a241bc2a]
class MonoBehaviour--><rect fill="#FEFECE" filter="url(#fz1p2150ftkah)" height="48" id="MonoBehaviour" style="stroke: #A80036; stroke-width: 1.5;" width="128" x="397" y="33.5"/><ellipse cx="412" cy="49.5" fill="#ADD1B2" rx="11" ry="11" style="stroke: #A80036; stroke-width: 1.0;"/><path d="M414.9688,55.1406 Q414.3906,55.4375 413.75,55.5781 Q413.1094,55.7344 412.4063,55.7344 Q409.9063,55.7344 408.5781,54.0938 Q407.2656,52.4375 407.2656,49.3125 Q407.2656,46.1875 408.5781,44.5313 Q409.9063,42.875 412.4063,42.875 Q413.1094,42.875 413.75,43.0313 Q414.4063,43.1875 414.9688,43.4844 L414.9688,46.2031 Q414.3438,45.625 413.75,45.3594 Q413.1563,45.0781 412.5313,45.0781 Q411.1875,45.0781 410.5,46.1563 Q409.8125,47.2188 409.8125,49.3125 Q409.8125,51.4063 410.5,52.4844 Q411.1875,53.5469 412.5313,53.5469 Q413.1563,53.5469 413.75,53.2813 Q414.3438,53 414.9688,52.4219 L414.9688,55.1406 Z "/><text fill="#000000" font-family="sans-serif" font-size="12" lengthAdjust="spacingAndGlyphs" textLength="96" x="426" y="53.6543">MonoBehaviour</text><line style="stroke: #A80036; stroke-width: 1.5;" x1="398" x2="524" y1="65.5" y2="65.5"/><line style="stroke: #A80036; stroke-width: 1.5;" x1="398" x2="524" y1="73.5" y2="73.5"/><!--MD5=[f9bc8c77c2c8fcddb7deaa9546e46aa6]
reverse link MonoBehaviour to ObjectsCreatorImpl--><path d="M428.26,97.01 C410.53,117.87 388.32,143.99 368.79,166.96 " fill="none" id="MonoBehaviour&lt;-ObjectsCreatorImpl" style="stroke: #A80036; stroke-width: 1.0;"/><polygon fill="none" points="423.09,92.28,441.38,81.58,433.76,101.35,423.09,92.28" style="stroke: #A80036; stroke-width: 1.0;"/><!--MD5=[51ef9d09964e40202c5b70061126bb30]
reverse link ObjectCreator to ObjectsCreatorImpl--><path d="M238.12,122.62 C250.49,137.28 263.54,152.74 275.56,166.98 " fill="none" id="ObjectCreator&lt;-ObjectsCreatorImpl" style="stroke: #A80036; stroke-width: 1.0;"/><polygon fill="none" points="232.58,126.91,225.03,107.11,243.28,117.88,232.58,126.91" style="stroke: #A80036; stroke-width: 1.0;"/><!--MD5=[16a16e7f1e95d3e594588fb056339271]
@startuml
interface ObjectCreator {
    + {abstract} enableBoundsControl() : void
    + {abstract} disableBoundsControl() : void
    + {abstract} createNewMachine(obj:GameObject) : void
    + {abstract} createNewMachineWithGO(obj:GameObject) : GameObject
}
class ObjectsCreatorImpl {
    + Construct(anchorObjectFactory:AnchorScript.Factory) : void
    + enableBoundsControl() : void
    + disableBoundsControl() : void
    + createNewMachine(obj:GameObject) : void
    + createNewMachineWithGO(obj:GameObject) : GameObject
}
MonoBehaviour <|- - ObjectsCreatorImpl
ObjectCreator <|- - ObjectsCreatorImpl
@enduml

PlantUML version 1.2020.02(Sun Mar 01 10:22:07 GMT 2020)
(GPL source distribution)
Java Runtime: OpenJDK Runtime Environment
JVM: OpenJDK 64-Bit Server VM
Java Version: 11.0.9+11-Ubuntu-0ubuntu1
Operating System: Linux
Default Encoding: ANSI_X3.4-1968
Language: en
Country: US
--></g></svg>