<?xml version="1.0" encoding="UTF-8" standalone="no"?><svg xmlns="http://www.w3.org/2000/svg" xmlns:xlink="http://www.w3.org/1999/xlink" contentScriptType="application/ecmascript" contentStyleType="text/css" height="239px" preserveAspectRatio="none" style="width:378px;height:239px;" version="1.1" viewBox="0 0 378 239" width="378px" zoomAndPan="magnify"><defs><filter height="300%" id="f1mh3ybnrhbdqr" width="300%" x="-1" y="-1"><feGaussianBlur result="blurOut" stdDeviation="2.0"/><feColorMatrix in="blurOut" result="blurOut2" type="matrix" values="0 0 0 0 0 0 0 0 0 0 0 0 0 0 0 0 0 0 .4 0"/><feOffset dx="4.0" dy="4.0" in="blurOut2" result="blurOut3"/><feBlend in="SourceGraphic" in2="blurOut3" mode="normal"/></filter></defs><g><!--MD5=[f704c7ac3879b3ecf1b8faa7456ed315]
class ObjectsCreator--><rect fill="#FEFECE" filter="url(#f1mh3ybnrhbdqr)" height="112.0234" id="ObjectsCreator" style="stroke: #A80036; stroke-width: 1.5;" width="361" x="6" y="116"/><ellipse cx="135.25" cy="132" fill="#ADD1B2" rx="11" ry="11" style="stroke: #A80036; stroke-width: 1.0;"/><path d="M138.2188,137.6406 Q137.6406,137.9375 137,138.0781 Q136.3594,138.2344 135.6563,138.2344 Q133.1563,138.2344 131.8281,136.5938 Q130.5156,134.9375 130.5156,131.8125 Q130.5156,128.6875 131.8281,127.0313 Q133.1563,125.375 135.6563,125.375 Q136.3594,125.375 137,125.5313 Q137.6563,125.6875 138.2188,125.9844 L138.2188,128.7031 Q137.5938,128.125 137,127.8594 Q136.4063,127.5781 135.7813,127.5781 Q134.4375,127.5781 133.75,128.6563 Q133.0625,129.7188 133.0625,131.8125 Q133.0625,133.9063 133.75,134.9844 Q134.4375,136.0469 135.7813,136.0469 Q136.4063,136.0469 137,135.7813 Q137.5938,135.5 138.2188,134.9219 L138.2188,137.6406 Z "/><text fill="#000000" font-family="sans-serif" font-size="12" lengthAdjust="spacingAndGlyphs" textLength="94" x="155.75" y="136.1543">ObjectsCreator</text><line style="stroke: #A80036; stroke-width: 1.5;" x1="7" x2="366" y1="148" y2="148"/><line style="stroke: #A80036; stroke-width: 1.5;" x1="7" x2="366" y1="156" y2="156"/><ellipse cx="17" cy="167" fill="#84BE84" rx="3" ry="3" style="stroke: #038048; stroke-width: 1.0;"/><text fill="#000000" font-family="sans-serif" font-size="11" lengthAdjust="spacingAndGlyphs" textLength="335" x="26" y="170.2104">Construct(anchorObjectFactory:AnchorScript.Factory) : void</text><ellipse cx="17" cy="179.8047" fill="#84BE84" rx="3" ry="3" style="stroke: #038048; stroke-width: 1.0;"/><text fill="#000000" font-family="sans-serif" font-size="11" lengthAdjust="spacingAndGlyphs" textLength="165" x="26" y="183.0151">enableBoundsControl() : void</text><ellipse cx="17" cy="192.6094" fill="#84BE84" rx="3" ry="3" style="stroke: #038048; stroke-width: 1.0;"/><text fill="#000000" font-family="sans-serif" font-size="11" lengthAdjust="spacingAndGlyphs" textLength="168" x="26" y="195.8198">disableBoundsControl() : void</text><ellipse cx="17" cy="205.4141" fill="#84BE84" rx="3" ry="3" style="stroke: #038048; stroke-width: 1.0;"/><text fill="#000000" font-family="sans-serif" font-size="11" lengthAdjust="spacingAndGlyphs" textLength="240" x="26" y="208.6245">createNewMachine(obj:GameObject) : void</text><ellipse cx="17" cy="218.2188" fill="#84BE84" rx="3" ry="3" style="stroke: #038048; stroke-width: 1.0;"/><text fill="#000000" font-family="sans-serif" font-size="11" lengthAdjust="spacingAndGlyphs" textLength="328" x="26" y="221.4292">createNewMachineWithGO(obj:GameObject) : GameObject</text><!--MD5=[83b3cf3d23d77c6f1e1b5291a241bc2a]
class MonoBehaviour--><rect fill="#FEFECE" filter="url(#f1mh3ybnrhbdqr)" height="48" id="MonoBehaviour" style="stroke: #A80036; stroke-width: 1.5;" width="128" x="122.5" y="8"/><ellipse cx="137.5" cy="24" fill="#ADD1B2" rx="11" ry="11" style="stroke: #A80036; stroke-width: 1.0;"/><path d="M140.4688,29.6406 Q139.8906,29.9375 139.25,30.0781 Q138.6094,30.2344 137.9063,30.2344 Q135.4063,30.2344 134.0781,28.5938 Q132.7656,26.9375 132.7656,23.8125 Q132.7656,20.6875 134.0781,19.0313 Q135.4063,17.375 137.9063,17.375 Q138.6094,17.375 139.25,17.5313 Q139.9063,17.6875 140.4688,17.9844 L140.4688,20.7031 Q139.8438,20.125 139.25,19.8594 Q138.6563,19.5781 138.0313,19.5781 Q136.6875,19.5781 136,20.6563 Q135.3125,21.7188 135.3125,23.8125 Q135.3125,25.9063 136,26.9844 Q136.6875,28.0469 138.0313,28.0469 Q138.6563,28.0469 139.25,27.7813 Q139.8438,27.5 140.4688,26.9219 L140.4688,29.6406 Z "/><text fill="#000000" font-family="sans-serif" font-size="12" lengthAdjust="spacingAndGlyphs" textLength="96" x="151.5" y="28.1543">MonoBehaviour</text><line style="stroke: #A80036; stroke-width: 1.5;" x1="123.5" x2="249.5" y1="40" y2="40"/><line style="stroke: #A80036; stroke-width: 1.5;" x1="123.5" x2="249.5" y1="48" y2="48"/><!--MD5=[680a2581fd062bc53ef172349d90bae3]
reverse link MonoBehaviour to ObjectsCreator--><path d="M186.5,76.25 C186.5,88.82 186.5,102.73 186.5,115.93 " fill="none" id="MonoBehaviour&lt;-ObjectsCreator" style="stroke: #A80036; stroke-width: 1.0;"/><polygon fill="none" points="179.5,76.1,186.5,56.1,193.5,76.1,179.5,76.1" style="stroke: #A80036; stroke-width: 1.0;"/><!--MD5=[273c537a4193b94a9c1f06fa4f5a9d86]
@startuml
class ObjectsCreator {
    + Construct(anchorObjectFactory:AnchorScript.Factory) : void
    + enableBoundsControl() : void
    + disableBoundsControl() : void
    + createNewMachine(obj:GameObject) : void
    + createNewMachineWithGO(obj:GameObject) : GameObject
}
MonoBehaviour <|- - ObjectsCreator
@enduml

PlantUML version 1.2020.02(Sun Mar 01 10:22:07 GMT 2020)
(GPL source distribution)
Java Runtime: OpenJDK Runtime Environment
JVM: OpenJDK 64-Bit Server VM
Java Version: 11.0.9+11-Ubuntu-0ubuntu1
Operating System: Linux
Default Encoding: ANSI_X3.4-1968
Language: en
Country: US
--></g></svg>