<?xml version="1.0" encoding="UTF-8" standalone="no"?><svg xmlns="http://www.w3.org/2000/svg" xmlns:xlink="http://www.w3.org/1999/xlink" contentScriptType="application/ecmascript" contentStyleType="text/css" height="239px" preserveAspectRatio="none" style="width:665px;height:239px;" version="1.1" viewBox="0 0 665 239" width="665px" zoomAndPan="magnify"><defs><filter height="300%" id="f1n7ohv8uojvx3" width="300%" x="-1" y="-1"><feGaussianBlur result="blurOut" stdDeviation="2.0"/><feColorMatrix in="blurOut" result="blurOut2" type="matrix" values="0 0 0 0 0 0 0 0 0 0 0 0 0 0 0 0 0 0 .4 0"/><feOffset dx="4.0" dy="4.0" in="blurOut2" result="blurOut3"/><feBlend in="SourceGraphic" in2="blurOut3" mode="normal"/></filter></defs><g><!--MD5=[c87c20e839afe8f776011f83a8173374]
class ObjectCreator--><rect fill="#FEFECE" filter="url(#f1n7ohv8uojvx3)" height="73.6094" id="ObjectCreator" style="stroke: #A80036; stroke-width: 1.5;" width="362" x="9" y="8"/><ellipse cx="142.75" cy="24" fill="#B4A7E5" rx="11" ry="11" style="stroke: #A80036; stroke-width: 1.0;"/><path d="M138.6719,19.7656 L138.6719,17.6094 L146.0625,17.6094 L146.0625,19.7656 L143.5938,19.7656 L143.5938,27.8438 L146.0625,27.8438 L146.0625,30 L138.6719,30 L138.6719,27.8438 L141.1406,27.8438 L141.1406,19.7656 L138.6719,19.7656 Z "/><text fill="#000000" font-family="sans-serif" font-size="12" font-style="italic" lengthAdjust="spacingAndGlyphs" textLength="86" x="163.25" y="28.1543">ObjectCreator</text><line style="stroke: #A80036; stroke-width: 1.5;" x1="10" x2="370" y1="40" y2="40"/><line style="stroke: #A80036; stroke-width: 1.5;" x1="10" x2="370" y1="48" y2="48"/><ellipse cx="20" cy="59" fill="#84BE84" rx="3" ry="3" style="stroke: #038048; stroke-width: 1.0;"/><text fill="#000000" font-family="sans-serif" font-size="11" font-style="italic" lengthAdjust="spacingAndGlyphs" textLength="247" x="29" y="62.2104">createNewMachine(machineIndex:int) : void</text><ellipse cx="20" cy="71.8047" fill="#84BE84" rx="3" ry="3" style="stroke: #038048; stroke-width: 1.0;"/><text fill="#000000" font-family="sans-serif" font-size="11" font-style="italic" lengthAdjust="spacingAndGlyphs" textLength="336" x="29" y="75.0151">createNewMachineWithGO(machineIndex:int) : GameObject</text><!--MD5=[2637506e31a2bd827573dd50f9f6829a]
class ObjectsCreatorImpl--><rect fill="#FEFECE" filter="url(#f1n7ohv8uojvx3)" height="86.4141" id="ObjectsCreatorImpl" style="stroke: #A80036; stroke-width: 1.5;" width="648" x="6" y="142"/><ellipse cx="266.25" cy="158" fill="#ADD1B2" rx="11" ry="11" style="stroke: #A80036; stroke-width: 1.0;"/><path d="M269.2188,163.6406 Q268.6406,163.9375 268,164.0781 Q267.3594,164.2344 266.6563,164.2344 Q264.1563,164.2344 262.8281,162.5938 Q261.5156,160.9375 261.5156,157.8125 Q261.5156,154.6875 262.8281,153.0313 Q264.1563,151.375 266.6563,151.375 Q267.3594,151.375 268,151.5313 Q268.6563,151.6875 269.2188,151.9844 L269.2188,154.7031 Q268.5938,154.125 268,153.8594 Q267.4063,153.5781 266.7813,153.5781 Q265.4375,153.5781 264.75,154.6563 Q264.0625,155.7188 264.0625,157.8125 Q264.0625,159.9063 264.75,160.9844 Q265.4375,162.0469 266.7813,162.0469 Q267.4063,162.0469 268,161.7813 Q268.5938,161.5 269.2188,160.9219 L269.2188,163.6406 Z "/><text fill="#000000" font-family="sans-serif" font-size="12" lengthAdjust="spacingAndGlyphs" textLength="119" x="286.75" y="162.1543">ObjectsCreatorImpl</text><line style="stroke: #A80036; stroke-width: 1.5;" x1="7" x2="653" y1="174" y2="174"/><line style="stroke: #A80036; stroke-width: 1.5;" x1="7" x2="653" y1="182" y2="182"/><ellipse cx="17" cy="193" fill="#84BE84" rx="3" ry="3" style="stroke: #038048; stroke-width: 1.0;"/><text fill="#000000" font-family="sans-serif" font-size="11" lengthAdjust="spacingAndGlyphs" textLength="622" x="26" y="196.2104">Construct(machineViewFactory:MachineView.Factory, anchorPresenterFactory:AnchorPresenter.Factory) : void</text><ellipse cx="17" cy="205.8047" fill="#84BE84" rx="3" ry="3" style="stroke: #038048; stroke-width: 1.0;"/><text fill="#000000" font-family="sans-serif" font-size="11" lengthAdjust="spacingAndGlyphs" textLength="245" x="26" y="209.0151">createNewMachine(machineIndex:int) : void</text><ellipse cx="17" cy="218.6094" fill="#84BE84" rx="3" ry="3" style="stroke: #038048; stroke-width: 1.0;"/><text fill="#000000" font-family="sans-serif" font-size="11" lengthAdjust="spacingAndGlyphs" textLength="333" x="26" y="221.8198">createNewMachineWithGO(machineIndex:int) : GameObject</text><!--MD5=[83b3cf3d23d77c6f1e1b5291a241bc2a]
class MonoBehaviour--><rect fill="#FEFECE" filter="url(#f1n7ohv8uojvx3)" height="48" id="MonoBehaviour" style="stroke: #A80036; stroke-width: 1.5;" width="128" x="406" y="21"/><ellipse cx="421" cy="37" fill="#ADD1B2" rx="11" ry="11" style="stroke: #A80036; stroke-width: 1.0;"/><path d="M423.9688,42.6406 Q423.3906,42.9375 422.75,43.0781 Q422.1094,43.2344 421.4063,43.2344 Q418.9063,43.2344 417.5781,41.5938 Q416.2656,39.9375 416.2656,36.8125 Q416.2656,33.6875 417.5781,32.0313 Q418.9063,30.375 421.4063,30.375 Q422.1094,30.375 422.75,30.5313 Q423.4063,30.6875 423.9688,30.9844 L423.9688,33.7031 Q423.3438,33.125 422.75,32.8594 Q422.1563,32.5781 421.5313,32.5781 Q420.1875,32.5781 419.5,33.6563 Q418.8125,34.7188 418.8125,36.8125 Q418.8125,38.9063 419.5,39.9844 Q420.1875,41.0469 421.5313,41.0469 Q422.1563,41.0469 422.75,40.7813 Q423.3438,40.5 423.9688,39.9219 L423.9688,42.6406 Z "/><text fill="#000000" font-family="sans-serif" font-size="12" lengthAdjust="spacingAndGlyphs" textLength="96" x="435" y="41.1543">MonoBehaviour</text><line style="stroke: #A80036; stroke-width: 1.5;" x1="407" x2="533" y1="53" y2="53"/><line style="stroke: #A80036; stroke-width: 1.5;" x1="407" x2="533" y1="61" y2="61"/><!--MD5=[f9bc8c77c2c8fcddb7deaa9546e46aa6]
reverse link MonoBehaviour to ObjectsCreatorImpl--><path d="M432.2,83.26 C413.85,101.35 391.73,123.15 372.77,141.84 " fill="none" id="MonoBehaviour&lt;-ObjectsCreatorImpl" style="stroke: #A80036; stroke-width: 1.0;"/><polygon fill="none" points="427.41,78.15,446.57,69.1,437.24,88.12,427.41,78.15" style="stroke: #A80036; stroke-width: 1.0;"/><!--MD5=[51ef9d09964e40202c5b70061126bb30]
reverse link ObjectCreator to ObjectsCreatorImpl--><path d="M241.34,96.61 C256.43,111.48 272.77,127.59 287.26,141.87 " fill="none" id="ObjectCreator&lt;-ObjectsCreatorImpl" style="stroke: #A80036; stroke-width: 1.0;"/><polygon fill="none" points="236.11,101.28,226.78,82.26,245.94,91.31,236.11,101.28" style="stroke: #A80036; stroke-width: 1.0;"/><!--MD5=[13ba1ea6e9f1ab28f32a737452c69397]
@startuml
interface ObjectCreator {
    + {abstract} createNewMachine(machineIndex:int) : void
    + {abstract} createNewMachineWithGO(machineIndex:int) : GameObject
}
class ObjectsCreatorImpl {
    + Construct(machineViewFactory:MachineView.Factory, anchorPresenterFactory:AnchorPresenter.Factory) : void
    + createNewMachine(machineIndex:int) : void
    + createNewMachineWithGO(machineIndex:int) : GameObject
}
MonoBehaviour <|- - ObjectsCreatorImpl
ObjectCreator <|- - ObjectsCreatorImpl
@enduml

PlantUML version 1.2020.02(Sun Mar 01 10:22:07 GMT 2020)
(GPL source distribution)
Java Runtime: OpenJDK Runtime Environment
JVM: OpenJDK 64-Bit Server VM
Java Version: 11.0.9+11-Ubuntu-0ubuntu1
Operating System: Linux
Default Encoding: ANSI_X3.4-1968
Language: en
Country: US
--></g></svg>