<?xml version="1.0" encoding="UTF-8" standalone="no"?><svg xmlns="http://www.w3.org/2000/svg" xmlns:xlink="http://www.w3.org/1999/xlink" contentScriptType="application/ecmascript" contentStyleType="text/css" height="91px" preserveAspectRatio="none" style="width:809px;height:91px;" version="1.1" viewBox="0 0 809 91" width="809px" zoomAndPan="magnify"><defs><filter height="300%" id="f18rvho6135oew" width="300%" x="-1" y="-1"><feGaussianBlur result="blurOut" stdDeviation="2.0"/><feColorMatrix in="blurOut" result="blurOut2" type="matrix" values="0 0 0 0 0 0 0 0 0 0 0 0 0 0 0 0 0 0 .4 0"/><feOffset dx="4.0" dy="4.0" in="blurOut2" result="blurOut3"/><feBlend in="SourceGraphic" in2="blurOut3" mode="normal"/></filter></defs><g><!--MD5=[9fb77dbaba9ba700c23ddff1c5ed5b32]
class RemoveAnchorUseCase--><rect fill="#FEFECE" filter="url(#f18rvho6135oew)" height="73.6094" id="RemoveAnchorUseCase" style="stroke: #A80036; stroke-width: 1.5;" width="791" x="7" y="7"/><ellipse cx="324.25" cy="23" fill="#ADD1B2" rx="11" ry="11" style="stroke: #A80036; stroke-width: 1.0;"/><path d="M327.2188,28.6406 Q326.6406,28.9375 326,29.0781 Q325.3594,29.2344 324.6563,29.2344 Q322.1563,29.2344 320.8281,27.5938 Q319.5156,25.9375 319.5156,22.8125 Q319.5156,19.6875 320.8281,18.0313 Q322.1563,16.375 324.6563,16.375 Q325.3594,16.375 326,16.5313 Q326.6563,16.6875 327.2188,16.9844 L327.2188,19.7031 Q326.5938,19.125 326,18.8594 Q325.4063,18.5781 324.7813,18.5781 Q323.4375,18.5781 322.75,19.6563 Q322.0625,20.7188 322.0625,22.8125 Q322.0625,24.9063 322.75,25.9844 Q323.4375,27.0469 324.7813,27.0469 Q325.4063,27.0469 326,26.7813 Q326.5938,26.5 327.2188,25.9219 L327.2188,28.6406 Z "/><text fill="#000000" font-family="sans-serif" font-size="12" lengthAdjust="spacingAndGlyphs" textLength="148" x="344.75" y="27.1543">RemoveAnchorUseCase</text><line style="stroke: #A80036; stroke-width: 1.5;" x1="8" x2="797" y1="39" y2="39"/><line style="stroke: #A80036; stroke-width: 1.5;" x1="8" x2="797" y1="47" y2="47"/><ellipse cx="18" cy="58" fill="#84BE84" rx="3" ry="3" style="stroke: #038048; stroke-width: 1.0;"/><text fill="#000000" font-family="sans-serif" font-size="11" lengthAdjust="spacingAndGlyphs" textLength="765" x="27" y="61.2104">RemoveAnchorUseCase(anchorsRepository:AnchorsRepository, anchorRemover:AnchorRemover, gameObjectEditor:GameObjectEditor)</text><ellipse cx="18" cy="70.8047" fill="#84BE84" rx="3" ry="3" style="stroke: #038048; stroke-width: 1.0;"/><text fill="#000000" font-family="sans-serif" font-size="11" lengthAdjust="spacingAndGlyphs" textLength="339" x="27" y="74.0151">«async» removeAzureAnchor(theObject:GameObject) : Task</text><!--MD5=[93e382b6f18f1ae64227f34e8e61d23c]
@startuml
class RemoveAnchorUseCase {
    + RemoveAnchorUseCase(anchorsRepository:AnchorsRepository, anchorRemover:AnchorRemover, gameObjectEditor:GameObjectEditor)
    + <<async>> removeAzureAnchor(theObject:GameObject) : Task
}
@enduml

PlantUML version 1.2020.02(Sun Mar 01 10:22:07 GMT 2020)
(GPL source distribution)
Java Runtime: OpenJDK Runtime Environment
JVM: OpenJDK 64-Bit Server VM
Java Version: 11.0.9+11-Ubuntu-0ubuntu1
Operating System: Linux
Default Encoding: ANSI_X3.4-1968
Language: en
Country: US
--></g></svg>