<?xml version="1.0" encoding="UTF-8" standalone="no"?><svg xmlns="http://www.w3.org/2000/svg" xmlns:xlink="http://www.w3.org/1999/xlink" contentScriptType="application/ecmascript" contentStyleType="text/css" height="91px" preserveAspectRatio="none" style="width:668px;height:91px;" version="1.1" viewBox="0 0 668 91" width="668px" zoomAndPan="magnify"><defs><filter height="300%" id="f17h9shvb9x7wn" width="300%" x="-1" y="-1"><feGaussianBlur result="blurOut" stdDeviation="2.0"/><feColorMatrix in="blurOut" result="blurOut2" type="matrix" values="0 0 0 0 0 0 0 0 0 0 0 0 0 0 0 0 0 0 .4 0"/><feOffset dx="4.0" dy="4.0" in="blurOut2" result="blurOut3"/><feBlend in="SourceGraphic" in2="blurOut3" mode="normal"/></filter></defs><g><!--MD5=[9fb77dbaba9ba700c23ddff1c5ed5b32]
class RemoveAnchorUseCase--><rect fill="#FEFECE" filter="url(#f17h9shvb9x7wn)" height="73.6094" id="RemoveAnchorUseCase" style="stroke: #A80036; stroke-width: 1.5;" width="650" x="7" y="7"/><ellipse cx="253.75" cy="23" fill="#ADD1B2" rx="11" ry="11" style="stroke: #A80036; stroke-width: 1.0;"/><path d="M256.7188,28.6406 Q256.1406,28.9375 255.5,29.0781 Q254.8594,29.2344 254.1563,29.2344 Q251.6563,29.2344 250.3281,27.5938 Q249.0156,25.9375 249.0156,22.8125 Q249.0156,19.6875 250.3281,18.0313 Q251.6563,16.375 254.1563,16.375 Q254.8594,16.375 255.5,16.5313 Q256.1563,16.6875 256.7188,16.9844 L256.7188,19.7031 Q256.0938,19.125 255.5,18.8594 Q254.9063,18.5781 254.2813,18.5781 Q252.9375,18.5781 252.25,19.6563 Q251.5625,20.7188 251.5625,22.8125 Q251.5625,24.9063 252.25,25.9844 Q252.9375,27.0469 254.2813,27.0469 Q254.9063,27.0469 255.5,26.7813 Q256.0938,26.5 256.7188,25.9219 L256.7188,28.6406 Z "/><text fill="#000000" font-family="sans-serif" font-size="12" lengthAdjust="spacingAndGlyphs" textLength="148" x="274.25" y="27.1543">RemoveAnchorUseCase</text><line style="stroke: #A80036; stroke-width: 1.5;" x1="8" x2="656" y1="39" y2="39"/><line style="stroke: #A80036; stroke-width: 1.5;" x1="8" x2="656" y1="47" y2="47"/><ellipse cx="18" cy="58" fill="#84BE84" rx="3" ry="3" style="stroke: #038048; stroke-width: 1.0;"/><text fill="#000000" font-family="sans-serif" font-size="11" lengthAdjust="spacingAndGlyphs" textLength="624" x="27" y="61.2104">RemoveAnchorUseCase(anchorsRepository:AnchorsRepository, spatialAnchorManager:SpatialAnchorManager)</text><ellipse cx="18" cy="70.8047" fill="#84BE84" rx="3" ry="3" style="stroke: #038048; stroke-width: 1.0;"/><text fill="#000000" font-family="sans-serif" font-size="11" lengthAdjust="spacingAndGlyphs" textLength="335" x="27" y="74.0151">«async» removeAzureAnchor(theObject:GameObject) : void</text><!--MD5=[eb24dbc707c8ff9e006b921cb71ef57e]
@startuml
class RemoveAnchorUseCase {
    + RemoveAnchorUseCase(anchorsRepository:AnchorsRepository, spatialAnchorManager:SpatialAnchorManager)
    + <<async>> removeAzureAnchor(theObject:GameObject) : void
}
@enduml

PlantUML version 1.2020.02(Sun Mar 01 10:22:07 GMT 2020)
(GPL source distribution)
Java Runtime: OpenJDK Runtime Environment
JVM: OpenJDK 64-Bit Server VM
Java Version: 11.0.9+11-Ubuntu-0ubuntu1
Operating System: Linux
Default Encoding: ANSI_X3.4-1968
Language: en
Country: US
--></g></svg>