<?xml version="1.0" encoding="UTF-8" standalone="no"?><svg xmlns="http://www.w3.org/2000/svg" xmlns:xlink="http://www.w3.org/1999/xlink" contentScriptType="application/ecmascript" contentStyleType="text/css" height="334px" preserveAspectRatio="none" style="width:474px;height:334px;" version="1.1" viewBox="0 0 474 334" width="474px" zoomAndPan="magnify"><defs><filter height="300%" id="f1pjbjmc6x8md7" width="300%" x="-1" y="-1"><feGaussianBlur result="blurOut" stdDeviation="2.0"/><feColorMatrix in="blurOut" result="blurOut2" type="matrix" values="0 0 0 0 0 0 0 0 0 0 0 0 0 0 0 0 0 0 .4 0"/><feOffset dx="4.0" dy="4.0" in="blurOut2" result="blurOut3"/><feBlend in="SourceGraphic" in2="blurOut3" mode="normal"/></filter></defs><g><!--MD5=[e39e83354f6cd81ff51a2650f46d8ea7]
class SaveAnchor--><rect fill="#FEFECE" filter="url(#f1pjbjmc6x8md7)" height="73.6094" id="SaveAnchor" style="stroke: #A80036; stroke-width: 1.5;" width="457" x="6" y="8"/><ellipse cx="193.25" cy="24" fill="#B4A7E5" rx="11" ry="11" style="stroke: #A80036; stroke-width: 1.0;"/><path d="M189.1719,19.7656 L189.1719,17.6094 L196.5625,17.6094 L196.5625,19.7656 L194.0938,19.7656 L194.0938,27.8438 L196.5625,27.8438 L196.5625,30 L189.1719,30 L189.1719,27.8438 L191.6406,27.8438 L191.6406,19.7656 L189.1719,19.7656 Z "/><text fill="#000000" font-family="sans-serif" font-size="12" font-style="italic" lengthAdjust="spacingAndGlyphs" textLength="74" x="213.75" y="28.1543">SaveAnchor</text><line style="stroke: #A80036; stroke-width: 1.5;" x1="7" x2="462" y1="40" y2="40"/><line style="stroke: #A80036; stroke-width: 1.5;" x1="7" x2="462" y1="48" y2="48"/><ellipse cx="17" cy="59" fill="#84BE84" rx="3" ry="3" style="stroke: #038048; stroke-width: 1.0;"/><text fill="#000000" font-family="sans-serif" font-size="11" lengthAdjust="spacingAndGlyphs" textLength="295" x="26" y="62.2104">createNativeAnchor(gameObject:GameObject) : void</text><ellipse cx="17" cy="71.8047" fill="#84BE84" rx="3" ry="3" style="stroke: #038048; stroke-width: 1.0;"/><text fill="#000000" font-family="sans-serif" font-size="11" lengthAdjust="spacingAndGlyphs" textLength="431" x="26" y="75.0151">createCloudAnchor(gameObject:GameObject, propIndex:int) : Task&lt;Result&gt;</text><!--MD5=[2741598bdf59a7d7e0d5c97658fd3022]
class Result--><rect fill="#FEFECE" filter="url(#f1pjbjmc6x8md7)" height="48" id="Result" style="stroke: #A80036; stroke-width: 1.5;" width="71" x="199" y="142"/><ellipse cx="214" cy="158" fill="#ADD1B2" rx="11" ry="11" style="stroke: #A80036; stroke-width: 1.0;"/><path d="M216.9688,163.6406 Q216.3906,163.9375 215.75,164.0781 Q215.1094,164.2344 214.4063,164.2344 Q211.9063,164.2344 210.5781,162.5938 Q209.2656,160.9375 209.2656,157.8125 Q209.2656,154.6875 210.5781,153.0313 Q211.9063,151.375 214.4063,151.375 Q215.1094,151.375 215.75,151.5313 Q216.4063,151.6875 216.9688,151.9844 L216.9688,154.7031 Q216.3438,154.125 215.75,153.8594 Q215.1563,153.5781 214.5313,153.5781 Q213.1875,153.5781 212.5,154.6563 Q211.8125,155.7188 211.8125,157.8125 Q211.8125,159.9063 212.5,160.9844 Q213.1875,162.0469 214.5313,162.0469 Q215.1563,162.0469 215.75,161.7813 Q216.3438,161.5 216.9688,160.9219 L216.9688,163.6406 Z "/><text fill="#000000" font-family="sans-serif" font-size="12" lengthAdjust="spacingAndGlyphs" textLength="39" x="228" y="162.1543">Result</text><line style="stroke: #A80036; stroke-width: 1.5;" x1="200" x2="269" y1="174" y2="174"/><line style="stroke: #A80036; stroke-width: 1.5;" x1="200" x2="269" y1="182" y2="182"/><!--MD5=[62b2edce616dbe77035d94d16f9f0d8e]
class Success--><rect fill="#FEFECE" filter="url(#f1pjbjmc6x8md7)" height="73.6094" id="Success" style="stroke: #A80036; stroke-width: 1.5;" width="208" x="13.5" y="250"/><ellipse cx="87.25" cy="266" fill="#ADD1B2" rx="11" ry="11" style="stroke: #A80036; stroke-width: 1.0;"/><path d="M90.2188,271.6406 Q89.6406,271.9375 89,272.0781 Q88.3594,272.2344 87.6563,272.2344 Q85.1563,272.2344 83.8281,270.5938 Q82.5156,268.9375 82.5156,265.8125 Q82.5156,262.6875 83.8281,261.0313 Q85.1563,259.375 87.6563,259.375 Q88.3594,259.375 89,259.5313 Q89.6563,259.6875 90.2188,259.9844 L90.2188,262.7031 Q89.5938,262.125 89,261.8594 Q88.4063,261.5781 87.7813,261.5781 Q86.4375,261.5781 85.75,262.6563 Q85.0625,263.7188 85.0625,265.8125 Q85.0625,267.9063 85.75,268.9844 Q86.4375,270.0469 87.7813,270.0469 Q88.4063,270.0469 89,269.7813 Q89.5938,269.5 90.2188,268.9219 L90.2188,271.6406 Z "/><text fill="#000000" font-family="sans-serif" font-size="12" lengthAdjust="spacingAndGlyphs" textLength="52" x="107.75" y="270.1543">Success</text><line style="stroke: #A80036; stroke-width: 1.5;" x1="14.5" x2="220.5" y1="282" y2="282"/><ellipse cx="24.5" cy="293" fill="none" rx="3" ry="3" style="stroke: #038048; stroke-width: 1.0;"/><text fill="#000000" font-family="sans-serif" font-size="11" lengthAdjust="spacingAndGlyphs" textLength="170" x="33.5" y="296.2104">anchorIdentifier : string «get»</text><line style="stroke: #A80036; stroke-width: 1.5;" x1="14.5" x2="220.5" y1="302.8047" y2="302.8047"/><ellipse cx="24.5" cy="313.8047" fill="#84BE84" rx="3" ry="3" style="stroke: #038048; stroke-width: 1.0;"/><text fill="#000000" font-family="sans-serif" font-size="11" lengthAdjust="spacingAndGlyphs" textLength="182" x="33.5" y="317.0151">Success(anchorIdentifier:string)</text><!--MD5=[879cfd5b89c70812f6e9f600c0875908]
class Failure--><rect fill="#FEFECE" filter="url(#f1pjbjmc6x8md7)" height="73.6094" id="Failure" style="stroke: #A80036; stroke-width: 1.5;" width="190" x="256.5" y="250"/><ellipse cx="326.25" cy="266" fill="#ADD1B2" rx="11" ry="11" style="stroke: #A80036; stroke-width: 1.0;"/><path d="M329.2188,271.6406 Q328.6406,271.9375 328,272.0781 Q327.3594,272.2344 326.6563,272.2344 Q324.1563,272.2344 322.8281,270.5938 Q321.5156,268.9375 321.5156,265.8125 Q321.5156,262.6875 322.8281,261.0313 Q324.1563,259.375 326.6563,259.375 Q327.3594,259.375 328,259.5313 Q328.6563,259.6875 329.2188,259.9844 L329.2188,262.7031 Q328.5938,262.125 328,261.8594 Q327.4063,261.5781 326.7813,261.5781 Q325.4375,261.5781 324.75,262.6563 Q324.0625,263.7188 324.0625,265.8125 Q324.0625,267.9063 324.75,268.9844 Q325.4375,270.0469 326.7813,270.0469 Q327.4063,270.0469 328,269.7813 Q328.5938,269.5 329.2188,268.9219 L329.2188,271.6406 Z "/><text fill="#000000" font-family="sans-serif" font-size="12" lengthAdjust="spacingAndGlyphs" textLength="42" x="346.75" y="270.1543">Failure</text><line style="stroke: #A80036; stroke-width: 1.5;" x1="257.5" x2="445.5" y1="282" y2="282"/><ellipse cx="267.5" cy="293" fill="none" rx="3" ry="3" style="stroke: #038048; stroke-width: 1.0;"/><text fill="#000000" font-family="sans-serif" font-size="11" lengthAdjust="spacingAndGlyphs" textLength="162" x="276.5" y="296.2104">exception : Exception? «get»</text><line style="stroke: #A80036; stroke-width: 1.5;" x1="257.5" x2="445.5" y1="302.8047" y2="302.8047"/><ellipse cx="267.5" cy="313.8047" fill="#84BE84" rx="3" ry="3" style="stroke: #038048; stroke-width: 1.0;"/><text fill="#000000" font-family="sans-serif" font-size="11" lengthAdjust="spacingAndGlyphs" textLength="164" x="276.5" y="317.0151">Failure(exception:Exception?)</text><!--MD5=[885d26d3e9031df2a312032558023329]
reverse link SaveAnchor to Result--><path d="M234.5,97.18 C234.5,112.76 234.5,129.11 234.5,141.85 " fill="none" id="SaveAnchor&lt;-Result" style="stroke: #A80036; stroke-width: 1.0;"/><ellipse cx="234.5" cy="90.03" fill="#FFFFFF" rx="8" ry="8" style="stroke: #A80036; stroke-width: 1.0;"/><line style="stroke: #A80036; stroke-width: 1.0;" x1="234.5" x2="234.5" y1="98.03" y2="82.03"/><line style="stroke: #A80036; stroke-width: 1.0;" x1="226.5" x2="242.5" y1="90.03" y2="90.03"/><!--MD5=[6fa63de359bb8649d965dc6f919449cb]
reverse link Result to Success--><path d="M190.14,200.34 C173.56,215.71 155.5,233.99 141.33,249.71 " fill="none" id="Result&lt;-Success" style="stroke: #A80036; stroke-width: 1.0;"/><ellipse cx="195.3781" cy="195.5977" fill="#FFFFFF" rx="8" ry="8" style="stroke: #A80036; stroke-width: 1.0;"/><line style="stroke: #A80036; stroke-width: 1.0;" x1="189.4462" x2="201.31" y1="200.9654" y2="190.23"/><line style="stroke: #A80036; stroke-width: 1.0;" x1="190.0104" x2="200.7458" y1="189.6658" y2="201.5296"/><!--MD5=[6fa63de359bb8649d965dc6f919449cb]
reverse link Result to Success--><path d="M209.13,205.77 C196.31,219.9 180.6,235.81 165.72,249.71 " fill="none" id="Result&lt;-Success-1" style="stroke: #A80036; stroke-width: 1.0;"/><polygon fill="none" points="204.23,200.74,222.63,190.23,214.8,209.92,204.23,200.74" style="stroke: #A80036; stroke-width: 1.0;"/><!--MD5=[13759f90d1f78c7e92740decd35cfe87]
reverse link Result to Failure--><path d="M256.89,201.68 C270.38,216.76 287.72,234.45 303.98,249.71 " fill="none" id="Result&lt;-Failure" style="stroke: #A80036; stroke-width: 1.0;"/><ellipse cx="252.2145" cy="196.2798" fill="#FFFFFF" rx="8" ry="8" style="stroke: #A80036; stroke-width: 1.0;"/><line style="stroke: #A80036; stroke-width: 1.0;" x1="257.449" x2="246.98" y1="202.3296" y2="190.23"/><line style="stroke: #A80036; stroke-width: 1.0;" x1="246.1647" x2="258.2643" y1="201.5143" y2="191.0453"/><!--MD5=[13759f90d1f78c7e92740decd35cfe87]
reverse link Result to Failure--><path d="M283.41,203.93 C298.96,218.51 315.36,235.2 328.37,249.71 " fill="none" id="Result&lt;-Failure-1" style="stroke: #A80036; stroke-width: 1.0;"/><polygon fill="none" points="278.41,208.85,268.3,190.23,287.82,198.48,278.41,208.85" style="stroke: #A80036; stroke-width: 1.0;"/><!--MD5=[19a20ad0b368ce92372e40e42dd43ef8]
@startuml
interface SaveAnchor {
    + createNativeAnchor(gameObject:GameObject) : void
    + createCloudAnchor(gameObject:GameObject, propIndex:int) : Task<Result>
}
class Result {
}
class Success {
    + anchorIdentifier : string <<get>>
    + Success(anchorIdentifier:string)
}
class Failure {
    + exception : Exception? <<get>>
    + Failure(exception:Exception?)
}
SaveAnchor +- - Result
Result +- - Success
Result <|- - Success
Result +- - Failure
Result <|- - Failure
@enduml

PlantUML version 1.2020.02(Sun Mar 01 10:22:07 GMT 2020)
(GPL source distribution)
Java Runtime: OpenJDK Runtime Environment
JVM: OpenJDK 64-Bit Server VM
Java Version: 11.0.9+11-Ubuntu-0ubuntu1
Operating System: Linux
Default Encoding: ANSI_X3.4-1968
Language: en
Country: US
--></g></svg>