<?xml version="1.0" encoding="UTF-8" standalone="no"?><svg xmlns="http://www.w3.org/2000/svg" xmlns:xlink="http://www.w3.org/1999/xlink" contentScriptType="application/ecmascript" contentStyleType="text/css" height="226px" preserveAspectRatio="none" style="width:391px;height:226px;" version="1.1" viewBox="0 0 391 226" width="391px" zoomAndPan="magnify"><defs><filter height="300%" id="f1xmpbl1k97yig" width="300%" x="-1" y="-1"><feGaussianBlur result="blurOut" stdDeviation="2.0"/><feColorMatrix in="blurOut" result="blurOut2" type="matrix" values="0 0 0 0 0 0 0 0 0 0 0 0 0 0 0 0 0 0 .4 0"/><feOffset dx="4.0" dy="4.0" in="blurOut2" result="blurOut3"/><feBlend in="SourceGraphic" in2="blurOut3" mode="normal"/></filter></defs><g><!--MD5=[df518ebd500dd83b40ade1b46661233e]
class IAwarnessValidator--><rect fill="#FEFECE" filter="url(#f1xmpbl1k97yig)" height="60.8047" id="IAwarnessValidator" style="stroke: #A80036; stroke-width: 1.5;" width="211" x="6" y="8"/><ellipse cx="48" cy="24" fill="#B4A7E5" rx="11" ry="11" style="stroke: #A80036; stroke-width: 1.0;"/><path d="M43.9219,19.7656 L43.9219,17.6094 L51.3125,17.6094 L51.3125,19.7656 L48.8438,19.7656 L48.8438,27.8438 L51.3125,27.8438 L51.3125,30 L43.9219,30 L43.9219,27.8438 L46.3906,27.8438 L46.3906,19.7656 L43.9219,19.7656 Z "/><text fill="#000000" font-family="sans-serif" font-size="12" font-style="italic" lengthAdjust="spacingAndGlyphs" textLength="119" x="68" y="28.1543">IAwarnessValidator</text><line style="stroke: #A80036; stroke-width: 1.5;" x1="7" x2="216" y1="40" y2="40"/><line style="stroke: #A80036; stroke-width: 1.5;" x1="7" x2="216" y1="48" y2="48"/><ellipse cx="17" cy="59" fill="#84BE84" rx="3" ry="3" style="stroke: #038048; stroke-width: 1.0;"/><text fill="#000000" font-family="sans-serif" font-size="11" lengthAdjust="spacingAndGlyphs" textLength="185" x="26" y="62.2104">validateSceneReadiness() : Task</text><!--MD5=[85bf761724dd6650ddd7d56c0b8a868c]
class SceneAwarnessValidator--><rect fill="#FEFECE" filter="url(#f1xmpbl1k97yig)" height="86.4141" id="SceneAwarnessValidator" style="stroke: #A80036; stroke-width: 1.5;" width="334" x="46.5" y="129"/><ellipse cx="131.75" cy="145" fill="#ADD1B2" rx="11" ry="11" style="stroke: #A80036; stroke-width: 1.0;"/><path d="M134.7188,150.6406 Q134.1406,150.9375 133.5,151.0781 Q132.8594,151.2344 132.1563,151.2344 Q129.6563,151.2344 128.3281,149.5938 Q127.0156,147.9375 127.0156,144.8125 Q127.0156,141.6875 128.3281,140.0313 Q129.6563,138.375 132.1563,138.375 Q132.8594,138.375 133.5,138.5313 Q134.1563,138.6875 134.7188,138.9844 L134.7188,141.7031 Q134.0938,141.125 133.5,140.8594 Q132.9063,140.5781 132.2813,140.5781 Q130.9375,140.5781 130.25,141.6563 Q129.5625,142.7188 129.5625,144.8125 Q129.5625,146.9063 130.25,147.9844 Q130.9375,149.0469 132.2813,149.0469 Q132.9063,149.0469 133.5,148.7813 Q134.0938,148.5 134.7188,147.9219 L134.7188,150.6406 Z "/><text fill="#000000" font-family="sans-serif" font-size="12" lengthAdjust="spacingAndGlyphs" textLength="155" x="152.25" y="149.1543">SceneAwarnessValidator</text><line style="stroke: #A80036; stroke-width: 1.5;" x1="47.5" x2="379.5" y1="161" y2="161"/><line style="stroke: #A80036; stroke-width: 1.5;" x1="47.5" x2="379.5" y1="169" y2="169"/><ellipse cx="57.5" cy="180" fill="#84BE84" rx="3" ry="3" style="stroke: #038048; stroke-width: 1.0;"/><text fill="#000000" font-family="sans-serif" font-size="11" lengthAdjust="spacingAndGlyphs" textLength="308" x="66.5" y="183.2104">Construct(cloudManager:SpatialAnchorManager) : void</text><ellipse cx="57.5" cy="192.8047" fill="#84BE84" rx="3" ry="3" style="stroke: #038048; stroke-width: 1.0;"/><text fill="#000000" font-family="sans-serif" font-size="11" lengthAdjust="spacingAndGlyphs" textLength="236" x="66.5" y="196.0151">«async» validateSceneReadiness() : Task</text><text fill="#000000" font-family="sans-serif" font-size="11" lengthAdjust="spacingAndGlyphs" textLength="83" x="66.5" y="208.8198">Update() : void</text><!--MD5=[83b3cf3d23d77c6f1e1b5291a241bc2a]
class MonoBehaviour--><rect fill="#FEFECE" filter="url(#f1xmpbl1k97yig)" height="48" id="MonoBehaviour" style="stroke: #A80036; stroke-width: 1.5;" width="128" x="252.5" y="14.5"/><ellipse cx="267.5" cy="30.5" fill="#ADD1B2" rx="11" ry="11" style="stroke: #A80036; stroke-width: 1.0;"/><path d="M270.4688,36.1406 Q269.8906,36.4375 269.25,36.5781 Q268.6094,36.7344 267.9063,36.7344 Q265.4063,36.7344 264.0781,35.0938 Q262.7656,33.4375 262.7656,30.3125 Q262.7656,27.1875 264.0781,25.5313 Q265.4063,23.875 267.9063,23.875 Q268.6094,23.875 269.25,24.0313 Q269.9063,24.1875 270.4688,24.4844 L270.4688,27.2031 Q269.8438,26.625 269.25,26.3594 Q268.6563,26.0781 268.0313,26.0781 Q266.6875,26.0781 266,27.1563 Q265.3125,28.2188 265.3125,30.3125 Q265.3125,32.4063 266,33.4844 Q266.6875,34.5469 268.0313,34.5469 Q268.6563,34.5469 269.25,34.2813 Q269.8438,34 270.4688,33.4219 L270.4688,36.1406 Z "/><text fill="#000000" font-family="sans-serif" font-size="12" lengthAdjust="spacingAndGlyphs" textLength="96" x="281.5" y="34.6543">MonoBehaviour</text><line style="stroke: #A80036; stroke-width: 1.5;" x1="253.5" x2="379.5" y1="46.5" y2="46.5"/><line style="stroke: #A80036; stroke-width: 1.5;" x1="253.5" x2="379.5" y1="54.5" y2="54.5"/><!--MD5=[997bc529dbf2936698d42bf9ff988741]
reverse link MonoBehaviour to SceneAwarnessValidator--><path d="M285.81,78.69 C273.41,94.51 259.09,112.8 246.47,128.9 " fill="none" id="MonoBehaviour&lt;-SceneAwarnessValidator" style="stroke: #A80036; stroke-width: 1.0;"/><polygon fill="none" points="280.48,74.14,298.32,62.71,291.5,82.77,280.48,74.14" style="stroke: #A80036; stroke-width: 1.0;"/><!--MD5=[6662a8b994b64db4266f257e62639657]
reverse link IAwarnessValidator to SceneAwarnessValidator--><path d="M146.73,84.92 C157.79,99.17 169.94,114.85 180.82,128.87 " fill="none" id="IAwarnessValidator&lt;-SceneAwarnessValidator" style="stroke: #A80036; stroke-width: 1.0;"/><polygon fill="none" points="141.12,89.1,134.39,69.01,152.18,80.52,141.12,89.1" style="stroke: #A80036; stroke-width: 1.0;"/><!--MD5=[480102b2476f4af9a9b91bfb3b83d196]
@startuml
interface IAwarnessValidator {
    + validateSceneReadiness() : Task
}
class SceneAwarnessValidator {
    + Construct(cloudManager:SpatialAnchorManager) : void
    + <<async>> validateSceneReadiness() : Task
    Update() : void
}
MonoBehaviour <|- - SceneAwarnessValidator
IAwarnessValidator <|- - SceneAwarnessValidator
@enduml

PlantUML version 1.2020.02(Sun Mar 01 10:22:07 GMT 2020)
(GPL source distribution)
Java Runtime: OpenJDK Runtime Environment
JVM: OpenJDK 64-Bit Server VM
Java Version: 11.0.9+11-Ubuntu-0ubuntu1
Operating System: Linux
Default Encoding: ANSI_X3.4-1968
Language: en
Country: US
--></g></svg>