<?xml version="1.0" encoding="UTF-8" standalone="no"?><svg xmlns="http://www.w3.org/2000/svg" xmlns:xlink="http://www.w3.org/1999/xlink" contentScriptType="application/ecmascript" contentStyleType="text/css" height="296px" preserveAspectRatio="none" style="width:344px;height:296px;" version="1.1" viewBox="0 0 344 296" width="344px" zoomAndPan="magnify"><defs><filter height="300%" id="f18h7fto2z3je" width="300%" x="-1" y="-1"><feGaussianBlur result="blurOut" stdDeviation="2.0"/><feColorMatrix in="blurOut" result="blurOut2" type="matrix" values="0 0 0 0 0 0 0 0 0 0 0 0 0 0 0 0 0 0 .4 0"/><feOffset dx="4.0" dy="4.0" in="blurOut2" result="blurOut3"/><feBlend in="SourceGraphic" in2="blurOut3" mode="normal"/></filter></defs><g><!--MD5=[474c3aebac51a195d461f252ee1935d8]
class UserMenuView--><rect fill="#FEFECE" filter="url(#f18h7fto2z3je)" height="60.8047" id="UserMenuView" style="stroke: #A80036; stroke-width: 1.5;" width="297" x="17.07" y="116"/><ellipse cx="115.82" cy="132" fill="#ADD1B2" rx="11" ry="11" style="stroke: #A80036; stroke-width: 1.0;"/><path d="M118.7888,137.6406 Q118.2106,137.9375 117.57,138.0781 Q116.9294,138.2344 116.2263,138.2344 Q113.7263,138.2344 112.3981,136.5938 Q111.0856,134.9375 111.0856,131.8125 Q111.0856,128.6875 112.3981,127.0313 Q113.7263,125.375 116.2263,125.375 Q116.9294,125.375 117.57,125.5313 Q118.2263,125.6875 118.7888,125.9844 L118.7888,128.7031 Q118.1638,128.125 117.57,127.8594 Q116.9763,127.5781 116.3513,127.5781 Q115.0075,127.5781 114.32,128.6563 Q113.6325,129.7188 113.6325,131.8125 Q113.6325,133.9063 114.32,134.9844 Q115.0075,136.0469 116.3513,136.0469 Q116.9763,136.0469 117.57,135.7813 Q118.1638,135.5 118.7888,134.9219 L118.7888,137.6406 Z "/><text fill="#000000" font-family="sans-serif" font-size="12" lengthAdjust="spacingAndGlyphs" textLength="91" x="136.32" y="136.1543">UserMenuView</text><line style="stroke: #A80036; stroke-width: 1.5;" x1="18.07" x2="313.07" y1="148" y2="148"/><line style="stroke: #A80036; stroke-width: 1.5;" x1="18.07" x2="313.07" y1="156" y2="156"/><ellipse cx="28.07" cy="167" fill="#84BE84" rx="3" ry="3" style="stroke: #038048; stroke-width: 1.0;"/><text fill="#000000" font-family="sans-serif" font-size="11" lengthAdjust="spacingAndGlyphs" textLength="271" x="37.07" y="170.2104">Construct(presenter:UserMenuPresenter) : void</text><!--MD5=[83b3cf3d23d77c6f1e1b5291a241bc2a]
class MonoBehaviour--><rect fill="#FEFECE" filter="url(#f18h7fto2z3je)" height="48" id="MonoBehaviour" style="stroke: #A80036; stroke-width: 1.5;" width="128" x="101.57" y="8"/><ellipse cx="116.57" cy="24" fill="#ADD1B2" rx="11" ry="11" style="stroke: #A80036; stroke-width: 1.0;"/><path d="M119.5388,29.6406 Q118.9606,29.9375 118.32,30.0781 Q117.6794,30.2344 116.9763,30.2344 Q114.4763,30.2344 113.1481,28.5938 Q111.8356,26.9375 111.8356,23.8125 Q111.8356,20.6875 113.1481,19.0313 Q114.4763,17.375 116.9763,17.375 Q117.6794,17.375 118.32,17.5313 Q118.9763,17.6875 119.5388,17.9844 L119.5388,20.7031 Q118.9138,20.125 118.32,19.8594 Q117.7263,19.5781 117.1013,19.5781 Q115.7575,19.5781 115.07,20.6563 Q114.3825,21.7188 114.3825,23.8125 Q114.3825,25.9063 115.07,26.9844 Q115.7575,28.0469 117.1013,28.0469 Q117.7263,28.0469 118.32,27.7813 Q118.9138,27.5 119.5388,26.9219 L119.5388,29.6406 Z "/><text fill="#000000" font-family="sans-serif" font-size="12" lengthAdjust="spacingAndGlyphs" textLength="96" x="130.57" y="28.1543">MonoBehaviour</text><line style="stroke: #A80036; stroke-width: 1.5;" x1="102.57" x2="228.57" y1="40" y2="40"/><line style="stroke: #A80036; stroke-width: 1.5;" x1="102.57" x2="228.57" y1="48" y2="48"/><!--MD5=[947e0e68606267bc54847deefece0bae]
class Interactable--><rect fill="#FEFECE" filter="url(#f18h7fto2z3je)" height="48" id="Interactable" style="stroke: #A80036; stroke-width: 1.5;" width="108" x="111.57" y="237"/><ellipse cx="126.57" cy="253" fill="#ADD1B2" rx="11" ry="11" style="stroke: #A80036; stroke-width: 1.0;"/><path d="M129.5388,258.6406 Q128.9606,258.9375 128.32,259.0781 Q127.6794,259.2344 126.9763,259.2344 Q124.4763,259.2344 123.1481,257.5938 Q121.8356,255.9375 121.8356,252.8125 Q121.8356,249.6875 123.1481,248.0313 Q124.4763,246.375 126.9763,246.375 Q127.6794,246.375 128.32,246.5313 Q128.9763,246.6875 129.5388,246.9844 L129.5388,249.7031 Q128.9138,249.125 128.32,248.8594 Q127.7263,248.5781 127.1013,248.5781 Q125.7575,248.5781 125.07,249.6563 Q124.3825,250.7188 124.3825,252.8125 Q124.3825,254.9063 125.07,255.9844 Q125.7575,257.0469 127.1013,257.0469 Q127.7263,257.0469 128.32,256.7813 Q128.9138,256.5 129.5388,255.9219 L129.5388,258.6406 Z "/><text fill="#000000" font-family="sans-serif" font-size="12" lengthAdjust="spacingAndGlyphs" textLength="76" x="140.57" y="257.1543">Interactable</text><line style="stroke: #A80036; stroke-width: 1.5;" x1="112.57" x2="218.57" y1="269" y2="269"/><line style="stroke: #A80036; stroke-width: 1.5;" x1="112.57" x2="218.57" y1="277" y2="277"/><!--MD5=[249aba6c4ab86a545566e5f219f519c4]
reverse link MonoBehaviour to UserMenuView--><path d="M165.57,76.11 C165.57,89.31 165.57,103.54 165.57,115.65 " fill="none" id="MonoBehaviour&lt;-UserMenuView" style="stroke: #A80036; stroke-width: 1.0;"/><polygon fill="none" points="158.57,76.04,165.57,56.04,172.57,76.04,158.57,76.04" style="stroke: #A80036; stroke-width: 1.0;"/><!--MD5=[d5748bebc56bf1e3e8a762b18dba4fc4]
link UserMenuView to Interactable--><path d="M154.19,177.06 C152.32,193.93 152.36,214.98 154.33,231.65 " fill="none" id="UserMenuView-&gt;Interactable" style="stroke: #A80036; stroke-width: 1.0;"/><polygon fill="#A80036" points="155,236.67,157.7826,227.2224,154.3429,231.7134,149.852,228.2737,155,236.67" style="stroke: #A80036; stroke-width: 1.0;"/><text fill="#000000" font-family="sans-serif" font-size="13" lengthAdjust="spacingAndGlyphs" textLength="134" x="2.0923" y="225.9945">enableBoundsButton</text><!--MD5=[d5748bebc56bf1e3e8a762b18dba4fc4]
link UserMenuView to Interactable--><path d="M177.62,177.06 C179.6,193.93 179.55,214.98 177.47,231.65 " fill="none" id="UserMenuView-&gt;Interactable-1" style="stroke: #A80036; stroke-width: 1.0;"/><polygon fill="#A80036" points="176.76,236.67,181.9825,228.3198,177.4611,231.7194,174.0615,227.198,176.76,236.67" style="stroke: #A80036; stroke-width: 1.0;"/><text fill="#000000" font-family="sans-serif" font-size="13" lengthAdjust="spacingAndGlyphs" textLength="136" x="196.0626" y="225.9945">disableBoundsButton</text><!--MD5=[ef527fc95c66bd8c8d7a075c8529688a]
@startuml
class UserMenuView {
    + Construct(presenter:UserMenuPresenter) : void
}
MonoBehaviour <|- - UserMenuView
UserMenuView - -> "enableBoundsButton" Interactable
UserMenuView - -> "disableBoundsButton" Interactable
@enduml

PlantUML version 1.2020.02(Sun Mar 01 10:22:07 GMT 2020)
(GPL source distribution)
Java Runtime: OpenJDK Runtime Environment
JVM: OpenJDK 64-Bit Server VM
Java Version: 11.0.9+11-Ubuntu-0ubuntu1
Operating System: Linux
Default Encoding: ANSI_X3.4-1968
Language: en
Country: US
--></g></svg>