<?xml version="1.0" encoding="UTF-8" standalone="no"?><svg xmlns="http://www.w3.org/2000/svg" xmlns:xlink="http://www.w3.org/1999/xlink" contentScriptType="application/ecmascript" contentStyleType="text/css" height="117px" preserveAspectRatio="none" style="width:573px;height:117px;" version="1.1" viewBox="0 0 573 117" width="573px" zoomAndPan="magnify"><defs><filter height="300%" id="f15nn4rqrrric4" width="300%" x="-1" y="-1"><feGaussianBlur result="blurOut" stdDeviation="2.0"/><feColorMatrix in="blurOut" result="blurOut2" type="matrix" values="0 0 0 0 0 0 0 0 0 0 0 0 0 0 0 0 0 0 .4 0"/><feOffset dx="4.0" dy="4.0" in="blurOut2" result="blurOut3"/><feBlend in="SourceGraphic" in2="blurOut3" mode="normal"/></filter></defs><g><!--MD5=[a5001a329f868df5af8b35e03fbdd308]
class UserMenuPresenter--><rect fill="#FEFECE" filter="url(#f15nn4rqrrric4)" height="99.2188" id="UserMenuPresenter" style="stroke: #A80036; stroke-width: 1.5;" width="555" x="7" y="7"/><ellipse cx="217.75" cy="23" fill="#ADD1B2" rx="11" ry="11" style="stroke: #A80036; stroke-width: 1.0;"/><path d="M220.7188,28.6406 Q220.1406,28.9375 219.5,29.0781 Q218.8594,29.2344 218.1563,29.2344 Q215.6563,29.2344 214.3281,27.5938 Q213.0156,25.9375 213.0156,22.8125 Q213.0156,19.6875 214.3281,18.0313 Q215.6563,16.375 218.1563,16.375 Q218.8594,16.375 219.5,16.5313 Q220.1563,16.6875 220.7188,16.9844 L220.7188,19.7031 Q220.0938,19.125 219.5,18.8594 Q218.9063,18.5781 218.2813,18.5781 Q216.9375,18.5781 216.25,19.6563 Q215.5625,20.7188 215.5625,22.8125 Q215.5625,24.9063 216.25,25.9844 Q216.9375,27.0469 218.2813,27.0469 Q218.9063,27.0469 219.5,26.7813 Q220.0938,26.5 220.7188,25.9219 L220.7188,28.6406 Z "/><text fill="#000000" font-family="sans-serif" font-size="12" lengthAdjust="spacingAndGlyphs" textLength="125" x="238.25" y="27.1543">UserMenuPresenter</text><line style="stroke: #A80036; stroke-width: 1.5;" x1="8" x2="561" y1="39" y2="39"/><line style="stroke: #A80036; stroke-width: 1.5;" x1="8" x2="561" y1="47" y2="47"/><ellipse cx="18" cy="58" fill="#84BE84" rx="3" ry="3" style="stroke: #038048; stroke-width: 1.0;"/><text fill="#000000" font-family="sans-serif" font-size="11" lengthAdjust="spacingAndGlyphs" textLength="529" x="27" y="61.2104">UserMenuPresenter(objectCreator:ObjectCreator, boundsControlEditor:IBoundsControlEditor)</text><ellipse cx="18" cy="70.8047" fill="#84BE84" rx="3" ry="3" style="stroke: #038048; stroke-width: 1.0;"/><text fill="#000000" font-family="sans-serif" font-size="11" lengthAdjust="spacingAndGlyphs" textLength="165" x="27" y="74.0151">enableBoundsControl() : void</text><ellipse cx="18" cy="83.6094" fill="#84BE84" rx="3" ry="3" style="stroke: #038048; stroke-width: 1.0;"/><text fill="#000000" font-family="sans-serif" font-size="11" lengthAdjust="spacingAndGlyphs" textLength="168" x="27" y="86.8198">disableBoundControls() : void</text><ellipse cx="18" cy="96.4141" fill="#84BE84" rx="3" ry="3" style="stroke: #038048; stroke-width: 1.0;"/><text fill="#000000" font-family="sans-serif" font-size="11" lengthAdjust="spacingAndGlyphs" textLength="197" x="27" y="99.6245">createNewMachine(index:int) : void</text><!--MD5=[cba70a60e64a5fc0623fda517b6d7185]
@startuml
class UserMenuPresenter {
    + UserMenuPresenter(objectCreator:ObjectCreator, boundsControlEditor:IBoundsControlEditor)
    + enableBoundsControl() : void
    + disableBoundControls() : void
    + createNewMachine(index:int) : void
}
@enduml

PlantUML version 1.2020.02(Sun Mar 01 10:22:07 GMT 2020)
(GPL source distribution)
Java Runtime: OpenJDK Runtime Environment
JVM: OpenJDK 64-Bit Server VM
Java Version: 11.0.9+11-Ubuntu-0ubuntu1
Operating System: Linux
Default Encoding: ANSI_X3.4-1968
Language: en
Country: US
--></g></svg>