<?xml version="1.0" encoding="UTF-8" standalone="no"?><svg xmlns="http://www.w3.org/2000/svg" xmlns:xlink="http://www.w3.org/1999/xlink" contentScriptType="application/ecmascript" contentStyleType="text/css" height="704px" preserveAspectRatio="none" style="width:1703px;height:704px;" version="1.1" viewBox="0 0 1703 704" width="1703px" zoomAndPan="magnify"><defs><filter height="300%" id="ftrgx73ekmz3l" width="300%" x="-1" y="-1"><feGaussianBlur result="blurOut" stdDeviation="2.0"/><feColorMatrix in="blurOut" result="blurOut2" type="matrix" values="0 0 0 0 0 0 0 0 0 0 0 0 0 0 0 0 0 0 .4 0"/><feOffset dx="4.0" dy="4.0" in="blurOut2" result="blurOut3"/><feBlend in="SourceGraphic" in2="blurOut3" mode="normal"/></filter></defs><g><!--MD5=[78bd35b629a69756b1f07cd4ac2391b5]
class MachinePresenter--><rect fill="#FEFECE" filter="url(#ftrgx73ekmz3l)" height="188.8516" id="MachinePresenter" style="stroke: #A80036; stroke-width: 1.5;" width="1297" x="295.94" y="8"/><ellipse cx="883.19" cy="24" fill="#ADD1B2" rx="11" ry="11" style="stroke: #A80036; stroke-width: 1.0;"/><path d="M886.1588,29.6406 Q885.5806,29.9375 884.94,30.0781 Q884.2994,30.2344 883.5963,30.2344 Q881.0963,30.2344 879.7681,28.5938 Q878.4556,26.9375 878.4556,23.8125 Q878.4556,20.6875 879.7681,19.0313 Q881.0963,17.375 883.5963,17.375 Q884.2994,17.375 884.94,17.5313 Q885.5963,17.6875 886.1588,17.9844 L886.1588,20.7031 Q885.5338,20.125 884.94,19.8594 Q884.3463,19.5781 883.7213,19.5781 Q882.3775,19.5781 881.69,20.6563 Q881.0025,21.7188 881.0025,23.8125 Q881.0025,25.9063 881.69,26.9844 Q882.3775,28.0469 883.7213,28.0469 Q884.3463,28.0469 884.94,27.7813 Q885.5338,27.5 886.1588,26.9219 L886.1588,29.6406 Z "/><text fill="#000000" font-family="sans-serif" font-size="12" lengthAdjust="spacingAndGlyphs" textLength="114" x="903.69" y="28.1543">MachinePresenter</text><line style="stroke: #A80036; stroke-width: 1.5;" x1="296.94" x2="1591.94" y1="40" y2="40"/><ellipse cx="306.94" cy="51" fill="none" rx="3" ry="3" style="stroke: #038048; stroke-width: 1.0;"/><text fill="#000000" font-family="sans-serif" font-size="11" lengthAdjust="spacingAndGlyphs" textLength="201" x="315.94" y="54.2104">«event» disableTapToPlace : Action</text><ellipse cx="306.94" cy="63.8047" fill="none" rx="3" ry="3" style="stroke: #038048; stroke-width: 1.0;"/><text fill="#000000" font-family="sans-serif" font-size="11" lengthAdjust="spacingAndGlyphs" textLength="219" x="315.94" y="67.0151">«event» deleteCurrentMachine : Action</text><text fill="#000000" font-family="sans-serif" font-size="11" lengthAdjust="spacingAndGlyphs" textLength="177" x="315.94" y="79.8198">«readonly» _machineIndex : int</text><line style="stroke: #A80036; stroke-width: 1.5;" x1="296.94" x2="1591.94" y1="86.4141" y2="86.4141"/><ellipse cx="306.94" cy="97.4141" fill="#84BE84" rx="3" ry="3" style="stroke: #038048; stroke-width: 1.0;"/><text fill="#000000" font-family="sans-serif" font-size="11" lengthAdjust="spacingAndGlyphs" textLength="1271" x="315.94" y="100.6245">MachinePresenter(index:int, addAnchorUseCase:IAddAnchorUseCase, removeAnchorUseCase:IRemoveAnchorUseCase, boundsControlProvider:IBoundsControlVisibilityProvider, machineInfoRepository:IMachineInfoRepository)</text><ellipse cx="306.94" cy="110.2188" fill="#84BE84" rx="3" ry="3" style="stroke: #038048; stroke-width: 1.0;"/><text fill="#000000" font-family="sans-serif" font-size="11" lengthAdjust="spacingAndGlyphs" textLength="175" x="315.94" y="113.4292">setAnchorCreatedState() : void</text><ellipse cx="306.94" cy="123.0234" fill="#84BE84" rx="3" ry="3" style="stroke: #038048; stroke-width: 1.0;"/><text fill="#000000" font-family="sans-serif" font-size="11" lengthAdjust="spacingAndGlyphs" textLength="194" x="315.94" y="126.2339">setAnchorNotCreatedState() : void</text><ellipse cx="306.94" cy="135.8281" fill="#84BE84" rx="3" ry="3" style="stroke: #038048; stroke-width: 1.0;"/><text fill="#000000" font-family="sans-serif" font-size="11" lengthAdjust="spacingAndGlyphs" textLength="297" x="315.94" y="139.0386">«async» setAnchor(gameObject:GameObject) : Task</text><ellipse cx="306.94" cy="148.6328" fill="#84BE84" rx="3" ry="3" style="stroke: #038048; stroke-width: 1.0;"/><text fill="#000000" font-family="sans-serif" font-size="11" lengthAdjust="spacingAndGlyphs" textLength="322" x="315.94" y="151.8433">«async» removeAnchor(gameObject:GameObject) : Task</text><ellipse cx="306.94" cy="161.4375" fill="#84BE84" rx="3" ry="3" style="stroke: #038048; stroke-width: 1.0;"/><text fill="#000000" font-family="sans-serif" font-size="11" lengthAdjust="spacingAndGlyphs" textLength="78" x="315.94" y="164.6479">delete() : void</text><ellipse cx="306.94" cy="174.2422" fill="#84BE84" rx="3" ry="3" style="stroke: #038048; stroke-width: 1.0;"/><text fill="#000000" font-family="sans-serif" font-size="11" lengthAdjust="spacingAndGlyphs" textLength="187" x="315.94" y="177.4526">setTapToPlaceNotStarted() : void</text><ellipse cx="306.94" cy="187.0469" fill="#84BE84" rx="3" ry="3" style="stroke: #038048; stroke-width: 1.0;"/><text fill="#000000" font-family="sans-serif" font-size="11" lengthAdjust="spacingAndGlyphs" textLength="101" x="315.94" y="190.2573">onDestroy() : void</text><!--MD5=[60d6b92408f98aed8df94d5c6e04aa63]
class State--><rect fill="#FEFECE" filter="url(#ftrgx73ekmz3l)" height="150.4375" id="State" style="stroke: #A80036; stroke-width: 1.5;" width="247" x="300.94" y="257"/><ellipse cx="403.19" cy="273" fill="#ADD1B2" rx="11" ry="11" style="stroke: #A80036; stroke-width: 1.0;"/><path d="M406.1588,278.6406 Q405.5806,278.9375 404.94,279.0781 Q404.2994,279.2344 403.5963,279.2344 Q401.0963,279.2344 399.7681,277.5938 Q398.4556,275.9375 398.4556,272.8125 Q398.4556,269.6875 399.7681,268.0313 Q401.0963,266.375 403.5963,266.375 Q404.2994,266.375 404.94,266.5313 Q405.5963,266.6875 406.1588,266.9844 L406.1588,269.7031 Q405.5338,269.125 404.94,268.8594 Q404.3463,268.5781 403.7213,268.5781 Q402.3775,268.5781 401.69,269.6563 Q401.0025,270.7188 401.0025,272.8125 Q401.0025,274.9063 401.69,275.9844 Q402.3775,277.0469 403.7213,277.0469 Q404.3463,277.0469 404.94,276.7813 Q405.5338,276.5 406.1588,275.9219 L406.1588,278.6406 Z "/><text fill="#000000" font-family="sans-serif" font-size="12" lengthAdjust="spacingAndGlyphs" textLength="34" x="423.69" y="277.1543">State</text><line style="stroke: #A80036; stroke-width: 1.5;" x1="301.94" x2="546.94" y1="289" y2="289"/><ellipse cx="311.94" cy="300" fill="none" rx="3" ry="3" style="stroke: #038048; stroke-width: 1.0;"/><text fill="#000000" font-family="sans-serif" font-size="11" lengthAdjust="spacingAndGlyphs" textLength="183" x="320.94" y="303.2104">isAddAnchorVisible : bool = true</text><ellipse cx="311.94" cy="312.8047" fill="none" rx="3" ry="3" style="stroke: #038048; stroke-width: 1.0;"/><text fill="#000000" font-family="sans-serif" font-size="11" lengthAdjust="spacingAndGlyphs" textLength="188" x="320.94" y="316.0151">isTapToPlaceVisible : bool = true</text><ellipse cx="311.94" cy="325.6094" fill="none" rx="3" ry="3" style="stroke: #038048; stroke-width: 1.0;"/><text fill="#000000" font-family="sans-serif" font-size="11" lengthAdjust="spacingAndGlyphs" textLength="205" x="320.94" y="328.8198">isDeleteMachineVisible : bool = true</text><ellipse cx="311.94" cy="338.4141" fill="none" rx="3" ry="3" style="stroke: #038048; stroke-width: 1.0;"/><text fill="#000000" font-family="sans-serif" font-size="11" lengthAdjust="spacingAndGlyphs" textLength="212" x="320.94" y="341.6245">isRemoveAnchorVisible : bool = false</text><ellipse cx="311.94" cy="351.2188" fill="none" rx="3" ry="3" style="stroke: #038048; stroke-width: 1.0;"/><text fill="#000000" font-family="sans-serif" font-size="11" lengthAdjust="spacingAndGlyphs" textLength="221" x="320.94" y="354.4292">areBoundControlsVisible : bool = false</text><ellipse cx="311.94" cy="364.0234" fill="none" rx="3" ry="3" style="stroke: #038048; stroke-width: 1.0;"/><text fill="#000000" font-family="sans-serif" font-size="11" lengthAdjust="spacingAndGlyphs" textLength="191" x="320.94" y="367.2339">machineInfo : MachineInfo? = null</text><line style="stroke: #A80036; stroke-width: 1.5;" x1="301.94" x2="546.94" y1="373.8281" y2="373.8281"/><ellipse cx="311.94" cy="384.8281" fill="#84BE84" rx="3" ry="3" style="stroke: #038048; stroke-width: 1.0;"/><text fill="#000000" font-family="sans-serif" font-size="11" lengthAdjust="spacingAndGlyphs" textLength="38" x="320.94" y="388.0386">State()</text><ellipse cx="311.94" cy="397.6328" fill="#84BE84" rx="3" ry="3" style="stroke: #038048; stroke-width: 1.0;"/><text fill="#000000" font-family="sans-serif" font-size="11" lengthAdjust="spacingAndGlyphs" textLength="101" x="320.94" y="400.8433">State(state:State)</text><!--MD5=[6037395b81641dc9f341bda23115c5fd]
class IReadOnlyReactiveProperty`1--><rect fill="#FEFECE" filter="url(#ftrgx73ekmz3l)" height="48" id="IReadOnlyReactiveProperty`1" style="stroke: #A80036; stroke-width: 1.5;" width="224" x="583.44" y="308"/><ellipse cx="598.44" cy="324" fill="#ADD1B2" rx="11" ry="11" style="stroke: #A80036; stroke-width: 1.0;"/><path d="M601.4088,329.6406 Q600.8306,329.9375 600.19,330.0781 Q599.5494,330.2344 598.8463,330.2344 Q596.3463,330.2344 595.0181,328.5938 Q593.7056,326.9375 593.7056,323.8125 Q593.7056,320.6875 595.0181,319.0313 Q596.3463,317.375 598.8463,317.375 Q599.5494,317.375 600.19,317.5313 Q600.8463,317.6875 601.4088,317.9844 L601.4088,320.7031 Q600.7838,320.125 600.19,319.8594 Q599.5963,319.5781 598.9713,319.5781 Q597.6275,319.5781 596.94,320.6563 Q596.2525,321.7188 596.2525,323.8125 Q596.2525,325.9063 596.94,326.9844 Q597.6275,328.0469 598.9713,328.0469 Q599.5963,328.0469 600.19,327.7813 Q600.7838,327.5 601.4088,326.9219 L601.4088,329.6406 Z "/><text fill="#000000" font-family="sans-serif" font-size="12" lengthAdjust="spacingAndGlyphs" textLength="181" x="612.44" y="328.1543">IReadOnlyReactiveProperty`1</text><rect fill="#FFFFFF" height="15.9688" style="stroke: #000000; stroke-width: 1.0; stroke-dasharray: 2.0,2.0;" width="9" x="801.44" y="305"/><text fill="#000000" font-family="sans-serif" font-size="12" font-style="italic" lengthAdjust="spacingAndGlyphs" textLength="7" x="802.44" y="317.1387">T</text><line style="stroke: #A80036; stroke-width: 1.5;" x1="584.44" x2="806.44" y1="340" y2="340"/><line style="stroke: #A80036; stroke-width: 1.5;" x1="584.44" x2="806.44" y1="348" y2="348"/><!--MD5=[dcda66dabdb739ec36f1175150e3c9d5]
class Factory--><rect fill="#FEFECE" filter="url(#ftrgx73ekmz3l)" height="48" id="Factory" style="stroke: #A80036; stroke-width: 1.5;" width="78" x="164.44" y="308"/><ellipse cx="179.44" cy="324" fill="#ADD1B2" rx="11" ry="11" style="stroke: #A80036; stroke-width: 1.0;"/><path d="M182.4088,329.6406 Q181.8306,329.9375 181.19,330.0781 Q180.5494,330.2344 179.8463,330.2344 Q177.3463,330.2344 176.0181,328.5938 Q174.7056,326.9375 174.7056,323.8125 Q174.7056,320.6875 176.0181,319.0313 Q177.3463,317.375 179.8463,317.375 Q180.5494,317.375 181.19,317.5313 Q181.8463,317.6875 182.4088,317.9844 L182.4088,320.7031 Q181.7838,320.125 181.19,319.8594 Q180.5963,319.5781 179.9713,319.5781 Q178.6275,319.5781 177.94,320.6563 Q177.2525,321.7188 177.2525,323.8125 Q177.2525,325.9063 177.94,326.9844 Q178.6275,328.0469 179.9713,328.0469 Q180.5963,328.0469 181.19,327.7813 Q181.7838,327.5 182.4088,326.9219 L182.4088,329.6406 Z "/><text fill="#000000" font-family="sans-serif" font-size="12" lengthAdjust="spacingAndGlyphs" textLength="46" x="193.44" y="328.1543">Factory</text><line style="stroke: #A80036; stroke-width: 1.5;" x1="165.44" x2="241.44" y1="340" y2="340"/><line style="stroke: #A80036; stroke-width: 1.5;" x1="165.44" x2="241.44" y1="348" y2="348"/><!--MD5=[6b777989b3abc98b15dc06d313c409d2]
class MachineInfo--><rect fill="#FEFECE" filter="url(#ftrgx73ekmz3l)" height="117.9609" id="MachineInfo" style="stroke: #A80036; stroke-width: 1.5;" width="112" x="368.44" y="467"/><ellipse cx="385.69" cy="485.9688" fill="#ADD1B2" rx="11" ry="11" style="stroke: #A80036; stroke-width: 1.0;"/><path d="M388.6588,491.6094 Q388.0806,491.9063 387.44,492.0469 Q386.7994,492.2031 386.0963,492.2031 Q383.5963,492.2031 382.2681,490.5625 Q380.9556,488.9063 380.9556,485.7813 Q380.9556,482.6563 382.2681,481 Q383.5963,479.3438 386.0963,479.3438 Q386.7994,479.3438 387.44,479.5 Q388.0963,479.6563 388.6588,479.9531 L388.6588,482.6719 Q388.0338,482.0938 387.44,481.8281 Q386.8463,481.5469 386.2213,481.5469 Q384.8775,481.5469 384.19,482.625 Q383.5025,483.6875 383.5025,485.7813 Q383.5025,487.875 384.19,488.9531 Q384.8775,490.0156 386.2213,490.0156 Q386.8463,490.0156 387.44,489.75 Q388.0338,489.4688 388.6588,488.8906 L388.6588,491.6094 Z "/><text fill="#000000" font-family="sans-serif" font-size="12" font-style="italic" lengthAdjust="spacingAndGlyphs" textLength="50" x="412.69" y="483.1387">«struct»</text><text fill="#000000" font-family="sans-serif" font-size="12" lengthAdjust="spacingAndGlyphs" textLength="75" x="400.19" y="497.1074">MachineInfo</text><line style="stroke: #A80036; stroke-width: 1.5;" x1="369.44" x2="479.44" y1="504.9375" y2="504.9375"/><ellipse cx="379.44" cy="515.9375" fill="none" rx="3" ry="3" style="stroke: #038048; stroke-width: 1.0;"/><text fill="#000000" font-family="sans-serif" font-size="11" lengthAdjust="spacingAndGlyphs" textLength="56" x="388.44" y="519.1479">hallId : int</text><ellipse cx="379.44" cy="528.7422" fill="none" rx="3" ry="3" style="stroke: #038048; stroke-width: 1.0;"/><text fill="#000000" font-family="sans-serif" font-size="11" lengthAdjust="spacingAndGlyphs" textLength="77" x="388.44" y="531.9526">name : string</text><ellipse cx="379.44" cy="541.5469" fill="none" rx="3" ry="3" style="stroke: #038048; stroke-width: 1.0;"/><text fill="#000000" font-family="sans-serif" font-size="11" lengthAdjust="spacingAndGlyphs" textLength="79" x="388.44" y="544.7573">efficiency : int</text><ellipse cx="379.44" cy="554.3516" fill="none" rx="3" ry="3" style="stroke: #038048; stroke-width: 1.0;"/><text fill="#000000" font-family="sans-serif" font-size="11" lengthAdjust="spacingAndGlyphs" textLength="81" x="388.44" y="557.562">status : string</text><ellipse cx="379.44" cy="567.1563" fill="none" rx="3" ry="3" style="stroke: #038048; stroke-width: 1.0;"/><text fill="#000000" font-family="sans-serif" font-size="11" lengthAdjust="spacingAndGlyphs" textLength="86" x="388.44" y="570.3667">symbol : string</text><line style="stroke: #A80036; stroke-width: 1.5;" x1="369.44" x2="479.44" y1="576.9609" y2="576.9609"/><!--MD5=[dc4d4dc1135cde0a1b5b7d925b1d0ee8]
class PlaceholderFactory`2--><rect fill="#FEFECE" filter="url(#ftrgx73ekmz3l)" height="48" id="PlaceholderFactory`2" style="stroke: #A80036; stroke-width: 1.5;" width="204" x="56.44" y="78.5"/><ellipse cx="71.44" cy="94.5" fill="#ADD1B2" rx="11" ry="11" style="stroke: #A80036; stroke-width: 1.0;"/><path d="M74.4088,100.1406 Q73.8306,100.4375 73.19,100.5781 Q72.5494,100.7344 71.8463,100.7344 Q69.3463,100.7344 68.0181,99.0938 Q66.7056,97.4375 66.7056,94.3125 Q66.7056,91.1875 68.0181,89.5313 Q69.3463,87.875 71.8463,87.875 Q72.5494,87.875 73.19,88.0313 Q73.8463,88.1875 74.4088,88.4844 L74.4088,91.2031 Q73.7838,90.625 73.19,90.3594 Q72.5963,90.0781 71.9713,90.0781 Q70.6275,90.0781 69.94,91.1563 Q69.2525,92.2188 69.2525,94.3125 Q69.2525,96.4063 69.94,97.4844 Q70.6275,98.5469 71.9713,98.5469 Q72.5963,98.5469 73.19,98.2813 Q73.7838,98 74.4088,97.4219 L74.4088,100.1406 Z "/><text fill="#000000" font-family="sans-serif" font-size="12" lengthAdjust="spacingAndGlyphs" textLength="134" x="85.44" y="98.6543">PlaceholderFactory`2</text><rect fill="#FFFFFF" height="15.9688" style="stroke: #000000; stroke-width: 1.0; stroke-dasharray: 2.0,2.0;" width="36" x="227.44" y="75.5"/><text fill="#000000" font-family="sans-serif" font-size="12" font-style="italic" lengthAdjust="spacingAndGlyphs" textLength="34" x="228.44" y="87.6387">T1,T2</text><line style="stroke: #A80036; stroke-width: 1.5;" x1="57.44" x2="259.44" y1="110.5" y2="110.5"/><line style="stroke: #A80036; stroke-width: 1.5;" x1="57.44" x2="259.44" y1="118.5" y2="118.5"/><!--MD5=[db94a1190e5ef99e287ec4213e6cbee6]
class IAddAnchorUseCase--><rect fill="#FEFECE" filter="url(#ftrgx73ekmz3l)" height="48" id="IAddAnchorUseCase" style="stroke: #A80036; stroke-width: 1.5;" width="158" x="842.44" y="308"/><ellipse cx="857.44" cy="324" fill="#ADD1B2" rx="11" ry="11" style="stroke: #A80036; stroke-width: 1.0;"/><path d="M860.4088,329.6406 Q859.8306,329.9375 859.19,330.0781 Q858.5494,330.2344 857.8463,330.2344 Q855.3463,330.2344 854.0181,328.5938 Q852.7056,326.9375 852.7056,323.8125 Q852.7056,320.6875 854.0181,319.0313 Q855.3463,317.375 857.8463,317.375 Q858.5494,317.375 859.19,317.5313 Q859.8463,317.6875 860.4088,317.9844 L860.4088,320.7031 Q859.7838,320.125 859.19,319.8594 Q858.5963,319.5781 857.9713,319.5781 Q856.6275,319.5781 855.94,320.6563 Q855.2525,321.7188 855.2525,323.8125 Q855.2525,325.9063 855.94,326.9844 Q856.6275,328.0469 857.9713,328.0469 Q858.5963,328.0469 859.19,327.7813 Q859.7838,327.5 860.4088,326.9219 L860.4088,329.6406 Z "/><text fill="#000000" font-family="sans-serif" font-size="12" lengthAdjust="spacingAndGlyphs" textLength="126" x="871.44" y="328.1543">IAddAnchorUseCase</text><line style="stroke: #A80036; stroke-width: 1.5;" x1="843.44" x2="999.44" y1="340" y2="340"/><line style="stroke: #A80036; stroke-width: 1.5;" x1="843.44" x2="999.44" y1="348" y2="348"/><!--MD5=[0eb160e9ae310e34686cbb3e28b854ba]
class IRemoveAnchorUseCase--><rect fill="#FEFECE" filter="url(#ftrgx73ekmz3l)" height="48" id="IRemoveAnchorUseCase" style="stroke: #A80036; stroke-width: 1.5;" width="183" x="1035.94" y="308"/><ellipse cx="1050.94" cy="324" fill="#ADD1B2" rx="11" ry="11" style="stroke: #A80036; stroke-width: 1.0;"/><path d="M1053.9088,329.6406 Q1053.3306,329.9375 1052.69,330.0781 Q1052.0494,330.2344 1051.3463,330.2344 Q1048.8463,330.2344 1047.5181,328.5938 Q1046.2056,326.9375 1046.2056,323.8125 Q1046.2056,320.6875 1047.5181,319.0313 Q1048.8463,317.375 1051.3463,317.375 Q1052.0494,317.375 1052.69,317.5313 Q1053.3463,317.6875 1053.9088,317.9844 L1053.9088,320.7031 Q1053.2838,320.125 1052.69,319.8594 Q1052.0963,319.5781 1051.4713,319.5781 Q1050.1275,319.5781 1049.44,320.6563 Q1048.7525,321.7188 1048.7525,323.8125 Q1048.7525,325.9063 1049.44,326.9844 Q1050.1275,328.0469 1051.4713,328.0469 Q1052.0963,328.0469 1052.69,327.7813 Q1053.2838,327.5 1053.9088,326.9219 L1053.9088,329.6406 Z "/><text fill="#000000" font-family="sans-serif" font-size="12" lengthAdjust="spacingAndGlyphs" textLength="151" x="1064.94" y="328.1543">IRemoveAnchorUseCase</text><line style="stroke: #A80036; stroke-width: 1.5;" x1="1036.94" x2="1217.94" y1="340" y2="340"/><line style="stroke: #A80036; stroke-width: 1.5;" x1="1036.94" x2="1217.94" y1="348" y2="348"/><!--MD5=[02aa7f2462b66d2956cb60dd70e1bdd0]
class IBoundsControlVisibilityProvider--><rect fill="#FEFECE" filter="url(#ftrgx73ekmz3l)" height="48" id="IBoundsControlVisibilityProvider" style="stroke: #A80036; stroke-width: 1.5;" width="227" x="1253.94" y="308"/><ellipse cx="1268.94" cy="324" fill="#ADD1B2" rx="11" ry="11" style="stroke: #A80036; stroke-width: 1.0;"/><path d="M1271.9088,329.6406 Q1271.3306,329.9375 1270.69,330.0781 Q1270.0494,330.2344 1269.3463,330.2344 Q1266.8463,330.2344 1265.5181,328.5938 Q1264.2056,326.9375 1264.2056,323.8125 Q1264.2056,320.6875 1265.5181,319.0313 Q1266.8463,317.375 1269.3463,317.375 Q1270.0494,317.375 1270.69,317.5313 Q1271.3463,317.6875 1271.9088,317.9844 L1271.9088,320.7031 Q1271.2838,320.125 1270.69,319.8594 Q1270.0963,319.5781 1269.4713,319.5781 Q1268.1275,319.5781 1267.44,320.6563 Q1266.7525,321.7188 1266.7525,323.8125 Q1266.7525,325.9063 1267.44,326.9844 Q1268.1275,328.0469 1269.4713,328.0469 Q1270.0963,328.0469 1270.69,327.7813 Q1271.2838,327.5 1271.9088,326.9219 L1271.9088,329.6406 Z "/><text fill="#000000" font-family="sans-serif" font-size="12" lengthAdjust="spacingAndGlyphs" textLength="195" x="1282.94" y="328.1543">IBoundsControlVisibilityProvider</text><line style="stroke: #A80036; stroke-width: 1.5;" x1="1254.94" x2="1479.94" y1="340" y2="340"/><line style="stroke: #A80036; stroke-width: 1.5;" x1="1254.94" x2="1479.94" y1="348" y2="348"/><!--MD5=[1555edd073c62adcbd44d1e9631d242f]
class IMachineInfoRepository--><rect fill="#FEFECE" filter="url(#ftrgx73ekmz3l)" height="48" id="IMachineInfoRepository" style="stroke: #A80036; stroke-width: 1.5;" width="176" x="1516.44" y="308"/><ellipse cx="1531.44" cy="324" fill="#ADD1B2" rx="11" ry="11" style="stroke: #A80036; stroke-width: 1.0;"/><path d="M1534.4088,329.6406 Q1533.8306,329.9375 1533.19,330.0781 Q1532.5494,330.2344 1531.8463,330.2344 Q1529.3463,330.2344 1528.0181,328.5938 Q1526.7056,326.9375 1526.7056,323.8125 Q1526.7056,320.6875 1528.0181,319.0313 Q1529.3463,317.375 1531.8463,317.375 Q1532.5494,317.375 1533.19,317.5313 Q1533.8463,317.6875 1534.4088,317.9844 L1534.4088,320.7031 Q1533.7838,320.125 1533.19,319.8594 Q1532.5963,319.5781 1531.9713,319.5781 Q1530.6275,319.5781 1529.94,320.6563 Q1529.2525,321.7188 1529.2525,323.8125 Q1529.2525,325.9063 1529.94,326.9844 Q1530.6275,328.0469 1531.9713,328.0469 Q1532.5963,328.0469 1533.19,327.7813 Q1533.7838,327.5 1534.4088,326.9219 L1534.4088,329.6406 Z "/><text fill="#000000" font-family="sans-serif" font-size="12" lengthAdjust="spacingAndGlyphs" textLength="144" x="1545.44" y="328.1543">IMachineInfoRepository</text><line style="stroke: #A80036; stroke-width: 1.5;" x1="1517.44" x2="1691.44" y1="340" y2="340"/><line style="stroke: #A80036; stroke-width: 1.5;" x1="1517.44" x2="1691.44" y1="348" y2="348"/><!--MD5=[20ddef7090025b04fb973268620c0974]
class DateTime--><rect fill="#FEFECE" filter="url(#ftrgx73ekmz3l)" height="48" id="DateTime" style="stroke: #A80036; stroke-width: 1.5;" width="91" x="378.94" y="645"/><ellipse cx="393.94" cy="661" fill="#ADD1B2" rx="11" ry="11" style="stroke: #A80036; stroke-width: 1.0;"/><path d="M396.9088,666.6406 Q396.3306,666.9375 395.69,667.0781 Q395.0494,667.2344 394.3463,667.2344 Q391.8463,667.2344 390.5181,665.5938 Q389.2056,663.9375 389.2056,660.8125 Q389.2056,657.6875 390.5181,656.0313 Q391.8463,654.375 394.3463,654.375 Q395.0494,654.375 395.69,654.5313 Q396.3463,654.6875 396.9088,654.9844 L396.9088,657.7031 Q396.2838,657.125 395.69,656.8594 Q395.0963,656.5781 394.4713,656.5781 Q393.1275,656.5781 392.44,657.6563 Q391.7525,658.7188 391.7525,660.8125 Q391.7525,662.9063 392.44,663.9844 Q393.1275,665.0469 394.4713,665.0469 Q395.0963,665.0469 395.69,664.7813 Q396.2838,664.5 396.9088,663.9219 L396.9088,666.6406 Z "/><text fill="#000000" font-family="sans-serif" font-size="12" lengthAdjust="spacingAndGlyphs" textLength="59" x="407.94" y="665.1543">DateTime</text><line style="stroke: #A80036; stroke-width: 1.5;" x1="379.94" x2="468.94" y1="677" y2="677"/><line style="stroke: #A80036; stroke-width: 1.5;" x1="379.94" x2="468.94" y1="685" y2="685"/><!--MD5=[1209a7d70a91ee2b0422ae584ed45bb1]
link MachinePresenter to IReadOnlyReactiveProperty`1--><path d="M842.08,197.02 C799.59,235.84 753.54,277.91 724.61,304.35 " fill="none" id="MachinePresenter-&gt;IReadOnlyReactiveProperty`1" style="stroke: #A80036; stroke-width: 1.0;"/><polygon fill="#A80036" points="720.81,307.81,730.144,304.6673,724.4922,304.4275,724.732,298.7757,720.81,307.81" style="stroke: #A80036; stroke-width: 1.0;"/><text fill="#000000" font-family="sans-serif" font-size="13" lengthAdjust="spacingAndGlyphs" textLength="90" x="625.7798" y="296.7733">state&lt;State&gt;</text><!--MD5=[e077d2a9c6fa2dfabcbe92319c7dde6f]
link MachinePresenter to IAddAnchorUseCase--><path d="M934.98,197.02 C931.15,234.93 927,275.95 924.32,302.47 " fill="none" id="MachinePresenter-&gt;IAddAnchorUseCase" style="stroke: #A80036; stroke-width: 1.0;"/><polygon fill="#A80036" points="923.81,307.58,928.6906,299.0255,924.3103,302.6051,920.7307,298.2249,923.81,307.58" style="stroke: #A80036; stroke-width: 1.0;"/><text fill="#000000" font-family="sans-serif" font-size="13" lengthAdjust="spacingAndGlyphs" textLength="133" x="812.5841" y="296.9571">_addAnchorUseCase</text><!--MD5=[7426ebb06e517ee96d24d9bf4ac53f94]
link MachinePresenter to IRemoveAnchorUseCase--><path d="M1019.66,197.02 C1050.54,235.41 1083.98,276.97 1105.28,303.46 " fill="none" id="MachinePresenter-&gt;IRemoveAnchorUseCase" style="stroke: #A80036; stroke-width: 1.0;"/><polygon fill="#A80036" points="1108.6,307.58,1106.0673,298.0624,1105.4626,303.6868,1099.8382,303.0822,1108.6,307.58" style="stroke: #A80036; stroke-width: 1.0;"/><text fill="#000000" font-family="sans-serif" font-size="13" lengthAdjust="spacingAndGlyphs" textLength="158" x="976.964" y="296.8826">_removeAnchorUseCase</text><!--MD5=[abc4c71fe6dd01bba15d7f659d7710ec]
link MachinePresenter to IBoundsControlVisibilityProvider--><path d="M1124.41,197.02 C1161.56,216.63 1200.36,237.33 1236.44,257 C1265.26,272.71 1297.36,290.83 1322.56,305.21 " fill="none" id="MachinePresenter-&gt;IBoundsControlVisibilityProvider" style="stroke: #A80036; stroke-width: 1.0;"/><polygon fill="#A80036" points="1327.19,307.85,1321.3463,299.9221,1322.8444,305.377,1317.3895,306.8751,1327.19,307.85" style="stroke: #A80036; stroke-width: 1.0;"/><text fill="#000000" font-family="sans-serif" font-size="13" lengthAdjust="spacingAndGlyphs" textLength="152" x="1206.9009" y="296.8236">_boundsControlProvider</text><!--MD5=[0ad1d62d5175df9efe4f5a3c572966cf]
link MachinePresenter to IMachineInfoRepository--><path d="M1345.28,197.01 C1397.81,214.33 1450.13,234.26 1498.44,257 C1525.28,269.63 1552.66,288.95 1572.87,304.68 " fill="none" id="MachinePresenter-&gt;IMachineInfoRepository" style="stroke: #A80036; stroke-width: 1.0;"/><polygon fill="#A80036" points="1576.82,307.78,1572.2172,299.0729,1572.8894,304.6896,1567.2726,305.3618,1576.82,307.78" style="stroke: #A80036; stroke-width: 1.0;"/><text fill="#000000" font-family="sans-serif" font-size="13" lengthAdjust="spacingAndGlyphs" textLength="152" x="1456.9981" y="296.9468">_machineInfoRepository</text><!--MD5=[3ab6dad1770b26ff46192a831d38109e]
reverse link MachinePresenter to State--><path d="M690.19,202.89 C648.55,220.27 606.08,238.67 566.44,257 C560.38,259.8 554.21,262.73 548.01,265.73 " fill="none" id="MachinePresenter&lt;-State" style="stroke: #A80036; stroke-width: 1.0;"/><ellipse cx="696.8834" cy="200.1121" fill="#FFFFFF" rx="8" ry="8" style="stroke: #A80036; stroke-width: 1.0;"/><line style="stroke: #A80036; stroke-width: 1.0;" x1="689.4967" x2="704.27" y1="203.1841" y2="197.04"/><line style="stroke: #A80036; stroke-width: 1.0;" x1="693.8113" x2="699.9554" y1="192.7254" y2="207.4987"/><!--MD5=[bd9a53f6827cf5c5093200c0b8c826d2]
reverse link MachinePresenter to Factory--><path d="M409.29,202.1 C365.65,217.8 323.12,235.97 283.44,257 C259.53,269.67 237.37,291.27 222.47,307.88 " fill="none" id="MachinePresenter&lt;-Factory" style="stroke: #A80036; stroke-width: 1.0;"/><ellipse cx="415.9451" cy="199.7498" fill="#FFFFFF" rx="8" ry="8" style="stroke: #A80036; stroke-width: 1.0;"/><line style="stroke: #A80036; stroke-width: 1.0;" x1="408.4002" x2="423.49" y1="202.4095" y2="197.09"/><line style="stroke: #A80036; stroke-width: 1.0;" x1="413.2853" x2="418.6049" y1="192.2049" y2="207.2947"/><!--MD5=[d56958d5c2dc1a2c44fd321970666cc8]
reverse link PlaceholderFactory`2 to Factory--><path d="M166.92,146.37 C176.39,194.26 191.38,270.02 198.86,307.87 " fill="none" id="PlaceholderFactory`2&lt;-Factory" style="stroke: #A80036; stroke-width: 1.0;"/><polygon fill="none" points="160.01,147.54,163,126.57,173.75,144.83,160.01,147.54" style="stroke: #A80036; stroke-width: 1.0;"/><text fill="#000000" font-family="sans-serif" font-size="13" lengthAdjust="spacingAndGlyphs" textLength="157" x="-12.9471" y="146.7437">&lt;int,MachinePresenter&gt;</text><!--MD5=[a6a74c5cb9718d7fc03106f58a0102cd]
reverse link State to MachineInfo--><path d="M424.44,422.69 C424.44,437.66 424.44,452.83 424.44,466.74 " fill="none" id="State&lt;-MachineInfo" style="stroke: #A80036; stroke-width: 1.0;"/><ellipse cx="424.44" cy="415.23" fill="#FFFFFF" rx="8" ry="8" style="stroke: #A80036; stroke-width: 1.0;"/><line style="stroke: #A80036; stroke-width: 1.0;" x1="424.44" x2="424.44" y1="423.23" y2="407.23"/><line style="stroke: #A80036; stroke-width: 1.0;" x1="416.44" x2="432.44" y1="415.23" y2="415.23"/><!--MD5=[cd9c8d1d5e537f028bdc12f84bf24cbf]
link MachineInfo to DateTime--><path d="M424.44,585.16 C424.44,603.97 424.44,624 424.44,639.64 " fill="none" id="MachineInfo-&gt;DateTime" style="stroke: #A80036; stroke-width: 1.0;"/><polygon fill="#A80036" points="424.44,644.77,428.44,635.77,424.44,639.77,420.44,635.77,424.44,644.77" style="stroke: #A80036; stroke-width: 1.0;"/><text fill="#000000" font-family="sans-serif" font-size="13" lengthAdjust="spacingAndGlyphs" textLength="167" x="237.0869" y="634.1189">technicalExaminationDate</text><!--MD5=[3d0f74e17b77091633e52d9a95073b53]
@startuml
class MachinePresenter {
    +  <<event>> disableTapToPlace : Action 
    +  <<event>> deleteCurrentMachine : Action 
    <<readonly>> _machineIndex : int
    + MachinePresenter(index:int, addAnchorUseCase:IAddAnchorUseCase, removeAnchorUseCase:IRemoveAnchorUseCase, boundsControlProvider:IBoundsControlVisibilityProvider, machineInfoRepository:IMachineInfoRepository)
    + setAnchorCreatedState() : void
    + setAnchorNotCreatedState() : void
    + <<async>> setAnchor(gameObject:GameObject) : Task
    + <<async>> removeAnchor(gameObject:GameObject) : Task
    + delete() : void
    + setTapToPlaceNotStarted() : void
    + onDestroy() : void
}
class State {
    + isAddAnchorVisible : bool = true
    + isTapToPlaceVisible : bool = true
    + isDeleteMachineVisible : bool = true
    + isRemoveAnchorVisible : bool = false
    + areBoundControlsVisible : bool = false
    + machineInfo : MachineInfo? = null
    + State()
    + State(state:State)
}
class "IReadOnlyReactiveProperty`1"<T> {
}
class Factory {
}
class MachineInfo <<struct>> {
    + hallId : int
    + name : string
    + efficiency : int
    + status : string
    + symbol : string
}
class "PlaceholderFactory`2"<T1,T2> {
}
MachinePresenter - -> "state<State>" "IReadOnlyReactiveProperty`1"
MachinePresenter - -> "_addAnchorUseCase" IAddAnchorUseCase
MachinePresenter - -> "_removeAnchorUseCase" IRemoveAnchorUseCase
MachinePresenter - -> "_boundsControlProvider" IBoundsControlVisibilityProvider
MachinePresenter - -> "_machineInfoRepository" IMachineInfoRepository
MachinePresenter +- - State
MachinePresenter +- - Factory
"PlaceholderFactory`2" "<int,MachinePresenter>" <|- - Factory
State +- - MachineInfo
MachineInfo - -> "technicalExaminationDate" DateTime
@enduml

PlantUML version 1.2020.02(Sun Mar 01 10:22:07 GMT 2020)
(GPL source distribution)
Java Runtime: OpenJDK Runtime Environment
JVM: OpenJDK 64-Bit Server VM
Java Version: 11.0.9+11-Ubuntu-0ubuntu1
Operating System: Linux
Default Encoding: ANSI_X3.4-1968
Language: en
Country: US
--></g></svg>