<?xml version="1.0" encoding="UTF-8" standalone="no"?><svg xmlns="http://www.w3.org/2000/svg" xmlns:xlink="http://www.w3.org/1999/xlink" contentScriptType="application/ecmascript" contentStyleType="text/css" height="691px" preserveAspectRatio="none" style="width:1703px;height:691px;" version="1.1" viewBox="0 0 1703 691" width="1703px" zoomAndPan="magnify"><defs><filter height="300%" id="fdqt6tmq8iza7" width="300%" x="-1" y="-1"><feGaussianBlur result="blurOut" stdDeviation="2.0"/><feColorMatrix in="blurOut" result="blurOut2" type="matrix" values="0 0 0 0 0 0 0 0 0 0 0 0 0 0 0 0 0 0 .4 0"/><feOffset dx="4.0" dy="4.0" in="blurOut2" result="blurOut3"/><feBlend in="SourceGraphic" in2="blurOut3" mode="normal"/></filter></defs><g><!--MD5=[78bd35b629a69756b1f07cd4ac2391b5]
class MachinePresenter--><rect fill="#FEFECE" filter="url(#fdqt6tmq8iza7)" height="176.0469" id="MachinePresenter" style="stroke: #A80036; stroke-width: 1.5;" width="1297" x="295.77" y="8"/><ellipse cx="883.02" cy="24" fill="#ADD1B2" rx="11" ry="11" style="stroke: #A80036; stroke-width: 1.0;"/><path d="M885.9888,29.6406 Q885.4106,29.9375 884.77,30.0781 Q884.1294,30.2344 883.4263,30.2344 Q880.9263,30.2344 879.5981,28.5938 Q878.2856,26.9375 878.2856,23.8125 Q878.2856,20.6875 879.5981,19.0313 Q880.9263,17.375 883.4263,17.375 Q884.1294,17.375 884.77,17.5313 Q885.4263,17.6875 885.9888,17.9844 L885.9888,20.7031 Q885.3638,20.125 884.77,19.8594 Q884.1763,19.5781 883.5513,19.5781 Q882.2075,19.5781 881.52,20.6563 Q880.8325,21.7188 880.8325,23.8125 Q880.8325,25.9063 881.52,26.9844 Q882.2075,28.0469 883.5513,28.0469 Q884.1763,28.0469 884.77,27.7813 Q885.3638,27.5 885.9888,26.9219 L885.9888,29.6406 Z "/><text fill="#000000" font-family="sans-serif" font-size="12" lengthAdjust="spacingAndGlyphs" textLength="114" x="903.52" y="28.1543">MachinePresenter</text><line style="stroke: #A80036; stroke-width: 1.5;" x1="296.77" x2="1591.77" y1="40" y2="40"/><ellipse cx="306.77" cy="51" fill="none" rx="3" ry="3" style="stroke: #038048; stroke-width: 1.0;"/><text fill="#000000" font-family="sans-serif" font-size="11" lengthAdjust="spacingAndGlyphs" textLength="201" x="315.77" y="54.2104">«event» disableTapToPlace : Action</text><ellipse cx="306.77" cy="63.8047" fill="none" rx="3" ry="3" style="stroke: #038048; stroke-width: 1.0;"/><text fill="#000000" font-family="sans-serif" font-size="11" lengthAdjust="spacingAndGlyphs" textLength="219" x="315.77" y="67.0151">«event» deleteCurrentMachine : Action</text><text fill="#000000" font-family="sans-serif" font-size="11" lengthAdjust="spacingAndGlyphs" textLength="177" x="315.77" y="79.8198">«readonly» _machineIndex : int</text><line style="stroke: #A80036; stroke-width: 1.5;" x1="296.77" x2="1591.77" y1="86.4141" y2="86.4141"/><ellipse cx="306.77" cy="97.4141" fill="#84BE84" rx="3" ry="3" style="stroke: #038048; stroke-width: 1.0;"/><text fill="#000000" font-family="sans-serif" font-size="11" lengthAdjust="spacingAndGlyphs" textLength="1271" x="315.77" y="100.6245">MachinePresenter(index:int, addAnchorUseCase:IAddAnchorUseCase, removeAnchorUseCase:IRemoveAnchorUseCase, boundsControlProvider:IBoundsControlVisibilityProvider, machineInfoRepository:IMachineInfoRepository)</text><ellipse cx="306.77" cy="110.2188" fill="#84BE84" rx="3" ry="3" style="stroke: #038048; stroke-width: 1.0;"/><text fill="#000000" font-family="sans-serif" font-size="11" lengthAdjust="spacingAndGlyphs" textLength="175" x="315.77" y="113.4292">setAnchorCreatedState() : void</text><ellipse cx="306.77" cy="123.0234" fill="#84BE84" rx="3" ry="3" style="stroke: #038048; stroke-width: 1.0;"/><text fill="#000000" font-family="sans-serif" font-size="11" lengthAdjust="spacingAndGlyphs" textLength="194" x="315.77" y="126.2339">setAnchorNotCreatedState() : void</text><ellipse cx="306.77" cy="135.8281" fill="#84BE84" rx="3" ry="3" style="stroke: #038048; stroke-width: 1.0;"/><text fill="#000000" font-family="sans-serif" font-size="11" lengthAdjust="spacingAndGlyphs" textLength="297" x="315.77" y="139.0386">«async» setAnchor(gameObject:GameObject) : Task</text><ellipse cx="306.77" cy="148.6328" fill="#84BE84" rx="3" ry="3" style="stroke: #038048; stroke-width: 1.0;"/><text fill="#000000" font-family="sans-serif" font-size="11" lengthAdjust="spacingAndGlyphs" textLength="322" x="315.77" y="151.8433">«async» removeAnchor(gameObject:GameObject) : Task</text><ellipse cx="306.77" cy="161.4375" fill="#84BE84" rx="3" ry="3" style="stroke: #038048; stroke-width: 1.0;"/><text fill="#000000" font-family="sans-serif" font-size="11" lengthAdjust="spacingAndGlyphs" textLength="78" x="315.77" y="164.6479">delete() : void</text><ellipse cx="306.77" cy="174.2422" fill="#84BE84" rx="3" ry="3" style="stroke: #038048; stroke-width: 1.0;"/><text fill="#000000" font-family="sans-serif" font-size="11" lengthAdjust="spacingAndGlyphs" textLength="187" x="315.77" y="177.4526">setTapToPlaceNotStarted() : void</text><!--MD5=[60d6b92408f98aed8df94d5c6e04aa63]
class State--><rect fill="#FEFECE" filter="url(#fdqt6tmq8iza7)" height="150.4375" id="State" style="stroke: #A80036; stroke-width: 1.5;" width="247" x="300.77" y="244"/><ellipse cx="403.02" cy="260" fill="#ADD1B2" rx="11" ry="11" style="stroke: #A80036; stroke-width: 1.0;"/><path d="M405.9888,265.6406 Q405.4106,265.9375 404.77,266.0781 Q404.1294,266.2344 403.4263,266.2344 Q400.9263,266.2344 399.5981,264.5938 Q398.2856,262.9375 398.2856,259.8125 Q398.2856,256.6875 399.5981,255.0313 Q400.9263,253.375 403.4263,253.375 Q404.1294,253.375 404.77,253.5313 Q405.4263,253.6875 405.9888,253.9844 L405.9888,256.7031 Q405.3638,256.125 404.77,255.8594 Q404.1763,255.5781 403.5513,255.5781 Q402.2075,255.5781 401.52,256.6563 Q400.8325,257.7188 400.8325,259.8125 Q400.8325,261.9063 401.52,262.9844 Q402.2075,264.0469 403.5513,264.0469 Q404.1763,264.0469 404.77,263.7813 Q405.3638,263.5 405.9888,262.9219 L405.9888,265.6406 Z "/><text fill="#000000" font-family="sans-serif" font-size="12" lengthAdjust="spacingAndGlyphs" textLength="34" x="423.52" y="264.1543">State</text><line style="stroke: #A80036; stroke-width: 1.5;" x1="301.77" x2="546.77" y1="276" y2="276"/><ellipse cx="311.77" cy="287" fill="none" rx="3" ry="3" style="stroke: #038048; stroke-width: 1.0;"/><text fill="#000000" font-family="sans-serif" font-size="11" lengthAdjust="spacingAndGlyphs" textLength="183" x="320.77" y="290.2104">isAddAnchorVisible : bool = true</text><ellipse cx="311.77" cy="299.8047" fill="none" rx="3" ry="3" style="stroke: #038048; stroke-width: 1.0;"/><text fill="#000000" font-family="sans-serif" font-size="11" lengthAdjust="spacingAndGlyphs" textLength="188" x="320.77" y="303.0151">isTapToPlaceVisible : bool = true</text><ellipse cx="311.77" cy="312.6094" fill="none" rx="3" ry="3" style="stroke: #038048; stroke-width: 1.0;"/><text fill="#000000" font-family="sans-serif" font-size="11" lengthAdjust="spacingAndGlyphs" textLength="205" x="320.77" y="315.8198">isDeleteMachineVisible : bool = true</text><ellipse cx="311.77" cy="325.4141" fill="none" rx="3" ry="3" style="stroke: #038048; stroke-width: 1.0;"/><text fill="#000000" font-family="sans-serif" font-size="11" lengthAdjust="spacingAndGlyphs" textLength="212" x="320.77" y="328.6245">isRemoveAnchorVisible : bool = false</text><ellipse cx="311.77" cy="338.2188" fill="none" rx="3" ry="3" style="stroke: #038048; stroke-width: 1.0;"/><text fill="#000000" font-family="sans-serif" font-size="11" lengthAdjust="spacingAndGlyphs" textLength="221" x="320.77" y="341.4292">areBoundControlsVisible : bool = false</text><ellipse cx="311.77" cy="351.0234" fill="none" rx="3" ry="3" style="stroke: #038048; stroke-width: 1.0;"/><text fill="#000000" font-family="sans-serif" font-size="11" lengthAdjust="spacingAndGlyphs" textLength="191" x="320.77" y="354.2339">machineInfo : MachineInfo? = null</text><line style="stroke: #A80036; stroke-width: 1.5;" x1="301.77" x2="546.77" y1="360.8281" y2="360.8281"/><ellipse cx="311.77" cy="371.8281" fill="#84BE84" rx="3" ry="3" style="stroke: #038048; stroke-width: 1.0;"/><text fill="#000000" font-family="sans-serif" font-size="11" lengthAdjust="spacingAndGlyphs" textLength="38" x="320.77" y="375.0386">State()</text><ellipse cx="311.77" cy="384.6328" fill="#84BE84" rx="3" ry="3" style="stroke: #038048; stroke-width: 1.0;"/><text fill="#000000" font-family="sans-serif" font-size="11" lengthAdjust="spacingAndGlyphs" textLength="101" x="320.77" y="387.8433">State(state:State)</text><!--MD5=[6037395b81641dc9f341bda23115c5fd]
class IReadOnlyReactiveProperty`1--><rect fill="#FEFECE" filter="url(#fdqt6tmq8iza7)" height="48" id="IReadOnlyReactiveProperty`1" style="stroke: #A80036; stroke-width: 1.5;" width="224" x="583.27" y="295"/><ellipse cx="598.27" cy="311" fill="#ADD1B2" rx="11" ry="11" style="stroke: #A80036; stroke-width: 1.0;"/><path d="M601.2388,316.6406 Q600.6606,316.9375 600.02,317.0781 Q599.3794,317.2344 598.6763,317.2344 Q596.1763,317.2344 594.8481,315.5938 Q593.5356,313.9375 593.5356,310.8125 Q593.5356,307.6875 594.8481,306.0313 Q596.1763,304.375 598.6763,304.375 Q599.3794,304.375 600.02,304.5313 Q600.6763,304.6875 601.2388,304.9844 L601.2388,307.7031 Q600.6138,307.125 600.02,306.8594 Q599.4263,306.5781 598.8013,306.5781 Q597.4575,306.5781 596.77,307.6563 Q596.0825,308.7188 596.0825,310.8125 Q596.0825,312.9063 596.77,313.9844 Q597.4575,315.0469 598.8013,315.0469 Q599.4263,315.0469 600.02,314.7813 Q600.6138,314.5 601.2388,313.9219 L601.2388,316.6406 Z "/><text fill="#000000" font-family="sans-serif" font-size="12" lengthAdjust="spacingAndGlyphs" textLength="181" x="612.27" y="315.1543">IReadOnlyReactiveProperty`1</text><rect fill="#FFFFFF" height="15.9688" style="stroke: #000000; stroke-width: 1.0; stroke-dasharray: 2.0,2.0;" width="9" x="801.27" y="292"/><text fill="#000000" font-family="sans-serif" font-size="12" font-style="italic" lengthAdjust="spacingAndGlyphs" textLength="7" x="802.27" y="304.1387">T</text><line style="stroke: #A80036; stroke-width: 1.5;" x1="584.27" x2="806.27" y1="327" y2="327"/><line style="stroke: #A80036; stroke-width: 1.5;" x1="584.27" x2="806.27" y1="335" y2="335"/><!--MD5=[dcda66dabdb739ec36f1175150e3c9d5]
class Factory--><rect fill="#FEFECE" filter="url(#fdqt6tmq8iza7)" height="48" id="Factory" style="stroke: #A80036; stroke-width: 1.5;" width="78" x="164.27" y="295"/><ellipse cx="179.27" cy="311" fill="#ADD1B2" rx="11" ry="11" style="stroke: #A80036; stroke-width: 1.0;"/><path d="M182.2388,316.6406 Q181.6606,316.9375 181.02,317.0781 Q180.3794,317.2344 179.6763,317.2344 Q177.1763,317.2344 175.8481,315.5938 Q174.5356,313.9375 174.5356,310.8125 Q174.5356,307.6875 175.8481,306.0313 Q177.1763,304.375 179.6763,304.375 Q180.3794,304.375 181.02,304.5313 Q181.6763,304.6875 182.2388,304.9844 L182.2388,307.7031 Q181.6138,307.125 181.02,306.8594 Q180.4263,306.5781 179.8013,306.5781 Q178.4575,306.5781 177.77,307.6563 Q177.0825,308.7188 177.0825,310.8125 Q177.0825,312.9063 177.77,313.9844 Q178.4575,315.0469 179.8013,315.0469 Q180.4263,315.0469 181.02,314.7813 Q181.6138,314.5 182.2388,313.9219 L182.2388,316.6406 Z "/><text fill="#000000" font-family="sans-serif" font-size="12" lengthAdjust="spacingAndGlyphs" textLength="46" x="193.27" y="315.1543">Factory</text><line style="stroke: #A80036; stroke-width: 1.5;" x1="165.27" x2="241.27" y1="327" y2="327"/><line style="stroke: #A80036; stroke-width: 1.5;" x1="165.27" x2="241.27" y1="335" y2="335"/><!--MD5=[6b777989b3abc98b15dc06d313c409d2]
class MachineInfo--><rect fill="#FEFECE" filter="url(#fdqt6tmq8iza7)" height="117.9609" id="MachineInfo" style="stroke: #A80036; stroke-width: 1.5;" width="112" x="368.27" y="454"/><ellipse cx="385.52" cy="472.9688" fill="#ADD1B2" rx="11" ry="11" style="stroke: #A80036; stroke-width: 1.0;"/><path d="M388.4888,478.6094 Q387.9106,478.9063 387.27,479.0469 Q386.6294,479.2031 385.9263,479.2031 Q383.4263,479.2031 382.0981,477.5625 Q380.7856,475.9063 380.7856,472.7813 Q380.7856,469.6563 382.0981,468 Q383.4263,466.3438 385.9263,466.3438 Q386.6294,466.3438 387.27,466.5 Q387.9263,466.6563 388.4888,466.9531 L388.4888,469.6719 Q387.8638,469.0938 387.27,468.8281 Q386.6763,468.5469 386.0513,468.5469 Q384.7075,468.5469 384.02,469.625 Q383.3325,470.6875 383.3325,472.7813 Q383.3325,474.875 384.02,475.9531 Q384.7075,477.0156 386.0513,477.0156 Q386.6763,477.0156 387.27,476.75 Q387.8638,476.4688 388.4888,475.8906 L388.4888,478.6094 Z "/><text fill="#000000" font-family="sans-serif" font-size="12" font-style="italic" lengthAdjust="spacingAndGlyphs" textLength="50" x="412.52" y="470.1387">«struct»</text><text fill="#000000" font-family="sans-serif" font-size="12" lengthAdjust="spacingAndGlyphs" textLength="75" x="400.02" y="484.1074">MachineInfo</text><line style="stroke: #A80036; stroke-width: 1.5;" x1="369.27" x2="479.27" y1="491.9375" y2="491.9375"/><ellipse cx="379.27" cy="502.9375" fill="none" rx="3" ry="3" style="stroke: #038048; stroke-width: 1.0;"/><text fill="#000000" font-family="sans-serif" font-size="11" lengthAdjust="spacingAndGlyphs" textLength="56" x="388.27" y="506.1479">hallId : int</text><ellipse cx="379.27" cy="515.7422" fill="none" rx="3" ry="3" style="stroke: #038048; stroke-width: 1.0;"/><text fill="#000000" font-family="sans-serif" font-size="11" lengthAdjust="spacingAndGlyphs" textLength="77" x="388.27" y="518.9526">name : string</text><ellipse cx="379.27" cy="528.5469" fill="none" rx="3" ry="3" style="stroke: #038048; stroke-width: 1.0;"/><text fill="#000000" font-family="sans-serif" font-size="11" lengthAdjust="spacingAndGlyphs" textLength="79" x="388.27" y="531.7573">efficiency : int</text><ellipse cx="379.27" cy="541.3516" fill="none" rx="3" ry="3" style="stroke: #038048; stroke-width: 1.0;"/><text fill="#000000" font-family="sans-serif" font-size="11" lengthAdjust="spacingAndGlyphs" textLength="81" x="388.27" y="544.562">status : string</text><ellipse cx="379.27" cy="554.1563" fill="none" rx="3" ry="3" style="stroke: #038048; stroke-width: 1.0;"/><text fill="#000000" font-family="sans-serif" font-size="11" lengthAdjust="spacingAndGlyphs" textLength="86" x="388.27" y="557.3667">symbol : string</text><line style="stroke: #A80036; stroke-width: 1.5;" x1="369.27" x2="479.27" y1="563.9609" y2="563.9609"/><!--MD5=[dc4d4dc1135cde0a1b5b7d925b1d0ee8]
class PlaceholderFactory`2--><rect fill="#FEFECE" filter="url(#fdqt6tmq8iza7)" height="48" id="PlaceholderFactory`2" style="stroke: #A80036; stroke-width: 1.5;" width="204" x="56.27" y="72"/><ellipse cx="71.27" cy="88" fill="#ADD1B2" rx="11" ry="11" style="stroke: #A80036; stroke-width: 1.0;"/><path d="M74.2388,93.6406 Q73.6606,93.9375 73.02,94.0781 Q72.3794,94.2344 71.6763,94.2344 Q69.1763,94.2344 67.8481,92.5938 Q66.5356,90.9375 66.5356,87.8125 Q66.5356,84.6875 67.8481,83.0313 Q69.1763,81.375 71.6763,81.375 Q72.3794,81.375 73.02,81.5313 Q73.6763,81.6875 74.2388,81.9844 L74.2388,84.7031 Q73.6138,84.125 73.02,83.8594 Q72.4263,83.5781 71.8013,83.5781 Q70.4575,83.5781 69.77,84.6563 Q69.0825,85.7188 69.0825,87.8125 Q69.0825,89.9063 69.77,90.9844 Q70.4575,92.0469 71.8013,92.0469 Q72.4263,92.0469 73.02,91.7813 Q73.6138,91.5 74.2388,90.9219 L74.2388,93.6406 Z "/><text fill="#000000" font-family="sans-serif" font-size="12" lengthAdjust="spacingAndGlyphs" textLength="134" x="85.27" y="92.1543">PlaceholderFactory`2</text><rect fill="#FFFFFF" height="15.9688" style="stroke: #000000; stroke-width: 1.0; stroke-dasharray: 2.0,2.0;" width="36" x="227.27" y="69"/><text fill="#000000" font-family="sans-serif" font-size="12" font-style="italic" lengthAdjust="spacingAndGlyphs" textLength="34" x="228.27" y="81.1387">T1,T2</text><line style="stroke: #A80036; stroke-width: 1.5;" x1="57.27" x2="259.27" y1="104" y2="104"/><line style="stroke: #A80036; stroke-width: 1.5;" x1="57.27" x2="259.27" y1="112" y2="112"/><!--MD5=[db94a1190e5ef99e287ec4213e6cbee6]
class IAddAnchorUseCase--><rect fill="#FEFECE" filter="url(#fdqt6tmq8iza7)" height="48" id="IAddAnchorUseCase" style="stroke: #A80036; stroke-width: 1.5;" width="158" x="842.27" y="295"/><ellipse cx="857.27" cy="311" fill="#ADD1B2" rx="11" ry="11" style="stroke: #A80036; stroke-width: 1.0;"/><path d="M860.2388,316.6406 Q859.6606,316.9375 859.02,317.0781 Q858.3794,317.2344 857.6763,317.2344 Q855.1763,317.2344 853.8481,315.5938 Q852.5356,313.9375 852.5356,310.8125 Q852.5356,307.6875 853.8481,306.0313 Q855.1763,304.375 857.6763,304.375 Q858.3794,304.375 859.02,304.5313 Q859.6763,304.6875 860.2388,304.9844 L860.2388,307.7031 Q859.6138,307.125 859.02,306.8594 Q858.4263,306.5781 857.8013,306.5781 Q856.4575,306.5781 855.77,307.6563 Q855.0825,308.7188 855.0825,310.8125 Q855.0825,312.9063 855.77,313.9844 Q856.4575,315.0469 857.8013,315.0469 Q858.4263,315.0469 859.02,314.7813 Q859.6138,314.5 860.2388,313.9219 L860.2388,316.6406 Z "/><text fill="#000000" font-family="sans-serif" font-size="12" lengthAdjust="spacingAndGlyphs" textLength="126" x="871.27" y="315.1543">IAddAnchorUseCase</text><line style="stroke: #A80036; stroke-width: 1.5;" x1="843.27" x2="999.27" y1="327" y2="327"/><line style="stroke: #A80036; stroke-width: 1.5;" x1="843.27" x2="999.27" y1="335" y2="335"/><!--MD5=[0eb160e9ae310e34686cbb3e28b854ba]
class IRemoveAnchorUseCase--><rect fill="#FEFECE" filter="url(#fdqt6tmq8iza7)" height="48" id="IRemoveAnchorUseCase" style="stroke: #A80036; stroke-width: 1.5;" width="183" x="1035.77" y="295"/><ellipse cx="1050.77" cy="311" fill="#ADD1B2" rx="11" ry="11" style="stroke: #A80036; stroke-width: 1.0;"/><path d="M1053.7388,316.6406 Q1053.1606,316.9375 1052.52,317.0781 Q1051.8794,317.2344 1051.1763,317.2344 Q1048.6763,317.2344 1047.3481,315.5938 Q1046.0356,313.9375 1046.0356,310.8125 Q1046.0356,307.6875 1047.3481,306.0313 Q1048.6763,304.375 1051.1763,304.375 Q1051.8794,304.375 1052.52,304.5313 Q1053.1763,304.6875 1053.7388,304.9844 L1053.7388,307.7031 Q1053.1138,307.125 1052.52,306.8594 Q1051.9263,306.5781 1051.3013,306.5781 Q1049.9575,306.5781 1049.27,307.6563 Q1048.5825,308.7188 1048.5825,310.8125 Q1048.5825,312.9063 1049.27,313.9844 Q1049.9575,315.0469 1051.3013,315.0469 Q1051.9263,315.0469 1052.52,314.7813 Q1053.1138,314.5 1053.7388,313.9219 L1053.7388,316.6406 Z "/><text fill="#000000" font-family="sans-serif" font-size="12" lengthAdjust="spacingAndGlyphs" textLength="151" x="1064.77" y="315.1543">IRemoveAnchorUseCase</text><line style="stroke: #A80036; stroke-width: 1.5;" x1="1036.77" x2="1217.77" y1="327" y2="327"/><line style="stroke: #A80036; stroke-width: 1.5;" x1="1036.77" x2="1217.77" y1="335" y2="335"/><!--MD5=[02aa7f2462b66d2956cb60dd70e1bdd0]
class IBoundsControlVisibilityProvider--><rect fill="#FEFECE" filter="url(#fdqt6tmq8iza7)" height="48" id="IBoundsControlVisibilityProvider" style="stroke: #A80036; stroke-width: 1.5;" width="227" x="1253.77" y="295"/><ellipse cx="1268.77" cy="311" fill="#ADD1B2" rx="11" ry="11" style="stroke: #A80036; stroke-width: 1.0;"/><path d="M1271.7388,316.6406 Q1271.1606,316.9375 1270.52,317.0781 Q1269.8794,317.2344 1269.1763,317.2344 Q1266.6763,317.2344 1265.3481,315.5938 Q1264.0356,313.9375 1264.0356,310.8125 Q1264.0356,307.6875 1265.3481,306.0313 Q1266.6763,304.375 1269.1763,304.375 Q1269.8794,304.375 1270.52,304.5313 Q1271.1763,304.6875 1271.7388,304.9844 L1271.7388,307.7031 Q1271.1138,307.125 1270.52,306.8594 Q1269.9263,306.5781 1269.3013,306.5781 Q1267.9575,306.5781 1267.27,307.6563 Q1266.5825,308.7188 1266.5825,310.8125 Q1266.5825,312.9063 1267.27,313.9844 Q1267.9575,315.0469 1269.3013,315.0469 Q1269.9263,315.0469 1270.52,314.7813 Q1271.1138,314.5 1271.7388,313.9219 L1271.7388,316.6406 Z "/><text fill="#000000" font-family="sans-serif" font-size="12" lengthAdjust="spacingAndGlyphs" textLength="195" x="1282.77" y="315.1543">IBoundsControlVisibilityProvider</text><line style="stroke: #A80036; stroke-width: 1.5;" x1="1254.77" x2="1479.77" y1="327" y2="327"/><line style="stroke: #A80036; stroke-width: 1.5;" x1="1254.77" x2="1479.77" y1="335" y2="335"/><!--MD5=[1555edd073c62adcbd44d1e9631d242f]
class IMachineInfoRepository--><rect fill="#FEFECE" filter="url(#fdqt6tmq8iza7)" height="48" id="IMachineInfoRepository" style="stroke: #A80036; stroke-width: 1.5;" width="176" x="1516.27" y="295"/><ellipse cx="1531.27" cy="311" fill="#ADD1B2" rx="11" ry="11" style="stroke: #A80036; stroke-width: 1.0;"/><path d="M1534.2388,316.6406 Q1533.6606,316.9375 1533.02,317.0781 Q1532.3794,317.2344 1531.6763,317.2344 Q1529.1763,317.2344 1527.8481,315.5938 Q1526.5356,313.9375 1526.5356,310.8125 Q1526.5356,307.6875 1527.8481,306.0313 Q1529.1763,304.375 1531.6763,304.375 Q1532.3794,304.375 1533.02,304.5313 Q1533.6763,304.6875 1534.2388,304.9844 L1534.2388,307.7031 Q1533.6138,307.125 1533.02,306.8594 Q1532.4263,306.5781 1531.8013,306.5781 Q1530.4575,306.5781 1529.77,307.6563 Q1529.0825,308.7188 1529.0825,310.8125 Q1529.0825,312.9063 1529.77,313.9844 Q1530.4575,315.0469 1531.8013,315.0469 Q1532.4263,315.0469 1533.02,314.7813 Q1533.6138,314.5 1534.2388,313.9219 L1534.2388,316.6406 Z "/><text fill="#000000" font-family="sans-serif" font-size="12" lengthAdjust="spacingAndGlyphs" textLength="144" x="1545.27" y="315.1543">IMachineInfoRepository</text><line style="stroke: #A80036; stroke-width: 1.5;" x1="1517.27" x2="1691.27" y1="327" y2="327"/><line style="stroke: #A80036; stroke-width: 1.5;" x1="1517.27" x2="1691.27" y1="335" y2="335"/><!--MD5=[20ddef7090025b04fb973268620c0974]
class DateTime--><rect fill="#FEFECE" filter="url(#fdqt6tmq8iza7)" height="48" id="DateTime" style="stroke: #A80036; stroke-width: 1.5;" width="91" x="378.77" y="632"/><ellipse cx="393.77" cy="648" fill="#ADD1B2" rx="11" ry="11" style="stroke: #A80036; stroke-width: 1.0;"/><path d="M396.7388,653.6406 Q396.1606,653.9375 395.52,654.0781 Q394.8794,654.2344 394.1763,654.2344 Q391.6763,654.2344 390.3481,652.5938 Q389.0356,650.9375 389.0356,647.8125 Q389.0356,644.6875 390.3481,643.0313 Q391.6763,641.375 394.1763,641.375 Q394.8794,641.375 395.52,641.5313 Q396.1763,641.6875 396.7388,641.9844 L396.7388,644.7031 Q396.1138,644.125 395.52,643.8594 Q394.9263,643.5781 394.3013,643.5781 Q392.9575,643.5781 392.27,644.6563 Q391.5825,645.7188 391.5825,647.8125 Q391.5825,649.9063 392.27,650.9844 Q392.9575,652.0469 394.3013,652.0469 Q394.9263,652.0469 395.52,651.7813 Q396.1138,651.5 396.7388,650.9219 L396.7388,653.6406 Z "/><text fill="#000000" font-family="sans-serif" font-size="12" lengthAdjust="spacingAndGlyphs" textLength="59" x="407.77" y="652.1543">DateTime</text><line style="stroke: #A80036; stroke-width: 1.5;" x1="379.77" x2="468.77" y1="664" y2="664"/><line style="stroke: #A80036; stroke-width: 1.5;" x1="379.77" x2="468.77" y1="672" y2="672"/><!--MD5=[1209a7d70a91ee2b0422ae584ed45bb1]
link MachinePresenter to IReadOnlyReactiveProperty`1--><path d="M846.22,184.03 C802.97,222.41 755.27,264.75 725.3,291.35 " fill="none" id="MachinePresenter-&gt;IReadOnlyReactiveProperty`1" style="stroke: #A80036; stroke-width: 1.0;"/><polygon fill="#A80036" points="721.37,294.84,730.7598,291.8682,725.1133,291.5253,725.4562,285.8788,721.37,294.84" style="stroke: #A80036; stroke-width: 1.0;"/><text fill="#000000" font-family="sans-serif" font-size="13" lengthAdjust="spacingAndGlyphs" textLength="90" x="626.5269" y="283.811">state&lt;State&gt;</text><!--MD5=[e077d2a9c6fa2dfabcbe92319c7dde6f]
link MachinePresenter to IAddAnchorUseCase--><path d="M935.21,184.03 C931.3,221.62 926.99,263.02 924.21,289.7 " fill="none" id="MachinePresenter-&gt;IAddAnchorUseCase" style="stroke: #A80036; stroke-width: 1.0;"/><polygon fill="#A80036" points="923.68,294.84,928.5849,286.2994,924.1945,289.8665,920.6273,285.4762,923.68,294.84" style="stroke: #A80036; stroke-width: 1.0;"/><text fill="#000000" font-family="sans-serif" font-size="13" lengthAdjust="spacingAndGlyphs" textLength="133" x="812.0953" y="283.9383">_addAnchorUseCase</text><!--MD5=[7426ebb06e517ee96d24d9bf4ac53f94]
link MachinePresenter to IRemoveAnchorUseCase--><path d="M1016.33,184.03 C1047.85,222.09 1082.6,264.06 1104.66,290.7 " fill="none" id="MachinePresenter-&gt;IRemoveAnchorUseCase" style="stroke: #A80036; stroke-width: 1.0;"/><polygon fill="#A80036" points="1108.09,294.84,1105.4428,285.3536,1104.906,290.9849,1099.2746,290.448,1108.09,294.84" style="stroke: #A80036; stroke-width: 1.0;"/><text fill="#000000" font-family="sans-serif" font-size="13" lengthAdjust="spacingAndGlyphs" textLength="158" x="977.7189" y="283.811">_removeAnchorUseCase</text><!--MD5=[abc4c71fe6dd01bba15d7f659d7710ec]
link MachinePresenter to IBoundsControlVisibilityProvider--><path d="M1120.61,184.07 C1158.92,203.46 1199.09,224.16 1236.27,244 C1265.45,259.57 1297.81,277.84 1323.07,292.34 " fill="none" id="MachinePresenter-&gt;IBoundsControlVisibilityProvider" style="stroke: #A80036; stroke-width: 1.0;"/><polygon fill="#A80036" points="1327.7,295,1321.8873,287.0494,1323.3641,292.5101,1317.9034,293.9869,1327.7,295" style="stroke: #A80036; stroke-width: 1.0;"/><text fill="#000000" font-family="sans-serif" font-size="13" lengthAdjust="spacingAndGlyphs" textLength="152" x="1207.4544" y="283.9503">_boundsControlProvider</text><!--MD5=[0ad1d62d5175df9efe4f5a3c572966cf]
link MachinePresenter to IMachineInfoRepository--><path d="M1341.09,184.08 C1394.98,201.13 1448.74,221.02 1498.27,244 C1525.18,256.49 1552.56,275.81 1572.75,291.58 " fill="none" id="MachinePresenter-&gt;IMachineInfoRepository" style="stroke: #A80036; stroke-width: 1.0;"/><polygon fill="#A80036" points="1576.69,294.68,1572.1026,285.9648,1572.7649,291.5827,1567.1469,292.245,1576.69,294.68" style="stroke: #A80036; stroke-width: 1.0;"/><text fill="#000000" font-family="sans-serif" font-size="13" lengthAdjust="spacingAndGlyphs" textLength="152" x="1457.1001" y="283.9452">_machineInfoRepository</text><!--MD5=[3ab6dad1770b26ff46192a831d38109e]
reverse link MachinePresenter to State--><path d="M694.73,189.58 C651.55,206.86 607.35,225.37 566.27,244 C560.19,246.75 554.01,249.64 547.79,252.62 " fill="none" id="MachinePresenter&lt;-State" style="stroke: #A80036; stroke-width: 1.0;"/><ellipse cx="701.2659" cy="186.9654" fill="#FFFFFF" rx="8" ry="8" style="stroke: #A80036; stroke-width: 1.0;"/><line style="stroke: #A80036; stroke-width: 1.0;" x1="693.8318" x2="708.7" y1="189.9207" y2="184.01"/><line style="stroke: #A80036; stroke-width: 1.0;" x1="698.3105" x2="704.2213" y1="179.5313" y2="194.3995"/><!--MD5=[bd9a53f6827cf5c5093200c0b8c826d2]
reverse link MachinePresenter to Factory--><path d="M412.15,188.94 C367.45,204.52 323.88,222.72 283.27,244 C259.3,256.56 237.15,278.18 222.26,294.81 " fill="none" id="MachinePresenter&lt;-Factory" style="stroke: #A80036; stroke-width: 1.0;"/><ellipse cx="418.8082" cy="186.6623" fill="#FFFFFF" rx="8" ry="8" style="stroke: #A80036; stroke-width: 1.0;"/><line style="stroke: #A80036; stroke-width: 1.0;" x1="411.2365" x2="426.38" y1="189.2446" y2="184.08"/><line style="stroke: #A80036; stroke-width: 1.0;" x1="416.2259" x2="421.3906" y1="179.0906" y2="194.2341"/><!--MD5=[d56958d5c2dc1a2c44fd321970666cc8]
reverse link PlaceholderFactory`2 to Factory--><path d="M167.03,140.05 C176.45,186.3 191.07,258.09 198.53,294.75 " fill="none" id="PlaceholderFactory`2&lt;-Factory" style="stroke: #A80036; stroke-width: 1.0;"/><polygon fill="none" points="160.13,141.23,163,120.23,173.85,138.43,160.13,141.23" style="stroke: #A80036; stroke-width: 1.0;"/><text fill="#000000" font-family="sans-serif" font-size="13" lengthAdjust="spacingAndGlyphs" textLength="157" x="-11.9814" y="140.0473">&lt;int,MachinePresenter&gt;</text><!--MD5=[a6a74c5cb9718d7fc03106f58a0102cd]
reverse link State to MachineInfo--><path d="M424.27,409.69 C424.27,424.66 424.27,439.83 424.27,453.74 " fill="none" id="State&lt;-MachineInfo" style="stroke: #A80036; stroke-width: 1.0;"/><ellipse cx="424.27" cy="402.23" fill="#FFFFFF" rx="8" ry="8" style="stroke: #A80036; stroke-width: 1.0;"/><line style="stroke: #A80036; stroke-width: 1.0;" x1="424.27" x2="424.27" y1="410.23" y2="394.23"/><line style="stroke: #A80036; stroke-width: 1.0;" x1="416.27" x2="432.27" y1="402.23" y2="402.23"/><!--MD5=[cd9c8d1d5e537f028bdc12f84bf24cbf]
link MachineInfo to DateTime--><path d="M424.27,572.16 C424.27,590.97 424.27,611 424.27,626.64 " fill="none" id="MachineInfo-&gt;DateTime" style="stroke: #A80036; stroke-width: 1.0;"/><polygon fill="#A80036" points="424.27,631.77,428.27,622.77,424.27,626.77,420.27,622.77,424.27,631.77" style="stroke: #A80036; stroke-width: 1.0;"/><text fill="#000000" font-family="sans-serif" font-size="13" lengthAdjust="spacingAndGlyphs" textLength="167" x="236.9169" y="621.1189">technicalExaminationDate</text><!--MD5=[6ca003b147415b82f504d8943856de48]
@startuml
class MachinePresenter {
    +  <<event>> disableTapToPlace : Action 
    +  <<event>> deleteCurrentMachine : Action 
    <<readonly>> _machineIndex : int
    + MachinePresenter(index:int, addAnchorUseCase:IAddAnchorUseCase, removeAnchorUseCase:IRemoveAnchorUseCase, boundsControlProvider:IBoundsControlVisibilityProvider, machineInfoRepository:IMachineInfoRepository)
    + setAnchorCreatedState() : void
    + setAnchorNotCreatedState() : void
    + <<async>> setAnchor(gameObject:GameObject) : Task
    + <<async>> removeAnchor(gameObject:GameObject) : Task
    + delete() : void
    + setTapToPlaceNotStarted() : void
}
class State {
    + isAddAnchorVisible : bool = true
    + isTapToPlaceVisible : bool = true
    + isDeleteMachineVisible : bool = true
    + isRemoveAnchorVisible : bool = false
    + areBoundControlsVisible : bool = false
    + machineInfo : MachineInfo? = null
    + State()
    + State(state:State)
}
class "IReadOnlyReactiveProperty`1"<T> {
}
class Factory {
}
class MachineInfo <<struct>> {
    + hallId : int
    + name : string
    + efficiency : int
    + status : string
    + symbol : string
}
class "PlaceholderFactory`2"<T1,T2> {
}
MachinePresenter - -> "state<State>" "IReadOnlyReactiveProperty`1"
MachinePresenter - -> "_addAnchorUseCase" IAddAnchorUseCase
MachinePresenter - -> "_removeAnchorUseCase" IRemoveAnchorUseCase
MachinePresenter - -> "_boundsControlProvider" IBoundsControlVisibilityProvider
MachinePresenter - -> "_machineInfoRepository" IMachineInfoRepository
MachinePresenter +- - State
MachinePresenter +- - Factory
"PlaceholderFactory`2" "<int,MachinePresenter>" <|- - Factory
State +- - MachineInfo
MachineInfo - -> "technicalExaminationDate" DateTime
@enduml

PlantUML version 1.2020.02(Sun Mar 01 10:22:07 GMT 2020)
(GPL source distribution)
Java Runtime: OpenJDK Runtime Environment
JVM: OpenJDK 64-Bit Server VM
Java Version: 11.0.9+11-Ubuntu-0ubuntu1
Operating System: Linux
Default Encoding: ANSI_X3.4-1968
Language: en
Country: US
--></g></svg>