<?xml version="1.0" encoding="UTF-8" standalone="no"?><svg xmlns="http://www.w3.org/2000/svg" xmlns:xlink="http://www.w3.org/1999/xlink" contentScriptType="application/ecmascript" contentStyleType="text/css" height="729px" preserveAspectRatio="none" style="width:2038px;height:729px;" version="1.1" viewBox="0 0 2038 729" width="2038px" zoomAndPan="magnify"><defs><filter height="300%" id="f1xu3ut25h48oe" width="300%" x="-1" y="-1"><feGaussianBlur result="blurOut" stdDeviation="2.0"/><feColorMatrix in="blurOut" result="blurOut2" type="matrix" values="0 0 0 0 0 0 0 0 0 0 0 0 0 0 0 0 0 0 .4 0"/><feOffset dx="4.0" dy="4.0" in="blurOut2" result="blurOut3"/><feBlend in="SourceGraphic" in2="blurOut3" mode="normal"/></filter></defs><g><!--MD5=[78bd35b629a69756b1f07cd4ac2391b5]
class MachinePresenter--><rect fill="#FEFECE" filter="url(#f1xu3ut25h48oe)" height="214.4609" id="MachinePresenter" style="stroke: #A80036; stroke-width: 1.5;" width="1669" x="294.8" y="8"/><ellipse cx="1068.05" cy="24" fill="#ADD1B2" rx="11" ry="11" style="stroke: #A80036; stroke-width: 1.0;"/><path d="M1071.0188,29.6406 Q1070.4406,29.9375 1069.8,30.0781 Q1069.1594,30.2344 1068.4563,30.2344 Q1065.9563,30.2344 1064.6281,28.5938 Q1063.3156,26.9375 1063.3156,23.8125 Q1063.3156,20.6875 1064.6281,19.0313 Q1065.9563,17.375 1068.4563,17.375 Q1069.1594,17.375 1069.8,17.5313 Q1070.4563,17.6875 1071.0188,17.9844 L1071.0188,20.7031 Q1070.3938,20.125 1069.8,19.8594 Q1069.2063,19.5781 1068.5813,19.5781 Q1067.2375,19.5781 1066.55,20.6563 Q1065.8625,21.7188 1065.8625,23.8125 Q1065.8625,25.9063 1066.55,26.9844 Q1067.2375,28.0469 1068.5813,28.0469 Q1069.2063,28.0469 1069.8,27.7813 Q1070.3938,27.5 1071.0188,26.9219 L1071.0188,29.6406 Z "/><text fill="#000000" font-family="sans-serif" font-size="12" lengthAdjust="spacingAndGlyphs" textLength="114" x="1088.55" y="28.1543">MachinePresenter</text><line style="stroke: #A80036; stroke-width: 1.5;" x1="295.8" x2="1962.8" y1="40" y2="40"/><ellipse cx="305.8" cy="51" fill="none" rx="3" ry="3" style="stroke: #038048; stroke-width: 1.0;"/><text fill="#000000" font-family="sans-serif" font-size="11" lengthAdjust="spacingAndGlyphs" textLength="201" x="314.8" y="54.2104">«event» disableTapToPlace : Action</text><ellipse cx="305.8" cy="63.8047" fill="none" rx="3" ry="3" style="stroke: #038048; stroke-width: 1.0;"/><text fill="#000000" font-family="sans-serif" font-size="11" lengthAdjust="spacingAndGlyphs" textLength="219" x="314.8" y="67.0151">«event» deleteCurrentMachine : Action</text><text fill="#000000" font-family="sans-serif" font-size="11" lengthAdjust="spacingAndGlyphs" textLength="177" x="314.8" y="79.8198">«readonly» _machineIndex : int</text><line style="stroke: #A80036; stroke-width: 1.5;" x1="295.8" x2="1962.8" y1="86.4141" y2="86.4141"/><ellipse cx="305.8" cy="97.4141" fill="#84BE84" rx="3" ry="3" style="stroke: #038048; stroke-width: 1.0;"/><text fill="#000000" font-family="sans-serif" font-size="11" lengthAdjust="spacingAndGlyphs" textLength="1643" x="314.8" y="100.6245">MachinePresenter(index:int, addAnchorUseCase:IAddAnchorUseCase, removeAnchorUseCase:IRemoveAnchorUseCase, boundsControlProvider:IBoundsControlVisibilityProvider, machineInfoRepository:IMachineInfoRepository, anchorCreator:IAnchorCreator, anchorRemover:IAnchorRemover)</text><ellipse cx="305.8" cy="110.2188" fill="#84BE84" rx="3" ry="3" style="stroke: #038048; stroke-width: 1.0;"/><text fill="#000000" font-family="sans-serif" font-size="11" lengthAdjust="spacingAndGlyphs" textLength="175" x="314.8" y="113.4292">setAnchorCreatedState() : void</text><ellipse cx="305.8" cy="123.0234" fill="#84BE84" rx="3" ry="3" style="stroke: #038048; stroke-width: 1.0;"/><text fill="#000000" font-family="sans-serif" font-size="11" lengthAdjust="spacingAndGlyphs" textLength="194" x="314.8" y="126.2339">setAnchorNotCreatedState() : void</text><ellipse cx="305.8" cy="135.8281" fill="#84BE84" rx="3" ry="3" style="stroke: #038048; stroke-width: 1.0;"/><text fill="#000000" font-family="sans-serif" font-size="11" lengthAdjust="spacingAndGlyphs" textLength="297" x="314.8" y="139.0386">«async» setAnchor(gameObject:GameObject) : Task</text><ellipse cx="305.8" cy="148.6328" fill="#84BE84" rx="3" ry="3" style="stroke: #038048; stroke-width: 1.0;"/><text fill="#000000" font-family="sans-serif" font-size="11" lengthAdjust="spacingAndGlyphs" textLength="322" x="314.8" y="151.8433">«async» removeAnchor(gameObject:GameObject) : Task</text><ellipse cx="305.8" cy="161.4375" fill="#84BE84" rx="3" ry="3" style="stroke: #038048; stroke-width: 1.0;"/><text fill="#000000" font-family="sans-serif" font-size="11" lengthAdjust="spacingAndGlyphs" textLength="78" x="314.8" y="164.6479">delete() : void</text><ellipse cx="305.8" cy="174.2422" fill="#84BE84" rx="3" ry="3" style="stroke: #038048; stroke-width: 1.0;"/><text fill="#000000" font-family="sans-serif" font-size="11" lengthAdjust="spacingAndGlyphs" textLength="187" x="314.8" y="177.4526">setTapToPlaceNotStarted() : void</text><ellipse cx="305.8" cy="187.0469" fill="#84BE84" rx="3" ry="3" style="stroke: #038048; stroke-width: 1.0;"/><text fill="#000000" font-family="sans-serif" font-size="11" lengthAdjust="spacingAndGlyphs" textLength="101" x="314.8" y="190.2573">onDestroy() : void</text><ellipse cx="305.8" cy="199.8516" fill="#84BE84" rx="3" ry="3" style="stroke: #038048; stroke-width: 1.0;"/><text fill="#000000" font-family="sans-serif" font-size="11" lengthAdjust="spacingAndGlyphs" textLength="296" x="314.8" y="203.062">removeLocalAnchor(gameObject:GameObject) : void</text><ellipse cx="305.8" cy="212.6563" fill="#84BE84" rx="3" ry="3" style="stroke: #038048; stroke-width: 1.0;"/><text fill="#000000" font-family="sans-serif" font-size="11" lengthAdjust="spacingAndGlyphs" textLength="274" x="314.8" y="215.8667">addLocalAnchor(gameObject:GameObject) : void</text><!--MD5=[60d6b92408f98aed8df94d5c6e04aa63]
class State--><rect fill="#FEFECE" filter="url(#f1xu3ut25h48oe)" height="150.4375" id="State" style="stroke: #A80036; stroke-width: 1.5;" width="247" x="306.8" y="282"/><ellipse cx="409.05" cy="298" fill="#ADD1B2" rx="11" ry="11" style="stroke: #A80036; stroke-width: 1.0;"/><path d="M412.0188,303.6406 Q411.4406,303.9375 410.8,304.0781 Q410.1594,304.2344 409.4563,304.2344 Q406.9563,304.2344 405.6281,302.5938 Q404.3156,300.9375 404.3156,297.8125 Q404.3156,294.6875 405.6281,293.0313 Q406.9563,291.375 409.4563,291.375 Q410.1594,291.375 410.8,291.5313 Q411.4563,291.6875 412.0188,291.9844 L412.0188,294.7031 Q411.3938,294.125 410.8,293.8594 Q410.2063,293.5781 409.5813,293.5781 Q408.2375,293.5781 407.55,294.6563 Q406.8625,295.7188 406.8625,297.8125 Q406.8625,299.9063 407.55,300.9844 Q408.2375,302.0469 409.5813,302.0469 Q410.2063,302.0469 410.8,301.7813 Q411.3938,301.5 412.0188,300.9219 L412.0188,303.6406 Z "/><text fill="#000000" font-family="sans-serif" font-size="12" lengthAdjust="spacingAndGlyphs" textLength="34" x="429.55" y="302.1543">State</text><line style="stroke: #A80036; stroke-width: 1.5;" x1="307.8" x2="552.8" y1="314" y2="314"/><ellipse cx="317.8" cy="325" fill="none" rx="3" ry="3" style="stroke: #038048; stroke-width: 1.0;"/><text fill="#000000" font-family="sans-serif" font-size="11" lengthAdjust="spacingAndGlyphs" textLength="183" x="326.8" y="328.2104">isAddAnchorVisible : bool = true</text><ellipse cx="317.8" cy="337.8047" fill="none" rx="3" ry="3" style="stroke: #038048; stroke-width: 1.0;"/><text fill="#000000" font-family="sans-serif" font-size="11" lengthAdjust="spacingAndGlyphs" textLength="188" x="326.8" y="341.0151">isTapToPlaceVisible : bool = true</text><ellipse cx="317.8" cy="350.6094" fill="none" rx="3" ry="3" style="stroke: #038048; stroke-width: 1.0;"/><text fill="#000000" font-family="sans-serif" font-size="11" lengthAdjust="spacingAndGlyphs" textLength="205" x="326.8" y="353.8198">isDeleteMachineVisible : bool = true</text><ellipse cx="317.8" cy="363.4141" fill="none" rx="3" ry="3" style="stroke: #038048; stroke-width: 1.0;"/><text fill="#000000" font-family="sans-serif" font-size="11" lengthAdjust="spacingAndGlyphs" textLength="212" x="326.8" y="366.6245">isRemoveAnchorVisible : bool = false</text><ellipse cx="317.8" cy="376.2188" fill="none" rx="3" ry="3" style="stroke: #038048; stroke-width: 1.0;"/><text fill="#000000" font-family="sans-serif" font-size="11" lengthAdjust="spacingAndGlyphs" textLength="221" x="326.8" y="379.4292">areBoundControlsVisible : bool = false</text><ellipse cx="317.8" cy="389.0234" fill="none" rx="3" ry="3" style="stroke: #038048; stroke-width: 1.0;"/><text fill="#000000" font-family="sans-serif" font-size="11" lengthAdjust="spacingAndGlyphs" textLength="191" x="326.8" y="392.2339">machineInfo : MachineInfo? = null</text><line style="stroke: #A80036; stroke-width: 1.5;" x1="307.8" x2="552.8" y1="398.8281" y2="398.8281"/><ellipse cx="317.8" cy="409.8281" fill="#84BE84" rx="3" ry="3" style="stroke: #038048; stroke-width: 1.0;"/><text fill="#000000" font-family="sans-serif" font-size="11" lengthAdjust="spacingAndGlyphs" textLength="38" x="326.8" y="413.0386">State()</text><ellipse cx="317.8" cy="422.6328" fill="#84BE84" rx="3" ry="3" style="stroke: #038048; stroke-width: 1.0;"/><text fill="#000000" font-family="sans-serif" font-size="11" lengthAdjust="spacingAndGlyphs" textLength="101" x="326.8" y="425.8433">State(state:State)</text><!--MD5=[6037395b81641dc9f341bda23115c5fd]
class IReadOnlyReactiveProperty`1--><rect fill="#FEFECE" filter="url(#f1xu3ut25h48oe)" height="48" id="IReadOnlyReactiveProperty`1" style="stroke: #A80036; stroke-width: 1.5;" width="224" x="589.3" y="333"/><ellipse cx="604.3" cy="349" fill="#ADD1B2" rx="11" ry="11" style="stroke: #A80036; stroke-width: 1.0;"/><path d="M607.2688,354.6406 Q606.6906,354.9375 606.05,355.0781 Q605.4094,355.2344 604.7063,355.2344 Q602.2063,355.2344 600.8781,353.5938 Q599.5656,351.9375 599.5656,348.8125 Q599.5656,345.6875 600.8781,344.0313 Q602.2063,342.375 604.7063,342.375 Q605.4094,342.375 606.05,342.5313 Q606.7063,342.6875 607.2688,342.9844 L607.2688,345.7031 Q606.6438,345.125 606.05,344.8594 Q605.4563,344.5781 604.8313,344.5781 Q603.4875,344.5781 602.8,345.6563 Q602.1125,346.7188 602.1125,348.8125 Q602.1125,350.9063 602.8,351.9844 Q603.4875,353.0469 604.8313,353.0469 Q605.4563,353.0469 606.05,352.7813 Q606.6438,352.5 607.2688,351.9219 L607.2688,354.6406 Z "/><text fill="#000000" font-family="sans-serif" font-size="12" lengthAdjust="spacingAndGlyphs" textLength="181" x="618.3" y="353.1543">IReadOnlyReactiveProperty`1</text><rect fill="#FFFFFF" height="15.9688" style="stroke: #000000; stroke-width: 1.0; stroke-dasharray: 2.0,2.0;" width="9" x="807.3" y="330"/><text fill="#000000" font-family="sans-serif" font-size="12" font-style="italic" lengthAdjust="spacingAndGlyphs" textLength="7" x="808.3" y="342.1387">T</text><line style="stroke: #A80036; stroke-width: 1.5;" x1="590.3" x2="812.3" y1="365" y2="365"/><line style="stroke: #A80036; stroke-width: 1.5;" x1="590.3" x2="812.3" y1="373" y2="373"/><!--MD5=[dcda66dabdb739ec36f1175150e3c9d5]
class Factory--><rect fill="#FEFECE" filter="url(#f1xu3ut25h48oe)" height="48" id="Factory" style="stroke: #A80036; stroke-width: 1.5;" width="78" x="168.3" y="333"/><ellipse cx="183.3" cy="349" fill="#ADD1B2" rx="11" ry="11" style="stroke: #A80036; stroke-width: 1.0;"/><path d="M186.2688,354.6406 Q185.6906,354.9375 185.05,355.0781 Q184.4094,355.2344 183.7063,355.2344 Q181.2063,355.2344 179.8781,353.5938 Q178.5656,351.9375 178.5656,348.8125 Q178.5656,345.6875 179.8781,344.0313 Q181.2063,342.375 183.7063,342.375 Q184.4094,342.375 185.05,342.5313 Q185.7063,342.6875 186.2688,342.9844 L186.2688,345.7031 Q185.6438,345.125 185.05,344.8594 Q184.4563,344.5781 183.8313,344.5781 Q182.4875,344.5781 181.8,345.6563 Q181.1125,346.7188 181.1125,348.8125 Q181.1125,350.9063 181.8,351.9844 Q182.4875,353.0469 183.8313,353.0469 Q184.4563,353.0469 185.05,352.7813 Q185.6438,352.5 186.2688,351.9219 L186.2688,354.6406 Z "/><text fill="#000000" font-family="sans-serif" font-size="12" lengthAdjust="spacingAndGlyphs" textLength="46" x="197.3" y="353.1543">Factory</text><line style="stroke: #A80036; stroke-width: 1.5;" x1="169.3" x2="245.3" y1="365" y2="365"/><line style="stroke: #A80036; stroke-width: 1.5;" x1="169.3" x2="245.3" y1="373" y2="373"/><!--MD5=[6b777989b3abc98b15dc06d313c409d2]
class MachineInfo--><rect fill="#FEFECE" filter="url(#f1xu3ut25h48oe)" height="117.9609" id="MachineInfo" style="stroke: #A80036; stroke-width: 1.5;" width="112" x="374.3" y="492"/><ellipse cx="391.55" cy="510.9688" fill="#ADD1B2" rx="11" ry="11" style="stroke: #A80036; stroke-width: 1.0;"/><path d="M394.5188,516.6094 Q393.9406,516.9063 393.3,517.0469 Q392.6594,517.2031 391.9563,517.2031 Q389.4563,517.2031 388.1281,515.5625 Q386.8156,513.9063 386.8156,510.7813 Q386.8156,507.6563 388.1281,506 Q389.4563,504.3438 391.9563,504.3438 Q392.6594,504.3438 393.3,504.5 Q393.9563,504.6563 394.5188,504.9531 L394.5188,507.6719 Q393.8938,507.0938 393.3,506.8281 Q392.7063,506.5469 392.0813,506.5469 Q390.7375,506.5469 390.05,507.625 Q389.3625,508.6875 389.3625,510.7813 Q389.3625,512.875 390.05,513.9531 Q390.7375,515.0156 392.0813,515.0156 Q392.7063,515.0156 393.3,514.75 Q393.8938,514.4688 394.5188,513.8906 L394.5188,516.6094 Z "/><text fill="#000000" font-family="sans-serif" font-size="12" font-style="italic" lengthAdjust="spacingAndGlyphs" textLength="50" x="418.55" y="508.1387">«struct»</text><text fill="#000000" font-family="sans-serif" font-size="12" lengthAdjust="spacingAndGlyphs" textLength="75" x="406.05" y="522.1074">MachineInfo</text><line style="stroke: #A80036; stroke-width: 1.5;" x1="375.3" x2="485.3" y1="529.9375" y2="529.9375"/><ellipse cx="385.3" cy="540.9375" fill="none" rx="3" ry="3" style="stroke: #038048; stroke-width: 1.0;"/><text fill="#000000" font-family="sans-serif" font-size="11" lengthAdjust="spacingAndGlyphs" textLength="56" x="394.3" y="544.1479">hallId : int</text><ellipse cx="385.3" cy="553.7422" fill="none" rx="3" ry="3" style="stroke: #038048; stroke-width: 1.0;"/><text fill="#000000" font-family="sans-serif" font-size="11" lengthAdjust="spacingAndGlyphs" textLength="77" x="394.3" y="556.9526">name : string</text><ellipse cx="385.3" cy="566.5469" fill="none" rx="3" ry="3" style="stroke: #038048; stroke-width: 1.0;"/><text fill="#000000" font-family="sans-serif" font-size="11" lengthAdjust="spacingAndGlyphs" textLength="79" x="394.3" y="569.7573">efficiency : int</text><ellipse cx="385.3" cy="579.3516" fill="none" rx="3" ry="3" style="stroke: #038048; stroke-width: 1.0;"/><text fill="#000000" font-family="sans-serif" font-size="11" lengthAdjust="spacingAndGlyphs" textLength="81" x="394.3" y="582.562">status : string</text><ellipse cx="385.3" cy="592.1563" fill="none" rx="3" ry="3" style="stroke: #038048; stroke-width: 1.0;"/><text fill="#000000" font-family="sans-serif" font-size="11" lengthAdjust="spacingAndGlyphs" textLength="86" x="394.3" y="595.3667">symbol : string</text><line style="stroke: #A80036; stroke-width: 1.5;" x1="375.3" x2="485.3" y1="601.9609" y2="601.9609"/><!--MD5=[dc4d4dc1135cde0a1b5b7d925b1d0ee8]
class PlaceholderFactory`2--><rect fill="#FEFECE" filter="url(#f1xu3ut25h48oe)" height="48" id="PlaceholderFactory`2" style="stroke: #A80036; stroke-width: 1.5;" width="204" x="56.3" y="91"/><ellipse cx="71.3" cy="107" fill="#ADD1B2" rx="11" ry="11" style="stroke: #A80036; stroke-width: 1.0;"/><path d="M74.2688,112.6406 Q73.6906,112.9375 73.05,113.0781 Q72.4094,113.2344 71.7063,113.2344 Q69.2063,113.2344 67.8781,111.5938 Q66.5656,109.9375 66.5656,106.8125 Q66.5656,103.6875 67.8781,102.0313 Q69.2063,100.375 71.7063,100.375 Q72.4094,100.375 73.05,100.5313 Q73.7063,100.6875 74.2688,100.9844 L74.2688,103.7031 Q73.6438,103.125 73.05,102.8594 Q72.4563,102.5781 71.8313,102.5781 Q70.4875,102.5781 69.8,103.6563 Q69.1125,104.7188 69.1125,106.8125 Q69.1125,108.9063 69.8,109.9844 Q70.4875,111.0469 71.8313,111.0469 Q72.4563,111.0469 73.05,110.7813 Q73.6438,110.5 74.2688,109.9219 L74.2688,112.6406 Z "/><text fill="#000000" font-family="sans-serif" font-size="12" lengthAdjust="spacingAndGlyphs" textLength="134" x="85.3" y="111.1543">PlaceholderFactory`2</text><rect fill="#FFFFFF" height="15.9688" style="stroke: #000000; stroke-width: 1.0; stroke-dasharray: 2.0,2.0;" width="36" x="227.3" y="88"/><text fill="#000000" font-family="sans-serif" font-size="12" font-style="italic" lengthAdjust="spacingAndGlyphs" textLength="34" x="228.3" y="100.1387">T1,T2</text><line style="stroke: #A80036; stroke-width: 1.5;" x1="57.3" x2="259.3" y1="123" y2="123"/><line style="stroke: #A80036; stroke-width: 1.5;" x1="57.3" x2="259.3" y1="131" y2="131"/><!--MD5=[db94a1190e5ef99e287ec4213e6cbee6]
class IAddAnchorUseCase--><rect fill="#FEFECE" filter="url(#f1xu3ut25h48oe)" height="48" id="IAddAnchorUseCase" style="stroke: #A80036; stroke-width: 1.5;" width="158" x="848.3" y="333"/><ellipse cx="863.3" cy="349" fill="#ADD1B2" rx="11" ry="11" style="stroke: #A80036; stroke-width: 1.0;"/><path d="M866.2688,354.6406 Q865.6906,354.9375 865.05,355.0781 Q864.4094,355.2344 863.7063,355.2344 Q861.2063,355.2344 859.8781,353.5938 Q858.5656,351.9375 858.5656,348.8125 Q858.5656,345.6875 859.8781,344.0313 Q861.2063,342.375 863.7063,342.375 Q864.4094,342.375 865.05,342.5313 Q865.7063,342.6875 866.2688,342.9844 L866.2688,345.7031 Q865.6438,345.125 865.05,344.8594 Q864.4563,344.5781 863.8313,344.5781 Q862.4875,344.5781 861.8,345.6563 Q861.1125,346.7188 861.1125,348.8125 Q861.1125,350.9063 861.8,351.9844 Q862.4875,353.0469 863.8313,353.0469 Q864.4563,353.0469 865.05,352.7813 Q865.6438,352.5 866.2688,351.9219 L866.2688,354.6406 Z "/><text fill="#000000" font-family="sans-serif" font-size="12" lengthAdjust="spacingAndGlyphs" textLength="126" x="877.3" y="353.1543">IAddAnchorUseCase</text><line style="stroke: #A80036; stroke-width: 1.5;" x1="849.3" x2="1005.3" y1="365" y2="365"/><line style="stroke: #A80036; stroke-width: 1.5;" x1="849.3" x2="1005.3" y1="373" y2="373"/><!--MD5=[79f1084384fcd408d88a2998bd98750b]
class IAnchorCreator--><rect fill="#FEFECE" filter="url(#f1xu3ut25h48oe)" height="48" id="IAnchorCreator" style="stroke: #A80036; stroke-width: 1.5;" width="126" x="1041.3" y="333"/><ellipse cx="1056.3" cy="349" fill="#ADD1B2" rx="11" ry="11" style="stroke: #A80036; stroke-width: 1.0;"/><path d="M1059.2688,354.6406 Q1058.6906,354.9375 1058.05,355.0781 Q1057.4094,355.2344 1056.7063,355.2344 Q1054.2063,355.2344 1052.8781,353.5938 Q1051.5656,351.9375 1051.5656,348.8125 Q1051.5656,345.6875 1052.8781,344.0313 Q1054.2063,342.375 1056.7063,342.375 Q1057.4094,342.375 1058.05,342.5313 Q1058.7063,342.6875 1059.2688,342.9844 L1059.2688,345.7031 Q1058.6438,345.125 1058.05,344.8594 Q1057.4563,344.5781 1056.8313,344.5781 Q1055.4875,344.5781 1054.8,345.6563 Q1054.1125,346.7188 1054.1125,348.8125 Q1054.1125,350.9063 1054.8,351.9844 Q1055.4875,353.0469 1056.8313,353.0469 Q1057.4563,353.0469 1058.05,352.7813 Q1058.6438,352.5 1059.2688,351.9219 L1059.2688,354.6406 Z "/><text fill="#000000" font-family="sans-serif" font-size="12" lengthAdjust="spacingAndGlyphs" textLength="94" x="1070.3" y="353.1543">IAnchorCreator</text><line style="stroke: #A80036; stroke-width: 1.5;" x1="1042.3" x2="1166.3" y1="365" y2="365"/><line style="stroke: #A80036; stroke-width: 1.5;" x1="1042.3" x2="1166.3" y1="373" y2="373"/><!--MD5=[cf6d7a6be36f4747e159f72420ab3d4f]
class IAnchorRemover--><rect fill="#FEFECE" filter="url(#f1xu3ut25h48oe)" height="48" id="IAnchorRemover" style="stroke: #A80036; stroke-width: 1.5;" width="133" x="1202.8" y="333"/><ellipse cx="1217.8" cy="349" fill="#ADD1B2" rx="11" ry="11" style="stroke: #A80036; stroke-width: 1.0;"/><path d="M1220.7688,354.6406 Q1220.1906,354.9375 1219.55,355.0781 Q1218.9094,355.2344 1218.2063,355.2344 Q1215.7063,355.2344 1214.3781,353.5938 Q1213.0656,351.9375 1213.0656,348.8125 Q1213.0656,345.6875 1214.3781,344.0313 Q1215.7063,342.375 1218.2063,342.375 Q1218.9094,342.375 1219.55,342.5313 Q1220.2063,342.6875 1220.7688,342.9844 L1220.7688,345.7031 Q1220.1438,345.125 1219.55,344.8594 Q1218.9563,344.5781 1218.3313,344.5781 Q1216.9875,344.5781 1216.3,345.6563 Q1215.6125,346.7188 1215.6125,348.8125 Q1215.6125,350.9063 1216.3,351.9844 Q1216.9875,353.0469 1218.3313,353.0469 Q1218.9563,353.0469 1219.55,352.7813 Q1220.1438,352.5 1220.7688,351.9219 L1220.7688,354.6406 Z "/><text fill="#000000" font-family="sans-serif" font-size="12" lengthAdjust="spacingAndGlyphs" textLength="101" x="1231.8" y="353.1543">IAnchorRemover</text><line style="stroke: #A80036; stroke-width: 1.5;" x1="1203.8" x2="1334.8" y1="365" y2="365"/><line style="stroke: #A80036; stroke-width: 1.5;" x1="1203.8" x2="1334.8" y1="373" y2="373"/><!--MD5=[0eb160e9ae310e34686cbb3e28b854ba]
class IRemoveAnchorUseCase--><rect fill="#FEFECE" filter="url(#f1xu3ut25h48oe)" height="48" id="IRemoveAnchorUseCase" style="stroke: #A80036; stroke-width: 1.5;" width="183" x="1370.8" y="333"/><ellipse cx="1385.8" cy="349" fill="#ADD1B2" rx="11" ry="11" style="stroke: #A80036; stroke-width: 1.0;"/><path d="M1388.7688,354.6406 Q1388.1906,354.9375 1387.55,355.0781 Q1386.9094,355.2344 1386.2063,355.2344 Q1383.7063,355.2344 1382.3781,353.5938 Q1381.0656,351.9375 1381.0656,348.8125 Q1381.0656,345.6875 1382.3781,344.0313 Q1383.7063,342.375 1386.2063,342.375 Q1386.9094,342.375 1387.55,342.5313 Q1388.2063,342.6875 1388.7688,342.9844 L1388.7688,345.7031 Q1388.1438,345.125 1387.55,344.8594 Q1386.9563,344.5781 1386.3313,344.5781 Q1384.9875,344.5781 1384.3,345.6563 Q1383.6125,346.7188 1383.6125,348.8125 Q1383.6125,350.9063 1384.3,351.9844 Q1384.9875,353.0469 1386.3313,353.0469 Q1386.9563,353.0469 1387.55,352.7813 Q1388.1438,352.5 1388.7688,351.9219 L1388.7688,354.6406 Z "/><text fill="#000000" font-family="sans-serif" font-size="12" lengthAdjust="spacingAndGlyphs" textLength="151" x="1399.8" y="353.1543">IRemoveAnchorUseCase</text><line style="stroke: #A80036; stroke-width: 1.5;" x1="1371.8" x2="1552.8" y1="365" y2="365"/><line style="stroke: #A80036; stroke-width: 1.5;" x1="1371.8" x2="1552.8" y1="373" y2="373"/><!--MD5=[02aa7f2462b66d2956cb60dd70e1bdd0]
class IBoundsControlVisibilityProvider--><rect fill="#FEFECE" filter="url(#f1xu3ut25h48oe)" height="48" id="IBoundsControlVisibilityProvider" style="stroke: #A80036; stroke-width: 1.5;" width="227" x="1588.8" y="333"/><ellipse cx="1603.8" cy="349" fill="#ADD1B2" rx="11" ry="11" style="stroke: #A80036; stroke-width: 1.0;"/><path d="M1606.7688,354.6406 Q1606.1906,354.9375 1605.55,355.0781 Q1604.9094,355.2344 1604.2063,355.2344 Q1601.7063,355.2344 1600.3781,353.5938 Q1599.0656,351.9375 1599.0656,348.8125 Q1599.0656,345.6875 1600.3781,344.0313 Q1601.7063,342.375 1604.2063,342.375 Q1604.9094,342.375 1605.55,342.5313 Q1606.2063,342.6875 1606.7688,342.9844 L1606.7688,345.7031 Q1606.1438,345.125 1605.55,344.8594 Q1604.9563,344.5781 1604.3313,344.5781 Q1602.9875,344.5781 1602.3,345.6563 Q1601.6125,346.7188 1601.6125,348.8125 Q1601.6125,350.9063 1602.3,351.9844 Q1602.9875,353.0469 1604.3313,353.0469 Q1604.9563,353.0469 1605.55,352.7813 Q1606.1438,352.5 1606.7688,351.9219 L1606.7688,354.6406 Z "/><text fill="#000000" font-family="sans-serif" font-size="12" lengthAdjust="spacingAndGlyphs" textLength="195" x="1617.8" y="353.1543">IBoundsControlVisibilityProvider</text><line style="stroke: #A80036; stroke-width: 1.5;" x1="1589.8" x2="1814.8" y1="365" y2="365"/><line style="stroke: #A80036; stroke-width: 1.5;" x1="1589.8" x2="1814.8" y1="373" y2="373"/><!--MD5=[1555edd073c62adcbd44d1e9631d242f]
class IMachineInfoRepository--><rect fill="#FEFECE" filter="url(#f1xu3ut25h48oe)" height="48" id="IMachineInfoRepository" style="stroke: #A80036; stroke-width: 1.5;" width="176" x="1851.3" y="333"/><ellipse cx="1866.3" cy="349" fill="#ADD1B2" rx="11" ry="11" style="stroke: #A80036; stroke-width: 1.0;"/><path d="M1869.2688,354.6406 Q1868.6906,354.9375 1868.05,355.0781 Q1867.4094,355.2344 1866.7063,355.2344 Q1864.2063,355.2344 1862.8781,353.5938 Q1861.5656,351.9375 1861.5656,348.8125 Q1861.5656,345.6875 1862.8781,344.0313 Q1864.2063,342.375 1866.7063,342.375 Q1867.4094,342.375 1868.05,342.5313 Q1868.7063,342.6875 1869.2688,342.9844 L1869.2688,345.7031 Q1868.6438,345.125 1868.05,344.8594 Q1867.4563,344.5781 1866.8313,344.5781 Q1865.4875,344.5781 1864.8,345.6563 Q1864.1125,346.7188 1864.1125,348.8125 Q1864.1125,350.9063 1864.8,351.9844 Q1865.4875,353.0469 1866.8313,353.0469 Q1867.4563,353.0469 1868.05,352.7813 Q1868.6438,352.5 1869.2688,351.9219 L1869.2688,354.6406 Z "/><text fill="#000000" font-family="sans-serif" font-size="12" lengthAdjust="spacingAndGlyphs" textLength="144" x="1880.3" y="353.1543">IMachineInfoRepository</text><line style="stroke: #A80036; stroke-width: 1.5;" x1="1852.3" x2="2026.3" y1="365" y2="365"/><line style="stroke: #A80036; stroke-width: 1.5;" x1="1852.3" x2="2026.3" y1="373" y2="373"/><!--MD5=[20ddef7090025b04fb973268620c0974]
class DateTime--><rect fill="#FEFECE" filter="url(#f1xu3ut25h48oe)" height="48" id="DateTime" style="stroke: #A80036; stroke-width: 1.5;" width="91" x="384.8" y="670"/><ellipse cx="399.8" cy="686" fill="#ADD1B2" rx="11" ry="11" style="stroke: #A80036; stroke-width: 1.0;"/><path d="M402.7688,691.6406 Q402.1906,691.9375 401.55,692.0781 Q400.9094,692.2344 400.2063,692.2344 Q397.7063,692.2344 396.3781,690.5938 Q395.0656,688.9375 395.0656,685.8125 Q395.0656,682.6875 396.3781,681.0313 Q397.7063,679.375 400.2063,679.375 Q400.9094,679.375 401.55,679.5313 Q402.2063,679.6875 402.7688,679.9844 L402.7688,682.7031 Q402.1438,682.125 401.55,681.8594 Q400.9563,681.5781 400.3313,681.5781 Q398.9875,681.5781 398.3,682.6563 Q397.6125,683.7188 397.6125,685.8125 Q397.6125,687.9063 398.3,688.9844 Q398.9875,690.0469 400.3313,690.0469 Q400.9563,690.0469 401.55,689.7813 Q402.1438,689.5 402.7688,688.9219 L402.7688,691.6406 Z "/><text fill="#000000" font-family="sans-serif" font-size="12" lengthAdjust="spacingAndGlyphs" textLength="59" x="413.8" y="690.1543">DateTime</text><line style="stroke: #A80036; stroke-width: 1.5;" x1="385.8" x2="474.8" y1="702" y2="702"/><line style="stroke: #A80036; stroke-width: 1.5;" x1="385.8" x2="474.8" y1="710" y2="710"/><!--MD5=[1209a7d70a91ee2b0422ae584ed45bb1]
link MachinePresenter to IReadOnlyReactiveProperty`1--><path d="M938.39,222 C902.76,241.88 865.88,262.53 831.3,282 C802.97,297.95 771.25,316 746.24,330.28 " fill="none" id="MachinePresenter-&gt;IReadOnlyReactiveProperty`1" style="stroke: #A80036; stroke-width: 1.0;"/><polygon fill="#A80036" points="741.65,332.9,751.4505,331.9251,745.9956,330.427,747.4937,324.9721,741.65,332.9" style="stroke: #A80036; stroke-width: 1.0;"/><text fill="#000000" font-family="sans-serif" font-size="13" lengthAdjust="spacingAndGlyphs" textLength="90" x="650.4584" y="321.8864">state&lt;State&gt;</text><!--MD5=[e077d2a9c6fa2dfabcbe92319c7dde6f]
link MachinePresenter to IAddAnchorUseCase--><path d="M1039.82,222.32 C1006.96,261.35 972.46,302.35 950.46,328.48 " fill="none" id="MachinePresenter-&gt;IAddAnchorUseCase" style="stroke: #A80036; stroke-width: 1.0;"/><polygon fill="#A80036" points="947.04,332.55,955.8904,328.2291,950.255,328.7206,949.7634,323.0852,947.04,332.55" style="stroke: #A80036; stroke-width: 1.0;"/><text fill="#000000" font-family="sans-serif" font-size="13" lengthAdjust="spacingAndGlyphs" textLength="133" x="813.2141" y="321.8492">_addAnchorUseCase</text><!--MD5=[4a7dc14cc2e448fe7863366be58db5eb]
link MachinePresenter to IAnchorCreator--><path d="M1118.23,222.32 C1114.21,260.87 1110,301.33 1107.27,327.51 " fill="none" id="MachinePresenter-&gt;IAnchorCreator" style="stroke: #A80036; stroke-width: 1.0;"/><polygon fill="#A80036" points="1106.74,332.55,1111.6691,324.0233,1107.2686,327.578,1103.714,323.1775,1106.74,332.55" style="stroke: #A80036; stroke-width: 1.0;"/><text fill="#000000" font-family="sans-serif" font-size="13" lengthAdjust="spacingAndGlyphs" textLength="99" x="1007.2509" y="322.0008">_anchorCreator</text><!--MD5=[1277fb5bbb85a1553d81f42ee7da14d5]
link MachinePresenter to IAnchorRemover--><path d="M1191.32,222.32 C1214,261.19 1237.81,302.01 1253.06,328.16 " fill="none" id="MachinePresenter-&gt;IAnchorRemover" style="stroke: #A80036; stroke-width: 1.0;"/><polygon fill="#A80036" points="1255.62,332.55,1254.5443,322.7601,1253.1024,328.2301,1247.6324,326.7882,1255.62,332.55" style="stroke: #A80036; stroke-width: 1.0;"/><text fill="#000000" font-family="sans-serif" font-size="13" lengthAdjust="spacingAndGlyphs" textLength="108" x="1171.3417" y="321.8453">_anchorRemover</text><!--MD5=[7426ebb06e517ee96d24d9bf4ac53f94]
link MachinePresenter to IRemoveAnchorUseCase--><path d="M1276.81,222.32 C1331.81,261.95 1389.61,303.61 1425.79,329.68 " fill="none" id="MachinePresenter-&gt;IRemoveAnchorUseCase" style="stroke: #A80036; stroke-width: 1.0;"/><polygon fill="#A80036" points="1430.09,332.78,1425.1139,324.2807,1426.0291,329.863,1420.4467,330.7781,1430.09,332.78" style="stroke: #A80036; stroke-width: 1.0;"/><text fill="#000000" font-family="sans-serif" font-size="13" lengthAdjust="spacingAndGlyphs" textLength="158" x="1291.5985" y="321.9468">_removeAnchorUseCase</text><!--MD5=[abc4c71fe6dd01bba15d7f659d7710ec]
link MachinePresenter to IBoundsControlVisibilityProvider--><path d="M1430.88,222.1 C1478.38,240.86 1526.55,261.11 1571.3,282 C1602.07,296.36 1635.36,315.22 1660.69,330.3 " fill="none" id="MachinePresenter-&gt;IBoundsControlVisibilityProvider" style="stroke: #A80036; stroke-width: 1.0;"/><polygon fill="#A80036" points="1665,332.88,1659.3405,324.8196,1660.7125,330.3075,1655.2246,331.6795,1665,332.88" style="stroke: #A80036; stroke-width: 1.0;"/><text fill="#000000" font-family="sans-serif" font-size="13" lengthAdjust="spacingAndGlyphs" textLength="152" x="1545.4669" y="321.8613">_boundsControlProvider</text><!--MD5=[0ad1d62d5175df9efe4f5a3c572966cf]
link MachinePresenter to IMachineInfoRepository--><path d="M1672.89,222.13 C1728.05,239.4 1782.43,259.25 1833.3,282 C1860.58,294.2 1888.15,313.72 1908.33,329.65 " fill="none" id="MachinePresenter-&gt;IMachineInfoRepository" style="stroke: #A80036; stroke-width: 1.0;"/><polygon fill="#A80036" points="1912.27,332.79,1907.7176,324.0564,1908.3573,329.677,1902.7367,330.3167,1912.27,332.79" style="stroke: #A80036; stroke-width: 1.0;"/><text fill="#000000" font-family="sans-serif" font-size="13" lengthAdjust="spacingAndGlyphs" textLength="152" x="1794.5998" y="321.7482">_machineInfoRepository</text><!--MD5=[3ab6dad1770b26ff46192a831d38109e]
reverse link MachinePresenter to State--><path d="M724.17,226.82 C672.53,243.83 620.81,262.34 572.3,282 C566.25,284.45 560.11,287.08 553.95,289.83 " fill="none" id="MachinePresenter&lt;-State" style="stroke: #A80036; stroke-width: 1.0;"/><ellipse cx="731.1254" cy="224.5441" fill="#FFFFFF" rx="8" ry="8" style="stroke: #A80036; stroke-width: 1.0;"/><line style="stroke: #A80036; stroke-width: 1.0;" x1="723.5209" x2="738.73" y1="227.0281" y2="222.06"/><line style="stroke: #A80036; stroke-width: 1.0;" x1="728.6414" x2="733.6095" y1="216.9395" y2="232.1486"/><!--MD5=[bd9a53f6827cf5c5093200c0b8c826d2]
reverse link MachinePresenter to Factory--><path d="M419.85,227.04 C374.75,242.97 330.84,261.18 289.3,282 C264.79,294.29 242.07,315.94 226.8,332.66 " fill="none" id="MachinePresenter&lt;-Factory" style="stroke: #A80036; stroke-width: 1.0;"/><ellipse cx="426.6416" cy="224.6811" fill="#FFFFFF" rx="8" ry="8" style="stroke: #A80036; stroke-width: 1.0;"/><line style="stroke: #A80036; stroke-width: 1.0;" x1="419.0831" x2="434.2" y1="227.3021" y2="222.06"/><line style="stroke: #A80036; stroke-width: 1.0;" x1="424.0205" x2="429.2626" y1="217.1226" y2="232.2395"/><!--MD5=[d56958d5c2dc1a2c44fd321970666cc8]
reverse link PlaceholderFactory`2 to Factory--><path d="M167.07,158.93 C177.44,209.75 194.35,292.56 202.55,332.7 " fill="none" id="PlaceholderFactory`2&lt;-Factory" style="stroke: #A80036; stroke-width: 1.0;"/><polygon fill="none" points="160.14,160.01,163,139.01,173.86,157.21,160.14,160.01" style="stroke: #A80036; stroke-width: 1.0;"/><text fill="#000000" font-family="sans-serif" font-size="13" lengthAdjust="spacingAndGlyphs" textLength="157" x="-12.9113" y="159.1683">&lt;int,MachinePresenter&gt;</text><!--MD5=[a6a74c5cb9718d7fc03106f58a0102cd]
reverse link State to MachineInfo--><path d="M430.3,447.69 C430.3,462.66 430.3,477.83 430.3,491.74 " fill="none" id="State&lt;-MachineInfo" style="stroke: #A80036; stroke-width: 1.0;"/><ellipse cx="430.3" cy="440.23" fill="#FFFFFF" rx="8" ry="8" style="stroke: #A80036; stroke-width: 1.0;"/><line style="stroke: #A80036; stroke-width: 1.0;" x1="430.3" x2="430.3" y1="448.23" y2="432.23"/><line style="stroke: #A80036; stroke-width: 1.0;" x1="422.3" x2="438.3" y1="440.23" y2="440.23"/><!--MD5=[cd9c8d1d5e537f028bdc12f84bf24cbf]
link MachineInfo to DateTime--><path d="M430.3,610.16 C430.3,628.97 430.3,649 430.3,664.64 " fill="none" id="MachineInfo-&gt;DateTime" style="stroke: #A80036; stroke-width: 1.0;"/><polygon fill="#A80036" points="430.3,669.77,434.3,660.77,430.3,664.77,426.3,660.77,430.3,669.77" style="stroke: #A80036; stroke-width: 1.0;"/><text fill="#000000" font-family="sans-serif" font-size="13" lengthAdjust="spacingAndGlyphs" textLength="167" x="242.9469" y="659.1189">technicalExaminationDate</text><!--MD5=[3a81dd030a1d90f72c9c2586a459e7c2]
@startuml
class MachinePresenter {
    +  <<event>> disableTapToPlace : Action 
    +  <<event>> deleteCurrentMachine : Action 
    <<readonly>> _machineIndex : int
    + MachinePresenter(index:int, addAnchorUseCase:IAddAnchorUseCase, removeAnchorUseCase:IRemoveAnchorUseCase, boundsControlProvider:IBoundsControlVisibilityProvider, machineInfoRepository:IMachineInfoRepository, anchorCreator:IAnchorCreator, anchorRemover:IAnchorRemover)
    + setAnchorCreatedState() : void
    + setAnchorNotCreatedState() : void
    + <<async>> setAnchor(gameObject:GameObject) : Task
    + <<async>> removeAnchor(gameObject:GameObject) : Task
    + delete() : void
    + setTapToPlaceNotStarted() : void
    + onDestroy() : void
    + removeLocalAnchor(gameObject:GameObject) : void
    + addLocalAnchor(gameObject:GameObject) : void
}
class State {
    + isAddAnchorVisible : bool = true
    + isTapToPlaceVisible : bool = true
    + isDeleteMachineVisible : bool = true
    + isRemoveAnchorVisible : bool = false
    + areBoundControlsVisible : bool = false
    + machineInfo : MachineInfo? = null
    + State()
    + State(state:State)
}
class "IReadOnlyReactiveProperty`1"<T> {
}
class Factory {
}
class MachineInfo <<struct>> {
    + hallId : int
    + name : string
    + efficiency : int
    + status : string
    + symbol : string
}
class "PlaceholderFactory`2"<T1,T2> {
}
MachinePresenter - -> "state<State>" "IReadOnlyReactiveProperty`1"
MachinePresenter - -> "_addAnchorUseCase" IAddAnchorUseCase
MachinePresenter - -> "_anchorCreator" IAnchorCreator
MachinePresenter - -> "_anchorRemover" IAnchorRemover
MachinePresenter - -> "_removeAnchorUseCase" IRemoveAnchorUseCase
MachinePresenter - -> "_boundsControlProvider" IBoundsControlVisibilityProvider
MachinePresenter - -> "_machineInfoRepository" IMachineInfoRepository
MachinePresenter +- - State
MachinePresenter +- - Factory
"PlaceholderFactory`2" "<int,MachinePresenter>" <|- - Factory
State +- - MachineInfo
MachineInfo - -> "technicalExaminationDate" DateTime
@enduml

PlantUML version 1.2020.02(Sun Mar 01 10:22:07 GMT 2020)
(GPL source distribution)
Java Runtime: OpenJDK Runtime Environment
JVM: OpenJDK 64-Bit Server VM
Java Version: 11.0.9+11-Ubuntu-0ubuntu1
Operating System: Linux
Default Encoding: ANSI_X3.4-1968
Language: en
Country: US
--></g></svg>