<?xml version="1.0" encoding="UTF-8" standalone="no"?><svg xmlns="http://www.w3.org/2000/svg" xmlns:xlink="http://www.w3.org/1999/xlink" contentScriptType="application/ecmascript" contentStyleType="text/css" height="379px" preserveAspectRatio="none" style="width:1335px;height:379px;" version="1.1" viewBox="0 0 1335 379" width="1335px" zoomAndPan="magnify"><defs><filter height="300%" id="f1lzbbznj8r11v" width="300%" x="-1" y="-1"><feGaussianBlur result="blurOut" stdDeviation="2.0"/><feColorMatrix in="blurOut" result="blurOut2" type="matrix" values="0 0 0 0 0 0 0 0 0 0 0 0 0 0 0 0 0 0 .4 0"/><feOffset dx="4.0" dy="4.0" in="blurOut2" result="blurOut3"/><feBlend in="SourceGraphic" in2="blurOut3" mode="normal"/></filter></defs><g><!--MD5=[78bd35b629a69756b1f07cd4ac2391b5]
class MachinePresenter--><rect fill="#FEFECE" filter="url(#f1lzbbznj8r11v)" height="163.2422" id="MachinePresenter" style="stroke: #A80036; stroke-width: 1.5;" width="1026" x="6" y="8"/><ellipse cx="457.75" cy="24" fill="#ADD1B2" rx="11" ry="11" style="stroke: #A80036; stroke-width: 1.0;"/><path d="M460.7188,29.6406 Q460.1406,29.9375 459.5,30.0781 Q458.8594,30.2344 458.1563,30.2344 Q455.6563,30.2344 454.3281,28.5938 Q453.0156,26.9375 453.0156,23.8125 Q453.0156,20.6875 454.3281,19.0313 Q455.6563,17.375 458.1563,17.375 Q458.8594,17.375 459.5,17.5313 Q460.1563,17.6875 460.7188,17.9844 L460.7188,20.7031 Q460.0938,20.125 459.5,19.8594 Q458.9063,19.5781 458.2813,19.5781 Q456.9375,19.5781 456.25,20.6563 Q455.5625,21.7188 455.5625,23.8125 Q455.5625,25.9063 456.25,26.9844 Q456.9375,28.0469 458.2813,28.0469 Q458.9063,28.0469 459.5,27.7813 Q460.0938,27.5 460.7188,26.9219 L460.7188,29.6406 Z "/><text fill="#000000" font-family="sans-serif" font-size="12" lengthAdjust="spacingAndGlyphs" textLength="114" x="478.25" y="28.1543">MachinePresenter</text><line style="stroke: #A80036; stroke-width: 1.5;" x1="7" x2="1031" y1="40" y2="40"/><ellipse cx="17" cy="51" fill="none" rx="3" ry="3" style="stroke: #038048; stroke-width: 1.0;"/><text fill="#000000" font-family="sans-serif" font-size="11" lengthAdjust="spacingAndGlyphs" textLength="201" x="26" y="54.2104">«event» disableTapToPlace : Action</text><ellipse cx="17" cy="63.8047" fill="none" rx="3" ry="3" style="stroke: #038048; stroke-width: 1.0;"/><text fill="#000000" font-family="sans-serif" font-size="11" lengthAdjust="spacingAndGlyphs" textLength="219" x="26" y="67.0151">«event» deleteCurrentMachine : Action</text><line style="stroke: #A80036; stroke-width: 1.5;" x1="7" x2="1031" y1="73.6094" y2="73.6094"/><ellipse cx="17" cy="84.6094" fill="#84BE84" rx="3" ry="3" style="stroke: #038048; stroke-width: 1.0;"/><text fill="#000000" font-family="sans-serif" font-size="11" lengthAdjust="spacingAndGlyphs" textLength="1000" x="26" y="87.8198">MachinePresenter(index:int, addAnchorUseCase:IAddAnchorUseCase, removeAnchorUseCase:IRemoveAnchorUseCase, boundsControlProvider:IBoundsControlVisibilityProvider)</text><ellipse cx="17" cy="97.4141" fill="#84BE84" rx="3" ry="3" style="stroke: #038048; stroke-width: 1.0;"/><text fill="#000000" font-family="sans-serif" font-size="11" lengthAdjust="spacingAndGlyphs" textLength="175" x="26" y="100.6245">setAnchorCreatedState() : void</text><ellipse cx="17" cy="110.2188" fill="#84BE84" rx="3" ry="3" style="stroke: #038048; stroke-width: 1.0;"/><text fill="#000000" font-family="sans-serif" font-size="11" lengthAdjust="spacingAndGlyphs" textLength="194" x="26" y="113.4292">setAnchorNotCreatedState() : void</text><ellipse cx="17" cy="123.0234" fill="#84BE84" rx="3" ry="3" style="stroke: #038048; stroke-width: 1.0;"/><text fill="#000000" font-family="sans-serif" font-size="11" lengthAdjust="spacingAndGlyphs" textLength="293" x="26" y="126.2339">«async» setAnchor(gameObject:GameObject) : void</text><ellipse cx="17" cy="135.8281" fill="#84BE84" rx="3" ry="3" style="stroke: #038048; stroke-width: 1.0;"/><text fill="#000000" font-family="sans-serif" font-size="11" lengthAdjust="spacingAndGlyphs" textLength="318" x="26" y="139.0386">«async» removeAnchor(gameObject:GameObject) : void</text><ellipse cx="17" cy="148.6328" fill="#84BE84" rx="3" ry="3" style="stroke: #038048; stroke-width: 1.0;"/><text fill="#000000" font-family="sans-serif" font-size="11" lengthAdjust="spacingAndGlyphs" textLength="78" x="26" y="151.8433">delete() : void</text><ellipse cx="17" cy="161.4375" fill="#84BE84" rx="3" ry="3" style="stroke: #038048; stroke-width: 1.0;"/><text fill="#000000" font-family="sans-serif" font-size="11" lengthAdjust="spacingAndGlyphs" textLength="187" x="26" y="164.6479">setTapToPlaceNotStarted() : void</text><!--MD5=[6037395b81641dc9f341bda23115c5fd]
class IReadOnlyReactiveProperty`1--><rect fill="#FEFECE" filter="url(#f1lzbbznj8r11v)" height="48" id="IReadOnlyReactiveProperty`1" style="stroke: #A80036; stroke-width: 1.5;" width="224" x="272" y="276"/><ellipse cx="287" cy="292" fill="#ADD1B2" rx="11" ry="11" style="stroke: #A80036; stroke-width: 1.0;"/><path d="M289.9688,297.6406 Q289.3906,297.9375 288.75,298.0781 Q288.1094,298.2344 287.4063,298.2344 Q284.9063,298.2344 283.5781,296.5938 Q282.2656,294.9375 282.2656,291.8125 Q282.2656,288.6875 283.5781,287.0313 Q284.9063,285.375 287.4063,285.375 Q288.1094,285.375 288.75,285.5313 Q289.4063,285.6875 289.9688,285.9844 L289.9688,288.7031 Q289.3438,288.125 288.75,287.8594 Q288.1563,287.5781 287.5313,287.5781 Q286.1875,287.5781 285.5,288.6563 Q284.8125,289.7188 284.8125,291.8125 Q284.8125,293.9063 285.5,294.9844 Q286.1875,296.0469 287.5313,296.0469 Q288.1563,296.0469 288.75,295.7813 Q289.3438,295.5 289.9688,294.9219 L289.9688,297.6406 Z "/><text fill="#000000" font-family="sans-serif" font-size="12" lengthAdjust="spacingAndGlyphs" textLength="181" x="301" y="296.1543">IReadOnlyReactiveProperty`1</text><rect fill="#FFFFFF" height="15.9688" style="stroke: #000000; stroke-width: 1.0; stroke-dasharray: 2.0,2.0;" width="9" x="490" y="273"/><text fill="#000000" font-family="sans-serif" font-size="12" font-style="italic" lengthAdjust="spacingAndGlyphs" textLength="7" x="491" y="285.1387">T</text><line style="stroke: #A80036; stroke-width: 1.5;" x1="273" x2="495" y1="308" y2="308"/><line style="stroke: #A80036; stroke-width: 1.5;" x1="273" x2="495" y1="316" y2="316"/><!--MD5=[dcda66dabdb739ec36f1175150e3c9d5]
class Factory--><rect fill="#FEFECE" filter="url(#f1lzbbznj8r11v)" height="48" id="Factory" style="stroke: #A80036; stroke-width: 1.5;" width="78" x="972" y="276"/><ellipse cx="987" cy="292" fill="#ADD1B2" rx="11" ry="11" style="stroke: #A80036; stroke-width: 1.0;"/><path d="M989.9688,297.6406 Q989.3906,297.9375 988.75,298.0781 Q988.1094,298.2344 987.4063,298.2344 Q984.9063,298.2344 983.5781,296.5938 Q982.2656,294.9375 982.2656,291.8125 Q982.2656,288.6875 983.5781,287.0313 Q984.9063,285.375 987.4063,285.375 Q988.1094,285.375 988.75,285.5313 Q989.4063,285.6875 989.9688,285.9844 L989.9688,288.7031 Q989.3438,288.125 988.75,287.8594 Q988.1563,287.5781 987.5313,287.5781 Q986.1875,287.5781 985.5,288.6563 Q984.8125,289.7188 984.8125,291.8125 Q984.8125,293.9063 985.5,294.9844 Q986.1875,296.0469 987.5313,296.0469 Q988.1563,296.0469 988.75,295.7813 Q989.3438,295.5 989.9688,294.9219 L989.9688,297.6406 Z "/><text fill="#000000" font-family="sans-serif" font-size="12" lengthAdjust="spacingAndGlyphs" textLength="46" x="1001" y="296.1543">Factory</text><line style="stroke: #A80036; stroke-width: 1.5;" x1="973" x2="1049" y1="308" y2="308"/><line style="stroke: #A80036; stroke-width: 1.5;" x1="973" x2="1049" y1="316" y2="316"/><!--MD5=[60d6b92408f98aed8df94d5c6e04aa63]
class State--><rect fill="#FEFECE" filter="url(#f1lzbbznj8r11v)" height="137.6328" id="State" style="stroke: #A80036; stroke-width: 1.5;" width="247" x="531.5" y="231"/><ellipse cx="633.75" cy="247" fill="#ADD1B2" rx="11" ry="11" style="stroke: #A80036; stroke-width: 1.0;"/><path d="M636.7188,252.6406 Q636.1406,252.9375 635.5,253.0781 Q634.8594,253.2344 634.1563,253.2344 Q631.6563,253.2344 630.3281,251.5938 Q629.0156,249.9375 629.0156,246.8125 Q629.0156,243.6875 630.3281,242.0313 Q631.6563,240.375 634.1563,240.375 Q634.8594,240.375 635.5,240.5313 Q636.1563,240.6875 636.7188,240.9844 L636.7188,243.7031 Q636.0938,243.125 635.5,242.8594 Q634.9063,242.5781 634.2813,242.5781 Q632.9375,242.5781 632.25,243.6563 Q631.5625,244.7188 631.5625,246.8125 Q631.5625,248.9063 632.25,249.9844 Q632.9375,251.0469 634.2813,251.0469 Q634.9063,251.0469 635.5,250.7813 Q636.0938,250.5 636.7188,249.9219 L636.7188,252.6406 Z "/><text fill="#000000" font-family="sans-serif" font-size="12" lengthAdjust="spacingAndGlyphs" textLength="34" x="654.25" y="251.1543">State</text><line style="stroke: #A80036; stroke-width: 1.5;" x1="532.5" x2="777.5" y1="263" y2="263"/><ellipse cx="542.5" cy="274" fill="none" rx="3" ry="3" style="stroke: #038048; stroke-width: 1.0;"/><text fill="#000000" font-family="sans-serif" font-size="11" lengthAdjust="spacingAndGlyphs" textLength="183" x="551.5" y="277.2104">isAddAnchorVisible : bool = true</text><ellipse cx="542.5" cy="286.8047" fill="none" rx="3" ry="3" style="stroke: #038048; stroke-width: 1.0;"/><text fill="#000000" font-family="sans-serif" font-size="11" lengthAdjust="spacingAndGlyphs" textLength="188" x="551.5" y="290.0151">isTapToPlaceVisible : bool = true</text><ellipse cx="542.5" cy="299.6094" fill="none" rx="3" ry="3" style="stroke: #038048; stroke-width: 1.0;"/><text fill="#000000" font-family="sans-serif" font-size="11" lengthAdjust="spacingAndGlyphs" textLength="205" x="551.5" y="302.8198">isDeleteMachineVisible : bool = true</text><ellipse cx="542.5" cy="312.4141" fill="none" rx="3" ry="3" style="stroke: #038048; stroke-width: 1.0;"/><text fill="#000000" font-family="sans-serif" font-size="11" lengthAdjust="spacingAndGlyphs" textLength="212" x="551.5" y="315.6245">isRemoveAnchorVisible : bool = false</text><ellipse cx="542.5" cy="325.2188" fill="none" rx="3" ry="3" style="stroke: #038048; stroke-width: 1.0;"/><text fill="#000000" font-family="sans-serif" font-size="11" lengthAdjust="spacingAndGlyphs" textLength="221" x="551.5" y="328.4292">areBoundControlsVisible : bool = false</text><line style="stroke: #A80036; stroke-width: 1.5;" x1="532.5" x2="777.5" y1="335.0234" y2="335.0234"/><ellipse cx="542.5" cy="346.0234" fill="#84BE84" rx="3" ry="3" style="stroke: #038048; stroke-width: 1.0;"/><text fill="#000000" font-family="sans-serif" font-size="11" lengthAdjust="spacingAndGlyphs" textLength="38" x="551.5" y="349.2339">State()</text><ellipse cx="542.5" cy="358.8281" fill="#84BE84" rx="3" ry="3" style="stroke: #038048; stroke-width: 1.0;"/><text fill="#000000" font-family="sans-serif" font-size="11" lengthAdjust="spacingAndGlyphs" textLength="101" x="551.5" y="362.0386">State(state:State)</text><!--MD5=[dc4d4dc1135cde0a1b5b7d925b1d0ee8]
class PlaceholderFactory`2--><rect fill="#FEFECE" filter="url(#f1lzbbznj8r11v)" height="48" id="PlaceholderFactory`2" style="stroke: #A80036; stroke-width: 1.5;" width="204" x="1067" y="65.5"/><ellipse cx="1082" cy="81.5" fill="#ADD1B2" rx="11" ry="11" style="stroke: #A80036; stroke-width: 1.0;"/><path d="M1084.9688,87.1406 Q1084.3906,87.4375 1083.75,87.5781 Q1083.1094,87.7344 1082.4063,87.7344 Q1079.9063,87.7344 1078.5781,86.0938 Q1077.2656,84.4375 1077.2656,81.3125 Q1077.2656,78.1875 1078.5781,76.5313 Q1079.9063,74.875 1082.4063,74.875 Q1083.1094,74.875 1083.75,75.0313 Q1084.4063,75.1875 1084.9688,75.4844 L1084.9688,78.2031 Q1084.3438,77.625 1083.75,77.3594 Q1083.1563,77.0781 1082.5313,77.0781 Q1081.1875,77.0781 1080.5,78.1563 Q1079.8125,79.2188 1079.8125,81.3125 Q1079.8125,83.4063 1080.5,84.4844 Q1081.1875,85.5469 1082.5313,85.5469 Q1083.1563,85.5469 1083.75,85.2813 Q1084.3438,85 1084.9688,84.4219 L1084.9688,87.1406 Z "/><text fill="#000000" font-family="sans-serif" font-size="12" lengthAdjust="spacingAndGlyphs" textLength="134" x="1096" y="85.6543">PlaceholderFactory`2</text><rect fill="#FFFFFF" height="15.9688" style="stroke: #000000; stroke-width: 1.0; stroke-dasharray: 2.0,2.0;" width="36" x="1238" y="62.5"/><text fill="#000000" font-family="sans-serif" font-size="12" font-style="italic" lengthAdjust="spacingAndGlyphs" textLength="34" x="1239" y="74.6387">T1,T2</text><line style="stroke: #A80036; stroke-width: 1.5;" x1="1068" x2="1270" y1="97.5" y2="97.5"/><line style="stroke: #A80036; stroke-width: 1.5;" x1="1068" x2="1270" y1="105.5" y2="105.5"/><!--MD5=[1209a7d70a91ee2b0422ae584ed45bb1]
link MachinePresenter to IReadOnlyReactiveProperty`1--><path d="M466.81,171.11 C443.8,206.64 418.29,246.04 401.75,271.59 " fill="none" id="MachinePresenter-&gt;IReadOnlyReactiveProperty`1" style="stroke: #A80036; stroke-width: 1.0;"/><polygon fill="#A80036" points="398.97,275.88,407.2229,270.505,401.6904,271.6848,400.5106,266.1524,398.97,275.88" style="stroke: #A80036; stroke-width: 1.0;"/><text fill="#000000" font-family="sans-serif" font-size="13" lengthAdjust="spacingAndGlyphs" textLength="90" x="301.2748" y="264.8613">state&lt;State&gt;</text><!--MD5=[bd9a53f6827cf5c5093200c0b8c826d2]
reverse link MachinePresenter to Factory--><path d="M723.19,177.03 C816.34,216.5 917.71,259.47 971.79,282.38 " fill="none" id="MachinePresenter&lt;-Factory" style="stroke: #A80036; stroke-width: 1.0;"/><ellipse cx="716.5853" cy="174.2328" fill="#FFFFFF" rx="8" ry="8" style="stroke: #A80036; stroke-width: 1.0;"/><line style="stroke: #A80036; stroke-width: 1.0;" x1="723.9506" x2="709.22" y1="177.3557" y2="171.11"/><line style="stroke: #A80036; stroke-width: 1.0;" x1="713.4625" x2="719.7082" y1="181.5982" y2="166.8675"/><!--MD5=[d56958d5c2dc1a2c44fd321970666cc8]
reverse link PlaceholderFactory`2 to Factory--><path d="M1139.39,129.58 C1106.77,172.62 1055.39,240.42 1028.59,275.79 " fill="none" id="PlaceholderFactory`2&lt;-Factory" style="stroke: #A80036; stroke-width: 1.0;"/><polygon fill="none" points="1133.83,125.32,1151.49,113.61,1144.99,133.78,1133.83,125.32" style="stroke: #A80036; stroke-width: 1.0;"/><text fill="#000000" font-family="sans-serif" font-size="13" lengthAdjust="spacingAndGlyphs" textLength="157" x="1166.3563" y="133.398">&lt;int,MachinePresenter&gt;</text><!--MD5=[3ab6dad1770b26ff46192a831d38109e]
reverse link MachinePresenter to State--><path d="M579.8,183.71 C590.14,199.56 600.69,215.74 610.51,230.79 " fill="none" id="MachinePresenter&lt;-State" style="stroke: #A80036; stroke-width: 1.0;"/><ellipse cx="575.9487" cy="177.8118" fill="#FFFFFF" rx="8" ry="8" style="stroke: #A80036; stroke-width: 1.0;"/><line style="stroke: #A80036; stroke-width: 1.0;" x1="580.3175" x2="571.58" y1="184.5136" y2="171.11"/><line style="stroke: #A80036; stroke-width: 1.0;" x1="569.247" x2="582.6505" y1="182.1805" y2="173.443"/><!--MD5=[e8cab04afa314e98d778915ec18b65ce]
@startuml
class MachinePresenter {
    + MachinePresenter(index:int, addAnchorUseCase:IAddAnchorUseCase, removeAnchorUseCase:IRemoveAnchorUseCase, boundsControlProvider:IBoundsControlVisibilityProvider)
    +  <<event>> disableTapToPlace : Action 
    +  <<event>> deleteCurrentMachine : Action 
    + setAnchorCreatedState() : void
    + setAnchorNotCreatedState() : void
    + <<async>> setAnchor(gameObject:GameObject) : void
    + <<async>> removeAnchor(gameObject:GameObject) : void
    + delete() : void
    + setTapToPlaceNotStarted() : void
}
class "IReadOnlyReactiveProperty`1"<T> {
}
class Factory {
}
class State {
    + isAddAnchorVisible : bool = true
    + isTapToPlaceVisible : bool = true
    + isDeleteMachineVisible : bool = true
    + isRemoveAnchorVisible : bool = false
    + areBoundControlsVisible : bool = false
    + State()
    + State(state:State)
}
class "PlaceholderFactory`2"<T1,T2> {
}
MachinePresenter - -> "state<State>" "IReadOnlyReactiveProperty`1"
MachinePresenter +- - Factory
"PlaceholderFactory`2" "<int,MachinePresenter>" <|- - Factory
MachinePresenter +- - State
@enduml

PlantUML version 1.2020.02(Sun Mar 01 10:22:07 GMT 2020)
(GPL source distribution)
Java Runtime: OpenJDK Runtime Environment
JVM: OpenJDK 64-Bit Server VM
Java Version: 11.0.9+11-Ubuntu-0ubuntu1
Operating System: Linux
Default Encoding: ANSI_X3.4-1968
Language: en
Country: US
--></g></svg>