<?xml version="1.0" encoding="UTF-8" standalone="no"?><svg xmlns="http://www.w3.org/2000/svg" xmlns:xlink="http://www.w3.org/1999/xlink" contentScriptType="application/ecmascript" contentStyleType="text/css" height="437px" preserveAspectRatio="none" style="width:723px;height:437px;" version="1.1" viewBox="0 0 723 437" width="723px" zoomAndPan="magnify"><defs><filter height="300%" id="fcbp514tv097j" width="300%" x="-1" y="-1"><feGaussianBlur result="blurOut" stdDeviation="2.0"/><feColorMatrix in="blurOut" result="blurOut2" type="matrix" values="0 0 0 0 0 0 0 0 0 0 0 0 0 0 0 0 0 0 .4 0"/><feOffset dx="4.0" dy="4.0" in="blurOut2" result="blurOut3"/><feBlend in="SourceGraphic" in2="blurOut3" mode="normal"/></filter></defs><g><!--MD5=[1c8723e6c8337722874b091aeecca731]
class IStartAzureSession--><rect fill="#FEFECE" filter="url(#fcbp514tv097j)" height="60.8047" id="IStartAzureSession" style="stroke: #A80036; stroke-width: 1.5;" width="149" x="6" y="14.5"/><ellipse cx="21" cy="30.5" fill="#B4A7E5" rx="11" ry="11" style="stroke: #A80036; stroke-width: 1.0;"/><path d="M16.9219,26.2656 L16.9219,24.1094 L24.3125,24.1094 L24.3125,26.2656 L21.8438,26.2656 L21.8438,34.3438 L24.3125,34.3438 L24.3125,36.5 L16.9219,36.5 L16.9219,34.3438 L19.3906,34.3438 L19.3906,26.2656 L16.9219,26.2656 Z "/><text fill="#000000" font-family="sans-serif" font-size="12" font-style="italic" lengthAdjust="spacingAndGlyphs" textLength="117" x="35" y="34.6543">IStartAzureSession</text><line style="stroke: #A80036; stroke-width: 1.5;" x1="7" x2="154" y1="46.5" y2="46.5"/><line style="stroke: #A80036; stroke-width: 1.5;" x1="7" x2="154" y1="54.5" y2="54.5"/><text fill="#000000" font-family="sans-serif" font-size="11" lengthAdjust="spacingAndGlyphs" textLength="83" x="12" y="68.7104">invoke() : Task</text><!--MD5=[cf6d7a6be36f4747e159f72420ab3d4f]
class IAnchorRemover--><rect fill="#FEFECE" filter="url(#fcbp514tv097j)" height="73.6094" id="IAnchorRemover" style="stroke: #A80036; stroke-width: 1.5;" width="361" x="190" y="8"/><ellipse cx="315.25" cy="24" fill="#B4A7E5" rx="11" ry="11" style="stroke: #A80036; stroke-width: 1.0;"/><path d="M311.1719,19.7656 L311.1719,17.6094 L318.5625,17.6094 L318.5625,19.7656 L316.0938,19.7656 L316.0938,27.8438 L318.5625,27.8438 L318.5625,30 L311.1719,30 L311.1719,27.8438 L313.6406,27.8438 L313.6406,19.7656 L311.1719,19.7656 Z "/><text fill="#000000" font-family="sans-serif" font-size="12" font-style="italic" lengthAdjust="spacingAndGlyphs" textLength="102" x="335.75" y="28.1543">IAnchorRemover</text><line style="stroke: #A80036; stroke-width: 1.5;" x1="191" x2="550" y1="40" y2="40"/><line style="stroke: #A80036; stroke-width: 1.5;" x1="191" x2="550" y1="48" y2="48"/><ellipse cx="201" cy="59" fill="#84BE84" rx="3" ry="3" style="stroke: #038048; stroke-width: 1.0;"/><text fill="#000000" font-family="sans-serif" font-size="11" lengthAdjust="spacingAndGlyphs" textLength="335" x="210" y="62.2104">deleteNativeAnchor(anchorGameObject:GameObject) : void</text><ellipse cx="201" cy="71.8047" fill="#84BE84" rx="3" ry="3" style="stroke: #038048; stroke-width: 1.0;"/><text fill="#000000" font-family="sans-serif" font-size="11" lengthAdjust="spacingAndGlyphs" textLength="240" x="210" y="75.0151">deleteCloudAnchor(indetifier:string) : Task</text><!--MD5=[07d157f96bca7c6ee6c67c7c5737c203]
class AzureCloudManager--><rect fill="#FEFECE" filter="url(#fcbp514tv097j)" height="176.0469" id="AzureCloudManager" style="stroke: #A80036; stroke-width: 1.5;" width="597" x="72" y="142"/><ellipse cx="304.25" cy="158" fill="#ADD1B2" rx="11" ry="11" style="stroke: #A80036; stroke-width: 1.0;"/><path d="M307.2188,163.6406 Q306.6406,163.9375 306,164.0781 Q305.3594,164.2344 304.6563,164.2344 Q302.1563,164.2344 300.8281,162.5938 Q299.5156,160.9375 299.5156,157.8125 Q299.5156,154.6875 300.8281,153.0313 Q302.1563,151.375 304.6563,151.375 Q305.3594,151.375 306,151.5313 Q306.6563,151.6875 307.2188,151.9844 L307.2188,154.7031 Q306.5938,154.125 306,153.8594 Q305.4063,153.5781 304.7813,153.5781 Q303.4375,153.5781 302.75,154.6563 Q302.0625,155.7188 302.0625,157.8125 Q302.0625,159.9063 302.75,160.9844 Q303.4375,162.0469 304.7813,162.0469 Q305.4063,162.0469 306,161.7813 Q306.5938,161.5 307.2188,160.9219 L307.2188,163.6406 Z "/><text fill="#000000" font-family="sans-serif" font-size="12" lengthAdjust="spacingAndGlyphs" textLength="124" x="324.75" y="162.1543">AzureCloudManager</text><line style="stroke: #A80036; stroke-width: 1.5;" x1="73" x2="668" y1="174" y2="174"/><text fill="#000000" font-family="sans-serif" font-size="11" lengthAdjust="spacingAndGlyphs" text-decoration="underline" textLength="270" x="78" y="188.2104">ANCHOR_TYPE_PROP : string = "ANCHOR_TYPE"</text><text fill="#000000" font-family="sans-serif" font-size="11" lengthAdjust="spacingAndGlyphs" text-decoration="underline" textLength="276" x="78" y="201.0151">ANCHOR_SCALE_X : string = "ANCHOR_SCALE_X"</text><text fill="#000000" font-family="sans-serif" font-size="11" lengthAdjust="spacingAndGlyphs" text-decoration="underline" textLength="276" x="78" y="213.8198">ANCHOR_SCALE_Y : string = "ANCHOR_SCALE_Y"</text><text fill="#000000" font-family="sans-serif" font-size="11" lengthAdjust="spacingAndGlyphs" text-decoration="underline" textLength="280" x="78" y="226.6245">ANCHOR_SCALE_Z : string = "ANCHOR_SCALE_Z"</text><line style="stroke: #A80036; stroke-width: 1.5;" x1="73" x2="668" y1="233.2188" y2="233.2188"/><ellipse cx="83" cy="244.2188" fill="#84BE84" rx="3" ry="3" style="stroke: #038048; stroke-width: 1.0;"/><text fill="#000000" font-family="sans-serif" font-size="11" lengthAdjust="spacingAndGlyphs" textLength="330" x="92" y="247.4292">AzureCloudManager(cloudManager:SpatialAnchorManager)</text><ellipse cx="83" cy="257.0234" fill="#84BE84" rx="3" ry="3" style="stroke: #038048; stroke-width: 1.0;"/><text fill="#000000" font-family="sans-serif" font-size="11" lengthAdjust="spacingAndGlyphs" textLength="571" x="92" y="260.2339">«async» createCloudAnchor(gameObject:GameObject, propIndex:int) : Task&lt;IAnchorCreator.Result&gt;</text><ellipse cx="83" cy="269.8281" fill="#84BE84" rx="3" ry="3" style="stroke: #038048; stroke-width: 1.0;"/><text fill="#000000" font-family="sans-serif" font-size="11" lengthAdjust="spacingAndGlyphs" textLength="295" x="92" y="273.0386">createNativeAnchor(gameObject:GameObject) : void</text><ellipse cx="83" cy="282.6328" fill="#84BE84" rx="3" ry="3" style="stroke: #038048; stroke-width: 1.0;"/><text fill="#000000" font-family="sans-serif" font-size="11" lengthAdjust="spacingAndGlyphs" textLength="134" x="92" y="285.8433">«async» invoke() : Task</text><ellipse cx="83" cy="295.4375" fill="#84BE84" rx="3" ry="3" style="stroke: #038048; stroke-width: 1.0;"/><text fill="#000000" font-family="sans-serif" font-size="11" lengthAdjust="spacingAndGlyphs" textLength="335" x="92" y="298.6479">deleteNativeAnchor(anchorGameObject:GameObject) : void</text><ellipse cx="83" cy="308.2422" fill="#84BE84" rx="3" ry="3" style="stroke: #038048; stroke-width: 1.0;"/><text fill="#000000" font-family="sans-serif" font-size="11" lengthAdjust="spacingAndGlyphs" textLength="291" x="92" y="311.4526">«async» deleteCloudAnchor(indetifier:string) : Task</text><!--MD5=[79f1084384fcd408d88a2998bd98750b]
class IAnchorCreator--><rect fill="#FEFECE" filter="url(#fcbp514tv097j)" height="48" id="IAnchorCreator" style="stroke: #A80036; stroke-width: 1.5;" width="126" x="586.5" y="21"/><ellipse cx="601.5" cy="37" fill="#ADD1B2" rx="11" ry="11" style="stroke: #A80036; stroke-width: 1.0;"/><path d="M604.4688,42.6406 Q603.8906,42.9375 603.25,43.0781 Q602.6094,43.2344 601.9063,43.2344 Q599.4063,43.2344 598.0781,41.5938 Q596.7656,39.9375 596.7656,36.8125 Q596.7656,33.6875 598.0781,32.0313 Q599.4063,30.375 601.9063,30.375 Q602.6094,30.375 603.25,30.5313 Q603.9063,30.6875 604.4688,30.9844 L604.4688,33.7031 Q603.8438,33.125 603.25,32.8594 Q602.6563,32.5781 602.0313,32.5781 Q600.6875,32.5781 600,33.6563 Q599.3125,34.7188 599.3125,36.8125 Q599.3125,38.9063 600,39.9844 Q600.6875,41.0469 602.0313,41.0469 Q602.6563,41.0469 603.25,40.7813 Q603.8438,40.5 604.4688,39.9219 L604.4688,42.6406 Z "/><text fill="#000000" font-family="sans-serif" font-size="12" lengthAdjust="spacingAndGlyphs" textLength="94" x="615.5" y="41.1543">IAnchorCreator</text><line style="stroke: #A80036; stroke-width: 1.5;" x1="587.5" x2="711.5" y1="53" y2="53"/><line style="stroke: #A80036; stroke-width: 1.5;" x1="587.5" x2="711.5" y1="61" y2="61"/><!--MD5=[a0c64bc48bcbcdbd0554e43be2e35653]
class SpatialAnchorManager--><rect fill="#FEFECE" filter="url(#fcbp514tv097j)" height="48" id="SpatialAnchorManager" style="stroke: #A80036; stroke-width: 1.5;" width="174" x="283.5" y="378"/><ellipse cx="298.5" cy="394" fill="#ADD1B2" rx="11" ry="11" style="stroke: #A80036; stroke-width: 1.0;"/><path d="M301.4688,399.6406 Q300.8906,399.9375 300.25,400.0781 Q299.6094,400.2344 298.9063,400.2344 Q296.4063,400.2344 295.0781,398.5938 Q293.7656,396.9375 293.7656,393.8125 Q293.7656,390.6875 295.0781,389.0313 Q296.4063,387.375 298.9063,387.375 Q299.6094,387.375 300.25,387.5313 Q300.9063,387.6875 301.4688,387.9844 L301.4688,390.7031 Q300.8438,390.125 300.25,389.8594 Q299.6563,389.5781 299.0313,389.5781 Q297.6875,389.5781 297,390.6563 Q296.3125,391.7188 296.3125,393.8125 Q296.3125,395.9063 297,396.9844 Q297.6875,398.0469 299.0313,398.0469 Q299.6563,398.0469 300.25,397.7813 Q300.8438,397.5 301.4688,396.9219 L301.4688,399.6406 Z "/><text fill="#000000" font-family="sans-serif" font-size="12" lengthAdjust="spacingAndGlyphs" textLength="142" x="312.5" y="398.1543">SpatialAnchorManager</text><line style="stroke: #A80036; stroke-width: 1.5;" x1="284.5" x2="456.5" y1="410" y2="410"/><line style="stroke: #A80036; stroke-width: 1.5;" x1="284.5" x2="456.5" y1="418" y2="418"/><!--MD5=[50b9adf6f2049eeefab602eea3e99879]
reverse link IAnchorCreator to AzureCloudManager--><path d="M597.32,80.23 C570.62,97.74 536.78,119.93 503.44,141.8 " fill="none" id="IAnchorCreator&lt;-AzureCloudManager" style="stroke: #A80036; stroke-width: 1.0;"/><polygon fill="none" points="593.6,74.29,614.16,69.18,601.28,86,593.6,74.29" style="stroke: #A80036; stroke-width: 1.0;"/><!--MD5=[617604ad61670cd2aeb0cb683016f96c]
reverse link IAnchorRemover to AzureCloudManager--><path d="M370.5,102.55 C370.5,114.99 370.5,128.43 370.5,141.76 " fill="none" id="IAnchorRemover&lt;-AzureCloudManager" style="stroke: #A80036; stroke-width: 1.0;"/><polygon fill="none" points="363.5,102.15,370.5,82.15,377.5,102.15,363.5,102.15" style="stroke: #A80036; stroke-width: 1.0;"/><!--MD5=[7874b61fe5ec201afb5ac4f98e111d5d]
reverse link IStartAzureSession to AzureCloudManager--><path d="M144.56,86.42 C170.6,102.85 201.76,122.52 232.51,141.92 " fill="none" id="IStartAzureSession&lt;-AzureCloudManager" style="stroke: #A80036; stroke-width: 1.0;"/><polygon fill="none" points="140.59,92.2,127.42,75.61,148.07,80.36,140.59,92.2" style="stroke: #A80036; stroke-width: 1.0;"/><!--MD5=[929101748fb9cd203682006127fb970c]
link AzureCloudManager to SpatialAnchorManager--><path d="M370.5,318.49 C370.5,338.05 370.5,357.44 370.5,372.5 " fill="none" id="AzureCloudManager-&gt;SpatialAnchorManager" style="stroke: #A80036; stroke-width: 1.0;"/><polygon fill="#A80036" points="370.5,377.85,374.5,368.85,370.5,372.85,366.5,368.85,370.5,377.85" style="stroke: #A80036; stroke-width: 1.0;"/><text fill="#000000" font-family="sans-serif" font-size="13" lengthAdjust="spacingAndGlyphs" textLength="97" x="261.0719" y="366.8236">_cloudManager</text><!--MD5=[b10fa5bb23ce188e49ea515c945e546c]
@startuml
interface IStartAzureSession {
    invoke() : Task
}
interface IAnchorRemover {
    + deleteNativeAnchor(anchorGameObject:GameObject) : void
    + deleteCloudAnchor(indetifier:string) : Task
}
class AzureCloudManager {
    {static} ANCHOR_TYPE_PROP : string = "ANCHOR_TYPE"
    {static} ANCHOR_SCALE_X : string = "ANCHOR_SCALE_X"
    {static} ANCHOR_SCALE_Y : string = "ANCHOR_SCALE_Y"
    {static} ANCHOR_SCALE_Z : string = "ANCHOR_SCALE_Z"
    + AzureCloudManager(cloudManager:SpatialAnchorManager)
    + <<async>> createCloudAnchor(gameObject:GameObject, propIndex:int) : Task<IAnchorCreator.Result>
    + createNativeAnchor(gameObject:GameObject) : void
    + <<async>> invoke() : Task
    + deleteNativeAnchor(anchorGameObject:GameObject) : void
    + <<async>> deleteCloudAnchor(indetifier:string) : Task
}
IAnchorCreator <|- - AzureCloudManager
IAnchorRemover <|- - AzureCloudManager
IStartAzureSession <|- - AzureCloudManager
AzureCloudManager - -> "_cloudManager" SpatialAnchorManager
@enduml

PlantUML version 1.2020.02(Sun Mar 01 10:22:07 GMT 2020)
(GPL source distribution)
Java Runtime: OpenJDK Runtime Environment
JVM: OpenJDK 64-Bit Server VM
Java Version: 11.0.9+11-Ubuntu-0ubuntu1
Operating System: Linux
Default Encoding: ANSI_X3.4-1968
Language: en
Country: US
--></g></svg>