<?xml version="1.0" encoding="UTF-8" standalone="no"?><svg xmlns="http://www.w3.org/2000/svg" xmlns:xlink="http://www.w3.org/1999/xlink" contentScriptType="application/ecmascript" contentStyleType="text/css" height="399px" preserveAspectRatio="none" style="width:724px;height:399px;" version="1.1" viewBox="0 0 724 399" width="724px" zoomAndPan="magnify"><defs><filter height="300%" id="faj7ptix2jm00" width="300%" x="-1" y="-1"><feGaussianBlur result="blurOut" stdDeviation="2.0"/><feColorMatrix in="blurOut" result="blurOut2" type="matrix" values="0 0 0 0 0 0 0 0 0 0 0 0 0 0 0 0 0 0 .4 0"/><feOffset dx="4.0" dy="4.0" in="blurOut2" result="blurOut3"/><feBlend in="SourceGraphic" in2="blurOut3" mode="normal"/></filter></defs><g><!--MD5=[1c8723e6c8337722874b091aeecca731]
class IStartAzureSession--><rect fill="#FEFECE" filter="url(#faj7ptix2jm00)" height="60.8047" id="IStartAzureSession" style="stroke: #A80036; stroke-width: 1.5;" width="149" x="6" y="14.5"/><ellipse cx="21" cy="30.5" fill="#B4A7E5" rx="11" ry="11" style="stroke: #A80036; stroke-width: 1.0;"/><path d="M16.9219,26.2656 L16.9219,24.1094 L24.3125,24.1094 L24.3125,26.2656 L21.8438,26.2656 L21.8438,34.3438 L24.3125,34.3438 L24.3125,36.5 L16.9219,36.5 L16.9219,34.3438 L19.3906,34.3438 L19.3906,26.2656 L16.9219,26.2656 Z "/><text fill="#000000" font-family="sans-serif" font-size="12" font-style="italic" lengthAdjust="spacingAndGlyphs" textLength="117" x="35" y="34.6543">IStartAzureSession</text><line style="stroke: #A80036; stroke-width: 1.5;" x1="7" x2="154" y1="46.5" y2="46.5"/><line style="stroke: #A80036; stroke-width: 1.5;" x1="7" x2="154" y1="54.5" y2="54.5"/><text fill="#000000" font-family="sans-serif" font-size="11" lengthAdjust="spacingAndGlyphs" textLength="83" x="12" y="68.7104">invoke() : Task</text><!--MD5=[cf6d7a6be36f4747e159f72420ab3d4f]
class IAnchorRemover--><rect fill="#FEFECE" filter="url(#faj7ptix2jm00)" height="73.6094" id="IAnchorRemover" style="stroke: #A80036; stroke-width: 1.5;" width="362" x="190.5" y="8"/><ellipse cx="316.25" cy="24" fill="#B4A7E5" rx="11" ry="11" style="stroke: #A80036; stroke-width: 1.0;"/><path d="M312.1719,19.7656 L312.1719,17.6094 L319.5625,17.6094 L319.5625,19.7656 L317.0938,19.7656 L317.0938,27.8438 L319.5625,27.8438 L319.5625,30 L312.1719,30 L312.1719,27.8438 L314.6406,27.8438 L314.6406,19.7656 L312.1719,19.7656 Z "/><text fill="#000000" font-family="sans-serif" font-size="12" font-style="italic" lengthAdjust="spacingAndGlyphs" textLength="102" x="336.75" y="28.1543">IAnchorRemover</text><line style="stroke: #A80036; stroke-width: 1.5;" x1="191.5" x2="551.5" y1="40" y2="40"/><line style="stroke: #A80036; stroke-width: 1.5;" x1="191.5" x2="551.5" y1="48" y2="48"/><ellipse cx="201.5" cy="59" fill="#84BE84" rx="3" ry="3" style="stroke: #038048; stroke-width: 1.0;"/><text fill="#000000" font-family="sans-serif" font-size="11" lengthAdjust="spacingAndGlyphs" textLength="335" x="210.5" y="62.2104">deleteNativeAnchor(anchorGameObject:GameObject) : void</text><ellipse cx="201.5" cy="71.8047" fill="#84BE84" rx="3" ry="3" style="stroke: #038048; stroke-width: 1.0;"/><text fill="#000000" font-family="sans-serif" font-size="11" lengthAdjust="spacingAndGlyphs" textLength="336" x="210.5" y="75.0151">deleteCloudAnchor(anchorGameObject:GameObject) : Task</text><!--MD5=[07d157f96bca7c6ee6c67c7c5737c203]
class AzureCloudManager--><rect fill="#FEFECE" filter="url(#faj7ptix2jm00)" height="137.6328" id="AzureCloudManager" style="stroke: #A80036; stroke-width: 1.5;" width="597" x="73" y="142"/><ellipse cx="305.25" cy="158" fill="#ADD1B2" rx="11" ry="11" style="stroke: #A80036; stroke-width: 1.0;"/><path d="M308.2188,163.6406 Q307.6406,163.9375 307,164.0781 Q306.3594,164.2344 305.6563,164.2344 Q303.1563,164.2344 301.8281,162.5938 Q300.5156,160.9375 300.5156,157.8125 Q300.5156,154.6875 301.8281,153.0313 Q303.1563,151.375 305.6563,151.375 Q306.3594,151.375 307,151.5313 Q307.6563,151.6875 308.2188,151.9844 L308.2188,154.7031 Q307.5938,154.125 307,153.8594 Q306.4063,153.5781 305.7813,153.5781 Q304.4375,153.5781 303.75,154.6563 Q303.0625,155.7188 303.0625,157.8125 Q303.0625,159.9063 303.75,160.9844 Q304.4375,162.0469 305.7813,162.0469 Q306.4063,162.0469 307,161.7813 Q307.5938,161.5 308.2188,160.9219 L308.2188,163.6406 Z "/><text fill="#000000" font-family="sans-serif" font-size="12" lengthAdjust="spacingAndGlyphs" textLength="124" x="325.75" y="162.1543">AzureCloudManager</text><line style="stroke: #A80036; stroke-width: 1.5;" x1="74" x2="669" y1="174" y2="174"/><text fill="#000000" font-family="sans-serif" font-size="11" lengthAdjust="spacingAndGlyphs" text-decoration="underline" textLength="270" x="79" y="188.2104">ANCHOR_TYPE_PROP : string = "ANCHOR_TYPE"</text><line style="stroke: #A80036; stroke-width: 1.5;" x1="74" x2="669" y1="194.8047" y2="194.8047"/><ellipse cx="84" cy="205.8047" fill="#84BE84" rx="3" ry="3" style="stroke: #038048; stroke-width: 1.0;"/><text fill="#000000" font-family="sans-serif" font-size="11" lengthAdjust="spacingAndGlyphs" textLength="330" x="93" y="209.0151">AzureCloudManager(cloudManager:SpatialAnchorManager)</text><ellipse cx="84" cy="218.6094" fill="#84BE84" rx="3" ry="3" style="stroke: #038048; stroke-width: 1.0;"/><text fill="#000000" font-family="sans-serif" font-size="11" lengthAdjust="spacingAndGlyphs" textLength="571" x="93" y="221.8198">«async» createCloudAnchor(gameObject:GameObject, propIndex:int) : Task&lt;IAnchorCreator.Result&gt;</text><ellipse cx="84" cy="231.4141" fill="#84BE84" rx="3" ry="3" style="stroke: #038048; stroke-width: 1.0;"/><text fill="#000000" font-family="sans-serif" font-size="11" lengthAdjust="spacingAndGlyphs" textLength="295" x="93" y="234.6245">createNativeAnchor(gameObject:GameObject) : void</text><ellipse cx="84" cy="244.2188" fill="#84BE84" rx="3" ry="3" style="stroke: #038048; stroke-width: 1.0;"/><text fill="#000000" font-family="sans-serif" font-size="11" lengthAdjust="spacingAndGlyphs" textLength="134" x="93" y="247.4292">«async» invoke() : Task</text><ellipse cx="84" cy="257.0234" fill="#84BE84" rx="3" ry="3" style="stroke: #038048; stroke-width: 1.0;"/><text fill="#000000" font-family="sans-serif" font-size="11" lengthAdjust="spacingAndGlyphs" textLength="335" x="93" y="260.2339">deleteNativeAnchor(anchorGameObject:GameObject) : void</text><ellipse cx="84" cy="269.8281" fill="#84BE84" rx="3" ry="3" style="stroke: #038048; stroke-width: 1.0;"/><text fill="#000000" font-family="sans-serif" font-size="11" lengthAdjust="spacingAndGlyphs" textLength="387" x="93" y="273.0386">«async» deleteCloudAnchor(anchorGameObject:GameObject) : Task</text><!--MD5=[79f1084384fcd408d88a2998bd98750b]
class IAnchorCreator--><rect fill="#FEFECE" filter="url(#faj7ptix2jm00)" height="48" id="IAnchorCreator" style="stroke: #A80036; stroke-width: 1.5;" width="126" x="587.5" y="21"/><ellipse cx="602.5" cy="37" fill="#ADD1B2" rx="11" ry="11" style="stroke: #A80036; stroke-width: 1.0;"/><path d="M605.4688,42.6406 Q604.8906,42.9375 604.25,43.0781 Q603.6094,43.2344 602.9063,43.2344 Q600.4063,43.2344 599.0781,41.5938 Q597.7656,39.9375 597.7656,36.8125 Q597.7656,33.6875 599.0781,32.0313 Q600.4063,30.375 602.9063,30.375 Q603.6094,30.375 604.25,30.5313 Q604.9063,30.6875 605.4688,30.9844 L605.4688,33.7031 Q604.8438,33.125 604.25,32.8594 Q603.6563,32.5781 603.0313,32.5781 Q601.6875,32.5781 601,33.6563 Q600.3125,34.7188 600.3125,36.8125 Q600.3125,38.9063 601,39.9844 Q601.6875,41.0469 603.0313,41.0469 Q603.6563,41.0469 604.25,40.7813 Q604.8438,40.5 605.4688,39.9219 L605.4688,42.6406 Z "/><text fill="#000000" font-family="sans-serif" font-size="12" lengthAdjust="spacingAndGlyphs" textLength="94" x="616.5" y="41.1543">IAnchorCreator</text><line style="stroke: #A80036; stroke-width: 1.5;" x1="588.5" x2="712.5" y1="53" y2="53"/><line style="stroke: #A80036; stroke-width: 1.5;" x1="588.5" x2="712.5" y1="61" y2="61"/><!--MD5=[a0c64bc48bcbcdbd0554e43be2e35653]
class SpatialAnchorManager--><rect fill="#FEFECE" filter="url(#faj7ptix2jm00)" height="48" id="SpatialAnchorManager" style="stroke: #A80036; stroke-width: 1.5;" width="174" x="284.5" y="340"/><ellipse cx="299.5" cy="356" fill="#ADD1B2" rx="11" ry="11" style="stroke: #A80036; stroke-width: 1.0;"/><path d="M302.4688,361.6406 Q301.8906,361.9375 301.25,362.0781 Q300.6094,362.2344 299.9063,362.2344 Q297.4063,362.2344 296.0781,360.5938 Q294.7656,358.9375 294.7656,355.8125 Q294.7656,352.6875 296.0781,351.0313 Q297.4063,349.375 299.9063,349.375 Q300.6094,349.375 301.25,349.5313 Q301.9063,349.6875 302.4688,349.9844 L302.4688,352.7031 Q301.8438,352.125 301.25,351.8594 Q300.6563,351.5781 300.0313,351.5781 Q298.6875,351.5781 298,352.6563 Q297.3125,353.7188 297.3125,355.8125 Q297.3125,357.9063 298,358.9844 Q298.6875,360.0469 300.0313,360.0469 Q300.6563,360.0469 301.25,359.7813 Q301.8438,359.5 302.4688,358.9219 L302.4688,361.6406 Z "/><text fill="#000000" font-family="sans-serif" font-size="12" lengthAdjust="spacingAndGlyphs" textLength="142" x="313.5" y="360.1543">SpatialAnchorManager</text><line style="stroke: #A80036; stroke-width: 1.5;" x1="285.5" x2="457.5" y1="372" y2="372"/><line style="stroke: #A80036; stroke-width: 1.5;" x1="285.5" x2="457.5" y1="380" y2="380"/><!--MD5=[50b9adf6f2049eeefab602eea3e99879]
reverse link IAnchorCreator to AzureCloudManager--><path d="M593.65,79.42 C562.98,97.44 523.98,120.37 487.24,141.96 " fill="none" id="IAnchorCreator&lt;-AzureCloudManager" style="stroke: #A80036; stroke-width: 1.0;"/><polygon fill="none" points="590.33,73.25,611.12,69.15,597.42,85.32,590.33,73.25" style="stroke: #A80036; stroke-width: 1.0;"/><!--MD5=[617604ad61670cd2aeb0cb683016f96c]
reverse link IAnchorRemover to AzureCloudManager--><path d="M371.5,102.54 C371.5,115.16 371.5,128.67 371.5,141.7 " fill="none" id="IAnchorRemover&lt;-AzureCloudManager" style="stroke: #A80036; stroke-width: 1.0;"/><polygon fill="none" points="364.5,102.4,371.5,82.4,378.5,102.4,364.5,102.4" style="stroke: #A80036; stroke-width: 1.0;"/><!--MD5=[7874b61fe5ec201afb5ac4f98e111d5d]
reverse link IStartAzureSession to AzureCloudManager--><path d="M150.3,85.34 C180.4,102.3 216.5,122.65 250.73,141.93 " fill="none" id="IStartAzureSession&lt;-AzureCloudManager" style="stroke: #A80036; stroke-width: 1.0;"/><polygon fill="none" points="146.85,91.43,132.86,75.51,153.72,79.23,146.85,91.43" style="stroke: #A80036; stroke-width: 1.0;"/><!--MD5=[929101748fb9cd203682006127fb970c]
link AzureCloudManager to SpatialAnchorManager--><path d="M371.5,280.43 C371.5,299.64 371.5,319.47 371.5,334.87 " fill="none" id="AzureCloudManager-&gt;SpatialAnchorManager" style="stroke: #A80036; stroke-width: 1.0;"/><polygon fill="#A80036" points="371.5,339.92,375.5,330.92,371.5,334.92,367.5,330.92,371.5,339.92" style="stroke: #A80036; stroke-width: 1.0;"/><text fill="#000000" font-family="sans-serif" font-size="13" lengthAdjust="spacingAndGlyphs" textLength="97" x="262.0719" y="328.9115">_cloudManager</text><!--MD5=[5cf2541d0f897cd3d3a4e077ab68c104]
@startuml
interface IStartAzureSession {
    invoke() : Task
}
interface IAnchorRemover {
    + deleteNativeAnchor(anchorGameObject:GameObject) : void
    + deleteCloudAnchor(anchorGameObject:GameObject) : Task
}
class AzureCloudManager {
    {static} ANCHOR_TYPE_PROP : string = "ANCHOR_TYPE"
    + AzureCloudManager(cloudManager:SpatialAnchorManager)
    + <<async>> createCloudAnchor(gameObject:GameObject, propIndex:int) : Task<IAnchorCreator.Result>
    + createNativeAnchor(gameObject:GameObject) : void
    + <<async>> invoke() : Task
    + deleteNativeAnchor(anchorGameObject:GameObject) : void
    + <<async>> deleteCloudAnchor(anchorGameObject:GameObject) : Task
}
IAnchorCreator <|- - AzureCloudManager
IAnchorRemover <|- - AzureCloudManager
IStartAzureSession <|- - AzureCloudManager
AzureCloudManager - -> "_cloudManager" SpatialAnchorManager
@enduml

PlantUML version 1.2020.02(Sun Mar 01 10:22:07 GMT 2020)
(GPL source distribution)
Java Runtime: OpenJDK Runtime Environment
JVM: OpenJDK 64-Bit Server VM
Java Version: 11.0.9+11-Ubuntu-0ubuntu1
Operating System: Linux
Default Encoding: ANSI_X3.4-1968
Language: en
Country: US
--></g></svg>