<?xml version="1.0" encoding="UTF-8" standalone="no"?><svg xmlns="http://www.w3.org/2000/svg" xmlns:xlink="http://www.w3.org/1999/xlink" contentScriptType="application/ecmascript" contentStyleType="text/css" height="360px" preserveAspectRatio="none" style="width:788px;height:360px;" version="1.1" viewBox="0 0 788 360" width="788px" zoomAndPan="magnify"><defs><filter height="300%" id="f1kyvr9yh5kw91" width="300%" x="-1" y="-1"><feGaussianBlur result="blurOut" stdDeviation="2.0"/><feColorMatrix in="blurOut" result="blurOut2" type="matrix" values="0 0 0 0 0 0 0 0 0 0 0 0 0 0 0 0 0 0 .4 0"/><feOffset dx="4.0" dy="4.0" in="blurOut2" result="blurOut3"/><feBlend in="SourceGraphic" in2="blurOut3" mode="normal"/></filter></defs><g><!--MD5=[9daae65267fdb2701d886177dc6bfe5b]
class IAnchorLocator--><rect fill="#FEFECE" filter="url(#f1kyvr9yh5kw91)" height="73.6094" id="IAnchorLocator" style="stroke: #A80036; stroke-width: 1.5;" width="319" x="105.5" y="8"/><ellipse cx="212.75" cy="24" fill="#B4A7E5" rx="11" ry="11" style="stroke: #A80036; stroke-width: 1.0;"/><path d="M208.6719,19.7656 L208.6719,17.6094 L216.0625,17.6094 L216.0625,19.7656 L213.5938,19.7656 L213.5938,27.8438 L216.0625,27.8438 L216.0625,30 L208.6719,30 L208.6719,27.8438 L211.1406,27.8438 L211.1406,19.7656 L208.6719,19.7656 Z "/><text fill="#000000" font-family="sans-serif" font-size="12" font-style="italic" lengthAdjust="spacingAndGlyphs" textLength="96" x="233.25" y="28.1543">IAnchorLocator</text><line style="stroke: #A80036; stroke-width: 1.5;" x1="106.5" x2="423.5" y1="40" y2="40"/><ellipse cx="116.5" cy="51" fill="none" rx="3" ry="3" style="stroke: #038048; stroke-width: 1.0;"/><text fill="#000000" font-family="sans-serif" font-size="11" lengthAdjust="spacingAndGlyphs" textLength="291" x="125.5" y="54.2104">«event» CloudAnchorLocated : CloudAnchorLocated</text><line style="stroke: #A80036; stroke-width: 1.5;" x1="106.5" x2="423.5" y1="60.8047" y2="60.8047"/><ellipse cx="116.5" cy="71.8047" fill="#84BE84" rx="3" ry="3" style="stroke: #038048; stroke-width: 1.0;"/><text fill="#000000" font-family="sans-serif" font-size="11" lengthAdjust="spacingAndGlyphs" textLength="293" x="125.5" y="75.0151">startLocatingAzureAnchors(idsToFind:string[]) : void</text><!--MD5=[4fe1761e74dd63095f086210a8d60e4e]
class AzureAnchorLocator--><rect fill="#FEFECE" filter="url(#f1kyvr9yh5kw91)" height="99.2188" id="AzureAnchorLocator" style="stroke: #A80036; stroke-width: 1.5;" width="356" x="6" y="142"/><ellipse cx="117.25" cy="158" fill="#ADD1B2" rx="11" ry="11" style="stroke: #A80036; stroke-width: 1.0;"/><path d="M120.2188,163.6406 Q119.6406,163.9375 119,164.0781 Q118.3594,164.2344 117.6563,164.2344 Q115.1563,164.2344 113.8281,162.5938 Q112.5156,160.9375 112.5156,157.8125 Q112.5156,154.6875 113.8281,153.0313 Q115.1563,151.375 117.6563,151.375 Q118.3594,151.375 119,151.5313 Q119.6563,151.6875 120.2188,151.9844 L120.2188,154.7031 Q119.5938,154.125 119,153.8594 Q118.4063,153.5781 117.7813,153.5781 Q116.4375,153.5781 115.75,154.6563 Q115.0625,155.7188 115.0625,157.8125 Q115.0625,159.9063 115.75,160.9844 Q116.4375,162.0469 117.7813,162.0469 Q118.4063,162.0469 119,161.7813 Q119.5938,161.5 120.2188,160.9219 L120.2188,163.6406 Z "/><text fill="#000000" font-family="sans-serif" font-size="12" lengthAdjust="spacingAndGlyphs" textLength="125" x="137.75" y="162.1543">AzureAnchorLocator</text><line style="stroke: #A80036; stroke-width: 1.5;" x1="7" x2="361" y1="174" y2="174"/><text fill="#000000" font-family="sans-serif" font-size="11" lengthAdjust="spacingAndGlyphs" text-decoration="underline" textLength="270" x="26" y="188.2104">ANCHOR_TYPE_PROP : string = "ANCHOR_TYPE"</text><ellipse cx="17" cy="197.8047" fill="none" rx="3" ry="3" style="stroke: #038048; stroke-width: 1.0;"/><text fill="#000000" font-family="sans-serif" font-size="11" lengthAdjust="spacingAndGlyphs" textLength="291" x="26" y="201.0151">«event» CloudAnchorLocated : CloudAnchorLocated</text><line style="stroke: #A80036; stroke-width: 1.5;" x1="7" x2="361" y1="207.6094" y2="207.6094"/><ellipse cx="17" cy="218.6094" fill="#84BE84" rx="3" ry="3" style="stroke: #038048; stroke-width: 1.0;"/><text fill="#000000" font-family="sans-serif" font-size="11" lengthAdjust="spacingAndGlyphs" textLength="330" x="26" y="221.8198">AzureAnchorLocator(cloudManager:SpatialAnchorManager)</text><ellipse cx="17" cy="231.4141" fill="#84BE84" rx="3" ry="3" style="stroke: #038048; stroke-width: 1.0;"/><text fill="#000000" font-family="sans-serif" font-size="11" lengthAdjust="spacingAndGlyphs" textLength="293" x="26" y="234.6245">startLocatingAzureAnchors(idsToFind:string[]) : void</text><!--MD5=[ca18a607c5af9d689a748aca6cb709f8]
class CloudAnchorLocatedArgs--><rect fill="#FEFECE" filter="url(#f1kyvr9yh5kw91)" height="86.4141" id="CloudAnchorLocatedArgs" style="stroke: #A80036; stroke-width: 1.5;" width="380" x="397" y="148.5"/><ellipse cx="504.25" cy="164.5" fill="#ADD1B2" rx="11" ry="11" style="stroke: #A80036; stroke-width: 1.0;"/><path d="M507.2188,170.1406 Q506.6406,170.4375 506,170.5781 Q505.3594,170.7344 504.6563,170.7344 Q502.1563,170.7344 500.8281,169.0938 Q499.5156,167.4375 499.5156,164.3125 Q499.5156,161.1875 500.8281,159.5313 Q502.1563,157.875 504.6563,157.875 Q505.3594,157.875 506,158.0313 Q506.6563,158.1875 507.2188,158.4844 L507.2188,161.2031 Q506.5938,160.625 506,160.3594 Q505.4063,160.0781 504.7813,160.0781 Q503.4375,160.0781 502.75,161.1563 Q502.0625,162.2188 502.0625,164.3125 Q502.0625,166.4063 502.75,167.4844 Q503.4375,168.5469 504.7813,168.5469 Q505.4063,168.5469 506,168.2813 Q506.5938,168 507.2188,167.4219 L507.2188,170.1406 Z "/><text fill="#000000" font-family="sans-serif" font-size="12" lengthAdjust="spacingAndGlyphs" textLength="157" x="524.75" y="168.6543">CloudAnchorLocatedArgs</text><line style="stroke: #A80036; stroke-width: 1.5;" x1="398" x2="776" y1="180.5" y2="180.5"/><ellipse cx="408" cy="191.5" fill="none" rx="3" ry="3" style="stroke: #038048; stroke-width: 1.0;"/><text fill="#000000" font-family="sans-serif" font-size="11" lengthAdjust="spacingAndGlyphs" textLength="86" x="417" y="194.7104">type : int «get»</text><ellipse cx="408" cy="204.3047" fill="none" rx="3" ry="3" style="stroke: #038048; stroke-width: 1.0;"/><text fill="#000000" font-family="sans-serif" font-size="11" lengthAdjust="spacingAndGlyphs" textLength="131" x="417" y="207.5151">identifier : string «get»</text><line style="stroke: #A80036; stroke-width: 1.5;" x1="398" x2="776" y1="214.1094" y2="214.1094"/><ellipse cx="408" cy="225.1094" fill="#84BE84" rx="3" ry="3" style="stroke: #038048; stroke-width: 1.0;"/><text fill="#000000" font-family="sans-serif" font-size="11" lengthAdjust="spacingAndGlyphs" textLength="354" x="417" y="228.3198">CloudAnchorLocatedArgs(pose:Pose, type:int, identifier:string)</text><!--MD5=[a0c64bc48bcbcdbd0554e43be2e35653]
class SpatialAnchorManager--><rect fill="#FEFECE" filter="url(#f1kyvr9yh5kw91)" height="48" id="SpatialAnchorManager" style="stroke: #A80036; stroke-width: 1.5;" width="174" x="97" y="301"/><ellipse cx="112" cy="317" fill="#ADD1B2" rx="11" ry="11" style="stroke: #A80036; stroke-width: 1.0;"/><path d="M114.9688,322.6406 Q114.3906,322.9375 113.75,323.0781 Q113.1094,323.2344 112.4063,323.2344 Q109.9063,323.2344 108.5781,321.5938 Q107.2656,319.9375 107.2656,316.8125 Q107.2656,313.6875 108.5781,312.0313 Q109.9063,310.375 112.4063,310.375 Q113.1094,310.375 113.75,310.5313 Q114.4063,310.6875 114.9688,310.9844 L114.9688,313.7031 Q114.3438,313.125 113.75,312.8594 Q113.1563,312.5781 112.5313,312.5781 Q111.1875,312.5781 110.5,313.6563 Q109.8125,314.7188 109.8125,316.8125 Q109.8125,318.9063 110.5,319.9844 Q111.1875,321.0469 112.5313,321.0469 Q113.1563,321.0469 113.75,320.7813 Q114.3438,320.5 114.9688,319.9219 L114.9688,322.6406 Z "/><text fill="#000000" font-family="sans-serif" font-size="12" lengthAdjust="spacingAndGlyphs" textLength="142" x="126" y="321.1543">SpatialAnchorManager</text><line style="stroke: #A80036; stroke-width: 1.5;" x1="98" x2="270" y1="333" y2="333"/><line style="stroke: #A80036; stroke-width: 1.5;" x1="98" x2="270" y1="341" y2="341"/><!--MD5=[1c14bf0385f8259d3eee07ec9ae2327d]
class EventArgs--><rect fill="#FEFECE" filter="url(#f1kyvr9yh5kw91)" height="48" id="EventArgs" style="stroke: #A80036; stroke-width: 1.5;" width="95" x="539.5" y="21"/><ellipse cx="554.5" cy="37" fill="#ADD1B2" rx="11" ry="11" style="stroke: #A80036; stroke-width: 1.0;"/><path d="M557.4688,42.6406 Q556.8906,42.9375 556.25,43.0781 Q555.6094,43.2344 554.9063,43.2344 Q552.4063,43.2344 551.0781,41.5938 Q549.7656,39.9375 549.7656,36.8125 Q549.7656,33.6875 551.0781,32.0313 Q552.4063,30.375 554.9063,30.375 Q555.6094,30.375 556.25,30.5313 Q556.9063,30.6875 557.4688,30.9844 L557.4688,33.7031 Q556.8438,33.125 556.25,32.8594 Q555.6563,32.5781 555.0313,32.5781 Q553.6875,32.5781 553,33.6563 Q552.3125,34.7188 552.3125,36.8125 Q552.3125,38.9063 553,39.9844 Q553.6875,41.0469 555.0313,41.0469 Q555.6563,41.0469 556.25,40.7813 Q556.8438,40.5 557.4688,39.9219 L557.4688,42.6406 Z "/><text fill="#000000" font-family="sans-serif" font-size="12" lengthAdjust="spacingAndGlyphs" textLength="63" x="568.5" y="41.1543">EventArgs</text><line style="stroke: #A80036; stroke-width: 1.5;" x1="540.5" x2="633.5" y1="53" y2="53"/><line style="stroke: #A80036; stroke-width: 1.5;" x1="540.5" x2="633.5" y1="61" y2="61"/><!--MD5=[b9d2ae19c81790848eb39c80825341ca]
class Pose--><rect fill="#FEFECE" filter="url(#f1kyvr9yh5kw91)" height="48" id="Pose" style="stroke: #A80036; stroke-width: 1.5;" width="63" x="555.5" y="301"/><ellipse cx="570.5" cy="317" fill="#ADD1B2" rx="11" ry="11" style="stroke: #A80036; stroke-width: 1.0;"/><path d="M573.4688,322.6406 Q572.8906,322.9375 572.25,323.0781 Q571.6094,323.2344 570.9063,323.2344 Q568.4063,323.2344 567.0781,321.5938 Q565.7656,319.9375 565.7656,316.8125 Q565.7656,313.6875 567.0781,312.0313 Q568.4063,310.375 570.9063,310.375 Q571.6094,310.375 572.25,310.5313 Q572.9063,310.6875 573.4688,310.9844 L573.4688,313.7031 Q572.8438,313.125 572.25,312.8594 Q571.6563,312.5781 571.0313,312.5781 Q569.6875,312.5781 569,313.6563 Q568.3125,314.7188 568.3125,316.8125 Q568.3125,318.9063 569,319.9844 Q569.6875,321.0469 571.0313,321.0469 Q571.6563,321.0469 572.25,320.7813 Q572.8438,320.5 573.4688,319.9219 L573.4688,322.6406 Z "/><text fill="#000000" font-family="sans-serif" font-size="12" lengthAdjust="spacingAndGlyphs" textLength="31" x="584.5" y="321.1543">Pose</text><line style="stroke: #A80036; stroke-width: 1.5;" x1="556.5" x2="617.5" y1="333" y2="333"/><line style="stroke: #A80036; stroke-width: 1.5;" x1="556.5" x2="617.5" y1="341" y2="341"/><!--MD5=[54a80afd5b084d63c23e8bcc82c4fbf3]
reverse link IAnchorLocator to AzureAnchorLocator--><path d="M234.99,99.54 C227.23,113.38 218.91,128.22 211.3,141.8 " fill="none" id="IAnchorLocator&lt;-AzureAnchorLocator" style="stroke: #A80036; stroke-width: 1.0;"/><polygon fill="none" points="228.88,96.11,244.77,82.09,241.1,102.96,228.88,96.11" style="stroke: #A80036; stroke-width: 1.0;"/><!--MD5=[fe776038c7c2efc311152bd2b3d1bd81]
link AzureAnchorLocator to SpatialAnchorManager--><path d="M184,241.09 C184,259.5 184,279.83 184,295.75 " fill="none" id="AzureAnchorLocator-&gt;SpatialAnchorManager" style="stroke: #A80036; stroke-width: 1.0;"/><polygon fill="#A80036" points="184,300.98,188,291.98,184,295.98,180,291.98,184,300.98" style="stroke: #A80036; stroke-width: 1.0;"/><text fill="#000000" font-family="sans-serif" font-size="13" lengthAdjust="spacingAndGlyphs" textLength="97" x="74.5719" y="289.9869">_cloudManager</text><!--MD5=[65a2979958945778021b264968e97c0d]
reverse link IAnchorLocator to CloudAnchorLocatedArgs--><path d="M359.15,88.25 C401.41,107.22 451.14,129.53 493.34,148.47 " fill="none" id="IAnchorLocator&lt;-CloudAnchorLocatedArgs" style="stroke: #A80036; stroke-width: 1.0;"/><ellipse cx="352.7185" cy="85.3659" fill="#FFFFFF" rx="8" ry="8" style="stroke: #A80036; stroke-width: 1.0;"/><line style="stroke: #A80036; stroke-width: 1.0;" x1="360.017" x2="345.42" y1="88.6419" y2="82.09"/><line style="stroke: #A80036; stroke-width: 1.0;" x1="349.4426" x2="355.9945" y1="92.6645" y2="78.0674"/><!--MD5=[fd63d0d4ceb1a818e7e37eb3675d6739]
reverse link EventArgs to CloudAnchorLocatedArgs--><path d="M587,89.37 C587,108.06 587,129.84 587,148.4 " fill="none" id="EventArgs&lt;-CloudAnchorLocatedArgs" style="stroke: #A80036; stroke-width: 1.0;"/><polygon fill="none" points="580,89.22,587,69.22,594,89.22,580,89.22" style="stroke: #A80036; stroke-width: 1.0;"/><!--MD5=[f81f4ac5b4c957d68b96ac5a27a7c49f]
link CloudAnchorLocatedArgs to Pose--><path d="M587,234.83 C587,254.7 587,277.85 587,295.58 " fill="none" id="CloudAnchorLocatedArgs-&gt;Pose" style="stroke: #A80036; stroke-width: 1.0;"/><polygon fill="#A80036" points="587,300.9,591,291.9,587,295.9,583,291.9,587,300.9" style="stroke: #A80036; stroke-width: 1.0;"/><text fill="#000000" font-family="sans-serif" font-size="13" lengthAdjust="spacingAndGlyphs" textLength="31" x="552.0281" y="289.8864">pose</text><!--MD5=[4ae64a30ce99e1dd520c9c470254ec65]
@startuml
interface IAnchorLocator {
    +  <<event>> CloudAnchorLocated : CloudAnchorLocated 
    + startLocatingAzureAnchors(idsToFind:string[]) : void
}
class AzureAnchorLocator {
    {static} ANCHOR_TYPE_PROP : string = "ANCHOR_TYPE"
    + AzureAnchorLocator(cloudManager:SpatialAnchorManager)
    +  <<event>> CloudAnchorLocated : CloudAnchorLocated 
    + startLocatingAzureAnchors(idsToFind:string[]) : void
}
class CloudAnchorLocatedArgs {
    + type : int <<get>>
    + identifier : string <<get>>
    + CloudAnchorLocatedArgs(pose:Pose, type:int, identifier:string)
}
IAnchorLocator <|- - AzureAnchorLocator
AzureAnchorLocator - -> "_cloudManager" SpatialAnchorManager
IAnchorLocator +- - CloudAnchorLocatedArgs
EventArgs <|- - CloudAnchorLocatedArgs
CloudAnchorLocatedArgs - -> "pose" Pose
@enduml

PlantUML version 1.2020.02(Sun Mar 01 10:22:07 GMT 2020)
(GPL source distribution)
Java Runtime: OpenJDK Runtime Environment
JVM: OpenJDK 64-Bit Server VM
Java Version: 11.0.9+11-Ubuntu-0ubuntu1
Operating System: Linux
Default Encoding: ANSI_X3.4-1968
Language: en
Country: US
--></g></svg>