<?xml version="1.0" encoding="UTF-8" standalone="no"?><svg xmlns="http://www.w3.org/2000/svg" xmlns:xlink="http://www.w3.org/1999/xlink" contentScriptType="application/ecmascript" contentStyleType="text/css" height="399px" preserveAspectRatio="none" style="width:873px;height:399px;" version="1.1" viewBox="0 0 873 399" width="873px" zoomAndPan="magnify"><defs><filter height="300%" id="fy8hlj1lowdum" width="300%" x="-1" y="-1"><feGaussianBlur result="blurOut" stdDeviation="2.0"/><feColorMatrix in="blurOut" result="blurOut2" type="matrix" values="0 0 0 0 0 0 0 0 0 0 0 0 0 0 0 0 0 0 .4 0"/><feOffset dx="4.0" dy="4.0" in="blurOut2" result="blurOut3"/><feBlend in="SourceGraphic" in2="blurOut3" mode="normal"/></filter></defs><g><!--MD5=[9daae65267fdb2701d886177dc6bfe5b]
class IAnchorLocator--><rect fill="#FEFECE" filter="url(#fy8hlj1lowdum)" height="73.6094" id="IAnchorLocator" style="stroke: #A80036; stroke-width: 1.5;" width="319" x="126.5" y="8"/><ellipse cx="233.75" cy="24" fill="#B4A7E5" rx="11" ry="11" style="stroke: #A80036; stroke-width: 1.0;"/><path d="M229.6719,19.7656 L229.6719,17.6094 L237.0625,17.6094 L237.0625,19.7656 L234.5938,19.7656 L234.5938,27.8438 L237.0625,27.8438 L237.0625,30 L229.6719,30 L229.6719,27.8438 L232.1406,27.8438 L232.1406,19.7656 L229.6719,19.7656 Z "/><text fill="#000000" font-family="sans-serif" font-size="12" font-style="italic" lengthAdjust="spacingAndGlyphs" textLength="96" x="254.25" y="28.1543">IAnchorLocator</text><line style="stroke: #A80036; stroke-width: 1.5;" x1="127.5" x2="444.5" y1="40" y2="40"/><ellipse cx="137.5" cy="51" fill="none" rx="3" ry="3" style="stroke: #038048; stroke-width: 1.0;"/><text fill="#000000" font-family="sans-serif" font-size="11" lengthAdjust="spacingAndGlyphs" textLength="291" x="146.5" y="54.2104">«event» CloudAnchorLocated : CloudAnchorLocated</text><line style="stroke: #A80036; stroke-width: 1.5;" x1="127.5" x2="444.5" y1="60.8047" y2="60.8047"/><ellipse cx="137.5" cy="71.8047" fill="#84BE84" rx="3" ry="3" style="stroke: #038048; stroke-width: 1.0;"/><text fill="#000000" font-family="sans-serif" font-size="11" lengthAdjust="spacingAndGlyphs" textLength="293" x="146.5" y="75.0151">startLocatingAzureAnchors(idsToFind:string[]) : void</text><!--MD5=[4fe1761e74dd63095f086210a8d60e4e]
class AzureAnchorLocator--><rect fill="#FEFECE" filter="url(#fy8hlj1lowdum)" height="137.6328" id="AzureAnchorLocator" style="stroke: #A80036; stroke-width: 1.5;" width="356" x="6" y="142"/><ellipse cx="117.25" cy="158" fill="#ADD1B2" rx="11" ry="11" style="stroke: #A80036; stroke-width: 1.0;"/><path d="M120.2188,163.6406 Q119.6406,163.9375 119,164.0781 Q118.3594,164.2344 117.6563,164.2344 Q115.1563,164.2344 113.8281,162.5938 Q112.5156,160.9375 112.5156,157.8125 Q112.5156,154.6875 113.8281,153.0313 Q115.1563,151.375 117.6563,151.375 Q118.3594,151.375 119,151.5313 Q119.6563,151.6875 120.2188,151.9844 L120.2188,154.7031 Q119.5938,154.125 119,153.8594 Q118.4063,153.5781 117.7813,153.5781 Q116.4375,153.5781 115.75,154.6563 Q115.0625,155.7188 115.0625,157.8125 Q115.0625,159.9063 115.75,160.9844 Q116.4375,162.0469 117.7813,162.0469 Q118.4063,162.0469 119,161.7813 Q119.5938,161.5 120.2188,160.9219 L120.2188,163.6406 Z "/><text fill="#000000" font-family="sans-serif" font-size="12" lengthAdjust="spacingAndGlyphs" textLength="125" x="137.75" y="162.1543">AzureAnchorLocator</text><line style="stroke: #A80036; stroke-width: 1.5;" x1="7" x2="361" y1="174" y2="174"/><text fill="#000000" font-family="sans-serif" font-size="11" lengthAdjust="spacingAndGlyphs" text-decoration="underline" textLength="270" x="26" y="188.2104">ANCHOR_TYPE_PROP : string = "ANCHOR_TYPE"</text><text fill="#000000" font-family="sans-serif" font-size="11" lengthAdjust="spacingAndGlyphs" text-decoration="underline" textLength="276" x="26" y="201.0151">ANCHOR_SCALE_X : string = "ANCHOR_SCALE_X"</text><text fill="#000000" font-family="sans-serif" font-size="11" lengthAdjust="spacingAndGlyphs" text-decoration="underline" textLength="276" x="26" y="213.8198">ANCHOR_SCALE_Y : string = "ANCHOR_SCALE_Y"</text><text fill="#000000" font-family="sans-serif" font-size="11" lengthAdjust="spacingAndGlyphs" text-decoration="underline" textLength="280" x="26" y="226.6245">ANCHOR_SCALE_Z : string = "ANCHOR_SCALE_Z"</text><ellipse cx="17" cy="236.2188" fill="none" rx="3" ry="3" style="stroke: #038048; stroke-width: 1.0;"/><text fill="#000000" font-family="sans-serif" font-size="11" lengthAdjust="spacingAndGlyphs" textLength="291" x="26" y="239.4292">«event» CloudAnchorLocated : CloudAnchorLocated</text><line style="stroke: #A80036; stroke-width: 1.5;" x1="7" x2="361" y1="246.0234" y2="246.0234"/><ellipse cx="17" cy="257.0234" fill="#84BE84" rx="3" ry="3" style="stroke: #038048; stroke-width: 1.0;"/><text fill="#000000" font-family="sans-serif" font-size="11" lengthAdjust="spacingAndGlyphs" textLength="330" x="26" y="260.2339">AzureAnchorLocator(cloudManager:SpatialAnchorManager)</text><ellipse cx="17" cy="269.8281" fill="#84BE84" rx="3" ry="3" style="stroke: #038048; stroke-width: 1.0;"/><text fill="#000000" font-family="sans-serif" font-size="11" lengthAdjust="spacingAndGlyphs" textLength="293" x="26" y="273.0386">startLocatingAzureAnchors(idsToFind:string[]) : void</text><!--MD5=[ca18a607c5af9d689a748aca6cb709f8]
class CloudAnchorLocatedArgs--><rect fill="#FEFECE" filter="url(#fy8hlj1lowdum)" height="86.4141" id="CloudAnchorLocatedArgs" style="stroke: #A80036; stroke-width: 1.5;" width="465" x="397.5" y="168"/><ellipse cx="547.25" cy="184" fill="#ADD1B2" rx="11" ry="11" style="stroke: #A80036; stroke-width: 1.0;"/><path d="M550.2188,189.6406 Q549.6406,189.9375 549,190.0781 Q548.3594,190.2344 547.6563,190.2344 Q545.1563,190.2344 543.8281,188.5938 Q542.5156,186.9375 542.5156,183.8125 Q542.5156,180.6875 543.8281,179.0313 Q545.1563,177.375 547.6563,177.375 Q548.3594,177.375 549,177.5313 Q549.6563,177.6875 550.2188,177.9844 L550.2188,180.7031 Q549.5938,180.125 549,179.8594 Q548.4063,179.5781 547.7813,179.5781 Q546.4375,179.5781 545.75,180.6563 Q545.0625,181.7188 545.0625,183.8125 Q545.0625,185.9063 545.75,186.9844 Q546.4375,188.0469 547.7813,188.0469 Q548.4063,188.0469 549,187.7813 Q549.5938,187.5 550.2188,186.9219 L550.2188,189.6406 Z "/><text fill="#000000" font-family="sans-serif" font-size="12" lengthAdjust="spacingAndGlyphs" textLength="157" x="567.75" y="188.1543">CloudAnchorLocatedArgs</text><line style="stroke: #A80036; stroke-width: 1.5;" x1="398.5" x2="861.5" y1="200" y2="200"/><ellipse cx="408.5" cy="211" fill="none" rx="3" ry="3" style="stroke: #038048; stroke-width: 1.0;"/><text fill="#000000" font-family="sans-serif" font-size="11" lengthAdjust="spacingAndGlyphs" textLength="86" x="417.5" y="214.2104">type : int «get»</text><ellipse cx="408.5" cy="223.8047" fill="none" rx="3" ry="3" style="stroke: #038048; stroke-width: 1.0;"/><text fill="#000000" font-family="sans-serif" font-size="11" lengthAdjust="spacingAndGlyphs" textLength="131" x="417.5" y="227.0151">identifier : string «get»</text><line style="stroke: #A80036; stroke-width: 1.5;" x1="398.5" x2="861.5" y1="233.6094" y2="233.6094"/><ellipse cx="408.5" cy="244.6094" fill="#84BE84" rx="3" ry="3" style="stroke: #038048; stroke-width: 1.0;"/><text fill="#000000" font-family="sans-serif" font-size="11" lengthAdjust="spacingAndGlyphs" textLength="439" x="417.5" y="247.8198">CloudAnchorLocatedArgs(pose:Pose, type:int, identifier:string, scale:Vector3)</text><!--MD5=[a0c64bc48bcbcdbd0554e43be2e35653]
class SpatialAnchorManager--><rect fill="#FEFECE" filter="url(#fy8hlj1lowdum)" height="48" id="SpatialAnchorManager" style="stroke: #A80036; stroke-width: 1.5;" width="174" x="97" y="340"/><ellipse cx="112" cy="356" fill="#ADD1B2" rx="11" ry="11" style="stroke: #A80036; stroke-width: 1.0;"/><path d="M114.9688,361.6406 Q114.3906,361.9375 113.75,362.0781 Q113.1094,362.2344 112.4063,362.2344 Q109.9063,362.2344 108.5781,360.5938 Q107.2656,358.9375 107.2656,355.8125 Q107.2656,352.6875 108.5781,351.0313 Q109.9063,349.375 112.4063,349.375 Q113.1094,349.375 113.75,349.5313 Q114.4063,349.6875 114.9688,349.9844 L114.9688,352.7031 Q114.3438,352.125 113.75,351.8594 Q113.1563,351.5781 112.5313,351.5781 Q111.1875,351.5781 110.5,352.6563 Q109.8125,353.7188 109.8125,355.8125 Q109.8125,357.9063 110.5,358.9844 Q111.1875,360.0469 112.5313,360.0469 Q113.1563,360.0469 113.75,359.7813 Q114.3438,359.5 114.9688,358.9219 L114.9688,361.6406 Z "/><text fill="#000000" font-family="sans-serif" font-size="12" lengthAdjust="spacingAndGlyphs" textLength="142" x="126" y="360.1543">SpatialAnchorManager</text><line style="stroke: #A80036; stroke-width: 1.5;" x1="98" x2="270" y1="372" y2="372"/><line style="stroke: #A80036; stroke-width: 1.5;" x1="98" x2="270" y1="380" y2="380"/><!--MD5=[1c14bf0385f8259d3eee07ec9ae2327d]
class EventArgs--><rect fill="#FEFECE" filter="url(#fy8hlj1lowdum)" height="48" id="EventArgs" style="stroke: #A80036; stroke-width: 1.5;" width="95" x="582.5" y="21"/><ellipse cx="597.5" cy="37" fill="#ADD1B2" rx="11" ry="11" style="stroke: #A80036; stroke-width: 1.0;"/><path d="M600.4688,42.6406 Q599.8906,42.9375 599.25,43.0781 Q598.6094,43.2344 597.9063,43.2344 Q595.4063,43.2344 594.0781,41.5938 Q592.7656,39.9375 592.7656,36.8125 Q592.7656,33.6875 594.0781,32.0313 Q595.4063,30.375 597.9063,30.375 Q598.6094,30.375 599.25,30.5313 Q599.9063,30.6875 600.4688,30.9844 L600.4688,33.7031 Q599.8438,33.125 599.25,32.8594 Q598.6563,32.5781 598.0313,32.5781 Q596.6875,32.5781 596,33.6563 Q595.3125,34.7188 595.3125,36.8125 Q595.3125,38.9063 596,39.9844 Q596.6875,41.0469 598.0313,41.0469 Q598.6563,41.0469 599.25,40.7813 Q599.8438,40.5 600.4688,39.9219 L600.4688,42.6406 Z "/><text fill="#000000" font-family="sans-serif" font-size="12" lengthAdjust="spacingAndGlyphs" textLength="63" x="611.5" y="41.1543">EventArgs</text><line style="stroke: #A80036; stroke-width: 1.5;" x1="583.5" x2="676.5" y1="53" y2="53"/><line style="stroke: #A80036; stroke-width: 1.5;" x1="583.5" x2="676.5" y1="61" y2="61"/><!--MD5=[b9d2ae19c81790848eb39c80825341ca]
class Pose--><rect fill="#FEFECE" filter="url(#fy8hlj1lowdum)" height="48" id="Pose" style="stroke: #A80036; stroke-width: 1.5;" width="63" x="544.5" y="340"/><ellipse cx="559.5" cy="356" fill="#ADD1B2" rx="11" ry="11" style="stroke: #A80036; stroke-width: 1.0;"/><path d="M562.4688,361.6406 Q561.8906,361.9375 561.25,362.0781 Q560.6094,362.2344 559.9063,362.2344 Q557.4063,362.2344 556.0781,360.5938 Q554.7656,358.9375 554.7656,355.8125 Q554.7656,352.6875 556.0781,351.0313 Q557.4063,349.375 559.9063,349.375 Q560.6094,349.375 561.25,349.5313 Q561.9063,349.6875 562.4688,349.9844 L562.4688,352.7031 Q561.8438,352.125 561.25,351.8594 Q560.6563,351.5781 560.0313,351.5781 Q558.6875,351.5781 558,352.6563 Q557.3125,353.7188 557.3125,355.8125 Q557.3125,357.9063 558,358.9844 Q558.6875,360.0469 560.0313,360.0469 Q560.6563,360.0469 561.25,359.7813 Q561.8438,359.5 562.4688,358.9219 L562.4688,361.6406 Z "/><text fill="#000000" font-family="sans-serif" font-size="12" lengthAdjust="spacingAndGlyphs" textLength="31" x="573.5" y="360.1543">Pose</text><line style="stroke: #A80036; stroke-width: 1.5;" x1="545.5" x2="606.5" y1="372" y2="372"/><line style="stroke: #A80036; stroke-width: 1.5;" x1="545.5" x2="606.5" y1="380" y2="380"/><!--MD5=[65d619c042c23702cef2ca07d67b1cf6]
class Vector3--><rect fill="#FEFECE" filter="url(#fy8hlj1lowdum)" height="48" id="Vector3" style="stroke: #A80036; stroke-width: 1.5;" width="81" x="642.5" y="340"/><ellipse cx="657.5" cy="356" fill="#ADD1B2" rx="11" ry="11" style="stroke: #A80036; stroke-width: 1.0;"/><path d="M660.4688,361.6406 Q659.8906,361.9375 659.25,362.0781 Q658.6094,362.2344 657.9063,362.2344 Q655.4063,362.2344 654.0781,360.5938 Q652.7656,358.9375 652.7656,355.8125 Q652.7656,352.6875 654.0781,351.0313 Q655.4063,349.375 657.9063,349.375 Q658.6094,349.375 659.25,349.5313 Q659.9063,349.6875 660.4688,349.9844 L660.4688,352.7031 Q659.8438,352.125 659.25,351.8594 Q658.6563,351.5781 658.0313,351.5781 Q656.6875,351.5781 656,352.6563 Q655.3125,353.7188 655.3125,355.8125 Q655.3125,357.9063 656,358.9844 Q656.6875,360.0469 658.0313,360.0469 Q658.6563,360.0469 659.25,359.7813 Q659.8438,359.5 660.4688,358.9219 L660.4688,361.6406 Z "/><text fill="#000000" font-family="sans-serif" font-size="12" lengthAdjust="spacingAndGlyphs" textLength="49" x="671.5" y="360.1543">Vector3</text><line style="stroke: #A80036; stroke-width: 1.5;" x1="643.5" x2="722.5" y1="372" y2="372"/><line style="stroke: #A80036; stroke-width: 1.5;" x1="643.5" x2="722.5" y1="380" y2="380"/><!--MD5=[54a80afd5b084d63c23e8bcc82c4fbf3]
reverse link IAnchorLocator to AzureAnchorLocator--><path d="M252.55,99.79 C244.22,113.18 235.18,127.71 226.48,141.7 " fill="none" id="IAnchorLocator&lt;-AzureAnchorLocator" style="stroke: #A80036; stroke-width: 1.0;"/><polygon fill="none" points="246.86,95.68,263.36,82.4,258.74,103.08,246.86,95.68" style="stroke: #A80036; stroke-width: 1.0;"/><!--MD5=[fe776038c7c2efc311152bd2b3d1bd81]
link AzureAnchorLocator to SpatialAnchorManager--><path d="M184,280.43 C184,299.64 184,319.47 184,334.87 " fill="none" id="AzureAnchorLocator-&gt;SpatialAnchorManager" style="stroke: #A80036; stroke-width: 1.0;"/><polygon fill="#A80036" points="184,339.92,188,330.92,184,334.92,180,330.92,184,339.92" style="stroke: #A80036; stroke-width: 1.0;"/><text fill="#000000" font-family="sans-serif" font-size="13" lengthAdjust="spacingAndGlyphs" textLength="97" x="74.5719" y="328.9115">_cloudManager</text><!--MD5=[65a2979958945778021b264968e97c0d]
reverse link IAnchorLocator to CloudAnchorLocatedArgs--><path d="M375.66,88.75 C426.88,113.16 490.85,143.66 541.82,167.96 " fill="none" id="IAnchorLocator&lt;-CloudAnchorLocatedArgs" style="stroke: #A80036; stroke-width: 1.0;"/><ellipse cx="369.1412" cy="85.633" fill="#FFFFFF" rx="8" ry="8" style="stroke: #A80036; stroke-width: 1.0;"/><line style="stroke: #A80036; stroke-width: 1.0;" x1="376.3624" x2="361.92" y1="89.076" y2="82.19"/><line style="stroke: #A80036; stroke-width: 1.0;" x1="365.6982" x2="372.5842" y1="92.8542" y2="78.4118"/><!--MD5=[fd63d0d4ceb1a818e7e37eb3675d6739]
reverse link EventArgs to CloudAnchorLocatedArgs--><path d="M630,89.48 C630,113.77 630,143.91 630,167.96 " fill="none" id="EventArgs&lt;-CloudAnchorLocatedArgs" style="stroke: #A80036; stroke-width: 1.0;"/><polygon fill="none" points="623,89.15,630,69.15,637,89.15,623,89.15" style="stroke: #A80036; stroke-width: 1.0;"/><!--MD5=[f81f4ac5b4c957d68b96ac5a27a7c49f]
link CloudAnchorLocatedArgs to Pose--><path d="M614.96,254.06 C605.73,279.86 594.17,312.19 586.05,334.9 " fill="none" id="CloudAnchorLocatedArgs-&gt;Pose" style="stroke: #A80036; stroke-width: 1.0;"/><polygon fill="#A80036" points="584.27,339.88,591.0667,332.7523,585.9535,335.1719,583.5338,330.0587,584.27,339.88" style="stroke: #A80036; stroke-width: 1.0;"/><text fill="#000000" font-family="sans-serif" font-size="13" lengthAdjust="spacingAndGlyphs" textLength="31" x="551.4173" y="328.8613">pose</text><!--MD5=[c6a3eeb6167f054812ef2ecb6a53861c]
link CloudAnchorLocatedArgs to Vector3--><path d="M644.76,254.06 C653.82,279.86 665.17,312.19 673.14,334.9 " fill="none" id="CloudAnchorLocatedArgs-&gt;Vector3" style="stroke: #A80036; stroke-width: 1.0;"/><polygon fill="#A80036" points="674.89,339.88,675.679,330.0628,673.2319,335.1629,668.1317,332.7158,674.89,339.88" style="stroke: #A80036; stroke-width: 1.0;"/><text fill="#000000" font-family="sans-serif" font-size="13" lengthAdjust="spacingAndGlyphs" textLength="33" x="635.5837" y="328.8613">scale</text><!--MD5=[5aa27e054dad89bd94bcbab6fb2e0d2a]
@startuml
interface IAnchorLocator {
    +  <<event>> CloudAnchorLocated : CloudAnchorLocated 
    + startLocatingAzureAnchors(idsToFind:string[]) : void
}
class AzureAnchorLocator {
    {static} ANCHOR_TYPE_PROP : string = "ANCHOR_TYPE"
    {static} ANCHOR_SCALE_X : string = "ANCHOR_SCALE_X"
    {static} ANCHOR_SCALE_Y : string = "ANCHOR_SCALE_Y"
    {static} ANCHOR_SCALE_Z : string = "ANCHOR_SCALE_Z"
    + AzureAnchorLocator(cloudManager:SpatialAnchorManager)
    +  <<event>> CloudAnchorLocated : CloudAnchorLocated 
    + startLocatingAzureAnchors(idsToFind:string[]) : void
}
class CloudAnchorLocatedArgs {
    + type : int <<get>>
    + identifier : string <<get>>
    + CloudAnchorLocatedArgs(pose:Pose, type:int, identifier:string, scale:Vector3)
}
IAnchorLocator <|- - AzureAnchorLocator
AzureAnchorLocator - -> "_cloudManager" SpatialAnchorManager
IAnchorLocator +- - CloudAnchorLocatedArgs
EventArgs <|- - CloudAnchorLocatedArgs
CloudAnchorLocatedArgs - -> "pose" Pose
CloudAnchorLocatedArgs - -> "scale" Vector3
@enduml

PlantUML version 1.2020.02(Sun Mar 01 10:22:07 GMT 2020)
(GPL source distribution)
Java Runtime: OpenJDK Runtime Environment
JVM: OpenJDK 64-Bit Server VM
Java Version: 11.0.9+11-Ubuntu-0ubuntu1
Operating System: Linux
Default Encoding: ANSI_X3.4-1968
Language: en
Country: US
--></g></svg>