<?xml version="1.0" encoding="UTF-8" standalone="no"?><svg xmlns="http://www.w3.org/2000/svg" xmlns:xlink="http://www.w3.org/1999/xlink" contentScriptType="application/ecmascript" contentStyleType="text/css" height="321px" preserveAspectRatio="none" style="width:1259px;height:321px;" version="1.1" viewBox="0 0 1259 321" width="1259px" zoomAndPan="magnify"><defs><filter height="300%" id="fxlkt2zducwnr" width="300%" x="-1" y="-1"><feGaussianBlur result="blurOut" stdDeviation="2.0"/><feColorMatrix in="blurOut" result="blurOut2" type="matrix" values="0 0 0 0 0 0 0 0 0 0 0 0 0 0 0 0 0 0 .4 0"/><feOffset dx="4.0" dy="4.0" in="blurOut2" result="blurOut3"/><feBlend in="SourceGraphic" in2="blurOut3" mode="normal"/></filter></defs><g><!--MD5=[1053962b7569b3638c162cc789817f72]
class MachineView--><rect fill="#FEFECE" filter="url(#fxlkt2zducwnr)" height="73.6094" id="MachineView" style="stroke: #A80036; stroke-width: 1.5;" width="315" x="495.11" y="122"/><ellipse cx="608.36" cy="138" fill="#ADD1B2" rx="11" ry="11" style="stroke: #A80036; stroke-width: 1.0;"/><path d="M611.3288,143.6406 Q610.7506,143.9375 610.11,144.0781 Q609.4694,144.2344 608.7663,144.2344 Q606.2663,144.2344 604.9381,142.5938 Q603.6256,140.9375 603.6256,137.8125 Q603.6256,134.6875 604.9381,133.0313 Q606.2663,131.375 608.7663,131.375 Q609.4694,131.375 610.11,131.5313 Q610.7663,131.6875 611.3288,131.9844 L611.3288,134.7031 Q610.7038,134.125 610.11,133.8594 Q609.5163,133.5781 608.8913,133.5781 Q607.5475,133.5781 606.86,134.6563 Q606.1725,135.7188 606.1725,137.8125 Q606.1725,139.9063 606.86,140.9844 Q607.5475,142.0469 608.8913,142.0469 Q609.5163,142.0469 610.11,141.7813 Q610.7038,141.5 611.3288,140.9219 L611.3288,143.6406 Z "/><text fill="#000000" font-family="sans-serif" font-size="12" lengthAdjust="spacingAndGlyphs" textLength="80" x="628.86" y="142.1543">MachineView</text><line style="stroke: #A80036; stroke-width: 1.5;" x1="496.11" x2="809.11" y1="154" y2="154"/><line style="stroke: #A80036; stroke-width: 1.5;" x1="496.11" x2="809.11" y1="162" y2="162"/><ellipse cx="506.11" cy="173" fill="#84BE84" rx="3" ry="3" style="stroke: #038048; stroke-width: 1.0;"/><text fill="#000000" font-family="sans-serif" font-size="11" lengthAdjust="spacingAndGlyphs" textLength="71" x="515.11" y="176.2104">Start() : void</text><ellipse cx="506.11" cy="185.8047" fill="#84BE84" rx="3" ry="3" style="stroke: #038048; stroke-width: 1.0;"/><text fill="#000000" font-family="sans-serif" font-size="11" lengthAdjust="spacingAndGlyphs" textLength="289" x="515.11" y="189.0151">Initialize(anchorPresenter:MachinePresenter) : void</text><!--MD5=[8fd3f8d0e7d3d059d0e483e515d05c15]
class MachineViewFactory--><rect fill="#FEFECE" filter="url(#fxlkt2zducwnr)" height="86.4141" id="MachineViewFactory" style="stroke: #A80036; stroke-width: 1.5;" width="403" x="845.11" y="116"/><ellipse cx="979.36" cy="132" fill="#ADD1B2" rx="11" ry="11" style="stroke: #A80036; stroke-width: 1.0;"/><path d="M982.3288,137.6406 Q981.7506,137.9375 981.11,138.0781 Q980.4694,138.2344 979.7663,138.2344 Q977.2663,138.2344 975.9381,136.5938 Q974.6256,134.9375 974.6256,131.8125 Q974.6256,128.6875 975.9381,127.0313 Q977.2663,125.375 979.7663,125.375 Q980.4694,125.375 981.11,125.5313 Q981.7663,125.6875 982.3288,125.9844 L982.3288,128.7031 Q981.7038,128.125 981.11,127.8594 Q980.5163,127.5781 979.8913,127.5781 Q978.5475,127.5781 977.86,128.6563 Q977.1725,129.7188 977.1725,131.8125 Q977.1725,133.9063 977.86,134.9844 Q978.5475,136.0469 979.8913,136.0469 Q980.5163,136.0469 981.11,135.7813 Q981.7038,135.5 982.3288,134.9219 L982.3288,137.6406 Z "/><text fill="#000000" font-family="sans-serif" font-size="12" lengthAdjust="spacingAndGlyphs" textLength="126" x="999.86" y="136.1543">MachineViewFactory</text><line style="stroke: #A80036; stroke-width: 1.5;" x1="846.11" x2="1247.11" y1="148" y2="148"/><line style="stroke: #A80036; stroke-width: 1.5;" x1="846.11" x2="1247.11" y1="156" y2="156"/><ellipse cx="856.11" cy="167" fill="#84BE84" rx="3" ry="3" style="stroke: #038048; stroke-width: 1.0;"/><text fill="#000000" font-family="sans-serif" font-size="11" lengthAdjust="spacingAndGlyphs" textLength="244" x="865.11" y="170.2104">MachineViewFactory(container:DiContainer)</text><ellipse cx="856.11" cy="179.8047" fill="#84BE84" rx="3" ry="3" style="stroke: #038048; stroke-width: 1.0;"/><text fill="#000000" font-family="sans-serif" font-size="11" lengthAdjust="spacingAndGlyphs" textLength="237" x="865.11" y="183.0151">Create(prefab:Object) : MachinePresenter</text><ellipse cx="856.11" cy="192.6094" fill="#84BE84" rx="3" ry="3" style="stroke: #038048; stroke-width: 1.0;"/><text fill="#000000" font-family="sans-serif" font-size="11" lengthAdjust="spacingAndGlyphs" textLength="377" x="865.11" y="195.8198">Create(prefab:Object, presenter:MachinePresenter) : MachineView</text><!--MD5=[dcda66dabdb739ec36f1175150e3c9d5]
class Factory--><rect fill="#FEFECE" filter="url(#fxlkt2zducwnr)" height="48" id="Factory" style="stroke: #A80036; stroke-width: 1.5;" width="78" x="338.61" y="262"/><ellipse cx="353.61" cy="278" fill="#ADD1B2" rx="11" ry="11" style="stroke: #A80036; stroke-width: 1.0;"/><path d="M356.5788,283.6406 Q356.0006,283.9375 355.36,284.0781 Q354.7194,284.2344 354.0163,284.2344 Q351.5163,284.2344 350.1881,282.5938 Q348.8756,280.9375 348.8756,277.8125 Q348.8756,274.6875 350.1881,273.0313 Q351.5163,271.375 354.0163,271.375 Q354.7194,271.375 355.36,271.5313 Q356.0163,271.6875 356.5788,271.9844 L356.5788,274.7031 Q355.9538,274.125 355.36,273.8594 Q354.7663,273.5781 354.1413,273.5781 Q352.7975,273.5781 352.11,274.6563 Q351.4225,275.7188 351.4225,277.8125 Q351.4225,279.9063 352.11,280.9844 Q352.7975,282.0469 354.1413,282.0469 Q354.7663,282.0469 355.36,281.7813 Q355.9538,281.5 356.5788,280.9219 L356.5788,283.6406 Z "/><text fill="#000000" font-family="sans-serif" font-size="12" lengthAdjust="spacingAndGlyphs" textLength="46" x="367.61" y="282.1543">Factory</text><line style="stroke: #A80036; stroke-width: 1.5;" x1="339.61" x2="415.61" y1="294" y2="294"/><line style="stroke: #A80036; stroke-width: 1.5;" x1="339.61" x2="415.61" y1="302" y2="302"/><!--MD5=[237bd2776f56ff23c5556d5c50d74300]
class IFactory`3--><rect fill="#FEFECE" filter="url(#fxlkt2zducwnr)" height="48" id="IFactory`3" style="stroke: #A80036; stroke-width: 1.5;" width="152" x="970.61" y="8"/><ellipse cx="985.61" cy="24" fill="#ADD1B2" rx="11" ry="11" style="stroke: #A80036; stroke-width: 1.0;"/><path d="M988.5788,29.6406 Q988.0006,29.9375 987.36,30.0781 Q986.7194,30.2344 986.0163,30.2344 Q983.5163,30.2344 982.1881,28.5938 Q980.8756,26.9375 980.8756,23.8125 Q980.8756,20.6875 982.1881,19.0313 Q983.5163,17.375 986.0163,17.375 Q986.7194,17.375 987.36,17.5313 Q988.0163,17.6875 988.5788,17.9844 L988.5788,20.7031 Q987.9538,20.125 987.36,19.8594 Q986.7663,19.5781 986.1413,19.5781 Q984.7975,19.5781 984.11,20.6563 Q983.4225,21.7188 983.4225,23.8125 Q983.4225,25.9063 984.11,26.9844 Q984.7975,28.0469 986.1413,28.0469 Q986.7663,28.0469 987.36,27.7813 Q987.9538,27.5 988.5788,26.9219 L988.5788,29.6406 Z "/><text fill="#000000" font-family="sans-serif" font-size="12" lengthAdjust="spacingAndGlyphs" textLength="63" x="999.61" y="28.1543">IFactory`3</text><rect fill="#FFFFFF" height="15.9688" style="stroke: #000000; stroke-width: 1.0; stroke-dasharray: 2.0,2.0;" width="55" x="1070.61" y="5"/><text fill="#000000" font-family="sans-serif" font-size="12" font-style="italic" lengthAdjust="spacingAndGlyphs" textLength="53" x="1071.61" y="17.1387">T1,T2,T3</text><line style="stroke: #A80036; stroke-width: 1.5;" x1="971.61" x2="1121.61" y1="40" y2="40"/><line style="stroke: #A80036; stroke-width: 1.5;" x1="971.61" x2="1121.61" y1="48" y2="48"/><!--MD5=[9081946f5f4034b09619a4603415a817]
class PlaceholderFactory`3--><rect fill="#FEFECE" filter="url(#fxlkt2zducwnr)" height="48" id="PlaceholderFactory`3" style="stroke: #A80036; stroke-width: 1.5;" width="223" x="237.11" y="135"/><ellipse cx="252.11" cy="151" fill="#ADD1B2" rx="11" ry="11" style="stroke: #A80036; stroke-width: 1.0;"/><path d="M255.0788,156.6406 Q254.5006,156.9375 253.86,157.0781 Q253.2194,157.2344 252.5163,157.2344 Q250.0163,157.2344 248.6881,155.5938 Q247.3756,153.9375 247.3756,150.8125 Q247.3756,147.6875 248.6881,146.0313 Q250.0163,144.375 252.5163,144.375 Q253.2194,144.375 253.86,144.5313 Q254.5163,144.6875 255.0788,144.9844 L255.0788,147.7031 Q254.4538,147.125 253.86,146.8594 Q253.2663,146.5781 252.6413,146.5781 Q251.2975,146.5781 250.61,147.6563 Q249.9225,148.7188 249.9225,150.8125 Q249.9225,152.9063 250.61,153.9844 Q251.2975,155.0469 252.6413,155.0469 Q253.2663,155.0469 253.86,154.7813 Q254.4538,154.5 255.0788,153.9219 L255.0788,156.6406 Z "/><text fill="#000000" font-family="sans-serif" font-size="12" lengthAdjust="spacingAndGlyphs" textLength="134" x="266.11" y="155.1543">PlaceholderFactory`3</text><rect fill="#FFFFFF" height="15.9688" style="stroke: #000000; stroke-width: 1.0; stroke-dasharray: 2.0,2.0;" width="55" x="408.11" y="132"/><text fill="#000000" font-family="sans-serif" font-size="12" font-style="italic" lengthAdjust="spacingAndGlyphs" textLength="53" x="409.11" y="144.1387">T1,T2,T3</text><line style="stroke: #A80036; stroke-width: 1.5;" x1="238.11" x2="459.11" y1="167" y2="167"/><line style="stroke: #A80036; stroke-width: 1.5;" x1="238.11" x2="459.11" y1="175" y2="175"/><!--MD5=[83b3cf3d23d77c6f1e1b5291a241bc2a]
class MonoBehaviour--><rect fill="#FEFECE" filter="url(#fxlkt2zducwnr)" height="48" id="MonoBehaviour" style="stroke: #A80036; stroke-width: 1.5;" width="128" x="588.61" y="8"/><ellipse cx="603.61" cy="24" fill="#ADD1B2" rx="11" ry="11" style="stroke: #A80036; stroke-width: 1.0;"/><path d="M606.5788,29.6406 Q606.0006,29.9375 605.36,30.0781 Q604.7194,30.2344 604.0163,30.2344 Q601.5163,30.2344 600.1881,28.5938 Q598.8756,26.9375 598.8756,23.8125 Q598.8756,20.6875 600.1881,19.0313 Q601.5163,17.375 604.0163,17.375 Q604.7194,17.375 605.36,17.5313 Q606.0163,17.6875 606.5788,17.9844 L606.5788,20.7031 Q605.9538,20.125 605.36,19.8594 Q604.7663,19.5781 604.1413,19.5781 Q602.7975,19.5781 602.11,20.6563 Q601.4225,21.7188 601.4225,23.8125 Q601.4225,25.9063 602.11,26.9844 Q602.7975,28.0469 604.1413,28.0469 Q604.7663,28.0469 605.36,27.7813 Q605.9538,27.5 606.5788,26.9219 L606.5788,29.6406 Z "/><text fill="#000000" font-family="sans-serif" font-size="12" lengthAdjust="spacingAndGlyphs" textLength="96" x="617.61" y="28.1543">MonoBehaviour</text><line style="stroke: #A80036; stroke-width: 1.5;" x1="589.61" x2="715.61" y1="40" y2="40"/><line style="stroke: #A80036; stroke-width: 1.5;" x1="589.61" x2="715.61" y1="48" y2="48"/><!--MD5=[947e0e68606267bc54847deefece0bae]
class Interactable--><rect fill="#FEFECE" filter="url(#fxlkt2zducwnr)" height="48" id="Interactable" style="stroke: #A80036; stroke-width: 1.5;" width="108" x="480.61" y="262"/><ellipse cx="495.61" cy="278" fill="#ADD1B2" rx="11" ry="11" style="stroke: #A80036; stroke-width: 1.0;"/><path d="M498.5788,283.6406 Q498.0006,283.9375 497.36,284.0781 Q496.7194,284.2344 496.0163,284.2344 Q493.5163,284.2344 492.1881,282.5938 Q490.8756,280.9375 490.8756,277.8125 Q490.8756,274.6875 492.1881,273.0313 Q493.5163,271.375 496.0163,271.375 Q496.7194,271.375 497.36,271.5313 Q498.0163,271.6875 498.5788,271.9844 L498.5788,274.7031 Q497.9538,274.125 497.36,273.8594 Q496.7663,273.5781 496.1413,273.5781 Q494.7975,273.5781 494.11,274.6563 Q493.4225,275.7188 493.4225,277.8125 Q493.4225,279.9063 494.11,280.9844 Q494.7975,282.0469 496.1413,282.0469 Q496.7663,282.0469 497.36,281.7813 Q497.9538,281.5 498.5788,280.9219 L498.5788,283.6406 Z "/><text fill="#000000" font-family="sans-serif" font-size="12" lengthAdjust="spacingAndGlyphs" textLength="76" x="509.61" y="282.1543">Interactable</text><line style="stroke: #A80036; stroke-width: 1.5;" x1="481.61" x2="587.61" y1="294" y2="294"/><line style="stroke: #A80036; stroke-width: 1.5;" x1="481.61" x2="587.61" y1="302" y2="302"/><!--MD5=[02a8746eb15ecbb4566dafa16ea4db73]
class Text--><rect fill="#FEFECE" filter="url(#fxlkt2zducwnr)" height="48" id="Text" style="stroke: #A80036; stroke-width: 1.5;" width="58" x="623.61" y="262"/><ellipse cx="638.61" cy="278" fill="#ADD1B2" rx="11" ry="11" style="stroke: #A80036; stroke-width: 1.0;"/><path d="M641.5788,283.6406 Q641.0006,283.9375 640.36,284.0781 Q639.7194,284.2344 639.0163,284.2344 Q636.5163,284.2344 635.1881,282.5938 Q633.8756,280.9375 633.8756,277.8125 Q633.8756,274.6875 635.1881,273.0313 Q636.5163,271.375 639.0163,271.375 Q639.7194,271.375 640.36,271.5313 Q641.0163,271.6875 641.5788,271.9844 L641.5788,274.7031 Q640.9538,274.125 640.36,273.8594 Q639.7663,273.5781 639.1413,273.5781 Q637.7975,273.5781 637.11,274.6563 Q636.4225,275.7188 636.4225,277.8125 Q636.4225,279.9063 637.11,280.9844 Q637.7975,282.0469 639.1413,282.0469 Q639.7663,282.0469 640.36,281.7813 Q640.9538,281.5 641.5788,280.9219 L641.5788,283.6406 Z "/><text fill="#000000" font-family="sans-serif" font-size="12" lengthAdjust="spacingAndGlyphs" textLength="26" x="652.61" y="282.1543">Text</text><line style="stroke: #A80036; stroke-width: 1.5;" x1="624.61" x2="680.61" y1="294" y2="294"/><line style="stroke: #A80036; stroke-width: 1.5;" x1="624.61" x2="680.61" y1="302" y2="302"/><!--MD5=[12490c2ef94baadab3693195df7865ac]
class DiContainer--><rect fill="#FEFECE" filter="url(#fxlkt2zducwnr)" height="48" id="DiContainer" style="stroke: #A80036; stroke-width: 1.5;" width="105" x="994.11" y="262"/><ellipse cx="1009.11" cy="278" fill="#ADD1B2" rx="11" ry="11" style="stroke: #A80036; stroke-width: 1.0;"/><path d="M1012.0788,283.6406 Q1011.5006,283.9375 1010.86,284.0781 Q1010.2194,284.2344 1009.5163,284.2344 Q1007.0163,284.2344 1005.6881,282.5938 Q1004.3756,280.9375 1004.3756,277.8125 Q1004.3756,274.6875 1005.6881,273.0313 Q1007.0163,271.375 1009.5163,271.375 Q1010.2194,271.375 1010.86,271.5313 Q1011.5163,271.6875 1012.0788,271.9844 L1012.0788,274.7031 Q1011.4538,274.125 1010.86,273.8594 Q1010.2663,273.5781 1009.6413,273.5781 Q1008.2975,273.5781 1007.61,274.6563 Q1006.9225,275.7188 1006.9225,277.8125 Q1006.9225,279.9063 1007.61,280.9844 Q1008.2975,282.0469 1009.6413,282.0469 Q1010.2663,282.0469 1010.86,281.7813 Q1011.4538,281.5 1012.0788,280.9219 L1012.0788,283.6406 Z "/><text fill="#000000" font-family="sans-serif" font-size="12" lengthAdjust="spacingAndGlyphs" textLength="73" x="1023.11" y="282.1543">DiContainer</text><line style="stroke: #A80036; stroke-width: 1.5;" x1="995.11" x2="1098.11" y1="294" y2="294"/><line style="stroke: #A80036; stroke-width: 1.5;" x1="995.11" x2="1098.11" y1="302" y2="302"/><!--MD5=[8b7e2b839faa0db3c9169c09781815bc]
reverse link MonoBehaviour to MachineView--><path d="M652.61,76.3 C652.61,91.09 652.61,107.46 652.61,121.64 " fill="none" id="MonoBehaviour&lt;-MachineView" style="stroke: #A80036; stroke-width: 1.0;"/><polygon fill="none" points="645.61,76.22,652.61,56.22,659.61,76.22,645.61,76.22" style="stroke: #A80036; stroke-width: 1.0;"/><!--MD5=[3bbe064111278c24554e70f98a701bb5]
link MachineView to Interactable--><path d="M582.74,196.16 C559.16,215.7 537.67,239.45 527.63,257.47 " fill="none" id="MachineView-&gt;Interactable" style="stroke: #A80036; stroke-width: 1.0;"/><polygon fill="#A80036" points="525.33,261.93,533.0198,255.7764,527.6287,257.4897,525.9154,252.0986,525.33,261.93" style="stroke: #A80036; stroke-width: 1.0;"/><text fill="#000000" font-family="sans-serif" font-size="13" lengthAdjust="spacingAndGlyphs" textLength="112" x="417.9147" y="250.85">addAnchorButton</text><!--MD5=[3bbe064111278c24554e70f98a701bb5]
link MachineView to Interactable--><path d="M606.8,196.16 C586.5,215.86 564.18,239.85 549.45,257.93 " fill="none" id="MachineView-&gt;Interactable-1" style="stroke: #A80036; stroke-width: 1.0;"/><polygon fill="#A80036" points="546.24,261.93,554.9918,257.4127,549.3687,258.0298,548.7515,252.4068,546.24,261.93" style="stroke: #A80036; stroke-width: 1.0;"/><text fill="#000000" font-family="sans-serif" font-size="13" lengthAdjust="spacingAndGlyphs" textLength="137" x="566.7733" y="250.9241">removeAnchorButton</text><!--MD5=[3bbe064111278c24554e70f98a701bb5]
link MachineView to Interactable--><path d="M630.85,196.16 C613.9,216.03 590.67,240.25 571.03,258.38 " fill="none" id="MachineView-&gt;Interactable-2" style="stroke: #A80036; stroke-width: 1.0;"/><polygon fill="#A80036" points="567.15,261.93,576.4966,258.8249,570.8458,258.5624,571.1084,252.9116,567.15,261.93" style="stroke: #A80036; stroke-width: 1.0;"/><text fill="#000000" font-family="sans-serif" font-size="13" lengthAdjust="spacingAndGlyphs" textLength="113" x="594.8921" y="250.9873">tapToPlaceButton</text><!--MD5=[3bbe064111278c24554e70f98a701bb5]
link MachineView to Interactable--><path d="M654.91,196.16 C641.35,216.19 617.13,240.66 592.36,258.84 " fill="none" id="MachineView-&gt;Interactable-3" style="stroke: #A80036; stroke-width: 1.0;"/><polygon fill="#A80036" points="588.06,261.93,597.7033,259.9281,592.1209,259.013,593.0361,253.4307,588.06,261.93" style="stroke: #A80036; stroke-width: 1.0;"/><text fill="#000000" font-family="sans-serif" font-size="13" lengthAdjust="spacingAndGlyphs" textLength="83" x="594.2819" y="250.9375">deleteButton</text><!--MD5=[263a09175100f827c7fd25863714bdbd]
link MachineView to Text--><path d="M592.82,196.16 C580.44,224.33 589.13,261.25 618.86,277.16 " fill="none" id="MachineView-&gt;Text" style="stroke: #A80036; stroke-width: 1.0;"/><polygon fill="#A80036" points="623.4,279.35,617.0327,271.8362,618.8969,277.1771,613.556,279.0412,623.4,279.35" style="stroke: #A80036; stroke-width: 1.0;"/><text fill="#000000" font-family="sans-serif" font-size="13" lengthAdjust="spacingAndGlyphs" textLength="64" x="551.0295" y="294.9949">nameText</text><!--MD5=[263a09175100f827c7fd25863714bdbd]
link MachineView to Text--><path d="M616.87,196.16 C611.39,217.03 612.82,242.7 621.15,261.07 " fill="none" id="MachineView-&gt;Text-1" style="stroke: #A80036; stroke-width: 1.0;"/><polygon fill="#A80036" points="623.42,265.57,622.9602,255.7319,621.1782,261.1007,615.8094,259.3187,623.42,265.57" style="stroke: #A80036; stroke-width: 1.0;"/><text fill="#000000" font-family="sans-serif" font-size="13" lengthAdjust="spacingAndGlyphs" textLength="73" x="583.493" y="251.0052">symbolText</text><!--MD5=[263a09175100f827c7fd25863714bdbd]
link MachineView to Text--><path d="M640.93,196.16 C639.28,215.37 639.54,238.64 641.72,256.55 " fill="none" id="MachineView-&gt;Text-2" style="stroke: #A80036; stroke-width: 1.0;"/><polygon fill="#A80036" points="642.46,261.93,645.1853,252.4657,641.7729,256.9774,637.2612,253.565,642.46,261.93" style="stroke: #A80036; stroke-width: 1.0;"/><text fill="#000000" font-family="sans-serif" font-size="13" lengthAdjust="spacingAndGlyphs" textLength="67" x="648.4434" y="250.9241">statusText</text><!--MD5=[263a09175100f827c7fd25863714bdbd]
link MachineView to Text--><path d="M664.99,196.16 C666.73,215.37 666.45,238.64 664.15,256.55 " fill="none" id="MachineView-&gt;Text-3" style="stroke: #A80036; stroke-width: 1.0;"/><polygon fill="#A80036" points="663.37,261.93,668.6127,253.5925,664.0831,256.9811,660.6945,252.4515,663.37,261.93" style="stroke: #A80036; stroke-width: 1.0;"/><text fill="#000000" font-family="sans-serif" font-size="13" lengthAdjust="spacingAndGlyphs" textLength="60" x="689.3545" y="263.4759">hallIdText</text><!--MD5=[263a09175100f827c7fd25863714bdbd]
link MachineView to Text--><path d="M689.04,196.16 C694.73,217.43 693.11,243.68 684.18,262.11 " fill="none" id="MachineView-&gt;Text-4" style="stroke: #A80036; stroke-width: 1.0;"/><polygon fill="#A80036" points="681.75,266.62,689.533,260.5846,684.1162,262.2154,682.4855,256.7986,681.75,266.62" style="stroke: #A80036; stroke-width: 1.0;"/><text fill="#000000" font-family="sans-serif" font-size="13" lengthAdjust="spacingAndGlyphs" textLength="86" x="689.6403" y="277.3948">efficiencyText</text><!--MD5=[263a09175100f827c7fd25863714bdbd]
link MachineView to Text--><path d="M713.1,196.16 C725.67,224.47 716.74,261.61 686.31,277.39 " fill="none" id="MachineView-&gt;Text-5" style="stroke: #A80036; stroke-width: 1.0;"/><polygon fill="#A80036" points="681.66,279.56,691.5072,279.3771,686.1906,277.4448,688.1228,272.1282,681.66,279.56" style="stroke: #A80036; stroke-width: 1.0;"/><text fill="#000000" font-family="sans-serif" font-size="13" lengthAdjust="spacingAndGlyphs" textLength="194" x="689.7351" y="291.6991">technicalExaminationDateText</text><!--MD5=[ba9e2ae6028dd0a2bb192735e8f06a09]
reverse link IFactory`3 to MachineViewFactory--><path d="M1046.61,76.27 C1046.61,89.12 1046.61,103.17 1046.61,115.94 " fill="none" id="IFactory`3&lt;-MachineViewFactory" style="stroke: #A80036; stroke-width: 1.0;"/><polygon fill="none" points="1039.61,76.22,1046.61,56.22,1053.61,76.22,1039.61,76.22" style="stroke: #A80036; stroke-width: 1.0;"/><text fill="#000000" font-family="sans-serif" font-size="13" lengthAdjust="spacingAndGlyphs" textLength="348" x="656.475" y="76.0966">&lt;UnityEngine.Object,MachinePresenter,MachineView&gt;</text><!--MD5=[687ee0209ee7760aee62de32c379c445]
link MachineViewFactory to DiContainer--><path d="M1046.61,202.32 C1046.61,220.14 1046.61,240.41 1046.61,256.42 " fill="none" id="MachineViewFactory-&gt;DiContainer" style="stroke: #A80036; stroke-width: 1.0;"/><polygon fill="#A80036" points="1046.61,261.67,1050.61,252.67,1046.61,256.67,1042.61,252.67,1046.61,261.67" style="stroke: #A80036; stroke-width: 1.0;"/><text fill="#000000" font-family="sans-serif" font-size="13" lengthAdjust="spacingAndGlyphs" textLength="67" x="971.4444" y="250.9945">_container</text><!--MD5=[199b788bd09407402199d51bb5d80bd4]
reverse link MachineView to Factory--><path d="M559.28,202.42 C510.7,224.51 453.89,250.33 416.91,267.14 " fill="none" id="MachineView&lt;-Factory" style="stroke: #A80036; stroke-width: 1.0;"/><ellipse cx="565.7884" cy="199.4733" fill="#FFFFFF" rx="8" ry="8" style="stroke: #A80036; stroke-width: 1.0;"/><line style="stroke: #A80036; stroke-width: 1.0;" x1="558.5067" x2="573.07" y1="202.7866" y2="196.16"/><line style="stroke: #A80036; stroke-width: 1.0;" x1="562.4751" x2="569.1017" y1="192.1917" y2="206.7549"/><!--MD5=[1fe9699dbc6dd4da66d103656c93cd8c]
reverse link PlaceholderFactory`3 to Factory--><path d="M358.54,202.78 C363.14,222.59 368.42,245.36 372.26,261.91 " fill="none" id="PlaceholderFactory`3&lt;-Factory" style="stroke: #A80036; stroke-width: 1.0;"/><polygon fill="none" points="351.7,204.28,354,183.22,365.34,201.12,351.7,204.28" style="stroke: #A80036; stroke-width: 1.0;"/><text fill="#000000" font-family="sans-serif" font-size="13" lengthAdjust="spacingAndGlyphs" textLength="348" x="-35.0987" y="203.0348">&lt;UnityEngine.Object,MachinePresenter,MachineView&gt;</text><!--MD5=[dd01fc0bb3cf26b36403e4ac068afffe]
@startuml
class MachineView {
    + Start() : void
    + Initialize(anchorPresenter:MachinePresenter) : void
}
class MachineViewFactory {
    + MachineViewFactory(container:DiContainer)
    + Create(prefab:Object) : MachinePresenter
    + Create(prefab:Object, presenter:MachinePresenter) : MachineView
}
class Factory {
}
class "IFactory`3"<T1,T2,T3> {
}
class "PlaceholderFactory`3"<T1,T2,T3> {
}
MonoBehaviour <|- - MachineView
MachineView - -> "addAnchorButton" Interactable
MachineView - -> "removeAnchorButton" Interactable
MachineView - -> "tapToPlaceButton" Interactable
MachineView - -> "nameText" Text
MachineView - -> "symbolText" Text
MachineView - -> "statusText" Text
MachineView - -> "hallIdText" Text
MachineView - -> "efficiencyText" Text
MachineView - -> "technicalExaminationDateText" Text
MachineView - -> "deleteButton" Interactable
"IFactory`3" "<UnityEngine.Object,MachinePresenter,MachineView>" <|- - MachineViewFactory
MachineViewFactory - -> "_container" DiContainer
MachineView +- - Factory
"PlaceholderFactory`3" "<UnityEngine.Object,MachinePresenter,MachineView>" <|- - Factory
@enduml

PlantUML version 1.2020.02(Sun Mar 01 10:22:07 GMT 2020)
(GPL source distribution)
Java Runtime: OpenJDK Runtime Environment
JVM: OpenJDK 64-Bit Server VM
Java Version: 11.0.9+11-Ubuntu-0ubuntu1
Operating System: Linux
Default Encoding: ANSI_X3.4-1968
Language: en
Country: US
--></g></svg>