<?xml version="1.0" encoding="UTF-8" standalone="no"?><svg xmlns="http://www.w3.org/2000/svg" xmlns:xlink="http://www.w3.org/1999/xlink" contentScriptType="application/ecmascript" contentStyleType="text/css" height="322px" preserveAspectRatio="none" style="width:1024px;height:322px;" version="1.1" viewBox="0 0 1024 322" width="1024px" zoomAndPan="magnify"><defs><filter height="300%" id="f1t9zru4klp6rk" width="300%" x="-1" y="-1"><feGaussianBlur result="blurOut" stdDeviation="2.0"/><feColorMatrix in="blurOut" result="blurOut2" type="matrix" values="0 0 0 0 0 0 0 0 0 0 0 0 0 0 0 0 0 0 .4 0"/><feOffset dx="4.0" dy="4.0" in="blurOut2" result="blurOut3"/><feBlend in="SourceGraphic" in2="blurOut3" mode="normal"/></filter></defs><g><!--MD5=[db94a1190e5ef99e287ec4213e6cbee6]
class IAddAnchorUseCase--><rect fill="#FEFECE" filter="url(#f1t9zru4klp6rk)" height="60.8047" id="IAddAnchorUseCase" style="stroke: #A80036; stroke-width: 1.5;" width="405" x="307" y="8"/><ellipse cx="442.75" cy="24" fill="#B4A7E5" rx="11" ry="11" style="stroke: #A80036; stroke-width: 1.0;"/><path d="M438.6719,19.7656 L438.6719,17.6094 L446.0625,17.6094 L446.0625,19.7656 L443.5938,19.7656 L443.5938,27.8438 L446.0625,27.8438 L446.0625,30 L438.6719,30 L438.6719,27.8438 L441.1406,27.8438 L441.1406,19.7656 L438.6719,19.7656 Z "/><text fill="#000000" font-family="sans-serif" font-size="12" font-style="italic" lengthAdjust="spacingAndGlyphs" textLength="125" x="463.25" y="28.1543">IAddAnchorUseCase</text><line style="stroke: #A80036; stroke-width: 1.5;" x1="308" x2="711" y1="40" y2="40"/><line style="stroke: #A80036; stroke-width: 1.5;" x1="308" x2="711" y1="48" y2="48"/><ellipse cx="318" cy="59" fill="#84BE84" rx="3" ry="3" style="stroke: #038048; stroke-width: 1.0;"/><text fill="#000000" font-family="sans-serif" font-size="11" lengthAdjust="spacingAndGlyphs" textLength="379" x="327" y="62.2104">createAzureAnchor(theObject:GameObject, index:int) : Task&lt;bool&gt;</text><!--MD5=[6f1e49e2186d2ffd568639261351a372]
class AddAnchorUseCase--><rect fill="#FEFECE" filter="url(#f1t9zru4klp6rk)" height="73.6094" id="AddAnchorUseCase" style="stroke: #A80036; stroke-width: 1.5;" width="1007" x="6" y="129"/><ellipse cx="443.75" cy="145" fill="#ADD1B2" rx="11" ry="11" style="stroke: #A80036; stroke-width: 1.0;"/><path d="M446.7188,150.6406 Q446.1406,150.9375 445.5,151.0781 Q444.8594,151.2344 444.1563,151.2344 Q441.6563,151.2344 440.3281,149.5938 Q439.0156,147.9375 439.0156,144.8125 Q439.0156,141.6875 440.3281,140.0313 Q441.6563,138.375 444.1563,138.375 Q444.8594,138.375 445.5,138.5313 Q446.1563,138.6875 446.7188,138.9844 L446.7188,141.7031 Q446.0938,141.125 445.5,140.8594 Q444.9063,140.5781 444.2813,140.5781 Q442.9375,140.5781 442.25,141.6563 Q441.5625,142.7188 441.5625,144.8125 Q441.5625,146.9063 442.25,147.9844 Q442.9375,149.0469 444.2813,149.0469 Q444.9063,149.0469 445.5,148.7813 Q446.0938,148.5 446.7188,147.9219 L446.7188,150.6406 Z "/><text fill="#000000" font-family="sans-serif" font-size="12" lengthAdjust="spacingAndGlyphs" textLength="123" x="464.25" y="149.1543">AddAnchorUseCase</text><line style="stroke: #A80036; stroke-width: 1.5;" x1="7" x2="1012" y1="161" y2="161"/><line style="stroke: #A80036; stroke-width: 1.5;" x1="7" x2="1012" y1="169" y2="169"/><ellipse cx="17" cy="180" fill="#84BE84" rx="3" ry="3" style="stroke: #038048; stroke-width: 1.0;"/><text fill="#000000" font-family="sans-serif" font-size="11" lengthAdjust="spacingAndGlyphs" textLength="981" x="26" y="183.2104">AddAnchorUseCase(anchorsRepository:IAnchorsRepository, saveAnchor:IAnchorCreator, sceneAwarnessValidator:IAwarnessValidator, gameObjectEditor:IGameObjectEditor)</text><ellipse cx="17" cy="192.8047" fill="#84BE84" rx="3" ry="3" style="stroke: #038048; stroke-width: 1.0;"/><text fill="#000000" font-family="sans-serif" font-size="11" lengthAdjust="spacingAndGlyphs" textLength="430" x="26" y="196.0151">«async» createAzureAnchor(theObject:GameObject, index:int) : Task&lt;bool&gt;</text><!--MD5=[932a626bed533254c20735e19e148d61]
class IAnchorsRepository--><rect fill="#FEFECE" filter="url(#f1t9zru4klp6rk)" height="48" id="IAnchorsRepository" style="stroke: #A80036; stroke-width: 1.5;" width="152" x="172.5" y="263"/><ellipse cx="187.5" cy="279" fill="#ADD1B2" rx="11" ry="11" style="stroke: #A80036; stroke-width: 1.0;"/><path d="M190.4688,284.6406 Q189.8906,284.9375 189.25,285.0781 Q188.6094,285.2344 187.9063,285.2344 Q185.4063,285.2344 184.0781,283.5938 Q182.7656,281.9375 182.7656,278.8125 Q182.7656,275.6875 184.0781,274.0313 Q185.4063,272.375 187.9063,272.375 Q188.6094,272.375 189.25,272.5313 Q189.9063,272.6875 190.4688,272.9844 L190.4688,275.7031 Q189.8438,275.125 189.25,274.8594 Q188.6563,274.5781 188.0313,274.5781 Q186.6875,274.5781 186,275.6563 Q185.3125,276.7188 185.3125,278.8125 Q185.3125,280.9063 186,281.9844 Q186.6875,283.0469 188.0313,283.0469 Q188.6563,283.0469 189.25,282.7813 Q189.8438,282.5 190.4688,281.9219 L190.4688,284.6406 Z "/><text fill="#000000" font-family="sans-serif" font-size="12" lengthAdjust="spacingAndGlyphs" textLength="120" x="201.5" y="283.1543">IAnchorsRepository</text><line style="stroke: #A80036; stroke-width: 1.5;" x1="173.5" x2="323.5" y1="295" y2="295"/><line style="stroke: #A80036; stroke-width: 1.5;" x1="173.5" x2="323.5" y1="303" y2="303"/><!--MD5=[79f1084384fcd408d88a2998bd98750b]
class IAnchorCreator--><rect fill="#FEFECE" filter="url(#f1t9zru4klp6rk)" height="48" id="IAnchorCreator" style="stroke: #A80036; stroke-width: 1.5;" width="126" x="359.5" y="263"/><ellipse cx="374.5" cy="279" fill="#ADD1B2" rx="11" ry="11" style="stroke: #A80036; stroke-width: 1.0;"/><path d="M377.4688,284.6406 Q376.8906,284.9375 376.25,285.0781 Q375.6094,285.2344 374.9063,285.2344 Q372.4063,285.2344 371.0781,283.5938 Q369.7656,281.9375 369.7656,278.8125 Q369.7656,275.6875 371.0781,274.0313 Q372.4063,272.375 374.9063,272.375 Q375.6094,272.375 376.25,272.5313 Q376.9063,272.6875 377.4688,272.9844 L377.4688,275.7031 Q376.8438,275.125 376.25,274.8594 Q375.6563,274.5781 375.0313,274.5781 Q373.6875,274.5781 373,275.6563 Q372.3125,276.7188 372.3125,278.8125 Q372.3125,280.9063 373,281.9844 Q373.6875,283.0469 375.0313,283.0469 Q375.6563,283.0469 376.25,282.7813 Q376.8438,282.5 377.4688,281.9219 L377.4688,284.6406 Z "/><text fill="#000000" font-family="sans-serif" font-size="12" lengthAdjust="spacingAndGlyphs" textLength="94" x="388.5" y="283.1543">IAnchorCreator</text><line style="stroke: #A80036; stroke-width: 1.5;" x1="360.5" x2="484.5" y1="295" y2="295"/><line style="stroke: #A80036; stroke-width: 1.5;" x1="360.5" x2="484.5" y1="303" y2="303"/><!--MD5=[df518ebd500dd83b40ade1b46661233e]
class IAwarnessValidator--><rect fill="#FEFECE" filter="url(#f1t9zru4klp6rk)" height="48" id="IAwarnessValidator" style="stroke: #A80036; stroke-width: 1.5;" width="151" x="521" y="263"/><ellipse cx="536" cy="279" fill="#ADD1B2" rx="11" ry="11" style="stroke: #A80036; stroke-width: 1.0;"/><path d="M538.9688,284.6406 Q538.3906,284.9375 537.75,285.0781 Q537.1094,285.2344 536.4063,285.2344 Q533.9063,285.2344 532.5781,283.5938 Q531.2656,281.9375 531.2656,278.8125 Q531.2656,275.6875 532.5781,274.0313 Q533.9063,272.375 536.4063,272.375 Q537.1094,272.375 537.75,272.5313 Q538.4063,272.6875 538.9688,272.9844 L538.9688,275.7031 Q538.3438,275.125 537.75,274.8594 Q537.1563,274.5781 536.5313,274.5781 Q535.1875,274.5781 534.5,275.6563 Q533.8125,276.7188 533.8125,278.8125 Q533.8125,280.9063 534.5,281.9844 Q535.1875,283.0469 536.5313,283.0469 Q537.1563,283.0469 537.75,282.7813 Q538.3438,282.5 538.9688,281.9219 L538.9688,284.6406 Z "/><text fill="#000000" font-family="sans-serif" font-size="12" lengthAdjust="spacingAndGlyphs" textLength="119" x="550" y="283.1543">IAwarnessValidator</text><line style="stroke: #A80036; stroke-width: 1.5;" x1="522" x2="671" y1="295" y2="295"/><line style="stroke: #A80036; stroke-width: 1.5;" x1="522" x2="671" y1="303" y2="303"/><!--MD5=[d091c2cc82766d89a7d3e8a5c608835b]
class IGameObjectEditor--><rect fill="#FEFECE" filter="url(#f1t9zru4klp6rk)" height="48" id="IGameObjectEditor" style="stroke: #A80036; stroke-width: 1.5;" width="148" x="707.5" y="263"/><ellipse cx="722.5" cy="279" fill="#ADD1B2" rx="11" ry="11" style="stroke: #A80036; stroke-width: 1.0;"/><path d="M725.4688,284.6406 Q724.8906,284.9375 724.25,285.0781 Q723.6094,285.2344 722.9063,285.2344 Q720.4063,285.2344 719.0781,283.5938 Q717.7656,281.9375 717.7656,278.8125 Q717.7656,275.6875 719.0781,274.0313 Q720.4063,272.375 722.9063,272.375 Q723.6094,272.375 724.25,272.5313 Q724.9063,272.6875 725.4688,272.9844 L725.4688,275.7031 Q724.8438,275.125 724.25,274.8594 Q723.6563,274.5781 723.0313,274.5781 Q721.6875,274.5781 721,275.6563 Q720.3125,276.7188 720.3125,278.8125 Q720.3125,280.9063 721,281.9844 Q721.6875,283.0469 723.0313,283.0469 Q723.6563,283.0469 724.25,282.7813 Q724.8438,282.5 725.4688,281.9219 L725.4688,284.6406 Z "/><text fill="#000000" font-family="sans-serif" font-size="12" lengthAdjust="spacingAndGlyphs" textLength="116" x="736.5" y="283.1543">IGameObjectEditor</text><line style="stroke: #A80036; stroke-width: 1.5;" x1="708.5" x2="854.5" y1="295" y2="295"/><line style="stroke: #A80036; stroke-width: 1.5;" x1="708.5" x2="854.5" y1="303" y2="303"/><!--MD5=[a54cfe92797193ff8ac3b7991aee6b52]
reverse link IAddAnchorUseCase to AddAnchorUseCase--><path d="M509.5,89.5 C509.5,102.62 509.5,116.51 509.5,128.76 " fill="none" id="IAddAnchorUseCase&lt;-AddAnchorUseCase" style="stroke: #A80036; stroke-width: 1.0;"/><polygon fill="none" points="502.5,89.24,509.5,69.24,516.5,89.24,502.5,89.24" style="stroke: #A80036; stroke-width: 1.0;"/><!--MD5=[486393467da0c94d4b06bd5dbee5b969]
link AddAnchorUseCase to IAnchorsRepository--><path d="M430.48,203.03 C389.7,221.62 340.94,243.85 304.15,260.63 " fill="none" id="AddAnchorUseCase-&gt;IAnchorsRepository" style="stroke: #A80036; stroke-width: 1.0;"/><polygon fill="#A80036" points="299.27,262.85,309.1185,262.7672,303.8218,260.781,305.8081,255.4843,299.27,262.85" style="stroke: #A80036; stroke-width: 1.0;"/><text fill="#000000" font-family="sans-serif" font-size="13" lengthAdjust="spacingAndGlyphs" textLength="125" x="171.2642" y="251.8236">_anchorsRepository</text><!--MD5=[4db53b45284f69268b65ba407e38d0fc]
link AddAnchorUseCase to IAnchorCreator--><path d="M483.16,203.03 C470.07,220.94 454.5,242.23 442.42,258.76 " fill="none" id="AddAnchorUseCase-&gt;IAnchorCreator" style="stroke: #A80036; stroke-width: 1.0;"/><polygon fill="#A80036" points="439.42,262.85,447.9619,257.9473,442.3719,258.8144,441.5048,253.2243,439.42,262.85" style="stroke: #A80036; stroke-width: 1.0;"/><text fill="#000000" font-family="sans-serif" font-size="13" lengthAdjust="spacingAndGlyphs" textLength="82" x="351.2495" y="251.8236">_saveAnchor</text><!--MD5=[ea1421eb1e130d9e5b5ff3bcda720e26]
link AddAnchorUseCase to IAwarnessValidator--><path d="M535.84,203.03 C548.93,220.94 564.5,242.23 576.58,258.76 " fill="none" id="AddAnchorUseCase-&gt;IAwarnessValidator" style="stroke: #A80036; stroke-width: 1.0;"/><polygon fill="#A80036" points="579.58,262.85,577.4952,253.2243,576.6281,258.8144,571.0381,257.9473,579.58,262.85" style="stroke: #A80036; stroke-width: 1.0;"/><text fill="#000000" font-family="sans-serif" font-size="13" lengthAdjust="spacingAndGlyphs" textLength="163" x="596.1286" y="251.8236">_sceneAwarnessValidator</text><!--MD5=[5da84ba47568d497a0a8d4f9aa31f133]
link AddAnchorUseCase to IGameObjectEditor--><path d="M591.85,203.03 C634.52,221.7 685.58,244.04 723.97,260.83 " fill="none" id="AddAnchorUseCase-&gt;IGameObjectEditor" style="stroke: #A80036; stroke-width: 1.0;"/><polygon fill="#A80036" points="728.59,262.85,721.9586,255.5682,724.0122,260.8392,718.7412,262.8928,728.59,262.85" style="stroke: #A80036; stroke-width: 1.0;"/><text fill="#000000" font-family="sans-serif" font-size="13" lengthAdjust="spacingAndGlyphs" textLength="122" x="730.6631" y="251.8236">_gameObjectEditor</text><!--MD5=[ce51d7c552e1b2c27739ce0fa4c968a7]
@startuml
interface IAddAnchorUseCase {
    + createAzureAnchor(theObject:GameObject, index:int) : Task<bool>
}
class AddAnchorUseCase {
    + AddAnchorUseCase(anchorsRepository:IAnchorsRepository, saveAnchor:IAnchorCreator, sceneAwarnessValidator:IAwarnessValidator, gameObjectEditor:IGameObjectEditor)
    + <<async>> createAzureAnchor(theObject:GameObject, index:int) : Task<bool>
}
IAddAnchorUseCase <|- - AddAnchorUseCase
AddAnchorUseCase - -> "_anchorsRepository" IAnchorsRepository
AddAnchorUseCase - -> "_saveAnchor" IAnchorCreator
AddAnchorUseCase - -> "_sceneAwarnessValidator" IAwarnessValidator
AddAnchorUseCase - -> "_gameObjectEditor" IGameObjectEditor
@enduml

PlantUML version 1.2020.02(Sun Mar 01 10:22:07 GMT 2020)
(GPL source distribution)
Java Runtime: OpenJDK Runtime Environment
JVM: OpenJDK 64-Bit Server VM
Java Version: 11.0.9+11-Ubuntu-0ubuntu1
Operating System: Linux
Default Encoding: ANSI_X3.4-1968
Language: en
Country: US
--></g></svg>