<?xml version="1.0" encoding="UTF-8" standalone="no"?><svg xmlns="http://www.w3.org/2000/svg" xmlns:xlink="http://www.w3.org/1999/xlink" contentScriptType="application/ecmascript" contentStyleType="text/css" height="213px" preserveAspectRatio="none" style="width:814px;height:213px;" version="1.1" viewBox="0 0 814 213" width="814px" zoomAndPan="magnify"><defs><filter height="300%" id="fjdrs0b9y67sf" width="300%" x="-1" y="-1"><feGaussianBlur result="blurOut" stdDeviation="2.0"/><feColorMatrix in="blurOut" result="blurOut2" type="matrix" values="0 0 0 0 0 0 0 0 0 0 0 0 0 0 0 0 0 0 .4 0"/><feOffset dx="4.0" dy="4.0" in="blurOut2" result="blurOut3"/><feBlend in="SourceGraphic" in2="blurOut3" mode="normal"/></filter></defs><g><!--MD5=[0eb160e9ae310e34686cbb3e28b854ba]
class IRemoveAnchorUseCase--><rect fill="#FEFECE" filter="url(#fjdrs0b9y67sf)" height="60.8047" id="IRemoveAnchorUseCase" style="stroke: #A80036; stroke-width: 1.5;" width="314" x="247.5" y="8"/><ellipse cx="325.25" cy="24" fill="#B4A7E5" rx="11" ry="11" style="stroke: #A80036; stroke-width: 1.0;"/><path d="M321.1719,19.7656 L321.1719,17.6094 L328.5625,17.6094 L328.5625,19.7656 L326.0938,19.7656 L326.0938,27.8438 L328.5625,27.8438 L328.5625,30 L321.1719,30 L321.1719,27.8438 L323.6406,27.8438 L323.6406,19.7656 L321.1719,19.7656 Z "/><text fill="#000000" font-family="sans-serif" font-size="12" font-style="italic" lengthAdjust="spacingAndGlyphs" textLength="150" x="345.75" y="28.1543">IRemoveAnchorUseCase</text><line style="stroke: #A80036; stroke-width: 1.5;" x1="248.5" x2="560.5" y1="40" y2="40"/><line style="stroke: #A80036; stroke-width: 1.5;" x1="248.5" x2="560.5" y1="48" y2="48"/><ellipse cx="258.5" cy="59" fill="#84BE84" rx="3" ry="3" style="stroke: #038048; stroke-width: 1.0;"/><text fill="#000000" font-family="sans-serif" font-size="11" lengthAdjust="spacingAndGlyphs" textLength="288" x="267.5" y="62.2104">removeAzureAnchor(theObject:GameObject) : Task</text><!--MD5=[9fb77dbaba9ba700c23ddff1c5ed5b32]
class RemoveAnchorUseCase--><rect fill="#FEFECE" filter="url(#fjdrs0b9y67sf)" height="73.6094" id="RemoveAnchorUseCase" style="stroke: #A80036; stroke-width: 1.5;" width="797" x="6" y="129"/><ellipse cx="326.25" cy="145" fill="#ADD1B2" rx="11" ry="11" style="stroke: #A80036; stroke-width: 1.0;"/><path d="M329.2188,150.6406 Q328.6406,150.9375 328,151.0781 Q327.3594,151.2344 326.6563,151.2344 Q324.1563,151.2344 322.8281,149.5938 Q321.5156,147.9375 321.5156,144.8125 Q321.5156,141.6875 322.8281,140.0313 Q324.1563,138.375 326.6563,138.375 Q327.3594,138.375 328,138.5313 Q328.6563,138.6875 329.2188,138.9844 L329.2188,141.7031 Q328.5938,141.125 328,140.8594 Q327.4063,140.5781 326.7813,140.5781 Q325.4375,140.5781 324.75,141.6563 Q324.0625,142.7188 324.0625,144.8125 Q324.0625,146.9063 324.75,147.9844 Q325.4375,149.0469 326.7813,149.0469 Q327.4063,149.0469 328,148.7813 Q328.5938,148.5 329.2188,147.9219 L329.2188,150.6406 Z "/><text fill="#000000" font-family="sans-serif" font-size="12" lengthAdjust="spacingAndGlyphs" textLength="148" x="346.75" y="149.1543">RemoveAnchorUseCase</text><line style="stroke: #A80036; stroke-width: 1.5;" x1="7" x2="802" y1="161" y2="161"/><line style="stroke: #A80036; stroke-width: 1.5;" x1="7" x2="802" y1="169" y2="169"/><ellipse cx="17" cy="180" fill="#84BE84" rx="3" ry="3" style="stroke: #038048; stroke-width: 1.0;"/><text fill="#000000" font-family="sans-serif" font-size="11" lengthAdjust="spacingAndGlyphs" textLength="771" x="26" y="183.2104">RemoveAnchorUseCase(anchorsRepository:IAnchorsRepository, anchorRemover:IAnchorRemover, gameObjectEditor:GameObjectEditor)</text><ellipse cx="17" cy="192.8047" fill="#84BE84" rx="3" ry="3" style="stroke: #038048; stroke-width: 1.0;"/><text fill="#000000" font-family="sans-serif" font-size="11" lengthAdjust="spacingAndGlyphs" textLength="339" x="26" y="196.0151">«async» removeAzureAnchor(theObject:GameObject) : Task</text><!--MD5=[6b6592b0d425e7ae7d8053c68200ddaa]
reverse link IRemoveAnchorUseCase to RemoveAnchorUseCase--><path d="M404.5,89.5 C404.5,102.62 404.5,116.51 404.5,128.76 " fill="none" id="IRemoveAnchorUseCase&lt;-RemoveAnchorUseCase" style="stroke: #A80036; stroke-width: 1.0;"/><polygon fill="none" points="397.5,89.24,404.5,69.24,411.5,89.24,397.5,89.24" style="stroke: #A80036; stroke-width: 1.0;"/><!--MD5=[73b9051d70111f31432a1488c81e70cc]
@startuml
interface IRemoveAnchorUseCase {
    + removeAzureAnchor(theObject:GameObject) : Task
}
class RemoveAnchorUseCase {
    + RemoveAnchorUseCase(anchorsRepository:IAnchorsRepository, anchorRemover:IAnchorRemover, gameObjectEditor:GameObjectEditor)
    + <<async>> removeAzureAnchor(theObject:GameObject) : Task
}
IRemoveAnchorUseCase <|- - RemoveAnchorUseCase
@enduml

PlantUML version 1.2020.02(Sun Mar 01 10:22:07 GMT 2020)
(GPL source distribution)
Java Runtime: OpenJDK Runtime Environment
JVM: OpenJDK 64-Bit Server VM
Java Version: 11.0.9+11-Ubuntu-0ubuntu1
Operating System: Linux
Default Encoding: ANSI_X3.4-1968
Language: en
Country: US
--></g></svg>