<?xml version="1.0" encoding="UTF-8" standalone="no"?><svg xmlns="http://www.w3.org/2000/svg" xmlns:xlink="http://www.w3.org/1999/xlink" contentScriptType="application/ecmascript" contentStyleType="text/css" height="213px" preserveAspectRatio="none" style="width:817px;height:213px;" version="1.1" viewBox="0 0 817 213" width="817px" zoomAndPan="magnify"><defs><filter height="300%" id="fbb5lwme225iy" width="300%" x="-1" y="-1"><feGaussianBlur result="blurOut" stdDeviation="2.0"/><feColorMatrix in="blurOut" result="blurOut2" type="matrix" values="0 0 0 0 0 0 0 0 0 0 0 0 0 0 0 0 0 0 .4 0"/><feOffset dx="4.0" dy="4.0" in="blurOut2" result="blurOut3"/><feBlend in="SourceGraphic" in2="blurOut3" mode="normal"/></filter></defs><g><!--MD5=[0eb160e9ae310e34686cbb3e28b854ba]
class IRemoveAnchorUseCase--><rect fill="#FEFECE" filter="url(#fbb5lwme225iy)" height="60.8047" id="IRemoveAnchorUseCase" style="stroke: #A80036; stroke-width: 1.5;" width="314" x="249" y="8"/><ellipse cx="326.75" cy="24" fill="#B4A7E5" rx="11" ry="11" style="stroke: #A80036; stroke-width: 1.0;"/><path d="M322.6719,19.7656 L322.6719,17.6094 L330.0625,17.6094 L330.0625,19.7656 L327.5938,19.7656 L327.5938,27.8438 L330.0625,27.8438 L330.0625,30 L322.6719,30 L322.6719,27.8438 L325.1406,27.8438 L325.1406,19.7656 L322.6719,19.7656 Z "/><text fill="#000000" font-family="sans-serif" font-size="12" font-style="italic" lengthAdjust="spacingAndGlyphs" textLength="150" x="347.25" y="28.1543">IRemoveAnchorUseCase</text><line style="stroke: #A80036; stroke-width: 1.5;" x1="250" x2="562" y1="40" y2="40"/><line style="stroke: #A80036; stroke-width: 1.5;" x1="250" x2="562" y1="48" y2="48"/><ellipse cx="260" cy="59" fill="#84BE84" rx="3" ry="3" style="stroke: #038048; stroke-width: 1.0;"/><text fill="#000000" font-family="sans-serif" font-size="11" lengthAdjust="spacingAndGlyphs" textLength="288" x="269" y="62.2104">removeAzureAnchor(theObject:GameObject) : Task</text><!--MD5=[9fb77dbaba9ba700c23ddff1c5ed5b32]
class RemoveAnchorUseCase--><rect fill="#FEFECE" filter="url(#fbb5lwme225iy)" height="73.6094" id="RemoveAnchorUseCase" style="stroke: #A80036; stroke-width: 1.5;" width="800" x="6" y="129"/><ellipse cx="327.75" cy="145" fill="#ADD1B2" rx="11" ry="11" style="stroke: #A80036; stroke-width: 1.0;"/><path d="M330.7188,150.6406 Q330.1406,150.9375 329.5,151.0781 Q328.8594,151.2344 328.1563,151.2344 Q325.6563,151.2344 324.3281,149.5938 Q323.0156,147.9375 323.0156,144.8125 Q323.0156,141.6875 324.3281,140.0313 Q325.6563,138.375 328.1563,138.375 Q328.8594,138.375 329.5,138.5313 Q330.1563,138.6875 330.7188,138.9844 L330.7188,141.7031 Q330.0938,141.125 329.5,140.8594 Q328.9063,140.5781 328.2813,140.5781 Q326.9375,140.5781 326.25,141.6563 Q325.5625,142.7188 325.5625,144.8125 Q325.5625,146.9063 326.25,147.9844 Q326.9375,149.0469 328.2813,149.0469 Q328.9063,149.0469 329.5,148.7813 Q330.0938,148.5 330.7188,147.9219 L330.7188,150.6406 Z "/><text fill="#000000" font-family="sans-serif" font-size="12" lengthAdjust="spacingAndGlyphs" textLength="148" x="348.25" y="149.1543">RemoveAnchorUseCase</text><line style="stroke: #A80036; stroke-width: 1.5;" x1="7" x2="805" y1="161" y2="161"/><line style="stroke: #A80036; stroke-width: 1.5;" x1="7" x2="805" y1="169" y2="169"/><ellipse cx="17" cy="180" fill="#84BE84" rx="3" ry="3" style="stroke: #038048; stroke-width: 1.0;"/><text fill="#000000" font-family="sans-serif" font-size="11" lengthAdjust="spacingAndGlyphs" textLength="774" x="26" y="183.2104">RemoveAnchorUseCase(anchorsRepository:IAnchorsRepository, anchorRemover:IAnchorRemover, gameObjectEditor:IGameObjectEditor)</text><ellipse cx="17" cy="192.8047" fill="#84BE84" rx="3" ry="3" style="stroke: #038048; stroke-width: 1.0;"/><text fill="#000000" font-family="sans-serif" font-size="11" lengthAdjust="spacingAndGlyphs" textLength="339" x="26" y="196.0151">«async» removeAzureAnchor(theObject:GameObject) : Task</text><!--MD5=[6b6592b0d425e7ae7d8053c68200ddaa]
reverse link IRemoveAnchorUseCase to RemoveAnchorUseCase--><path d="M406,89.5 C406,102.62 406,116.51 406,128.76 " fill="none" id="IRemoveAnchorUseCase&lt;-RemoveAnchorUseCase" style="stroke: #A80036; stroke-width: 1.0;"/><polygon fill="none" points="399,89.24,406,69.24,413,89.24,399,89.24" style="stroke: #A80036; stroke-width: 1.0;"/><!--MD5=[500d4a6e85d4774b818d2c9ef95ed090]
@startuml
interface IRemoveAnchorUseCase {
    + removeAzureAnchor(theObject:GameObject) : Task
}
class RemoveAnchorUseCase {
    + RemoveAnchorUseCase(anchorsRepository:IAnchorsRepository, anchorRemover:IAnchorRemover, gameObjectEditor:IGameObjectEditor)
    + <<async>> removeAzureAnchor(theObject:GameObject) : Task
}
IRemoveAnchorUseCase <|- - RemoveAnchorUseCase
@enduml

PlantUML version 1.2020.02(Sun Mar 01 10:22:07 GMT 2020)
(GPL source distribution)
Java Runtime: OpenJDK Runtime Environment
JVM: OpenJDK 64-Bit Server VM
Java Version: 11.0.9+11-Ubuntu-0ubuntu1
Operating System: Linux
Default Encoding: ANSI_X3.4-1968
Language: en
Country: US
--></g></svg>